<?xml version="1.0" encoding="utf-8"?>
<!-- Generator: Adobe Illustrator 23.1.0, SVG Export Plug-In . SVG Version: 6.00 Build 0)  -->
<svg version="1.1" id="Layer_1" xmlns="http://www.w3.org/2000/svg" xmlns:xlink="http://www.w3.org/1999/xlink" x="0px" y="0px"
	 viewBox="0 0 5442.5 3061.4" style="enable-background:new 0 0 5442.5 3061.4;" xml:space="preserve">
<style type="text/css">
	.st0{clip-path:url(#SVGID_2_);}
	.st1{fill:#593529;}
	.st2{fill:#9B664E;}
	.st3{opacity:0.11;}
	.st4{fill:#FFFFFF;}
	.st5{fill:#704533;}
	.st6{fill:#7C5142;}
	.st7{fill:#875940;}
	.st8{opacity:0.13;}
	.st9{fill:#562117;}
	.st10{fill:#C9C8C7;}
	.st11{opacity:0.15;}
	.st12{fill:#B7B7B7;}
	.st13{fill:#72392B;}
	.st14{opacity:0.48;}
	.st15{fill:#B98462;}
	.st16{fill:#474747;}
	.st17{opacity:9.000000e-02;}
	.st18{opacity:0.19;}
	.st19{opacity:0.28;}
	.st20{fill:#2D0E0A;}
	.st21{opacity:0.34;}
	.st22{opacity:0.26;}
	.st23{fill:#FCD2BE;}
	.st24{fill:#FFE4D9;}
	.st25{fill:#F4BBA4;}
	.st26{fill:#9E9E9E;}
	.st27{opacity:0.41;}
	.st28{clip-path:url(#SVGID_4_);}
	.st29{opacity:0.12;}
	.st30{clip-path:url(#SVGID_6_);}
	.st31{opacity:0.32;}
	.st32{fill:#110403;}
	.st33{opacity:0.1;}
	.st34{fill:#E5B69C;}
	.st35{fill:#491A17;}
	.st36{clip-path:url(#SVGID_8_);}
	.st37{opacity:0.57;}
	.st38{opacity:0.17;}
	.st39{fill:#331110;}
	.st40{clip-path:url(#SVGID_10_);}
	.st41{opacity:0.72;}
	.st42{opacity:7.000000e-02;}
	.st43{fill:#B5B5B5;}
	.st44{clip-path:url(#SVGID_12_);}
	.st45{fill:#D39F85;}
	.st46{fill:#EFC5AF;}
	.st47{opacity:0.52;}
	.st48{opacity:0.36;}
	.st49{clip-path:url(#SVGID_14_);}
	.st50{opacity:0.75;}
	.st51{fill:#8B0703;}
	.st52{fill:#515151;}
	.st53{fill:#7F7F7F;}
	.st54{fill:#683029;}
	.st55{fill:#441711;}
	.st56{fill:#5B5B5B;}
	.st57{fill:#666666;}
	.st58{clip-path:url(#SVGID_16_);}
	.st59{opacity:0.4;}
	.st60{clip-path:url(#SVGID_18_);}
	.st61{opacity:0.38;}
	.st62{fill:#333333;}
	.st63{fill:#7C7C7C;}
	.st64{fill:#232323;}
	.st65{fill:#A0A0A0;}
	.st66{opacity:0.14;}
	.st67{opacity:6.000000e-02;}
	.st68{clip-path:url(#SVGID_20_);}
	.st69{opacity:0.46;}
	.st70{fill:#D19574;}
	.st71{clip-path:url(#SVGID_22_);}
	.st72{clip-path:url(#SVGID_24_);}
	.st73{fill:#FFBFA6;}
	.st74{fill:#F79479;}
	.st75{fill:#FFCBBB;}
	.st76{clip-path:url(#SVGID_26_);}
	.st77{fill:#770101;}
	.st78{fill:#A51111;}
	.st79{fill:#C99377;}
	.st80{fill:#EAEAEA;}
	.st81{fill:#CC2B2B;}
	.st82{fill:#EDEDED;}
	.st83{clip-path:url(#SVGID_28_);}
	.st84{clip-path:url(#SVGID_30_);}
	.st85{clip-path:url(#SVGID_32_);}
	.st86{fill:#B21F1F;}
</style>
<title>coffeeManIdea</title>
<g>
	<defs>
		<rect id="SVGID_1_" x="2859.7" y="290.1" width="2581.5" height="2763.8"/>
	</defs>
	<clipPath id="SVGID_2_">
		<use xlink:href="#SVGID_1_"  style="overflow:visible;"/>
	</clipPath>
	<g class="st0">
		<g id="Layer_1-2">
			<g id="COFFEE_KETTLE">
				<path class="st1" d="M3484.5,2659.3c10.4-5.8,14.7-18.7,20.6-28.9c4.7-8,14.3-22.9,7.9-32c-5.3-7.7-22-12.3-30.6-13.6
					c-9.2-1.5-18.5-1.9-27.7-1.3c-21.2,2-14,22-13.2,35.9c0.6,9.8-2.7,26,3.3,34.2c7,9.7,23.9,10.8,34.5,7.8
					C3481.1,2660.9,3482.8,2660.2,3484.5,2659.3z"/>
				<path class="st2" d="M3536.7,2683.2c-10.1-10.4-22.1-18.8-35.3-24.8c-6.8-3.3-34.6-12.2-34.9-12.2c-2.9-0.6-5.8-1.2-8.7-1.8
					c-2.9-0.6-38.1-5-45.6-4.7c-14.6,0.2-29,3-42.6,8.4c-9.6,4.1-36.9,21.6-34.5,34.7c1.6,8.4,14.7,6.7,20.6,7.4
					c19.1,2.3,43,8.2,65.7,14l-0.3,1.6c6.9,1.4,14.3,2.8,22.4,4.1c7.8,2,15.3,3.8,22.2,5.2l0.4-1.6c23.3,3.8,47.4,7.9,65.8,13.6
					c5.7,1.7,17,8.6,21.9,1.5C3561.5,2717.7,3543.9,2690.7,3536.7,2683.2z"/>
				<g class="st3">
					<path class="st4" d="M3484.8,2638.2c3.6-1.6,6.8-4,9.3-7c1.7-1.8,3.2-3.8,4.4-6c0.4-0.8,0.9-1.6,1.4-2.3c-1.4,2.3,1-0.8,1.3-1
						c5.4-5.9,4.9-15-0.9-20.4c-7.5-6.7-18-3.8-23,4c-6,9.3-5.6,23.5,2.3,31.6C3481,2638.3,3482.9,2638.7,3484.8,2638.2
						L3484.8,2638.2z"/>
				</g>
				<path class="st5" d="M3547.3,3237.3c0.3,0,1.1-2.2,1.4-2.1l-185.2-38.9l-48.6-10.2l-185.3-38.9c0.3,0,0,2.3,0.3,2.3
					c-18.4,39.3,35,69.5,65.9,76l105.5,22l24.4,5.1l24.4,5.2l105.5,22.3C3486.6,3286.7,3547.8,3280.5,3547.3,3237.3z"/>
				<path class="st6" d="M3217.1,3004.5c-6.2-9.3-14.9-16.3-21-26.1c-8.3-14-14-29.4-16.7-45.4c-6.1-31.3-4.7-63.8-1-95.3
					c4.2-36.3,2.8-72.9-0.9-109.1c-2.5-23.6-10.4-46.4-23.1-66.4c-5.7-8.9-13-20.8-21.9-27.1c-9.3-6.7-24.7-8.6-36-10.5
					c-5.3-0.9-19.6-4.9-24.5-0.8c-3.2,2.6-2.6,3.6-0.7,7.6c1.2,2.3,40.1,34.7,48.4,69.3c16.9,70.8,11.9,114.4,2.5,150.7
					c-9.6,37.6-31.7,72-42.4,109.7c-10,35-12,79.3,3.4,112.8c5.8,12.6,16.3,26,24.8,37c9.7,12.9,22.7,23,37.6,29.2
					c16.5,6.6,28.4-17.4,36.3-27.6c11.9-15.6,19.9-33.7,27.5-51.6c6.5-15.3,19.1-34,10.9-50.9
					C3219.4,3008,3218.3,3006.2,3217.1,3004.5z"/>
				<path class="st7" d="M3550,3227.7c1.7-40.4-2.8-80.8-6.1-121.1c-2.3-27.4,0-53.9-2-81.5c-3.1-44.1-0.8-70.9,2.9-132.2
					c2.3-40,1.6-54.6,7.2-117.9c0.7-8.5,9.3-41,3.8-48.8c-4.7-6.5-15.4-4.9-22.2-6.3l-34.2-7.2l-9.6-2l-37.3-7.8l-13.9-3l-37.3-7.9
					l-9.6-2l-34.3-7.2c-6.8-1.4-16.1-7.2-22.9-3.1c-8.4,4.9-14,38-16.7,46.1c-21.3,60-28,72.9-42.5,110.5
					c-23.9,61.9-31.1,82.9-52.2,121.9c-13.3,24.5-22.2,49.4-35.7,73.6c-19.8,35.5-40.6,70.5-56,108.1c-1.1,2.2-1.6,4.6-1.6,7
					c0.6,3.7,3.1,6.7,6.6,8c7.2,3,18.2,3.3,25.9,5c20.1,4.2,41.1,7,61.6,11.2l53.5,11.2l3.6,0.7l34.2,7.2l46.4,9.7l34.2,7.2l3.6,0.7
					l53.5,11.2c20.5,4.3,40.8,10.3,60.9,14.6c7.7,1.6,18,5.8,25.7,5.9c3.7,0.2,7.3-1.6,9.3-4.7
					C3549.6,3232.6,3550.1,3230.2,3550,3227.7z"/>
				<path class="st5" d="M3641.1,3119.8l0.7-0.7c4.7-5,5.7-12.6,7.2-19.1c1.6-7.5,2.9-15,4.2-22.6c8.2-47.5,17.7-94.5,24.2-142.3
					c3.1-22.2,3.6-44.6,1.7-66.9c-1.5-16.4-14.6-25.7-29.8-30.2c-17.7-5.2-36-8.6-54.4-10.1c-13.6-1.1-34.2,1.7-45.6-5.6
					c-3.5-2.5-5.8-6.2-6.4-10.4c-0.6-4.1-0.4-8.3,0.5-12.3c3.5-18.5,40.6-13,54.7-12.2c25.2,1.4,50.3,5.8,74.5,12.9
					c18.5,5.5,36.5,19.7,44.8,36.8c14.7,30.3,10,62.4,5.3,94.2c-5.2,35.3-15.1,69.8-21,105c-4.1,24-8.2,48-12.9,71.9
					c-3.5,17.8-4.7,35-15.3,50.4c-11.3,16.8-45.1,12.5-62.4,11.7c-14.2-0.6-28.2-2.1-42.4-3.7c-11.7-1.3-28.7,5.9-30.6-8.9
					c-1-7.5-2.3-22.3,1.9-28.7c5.6-8.8,25.7-4.7,34.5-4c10.5,0.9,21,2,31.6,3C3617.9,3128.9,3632.1,3128.5,3641.1,3119.8z"/>
				<g class="st3">
					<path class="st4" d="M3158.1,2810c-3.6,16.1-10.7,31.1-15.2,46.9c-4.6,17.4-7.3,35.3-8,53.2c-0.9,16.9,0.7,33.8,4.8,50.1
						c4.2,16.7,12.9,36,26,47.8c13.1,11.8,34.2-5.4,23.6-19.6c-4.8-6.2-10-11.7-14.3-18.2c-3.6-5.9-6.5-12.1-8.7-18.7
						c-5.1-14.5-6.5-29.8-6.8-45c-0.3-16.2,1.7-32.2,2.7-48.3c0.9-15.6,0.5-31.3,2.8-46.8c0.3-1.9-1-3.7-2.9-4c0,0,0,0,0,0
						c-1.8-0.3-3.6,0.8-4.1,2.6H3158.1z"/>
				</g>
				<g class="st3">
					<path class="st4" d="M3630.9,2813.1c2.1,7,12.9,8.5,18.9,10.1c8.2,2.2,15.9,5.9,22.7,10.9c10.5,7.7,25.9,24.5,21.2,38.8
						c-1.9,5.8,2.2,11.7,7,14.6c3.2,1.7,7,2.1,10.5,0.9c5.8-1.8,9.7-7.4,9.3-13.5c-1.6-12.2-2.6-22.1-8.9-33.1
						c-6.2-10.1-14.6-18.7-24.6-25.1c-9.4-6.4-20-11-31.1-13.6C3649.8,2801.8,3627.4,2801.2,3630.9,2813.1L3630.9,2813.1z"/>
				</g>
				<g class="st8">
					<path class="st4" d="M3409.6,3245.6c3.5,10.1,15.4,14.7,25.1,17.5c11.5,3.3,25.2,8.1,35.6-0.2c6.5-4.4,8.4-13.1,4.3-19.8
						c-5.5-10.8-18.3-12.6-29.3-14.1c-11-1.5-25-3.2-33.2,5.5C3409.2,3237.5,3408.3,3241.8,3409.6,3245.6L3409.6,3245.6z"/>
				</g>
				<path class="st9" d="M3286.4,3067.2c4.8-1.9,7.1-7.4,5.1-12.2c0-0.1,0-0.1-0.1-0.2c-0.1-0.3-0.3-0.6-0.5-0.9
					c-3.3-5.3-9.2-8.4-15.4-8.1c-14.9,0.3-27.1,14.9-32.1,27.3c-5.1,12.8-5.5,29.2,7.8,37.3c7.3,4.3,15.9,5.9,24.2,4.2
					c7.2-1.2,16.7-4.7,19.1-12.2c0.3-1.4-0.6-2.7-1.9-3c0,0,0,0,0,0c-4-0.7-8.5,0.8-12.3,2c-5.3,1.9-11,2.5-16.5,1.7
					c-10.2-2-12.7-10.2-11-19.1c1.8-8.1,6.1-15.5,12.2-21c3.4-3.4,7.8-5.4,12.5-5.8c5.4-0.2,5.6,2.6,5.2,6.8
					C3282.5,3065.9,3284.2,3068.1,3286.4,3067.2L3286.4,3067.2z"/>
				<path class="st9" d="M3302.3,3089.2c-3.8-5.9-10.7-1.4-13.2,3.3c-2.8,6.1-3.2,13-1.1,19.3c2.8,8.3,13.4,14.8,21.9,11
					c7.3-3.3,13.2-9.1,16.5-16.4c4.7-11.5-2.3-23.1-14-26.5c-5.9-1.6-12.3-0.5-17.2,3.1c-5.5,4.2-10.3,13.1-5.5,19.4
					c1.5,2.1,4.4,2.8,6.6,1.4c3-2.1,4.5-5.8,6.4-8.2c1.5-1.9,2.8-2.1,5.5-2.1c2.2,0.2,4.3,0.8,6.3,1.7c2.4,0.9,4.2,2.8,5,5.2
					c1.2,3.7-1.5,7.2-4,9.6c-4.1,4-10.6,4-14.6,0c-0.4-0.4-0.7-0.7-1-1.1c-1.4-2.8-2-6-1.6-9.2c0-3.7,0-5.6,3.3-7.7
					C3302.5,3091.4,3302.8,3090.2,3302.3,3089.2C3302.2,3089.3,3302.2,3089.3,3302.3,3089.2L3302.3,3089.2z"/>
				<path class="st9" d="M3366,3074c0-9.1-9.3-10.5-16.3-7c-9.9,5.1-12.5,15.4-12.8,25.7c-0.4,12.6,2.8,24.8-3.4,36.7
					c-1.9,3.2-4.5,6-7.6,8.1c-3.8,2.7-4.4,1.6-8.2,0.2c-2.9-1.4-6.3-0.2-7.7,2.6c-0.4,0.8-0.6,1.8-0.6,2.7
					c0.1,10.3,11.9,11.9,19.5,8.3c8.2-4.3,14.6-11.3,18.2-19.8c5.2-11.4,3.7-24,2.9-36c-0.7-5.2,0-10.4,2.2-15.2
					c1.5-2.8,8.2-6.5,11.3-4.7c0.9,0.4,2,0.1,2.4-0.8C3366,3074.6,3366,3074.3,3366,3074L3366,3074z"/>
				<path class="st9" d="M3402.3,3082.7c1.5-6.4-4.1-11-9.7-12.9c-4.8-1.5-9.7,1.3-12.9,4.5c-9.3,9.1-8.6,24.2-10.8,36
					c-1.2,8.2-2.9,16.4-5,24.4c-1.1,4-3,7.7-5.6,10.8c-2.7,3.1-6.7,3-9.9,6.2c-1.9,2-2.1,5-0.6,7.3c7.8,9.1,19,0.9,23.9-6.5
					c4.9-7.4,7.4-17.9,9-26.9c1.6-9,2.9-17.6,3.7-26.4c0.5-5.3,1.5-12.2,4.5-16.4c0.4-0.5,1-1.5,1.7-1.3c3.2,1.2,5.3,3.3,9,3.4
					C3400.9,3084.7,3401.9,3083.8,3402.3,3082.7L3402.3,3082.7z"/>
				<path class="st9" d="M3327.4,3106.1c3.8-5.9,13.8-3.6,19.5-2.3c9.2,2.2,17.9,6.2,25.7,11.7c10.5,7,21.3,13.2,34.4,11
					c7.9-1.3,16.8-1.6,22.2-8.2c6.3-7.7,2.6-18.8-6.1-22.8c-10.5-4.7-24.1,0.4-30.3,9.3c-5.9,8.6-7.9,21-0.9,29.5
					c7,8.5,21.8,12.9,32.1,8.9c2-0.6,3.5-2.3,4-4.4c0.4-3.5-1.7-7.7-6.2-7c-4.7,0.9-9.6,0.7-14.2-0.4c-11-2.9-11.2-13.6-4.7-21.4
					c3.2-3.6,7.9-5.4,12.7-4.9c3.2,0.4,6.4,2.3,4.8,5.8c-1.9,3.8-12.6,3.5-16.3,4c-10.5,1.4-20.2-7-28.3-12.4
					c-6.6-4.3-13.9-7.6-21.5-9.6c-10.5-2.9-34.3-5.3-32.5,11.9c0.2,1.8,1.7,3,3.5,2.9c0,0,0,0,0,0c1-0.1,2-0.7,2.5-1.6
					L3327.4,3106.1z"/>
				<path class="st9" d="M3406.7,3136.9c3.2,3,7.2,5.2,11.5,6.2c4.2,0.7,8.4,0.7,12.6,0c7.9-0.9,15.6-2.8,23-5.9
					c7.7-3.5,12.6-9.9,10.5-18.5c-2.1-8.5-12.4-10.5-19.6-8.8c-13.7,3.1-20.8,21.2-18,33.4c1.9,8.4,9.8,14,18.1,15.2
					c6.6,1,19.1,1,23.6-4.7c2.3-2.6,2.1-6.5-0.5-8.8c0,0-0.1-0.1-0.1-0.1c-0.3-0.3-0.7-0.6-1.1-0.8c-7.6-3.8-17.8,3.8-25.1-1.9
					c-5.7-4.4-1.6-15.6,2.9-19.3c1.7-1.4,9.3-4.2,8.5,0.5c-0.6,3.9-10.3,5.4-13.2,6.1c-10.5,2.5-21.3,3.8-32.1,4.1
					c-1.1,0.1-1.9,1-1.9,2.1c0,0,0,0,0,0c0.1,0.5,0.3,0.9,0.6,1.3V3136.9z"/>
				<g class="st3">
					<path class="st4" d="M3453.1,2753c-0.3,1.7-0.5,3.3-0.8,5c-1.1,6.7-2.7,3.9,5.2-6.5c-4.7,6.4-8.2,13.7-10.1,21.5
						c-2.3,7.8-4.6,15.6-7,23.5c-1.2,3.8-2.3,7.6-3.5,11.3c6.5-21-3.6,8.6-2.6,5.6c-0.6,1.9-1.1,3.9-1.5,5.9c-2,8.8-4,17.6-6.1,26.4
						c-8.2,35.3-15.4,70.5-22.3,105.8c-7.1,37.2-12.1,74.7-14.8,112.5c-1.7,22.1-3.6,44.7-2.3,66.8c1,17.7,7.7,35.8,22,47.5
						c25.9,21.2,68.8,23.9,91.8-4.1c12.5-15.2,18.5-31.3,17.1-51c-0.2-2.9-0.3-5.8-0.4-8.7c-0.2-7,0-13.8,0.2-20.7
						c0.6-18.4,1.9-36.8,3.3-55.2c-0.4,5.7-0.9,11.5-1.3,17.1c4.2-53.2,3.7-106.7,3.9-160.1c0-24.5-1.5-49.2-2.6-73.7
						c-0.5-4.4-1.3-8.7-2.3-13c-1.5-3.9-1.3-2.3,0.6,5.1c-0.3-2.6-0.6-5.2-1-7.8c-0.7-5.7-1.4-11.4-2.2-17.1
						c-0.8-5.7-1.4-10.9-2.3-16.3c-0.1-3.4-0.9-6.7-2.3-9.8c-4.9-10.7-4.9-9.7,0.3,2.9c0-2.8-0.2-5.6-0.3-8.4
						c-0.9-13.1-10.4-24.1-23.3-26.8C3473,2727.4,3455.5,2737.3,3453.1,2753L3453.1,2753z"/>
				</g>
				<path class="st4" d="M3494.7,2882.3c3.3-16.6,7.9-34.7,4.7-51.7c-0.7-7-7-12.1-14-11.4c-7,0.7-12.1,7-11.4,14l0,0
					c0.1,0.7,0.2,1.4,0.4,2.1c3.2,15.2,7.2,30.3,7,46C3481.3,2888.7,3493.1,2889.4,3494.7,2882.3L3494.7,2882.3z"/>
			</g>
			<g id="COFFEE_CUP">
				<path class="st10" d="M5611.3,1390.1c96-51.6,140.2-143,152.7-182.9c56.6-179.9-14.2-367.1-164-432.1
					c-100.9-43.8-216.3-56-320.1-12.3c-59.6,25.1-117,78.2-150.9,135.7c-52.1,88.6-56.4,226.1-14.6,320.3
					c38.6,87.3,86.2,142.7,208,184.3C5420.8,1436.7,5528.7,1434.5,5611.3,1390.1z"/>
				<g class="st11">
					<path class="st4" d="M5601.5,1355.5c86.7-46.5,126.5-129.1,137.8-165.1c51.1-162.4-12.8-331.3-148-389.9
						c-91.2-39.5-195.2-50.6-288.9-11.1c-53.8,22.8-105.6,70.5-136.2,122.5c-47,80-50.9,204-13.2,289.1
						c34.8,78.8,77.9,128.8,187.8,166.4C5429.7,1397.4,5527,1395.4,5601.5,1355.5z"/>
				</g>
				<path class="st12" d="M5191.7,1006.6c-1.7-0.4-3.5-0.5-5.2-0.2c-5.2,0.8-8.8,5.6-8.1,10.8c0.1,0.7,0.2,1.4,0.5,2.1
					c9.1,32.9,44.3,37.4,71.2,44.2l-19.1-21.5c1.9,35.1-3.3,70.3,3,105.2c6.6,33.6,20.3,65.4,40.2,93.3
					c35.2,50.4,92.5,65.2,149.2,66.6c52.4,1.3,110.9-10.6,152.1-46.6c25.8-22.4,43.3-52.8,49.9-86.3c3-15.1,3.5-30.7,5.1-46
					c1.9-18.5,2.8-35-2.2-53.1c-2.6-9.8-6.2-17.5-13.8-24.1c-7.6-6.6-20.9-4.5-24.9,5.7c-9.1,23.4-10.5,50.5-12.8,75.5
					c-1.3,13.7-1.7,28.3-5.7,41.6c-4.1,12.6-10.8,24.3-19.6,34.2c-14.6,17.4-35.8,27.7-57.8,34.6c-16.2,5-41.5,8.1-62.7,8.8
					c-19.2,0.6-46.6-2.3-63.7-8.1c-22.7-7.6-36.5-17.5-49.3-35.1c-15.2-20.9-28.5-47.4-33.3-73.3c-6.1-32-3.3-65.4-7.6-97.7
					c-1-10.6-8.7-19.3-19.1-21.5c-22.8-3.8-46.2-6.2-69-9.2l7.4,11l0.4-0.7c2.5-4.2-1.1-9.2-5-10.1L5191.7,1006.6z"/>
				<path class="st4" d="M5188.4,984.6c-7.5,5.5-11,15-9,24c2,8.9,8.1,16.4,16.4,20.1c4.4,1.8,9,3.2,13.7,3.9
					c17.9,3.5,35.8,6.3,53.9,8.5c18.6,2.3,27.9-28.7,14.6-40.9c-11.4-10.5-30.8-9.7-44.7-13.8c-9.1-3.1-18.5-5-28.1-5.7
					C5199.4,980.2,5193.5,981.6,5188.4,984.6z"/>
				<path class="st4" d="M5608.5,1121.2c7.7-48,10.8-103.2-16.6-142.6c-44.3-63.9-90.5-76-143.3-79.8c-28.5-2-57.8-0.5-85.2,8.5
					c-34.8,11.4-67.1,33.3-87.3,65.8c-12.6,20.3-25.4,40.6-26.4,65.1c-0.5,11.9-0.9,23.8-1.1,35.7c-1.5,68.4,26.4,127,81.9,164.2
					c41.4,27.7,91.8,32.9,139.3,24.3C5536.3,1250.2,5594.2,1209.7,5608.5,1121.2z"/>
				<path class="st13" d="M5580.6,1114.4c6.4-39.9,6.2-83.9-13.8-118.7c-29.6-51.3-75.3-63.3-119.2-66.4
					c-23.8-1.7-48.2-0.5-70.9,7.1c-28.9,9.6-55.9,27.7-72.7,54.7c-10.5,16.9-21.1,33.8-22,54.1c-0.4,9.9-0.7,19.8-0.9,29.7
					c-1.2,56.8,22,105.8,68.2,136.8c34.4,23.1,76.4,27.4,116,20.2C5520.7,1221.9,5568.8,1188.1,5580.6,1114.4z"/>
				<g class="st14">
					<path class="st15" d="M5468.3,1148.7c15.2-12.7,27-39.7,31.7-54.6c6.5-20.8,17.8-56.4-0.3-74.3c-19.2-18.9-45.6-16-62.7,3.6
						c-5.1,5.7-7.2,16-12.7,20.8c-12.3,10.8-29.1-6-42.3-6.9c-15.4-1.1-33.4,12.6-37.8,28c-10,35.7,30.1,59,56.3,69.3
						c16.2,6.4,36.3,23.8,54.8,20.8C5460.1,1154.3,5464.6,1152,5468.3,1148.7z"/>
				</g>
				<path class="st16" d="M5136.2,1261.4l-0.7,0.4c-10.3,6.6-18.5,16.2-27.8,24.2c-16.2,13.8-32.6,27.7-47.8,42.9
					c-21.6,21.6-39.6,46.6-67.7,59.6c-20.7,9.5-40.5-12.2-26.6-32.9c24.5-36.3,62.4-57.6,99.1-77.7c15.5-8.5,33.4-16,47-27.7
					c13.6-11.7,18.2-24.7,25.2-41.3c7.8-18.5,53.5-49,72.5-35.3c22,15.8-2.2,48.8-14.4,62.7c-7.3,8.5-16,16.6-26.7,18.7
					C5156,1257.7,5147.9,1254.3,5136.2,1261.4z"/>
				<g class="st11">
					<path class="st4" d="M5195,1195.2c-2.7,1.3-5.6,2.3-8.5,2.8c-4,1.7-7.8,3.9-11.4,6.4c-8.3,4.6-17.9,9.1-24.2,16.7
						c-11,13.4,3.2,30.2,17.6,26.1c9.7-2.8,17.3-11.9,23.8-19.3c3.3-4.2,6.2-8.8,8.5-13.6c2.2-3.9,1.6-9.2,2.8-13.4
						c1.4-5.2-5-8-8.5-5.7L5195,1195.2z"/>
				</g>
				<g class="st11">
					<path class="st4" d="M5178.2,1238.7c2.1,0.3,4.2-1.1,4.5-3.3c0,0,0,0,0-0.1c0.4-2.2-1-4.3-3.2-4.7l0,0
						c-2.1-0.3-4.1,1.1-4.5,3.3c0,0,0,0.1,0,0.1C5174.7,1236.1,5176.1,1238.2,5178.2,1238.7z"/>
				</g>
				<g class="st17">
					<path class="st4" d="M5055.7,1305.4c-14.5,8-27.8,18.2-39.3,30.1c-6.1,6.1-12.5,11.8-19,17.4c-6.1,5.2-13.5,8.3-14.8,17.1
						c-0.6,3.3,1.1,6.5,4,8.1c14.2,5.4,27.8-12.7,36.7-22.2c12.5-13.5,23.4-29.2,36.7-41.7c3.6-3.4,0.8-11.4-4.4-8.5L5055.7,1305.4z
						"/>
				</g>
				<g class="st18">
					<path class="st15" d="M5431.1,962.3c19.7,3,38.6,9.6,55.8,19.5c14,8.5,25,20.9,35.3,33.7c12.5,15.5,19.1,31,19.9,51.5
						c-0.3,9.8-1.7,19.5-4.4,28.9c-2.2,10.3-7.7,19.9-6.8,30.7c0.4,4.9,4.7,8.6,9.6,8.2c0,0,0.1,0,0.1,0c0.7-0.1,1.4-0.3,2.1-0.5
						c21.1-8.8,27.1-42.7,27.7-63.7c1-25.4-7.3-50.3-23.2-70c-12.5-15.7-27.2-30.8-45.1-39.5c-22.5-10.9-46.6-10.7-70.6-7.8
						c-2.4,0.6-3.9,3-3.4,5.5C5428.4,960.4,5429.6,961.8,5431.1,962.3L5431.1,962.3z"/>
				</g>
				<g class="st18">
					<path class="st15" d="M5441.1,975.2c-24.2-6.4-65.4-18.1-81.3,10.8c-2.2,4.1,1.7,7.7,5.3,7.8c12.2,0.3,23.9-5.7,36.2-6.4
						c13.1-0.8,26.4,0.2,39.4-0.1C5447.5,987.1,5447,976.8,5441.1,975.2L5441.1,975.2z"/>
				</g>
				<g class="st19">
					<path class="st20" d="M5309.4,1059.2c-14.9,23.7-8.8,51.6-1.2,77.3c8.4,28.1,28.7,46.2,51.6,61.5
						c23.5,15.7,50.3,22.5,77.9,23.5c25.2,0.9,60-4.6,80-22.1c6.6-5.4,7.8-15,2.8-21.9c-3.7-5.3-10.5-7.5-16.7-5.4
						c-9,2.7-17.4,7.3-26.7,9.5c-10.8,2.4-21.9,3.6-33,3.4c-21.2-0.4-42-6.1-60.4-16.6c-17.9-10.1-33.6-23.1-44-41.7
						c-5.1-10.1-9.4-20.7-12.8-31.5c-3.7-10.3-9.5-22.8-10.9-33.8c-0.4-3.2-4.9-5.4-6.9-2.3L5309.4,1059.2z"/>
				</g>
				<g class="st21">
					<path class="st4" d="M5515.7,826.3c13,8.9,25.6,18.7,38.6,27.7c15.6,11.1,30.1,23.4,43.5,37c12.5,12.5,24.2,24.1,34.2,38.9
						c10.3,15.6,19.1,32.2,26,49.5c13.6,33.8,20.5,69.9,20.4,106.3c-0.1,19.1-2,38.2-5.7,57c-1.9,10-4.9,19.7-8.8,29.1
						c-5.3,12.7-5,22.8-5.1,36.1c-0.1,11.7,13.8,19.5,23.4,15.2c11.9-5.2,22.5-10.5,28.5-23.6c5.5-12.6,9.8-25.6,13-38.9
						c6-23.7,7.5-48.6,8.2-73c0.9-43.8-7.1-87.3-23.4-128c-16-41.4-41.2-78.6-73.9-108.7c-15.4-14-35.8-24.6-55-31.8
						c-10.1-3.9-20.6-6.8-31.3-8.5c-10.2-1.6-18.9,0.5-28.7,2.8c-5,1.1-9.5,8.9-3.8,12.8L5515.7,826.3z"/>
				</g>
				<g class="st22">
					<path class="st4" d="M5356.2,810.9c-7.9-2.8-12.7-5-21.5-4.8c-9.7,0.3-20.9,4.6-29.8,8.5c-17.4,7.7-33.7,17.7-48.4,29.7
						c-14.6,11.7-27.4,25.4-38,40.8c-9.3,13.2-22,42.1-11.4,57.7c9.4,14,25.4-3.2,32.5-10.7c12.3-12.8,21.5-28.5,33.9-41.3
						c12.4-12.8,26.7-22.3,40.7-32.5c8.3-6.1,16.4-12.6,24.9-18.5c4-2.8,7.8-6,11.7-9c2.8-2.3,4-5.9,6.6-8.1c3.2-2.8,4-9.9-1-11.6
						L5356.2,810.9z"/>
				</g>
				<path class="st4" d="M5702.7,1223.4c7.7,1.2,14.9-4,16.1-11.7c0-0.1,0-0.2,0.1-0.4c1.4-7.8-3.6-15.3-11.4-16.9
					c-7.7-1.2-14.9,4-16.1,11.7c0,0.1,0,0.2,0,0.3C5689.9,1214.2,5694.9,1221.7,5702.7,1223.4z"/>
				<path class="st4" d="M5620.8,1307.5c-17.9,12-39.6,19.2-59.4,27.5c-9.5,4-19.3,7.5-29.3,10.3c-9.7,2.8-21,4.8-29.5,10.4
					c-2.8,2.2-3.2,6.3-1,9c0.5,0.7,1.2,1.2,1.9,1.6c19.3,10.6,47.1-3.3,65-11.4c21.6-9.7,43.8-20.3,58.3-40.6c1.5-2.1,1.2-5-0.8-6.7
					C5624.5,1306.5,5622.4,1306.4,5620.8,1307.5L5620.8,1307.5z"/>
				<path class="st4" d="M5192.9,1226.8c11.4-6.2,15.8-21.9,14-34.6c-0.1-1.4-1-2.7-2.2-3.4c-5.5-2.2-5.7,4.6-5.9,8.5
					c-0.3,9.8-3.9,18.6-7.4,27.6c-0.4,1,0.5,2.3,1.6,1.8L5192.9,1226.8z"/>
			</g>
			<g id="COFFEE_SHAKE">
				<path class="st23" d="M5073.8,600.7c4.2-2.6,7.2-6.8,8.4-11.7c3.7-15.4-8.2-29.1-22.1-34.6c-13.8-5.4-18.5-12-14.3-25.9
					c5.2-16.9,7.9-33-7.2-46.1c-6.9-5.9-15.8-5.6-22.2-11.7c-10.6-10-4.9-18.6-2.4-29.4c2.5-10.9-4.8-20.1-13-26.3
					c-9.5-7.2-33.2-5.4-36-18.7c-1.6-7.6,2.8-16,2.8-23.6c0.4-13.1-2.3-26.1-7.8-37.9c-2.7-5.4-13.5-23.1-21.7-20.2
					c-7.5,2.7-3,20.5-3,26.3c0.5,32.7-14.5,66.1-41,86.1c-30.8,23.1-72.6,14-108.2,18c-27,3-53.4,21.4-49.2,50.8
					c2.8,19.8,14.7,31.9,31.6,41.4c32.1,18,70.4,27.7,105.4,38.6c36.8,11.4,75.8,22,114.3,25.9
					C5015.8,604.5,5047.8,617.4,5073.8,600.7z"/>
				<path class="st24" d="M4936.5,377.5c-3.7,13.4-5.8,27.4-10.1,40.6c-5.2,15.2-15.4,28.3-28.9,37c-11.8,7.9-24.6,14.1-38.1,18.4
					c-12.8,4.3-28.9,4.6-40.5,11.4c-4.8,2.7-3.4,8.6,1.2,10.5c13.9,5.8,33.1-1.3,46.2-6.1c15.3-5.6,29.4-13.8,42-24.1
					c12.7-10.2,22.4-23.6,28-38.8c5.4-15.3,4.2-32.4,5.4-48.2c-0.1-1.5-1.3-2.6-2.8-2.6c-1.1,0-2.1,0.8-2.4,1.8L4936.5,377.5z"/>
				<path class="st24" d="M4973.6,437.3c-1.1,35-32.5,59.6-62.7,73.3c-16.3,7.5-33.7,10-51.1,13.4c-5.7,1.1-17.1,0.2-20.5,5.8
					c-3.4,5.6,1,10.5,7,11.5c34.1,5.7,70.9-7.6,98.4-26.7c23-16,56.8-50.4,34.6-79.5c-1.9-2.4-5.8-0.4-5.9,2.4L4973.6,437.3z"/>
				<path class="st24" d="M4910.6,568.4c23.5,2.7,47.4,0.4,69.9-6.9c19.5-6.6,48.3-22.1,47.3-45.6c0-2.6-1.3-5-3.5-6.3
					c-0.6-0.3-1.2-0.6-1.8-0.8c-2.5-0.7-5.3-0.1-7.2,1.7c-6.4,6.2-10.8,14-17.3,20.2c-7.6,6.8-16.5,12.1-26.1,15.5
					c-19.6,7.2-40.2,11.3-61,12.3c-2.7-0.2-5.2,1.8-5.4,4.6s1.8,5.2,4.6,5.4C4910.2,568.4,4910.5,568.4,4910.6,568.4L4910.6,568.4
					L4910.6,568.4z"/>
				<path class="st4" d="M4953.2,481.2c1.8,0.5,3.8-0.6,4.3-2.4c0.5-1.8-0.5-3.7-2.3-4.2c0,0-0.1,0-0.1,0c-1.9-0.5-3.8,0.6-4.3,2.4
					C4950.2,478.8,4951.3,480.7,4953.2,481.2C4953.1,481.2,4953.1,481.2,4953.2,481.2z"/>
				<path class="st4" d="M4969.6,550.8c16.2-4,44.2-7.2,45.5-28.7c0-3.8-3.2-6.9-7-6.8c0,0,0,0,0,0c-1.1,0-2.3,0.3-3.3,0.8
					c-6.2,3.6-9.9,10-15,15c-6.6,6.7-12.3,11.7-21.4,15c-1.3,0.3-2.1,1.7-1.8,3C4966.9,550.4,4968.2,551.2,4969.6,550.8
					L4969.6,550.8z"/>
				<path class="st25" d="M4764.3,454.8c-16.4-4.5-20,15-18.1,26.7c3.3,19.7,23.3,28.7,40.8,33.5c21,5.8,42.8,1.9,63.2-4.1
					c11.4-3.3,22.6-7.7,33.3-12.9c8.5-4.1,20.4-10.1,24.7-18.8c1-1.7,0.4-3.9-1.3-4.9c0,0,0,0,0,0c-0.8-0.4-1.7-0.6-2.6-0.4
					c-7.2,1.3-13.3,6-19.8,9.1c-7.9,3.8-16,7-24.3,9.5c-16.8,5-34.3,7.7-51.9,8c-14.8,0.1-29.2-4.4-41.3-12.9
					c-7.6-5.5-12.6-24.3-2.3-29.1c0.9-0.5,1.3-1.7,0.8-2.6c0,0,0,0,0,0C4765.3,455.2,4764.9,454.8,4764.3,454.8L4764.3,454.8z"/>
				<path class="st25" d="M4802.2,546c16.6,18.6,44.1,18,67,14.6c23.3-3.5,52.2-11.1,69.6-27.5c2-1.8,2.2-4.8,0.4-6.8
					c0,0,0,0-0.1-0.1c-1.3-1.4-3.2-1.9-5-1.4c-21.6,6.1-40.8,17.4-62.9,22.4c-22.5,5-45.9,4-67.9-3c-0.6-0.1-1.2,0.2-1.4,0.8
					C4801.8,545.4,4801.9,545.8,4802.2,546L4802.2,546z"/>
				<path class="st10" d="M5075.7,656.3c2.4-13.7-10.4-13.7-19.8-15.6c-44.4-9.1-108-30.7-154.5-44.4l0,0l-4.8-1.3l-6-1.7l0,0
					c-45.8-12.4-103.9-25.2-146.4-40.7c-8.8-3.2-19.7-9.9-25.1,3c-3.5,8.6-3.3,21.2-4.9,30.5c-2.4,13.3-4.3,26.7-6.2,40
					c-3.6,26.1-6.8,52.2-11.3,78.1c-7.8,45.1-13.4,90.6-16.6,136.3c-1.5,22.2-4.1,44.3-6.4,66.4c-3.1,29.1-7.6,64.7,11.3,90.1
					c7.1,9.1,16.5,16.2,27.2,20.6c6.8,3,112.6,33,120,34c11.4,1.8,23.2,0.6,34.1-3.3c29.6-11.6,45.1-44.1,58.2-70.4
					c9.9-20,19.8-40,30.4-59.6c22-40.3,41.9-81.8,59.7-124.1c10.2-24.3,21.7-48.2,32.6-72.1c5.7-12.3,11.2-24.7,16.4-37.2
					C5067.1,675.9,5074.1,665.4,5075.7,656.3z"/>
				<path class="st26" d="M4776.5,1019.5c-42.2-12-52.3-3.8-56.9,14.3c-3.6,14-8.5,30.3-10.6,48.2c-1.1,9.4-6.6,26.1-5.8,42.4
					c0.7,12,21.4,16.6,36.8,20.9c15.4,4.3,34.2,10.4,41.8,1.3c8.9-10.6,12.9-26.1,18.1-38.8c6.2-15.3,11.9-30.7,17.1-46.3
					C4823,1043.5,4818.8,1031.3,4776.5,1019.5z"/>
				<path class="st10" d="M4841.6,1196.7c-3.5-32.4-21.7-62.5-92.8-82.6c-71.1-20.1-102.7-4.1-123.2,21.5
					c-4.8,5.9-10.9,14.3-7.4,21.4c3.7,7.6,15.8,10.6,23.2,12.4c24.1,6.1,145.2,40.4,168.7,47.7c7.2,2.3,19.1,6.1,26.4,1.6
					C4843.2,1214.5,4842.4,1204.2,4841.6,1196.7z"/>
				<path class="st26" d="M5079,809.4c-2.9,9.7-10.2,17.4-19.8,20.8c-15.6,5.3-34.6,2.2-50.3-1.2c-22.9-4.8-42,14.5-37.5,37.8
					c2.1,10.6,25.4,14.9,34.3,16.9c28.4,6.8,69.5,8.1,95.3-9.3c26.5-17.9,48.4-52.1,44.4-84.6c-4.8-41.3-44.9-74-87.6-75.6
					c-9-0.3-27.9-1.3-35.9,2.2c-10.8,4.8-12.8,19.9-13.7,30.1c-3,35.2,53.5,15.4,68.1,40C5080.5,793.5,5081.4,801.8,5079,809.4z"/>
				<g class="st27">
					<path class="st10" d="M5092.7,856.8c9.2-9.9,17.1-20.9,23.6-32.7c7.2-13.6,8-28.2,5.7-43.1c-4.1-27.2-26.4-50.2-53-57.3
						c-13-3.5-18.7,15.8-5.8,19.8c22.1,6.8,34.6,23.1,39.3,44.9c2.6,12.1,0.9,24.7-4.8,35.6c-4.7,9.6-10.9,19.5-9.6,30.7
						c0.2,2.2,2.9,4,4.8,2L5092.7,856.8z"/>
				</g>
				<g class="st27">
					<path class="st10" d="M4789.4,1043c-6.8,9.2-9.1,23-13.8,33.5c-4.2,9.3-15.7,24.9-8.9,34.6c1.8,3.1,5.4,4.6,8.9,3.8
						c6.2-1.6,8.2-4.8,10.4-10.5c2.4-6.7,5.6-13.1,8.3-19.7c4.8-11.4,12-27.6,7.2-39.9c-1.1-3.6-4.9-5.5-8.5-4.4
						C4791.6,1040.9,4790.4,1041.8,4789.4,1043L4789.4,1043z"/>
				</g>
				<path class="st13" d="M4856.4,998.4c-15.6,6.8-34,7.9-52.1,5.3c-23.9-3.4-53.3-10.5-71.1-27.7c-20.1-19.4-17.5-42.2-18.1-67.7
					c-0.7-28.9-1.7-57.5-0.2-86.5c3-57.1,11.2-113.7,19.4-170.2c3.3-22.9,7.7-45.8,10.3-68.6c2-18,8-12.3,24.4-6.8
					c17.7,5.9,35.3,11.7,53,17.3c36.4,11.5,72.9,22.3,109.7,32.3c9.9,2.7,102.3,31.6,105.3,26.5c-28,45.8-44.4,97.1-64.7,146.7
					c-6,14.5-12.3,28.9-18.6,43.4l-20.1,46.2c-14.6,33.3-30.4,63.1-53.2,91.7C4874,988.2,4865.8,994.4,4856.4,998.4z"/>
				<path class="st26" d="M5029.3,615.6c-18.8-4.5-36.7-10.9-55.4-16.2l-59.2-16.7l-22.7-6.5l-55.7-15.6
					c-18.7-5.3-37.4-9.2-55.7-15.2c-17.3-5.7-65.3-33.7-70.4,0.8c-4.6,30.7,49.1,41,181.2,74.7c130.4,40.4,184.6,60.7,197.3,32.3
					C5102.9,621.3,5047,619.8,5029.3,615.6z"/>
				<g class="st27">
					<path class="st10" d="M4853.5,586c18.1,10.4,39.3,16.7,59.3,23.1c16.7,5.3,33.4,10.5,50.2,15.4c14.6,4.2,29.1,8.4,43.6,12.5
						l26.2,7.4c7.9,2.2,16.6,6,24.8,6c5.4,0.2,9.9-4.1,10.1-9.5c0.1-3.5-1.8-6.8-4.8-8.6c-6.3-3.9-14.5-5.2-21.7-7.2l-26.2-7.2
						c-14.8-4.2-29.6-8.4-44.4-12.5c-16.3-4.6-32.8-8.7-49.2-12.8c-21.4-5.3-43.8-11.5-66-12c-1.8,0-3.2,1.5-3.2,3.3c0,0,0,0,0,0
						c0,1.1,0.6,2.1,1.5,2.7L4853.5,586z"/>
				</g>
				<g>
					<defs>
						<path id="SVGID_3_" d="M4856.4,998.4c-15.6,6.8-34,7.9-52.1,5.3c-23.9-3.4-53.3-10.5-71.1-27.7
							c-20.1-19.4-17.5-42.2-18.1-67.7c-0.7-28.9-1.7-57.5-0.2-86.5c3-57.1,11.2-113.7,19.4-170.2c3.3-22.9,7.7-45.8,10.3-68.6
							c2-18,8-12.3,24.4-6.8c17.7,5.9,35.3,11.7,53,17.3c36.4,11.5,72.9,22.3,109.7,32.3c9.9,2.7,102.3,31.6,105.3,26.5
							c-28,45.8-44.4,97.1-64.7,146.7c-6,14.5-12.3,28.9-18.6,43.4l-20.1,46.2c-14.6,33.3-30.4,63.1-53.2,91.7
							C4874,988.2,4865.8,994.4,4856.4,998.4z"/>
					</defs>
					<clipPath id="SVGID_4_">
						<use xlink:href="#SVGID_3_"  style="overflow:visible;"/>
					</clipPath>
					<g class="st28">
						<path class="st9" d="M4642.9,866.6c0.5-23,3.7-45.9,9.6-68.2c5-17,11-33.8,17.8-50.1c7.7-19.4,15.4-38.8,23.2-58.3
							c-0.6,3.2,3.4,5.2,6.7,6l335,85c-28.3,65.1-59.8,128.8-94.4,190.8c-11,19.8-22.5,39.5-37.6,56.5c-6.4,7.7-14.2,14.1-23,18.8
							c-9.4,4.7-20,6.3-30.5,7.4c-48.3,5.5-100.6,2.1-140.2-25.7c-25.2-17.6-43.3-44-53.7-72.6
							C4645.3,927.7,4642.1,896.9,4642.9,866.6z"/>
					</g>
				</g>
				<g class="st29">
					<path class="st4" d="M4843.6,1005.7c1.6-2.7,3.4-5.4,5.3-7.9l-11.3,10.6c20.6-11.7,37.6-31.3,53.9-48.2
						c19.2-19.8,36.5-41.4,51.5-64.6c30.4-47,46.9-103.1,62.9-156.2c11.5-38.2-12.2-79.5-50.9-90.5s-81.1,11.7-92,50.1
						c-7,24.4-13.7,48.9-20.3,73.4c-6.4,23.7-12.3,47.8-19.5,71.3c-3.4,11.2-7.4,22.2-11.7,33.2c-3.8,11-7,22.2-9.6,33.5
						c-1.4,5.1-2.7,10.2-4.1,15.3c-1.6,6.1-2.5,12.2-2.8,18.5c0.7-12.7,0-2.8-0.6,0.3c-3.1,14.9-4.5,30.1-1.2,45.1
						c0-5.2,0.2-10.5,0.2-15.8c-0.5,3.2-1.3,6.2-2.1,9.3c-4.3,15.1,4.4,30.7,19.5,35c0.1,0,0.2,0.1,0.4,0.1
						C4823.5,1021.7,4836.7,1016.6,4843.6,1005.7L4843.6,1005.7z"/>
				</g>
				<g class="st27">
					<path class="st20" d="M4754.2,939.4c5.4-4.1,10.6-7.2,14.8-12.5c4.7-5.8,8.5-12.4,11.1-19.4c4.4-12.1,8.1-24.3,11-36.8
						c6.8-28,8.4-57.2,12.3-85.7c-1,7.6,0.5-3,0.6-3.7c0.6-3.2,1.1-6.4,1.7-9.6c1.1-6.4,2-12.8,3-19.3c2-13.2,4.2-26.4,5.3-39.7
						c0.8-9.4,1.3-18.9,2.2-28.3c0.3-3.1,2.7-19.3,0.6-6.4c0.7-4.4,1.8-8.6,3.4-12.7c7.6-18.9-7.4-41-25.9-46.1
						c-21-6-39.5,6.5-46.9,25.5s-6.5,41-7.1,60.7c-0.7,23.2-4.4,46.1-6,69.1c-1.8,25.9-1.3,52-3,77.9c-0.8,12.7-0.9,25.5-1.3,38.2
						c-0.4,14.9-0.7,30.4,8.7,42.8l-3.8-6.8c0.9,2.8,1.9,5.5,3.1,8.2c1.5,5.3,7.1,8.3,12.3,6.8
						C4751.8,941,4753.1,940.3,4754.2,939.4z"/>
				</g>
				<path class="st24" d="M4987.9,586.1c3.2,5.2,5.2,9,11.3,11.4c7.1,2.6,14.8,3.4,22.2,2.2c11.6-1.8,31.8-6.7,34.6-20.2
					c1-4.8-2.1-10.7-7.9-10.4c-9.6,0.6-18.2,7.2-27.4,9.9c-4.9,1.4-10,2.1-15.1,2.2c-3,0-9,0.5-11.7-0.9
					C4990.3,578.4,4985.5,582.2,4987.9,586.1L4987.9,586.1z"/>
				<path class="st4" d="M5018.8,581.8c4.1,3.9,10.6,3.8,14.5-0.3c1.1-1.1,1.9-2.5,2.4-4c1.4-5.1-1.6-10.4-6.7-11.8
					c-4.2-1.2-8.6,0.5-10.9,4.2c-1,1.6-1.5,3.5-1.5,5.4C5016.3,577.7,5017.2,580,5018.8,581.8L5018.8,581.8z"/>
				<path class="st25" d="M4903.1,575.1c8.1,11.4,28,9,40.1,7.5c14-1.8,31.2-7.6,39.2-19.9c0.7-1.2,0.4-2.8-0.9-3.6c0,0,0,0,0,0
					c-0.6-0.4-1.3-0.5-2-0.3c-12.3,3.9-24.1,8.4-36.9,10.9c-7,1.1-14.2,1.6-21.3,1.4c-5.6,0-11.2-1.1-16.7,0.6c-1.3,0.4-2,1.7-1.6,3
					c0,0,0,0,0,0.1L4903.1,575.1z"/>
				<path class="st25" d="M5001.8,606.3c3.2,1.8,6.9,2.8,10.6,3c2.2,0.2,4.5,0.1,6.7-0.2c1.9-0.6,3.7-1.6,5.3-2.8
					c1.6-1.1,2.4-4,0-4.8c-1.3-0.7-2.6-1.3-4-1.9c-2.2-0.5-4.4-0.5-6.6,0c-3.8,0.5-7.6,1.2-11.3,2.2c-1.3,0.1-2.3,1.3-2.2,2.6
					c0.1,0.9,0.6,1.7,1.5,2L5001.8,606.3z"/>
				<path class="st4" d="M5048.4,642.7c1.7,1.8,4.1,2.9,6.6,3c1.4,0,2.8-0.3,4.1-1c2.4-1.3,3.9-3.8,4-6.5l-0.3,2V640l-0.8,1.9l0,0
					l-1.3,1.6 M5060.6,643.4l-1.7,1.3h0.2l-2.1,0.8c1.7-0.4,3.2-1.3,4.5-2.4c3.7-3.4,3.9-9.2,0.4-12.9c0,0-0.1-0.1-0.1-0.1
					c-3.6-3.7-9.5-3.8-13.3-0.3c-1.8,1.7-2.9,4.1-2.9,6.6c0,2.4,0.9,4.7,2.6,6.5L5060.6,643.4z"/>
				<path class="st4" d="M4959.2,781.3c9.4-23.8,25.5-47.2,28.6-73c1.5-12.4-16.7-13.2-20.7-3c-4.3,11-7.1,22.9-10.8,34.1
					c-4.2,12.5-7.7,25.2-10.5,38.1c-0.8,3.7,1.5,7.4,5.2,8.2c0,0,0,0,0.1,0C4954.5,786.5,4958,784.6,4959.2,781.3L4959.2,781.3z"/>
				<path class="st4" d="M5058.2,751.7c7.1,2,10.3-8.8,3.2-10.8S5051.1,749.7,5058.2,751.7z"/>
				<path class="st4" d="M4760.1,1103c5.3,1.5,10.8-1.5,12.5-6.7c1.5-5.2-1.5-10.7-6.7-12.2c0,0-0.1,0-0.1,0
					c-5.3-1.5-10.8,1.5-12.5,6.7v0.1C4751.9,1096.1,4755,1101.5,4760.1,1103z"/>
				<path class="st4" d="M4804.9,1183.2c-11.1-23.3-28.9-49.8-58-51.4c-4.2-0.1-8.2,2.1-10.5,5.7c-3.5,5.5-1.8,12.8,3.8,16.3
					c0.1,0.1,0.2,0.1,0.3,0.2c0.9,0.6,1.9,1,3,1.3c6.4,1.8,12.5,2.2,18.6,5.3c12.5,6.4,26.2,15.6,34,27.4c1.4,2.4,4.5,3.3,6.9,1.9
					c2.4-1.2,3.3-4.1,2.1-6.5C4805,1183.4,4805,1183.3,4804.9,1183.2L4804.9,1183.2z"/>
			</g>
			<g id="COFFEE_BEANS">
				<path class="st9" d="M5166,1581.3c25,6.9,47.1,21,67.5,36.6c29.9,22.9,56.8,49.5,80,79.1c26.6,33.9,47.5,77,26.1,117.8
					c-19.6,37.5-58,62.7-101.4,62.5c-39.9-0.2-79.6-13.3-115.2-29.9c-56.4-25.9-113.5-92.7-119.9-155c-3.4-33.2,21.3-68.5,46.7-87.7
					C5082.2,1580.2,5126.4,1570.3,5166,1581.3z"/>
				<g>
					<defs>
						<path id="SVGID_5_" d="M5166,1581.3c25,6.9,47.1,21,67.5,36.6c29.9,22.9,56.8,49.5,80,79.1c26.6,33.9,47.5,77,26.1,117.8
							c-19.6,37.5-58,62.7-101.4,62.5c-39.9-0.2-79.6-13.3-115.2-29.9c-56.4-25.9-113.5-92.7-119.9-155
							c-3.4-33.2,21.3-68.5,46.7-87.7C5082.2,1580.2,5126.4,1570.3,5166,1581.3z"/>
					</defs>
					<clipPath id="SVGID_6_">
						<use xlink:href="#SVGID_5_"  style="overflow:visible;"/>
					</clipPath>
					<g class="st30">
						<g class="st31">
							<path class="st32" d="M5054,1549.2c-12.4,8-19.2,24.8-24.2,37.9c-6,15.6-10.7,33.6-7.9,50.5c7.3,45.1,46.7,84.7,87.5,103.2
								c41.4,18.8,84,35.2,118.6,65.2c14,12.1,24.9,27.3,31.9,44.4c4,9.5,7,19.4,8.9,29.5c2.2,13.8,2.5,27,6.6,40.5
								c2.4,8,14.4,9.9,19.4,3.3c14.5-19.2,17-45.6,13.8-68.9c-3.5-22.9-13.2-44.4-28-62.2c-29.3-36.2-72.3-58.2-114.5-76.5
								c-19-8.2-40.6-14.1-58-25.2c-18-11.6-33.2-26.9-44.5-45.1c-9.8-15.5-8.6-24-9.1-42.4c-0.3-13.2-1-34,8.9-44.3
								C5068.8,1553.3,5060.2,1545.1,5054,1549.2L5054,1549.2z"/>
						</g>
					</g>
				</g>
				<g class="st33">
					<path class="st34" d="M5282.3,1714.3c-1.6-7.9-2.2-15.4-5.7-22.8c-4.2-9.2-9.2-18.1-15.1-26.3c-11.1-15.5-26-27.7-42.1-37.7
						c-29.9-18.7-63.1-28.3-97.6-35.4c-31-6.5-39.3,41.2-8.3,47.7c28.2,5.9,55.2,13.7,80.3,28.3c12.8,7.4,23.3,18.2,33.8,28.3
						c6,5.7,12,11.1,18.5,16.5c6.9,5.7,14.6,8.1,22.9,10.8c5.8,1.9,14.8-1.6,13.3-9.1V1714.3z"/>
				</g>
				<path class="st35" d="M5570.1,1916.7c-33.6,17.9-70.7,25.5-100.6,15.8c-41.7-13.3-79.9-37.7-111.9-66.8
					c-32-29.2-60.2-63-87.5-96.8c-17.7-21.9-25.6-44.3-37.7-69.2c-10.6-22.1-14.3-45.5-2.6-68c14-26.8,39-50.3,65.8-64.5
					c36.6-19.3,76.5-19.1,115.3-7.6c99.7,29.4,204.4,103.9,244.3,202.3C5678.9,1820.1,5630,1884.8,5570.1,1916.7z"/>
				<g>
					<defs>
						<path id="SVGID_7_" d="M5570.1,1916.7c-33.6,17.9-70.7,25.5-100.6,15.8c-41.7-13.3-79.9-37.7-111.9-66.8
							c-32-29.2-60.2-63-87.5-96.8c-17.7-21.9-25.6-44.3-37.7-69.2c-10.6-22.1-14.3-45.5-2.6-68c14-26.8,39-50.3,65.8-64.5
							c36.6-19.3,76.5-19.1,115.3-7.6c99.7,29.4,204.4,103.9,244.3,202.3C5678.9,1820.1,5630,1884.8,5570.1,1916.7z"/>
					</defs>
					<clipPath id="SVGID_8_">
						<use xlink:href="#SVGID_7_"  style="overflow:visible;"/>
					</clipPath>
					<g class="st36">
						<g class="st37">
							<path class="st32" d="M5189.4,1657.7c14.7-14.4,38.1-24,58.2-28c21.5-4.2,44.5,2.1,65.4,7c48.1,11.1,97.6,31,127.4,71.9
								c17.9,24.5,32,52.1,48.6,77.5c17.1,26.4,36.9,51.3,61,71.9c20.6,17.5,45.8,29.5,71.4,38.3c13.3,4.4,26.8,8.3,40.3,12
								c16.2,4.4,30.8,7.6,46.2-0.7c9.1-5,8.5-16.7,4.2-24.2c-7.7-13.8-24.7-17.7-39-21.5c-12.7-3.4-25.2-7-37.6-11.4
								c-25.6-8.7-48.8-23.1-68.1-42.1c-44.5-43.9-66.2-105.3-112.4-147.8c-39.6-36.5-95.2-53.9-148.2-59.8c-24.2-2.7-47-4.2-70.3,4
								c-21.2,7.4-42.7,20.9-54.5,40.2c-1.2,2-2.2,4-3.4,6.1C5175.2,1657.9,5184.6,1662.5,5189.4,1657.7L5189.4,1657.7z"/>
						</g>
					</g>
				</g>
				<g class="st38">
					<path class="st34" d="M5490.4,1655.1c12.8,21.7,31.8,37.5,47.6,56.7c7.1,8.4,13.2,17.7,18.2,27.6c6,12.3,10.2,25.4,17,37.3
						c5.2,9.1,18.6,12,28,8.7c12.4-4.5,18.9-18,14.6-30.5c-7.7-24.4-21-51.4-38.7-70.2c-20.3-21.5-43.5-36.3-69.9-49.6
						C5494,1628.4,5484,1644.3,5490.4,1655.1L5490.4,1655.1z"/>
				</g>
				<path class="st39" d="M5516.1,1864.1c-2-1.8-1.1-0.8,2.7,2.9c-1.7-2.2-3.6-4.3-5.7-6.2c-7.5-4.6-8.2-5-2.2-1.4
					c-0.8-0.5-1.5-1.1-2.2-1.6c-4.3-3.1,5.8,6.6,0.5,0.5c-3.2-3.5-6.6-6.9-10.1-10c-1.9-1.8-3.8-3.7-5.6-5.5
					c8.7,8.9,1.7,1.6-0.1-0.4c-4.3-4.9-8.3-10.1-12.2-15.3c-16.2-21.4-35.6-40.7-55.1-59.2c-5.3-5-10.9-9.8-16.4-14.8
					c-3.7-3.4-7.4-6.9-10.9-10.5c-2.1-2.1-4.1-4.2-6.2-6.2c-3.5-3.7-2.2-2.2,4.1,4.4c-1.7-1.7-3.3-3.5-4.9-5.3
					c-8.7-9.4-16.8-19.4-24.1-29.9c-1.7-2.4-3.2-4.9-4.8-7.4c-6.3-10.2,4.7,9.7,1.3,2.7c-1-2.2-1.9-4.4-2.6-6.6
					c-1.4-4.6-0.9-2,1.5,7.7c-0.7-5.1-1.9-10-3.4-14.9c-17.3-44.3-85.4-39.9-93.7,8.1c-6,34.4,21.1,67.9,42.5,92.3
					c17,19.2,35.6,36.2,54.3,53.7c21.3,19.9,42.6,38.3,69.1,51.3c13.3,6.5,27.1,11.8,41.3,15.9c4.3,1.2,8.8,1.6,13.3,1.3h3
					c-11.1,0.6,0.3,0,4.4,0.1c7.7,0.1,15.2-2.4,21.1-7.3c12.9-10.3,13.6-27.2,1.4-38.3L5516.1,1864.1z"/>
				<path class="st20" d="M5397.3,1980c3.1-15.8,7-31.3,11.7-46.7c6.6-19.3,10.5-39.4,11.8-59.8c2.5-44.6-17.5-76.8-57.3-98.7
					c-52.4-29-122.7-7.6-163.2,31.5c-26.9,26.1-44.1,60.7-53.9,96.6c-9.8,35.9-7.2,69.5-9.6,106.5c-2.8,46.1,12.1,91.6,41.6,127.2
					c26.2,31.4,72.1,40.2,111.7,28.8c39.6-11.4,71.3-44.3,84.2-82.9C5385.4,2049.3,5390.3,2014.3,5397.3,1980z"/>
				<g>
					<defs>
						<path id="SVGID_9_" d="M5397.3,1980c3.1-15.8,7-31.3,11.7-46.7c6.6-19.3,10.5-39.4,11.8-59.8c2.5-44.6-17.5-76.8-57.3-98.7
							c-52.4-29-122.7-7.6-163.2,31.5c-26.9,26.1-44.1,60.7-53.9,96.6c-9.8,35.9-7.2,69.5-9.6,106.5c-2.8,46.1,12.1,91.6,41.6,127.2
							c26.2,31.4,72.1,40.2,111.7,28.8c39.6-11.4,71.3-44.3,84.2-82.9C5385.4,2049.3,5390.3,2014.3,5397.3,1980z"/>
					</defs>
					<clipPath id="SVGID_10_">
						<use xlink:href="#SVGID_9_"  style="overflow:visible;"/>
					</clipPath>
					<g class="st40">
						<g class="st41">
							<path class="st32" d="M5390.5,1721.9c-10-14.5-30.8-11.5-44.2-3.4c-16.2,9.8-29.1,23.8-41.8,37.7
								c-12.7,13.8-26.6,26.6-36.8,42.4c-14.9,23.1-24.6,49.2-28.4,76.5c-7.4,51.1,7,100.1,12.1,150.6c2.4,23.6,2.2,51.7-5,72.8
								c-7.9,23.1-24.6,41.7-39.5,60.9c-12.1,15.6-21.5,35-36.5,48.2c-9,7.6-18.6,14.5-28.8,20.3c-10.2,6.2-20.4,12-30.7,18.2
								c-8.2,4.9-5,18.9,4.5,19.9c6.8,0.7,15.1,2.5,22.1,1.7c7.6-1,15.2-2.5,22.7-4.4c15.9-4,30.6-11.5,43.1-22
								c12-10.1,20.4-21.6,29-34.4c7.4-10.9,15.9-21.2,23.9-31.7c16.8-21.7,31.9-44.2,39.2-70.9c7.2-26.7,7.5-55.6,5-83
								c-4.5-48.5-19.9-95.7-12.5-144.4c3.5-23.4,11.7-46.2,25.8-65.5c9.8-13.3,20.4-26.4,30.7-39.5c7-9.2,14.5-17.9,22.5-26.2
								c1.7-1.7,3.5-3.4,5.2-5.1c1.7-1.8,0-0.2,2.9-2.2c-1.4,1,1.2,0-1.8-0.2c8.3,0.4-0.3-1,2.7,0.6
								C5386.7,1744.9,5396.5,1730.9,5390.5,1721.9L5390.5,1721.9z"/>
						</g>
					</g>
				</g>
				<g class="st42">
					<path class="st34" d="M5194.8,1858c-11.3,16.1-21.6,30.9-28.1,49.6c-6.8,20.1-9.1,41-9.1,62c-0.3,41.2,10.5,82.1,25.6,120.2
						c9.6,24.1,48.7,9.8,38.2-13.5c-15.1-33-25.4-68-30.4-103.9c-4.5-34.3-3.8-77.5,14.4-108C5209,1858.5,5198.9,1852.3,5194.8,1858
						L5194.8,1858z"/>
				</g>
				<g class="st38">
					<path class="st34" d="M5338.1,1996.2c29.2-14.2,40.4-49.7,48.9-78.5c9.1-29.4,7.4-61.2-4.8-89.5c-5.2-13.3-18.5-21.7-32.8-20.6
						c-18.6,1.6-28.8,16.9-29.1,34c-0.1,13.6,8.9,26.1,9.9,35.4c1.2,10.1,0.1,18.3-1.3,30.8c-1.5,12.5-3.3,25.7-5.4,38.5
						s-5.3,24.5-4.4,37.9C5319.7,1992.5,5329.9,2000.2,5338.1,1996.2L5338.1,1996.2z"/>
				</g>
			</g>
			<g id="PLASTIC_CUP">
				<path class="st10" d="M5338.8,2335.6c1.4-12.6,5-30.2-4.2-40.6c-8-9.2-20.6-10.1-31.7-10.2c-15-0.1-30.1-0.2-45.1-1.2
					c-12.4-0.8-27.2-3-38.4,4.2c-7.3,4.9-9.7,14.4-10.5,22.7c-0.2,9-1.3,18.6-0.4,27.5c14.1,1.6,28.6-2,42.6-2c16,0,32,0.4,48,0.2
					c12.6-0.2,24,2.7,36.8,1.3C5338.4,2337.3,5338.5,2338,5338.8,2335.6z"/>
				<path class="st34" d="M5662.4,2449.3c-14.9-3.7-34.2-1.2-49.4-1.8l-430-15.6c-15.2-0.6-34.3-4.4-49.4-1.8
					c-25.5,4.3-16.8,27.7-14.9,46c11.9,107.8,37.1,213.5,57.8,319.9c9.1,47,22.4,91.6,31,139c9.9,55.5,19,217.4,35.7,233.2
					c2,1.9,6.3,3.5,12.2,4.9c8.7,1.8,17.6,3.1,26.5,3.9c20.9,2.1,69.3,4.1,96.1,4.8c26.8,1.2,75.2,2.8,96.2,2.2
					c8.9-0.1,17.8-0.8,26.6-2c4.4-0.3,8.8-1.7,12.6-3.9c17.5-14.6,35.3-175.5,48.1-230.2c11-46.8,26.7-90.4,38.3-136.5
					c26.4-104.6,57.2-208.4,74.9-315.1C5677.7,2478.2,5687.6,2455.5,5662.4,2449.3z"/>
				<path class="st10" d="M5658.5,2405.3c-14.9-14.9-32.4-14.2-51.5-16.9c-22-3-44.1-3.8-66.4-4.8l-22.2-1.1l-1.4-1.4l-234.4-8.5
					l-1.4,1.4l-22.4-0.5c-22.4-0.6-44.5-1.4-66.6,0.1c-19.4,1.2-36.7-0.7-52.4,13.1c-13.2,11.9-18.9,30-14.9,47.4
					c0.6,0.4,3.4,1.1,3.9,1.6l269.2,9.6l269.1,9.9c0.6-0.3,3.5-1,4-1.3C5675.9,2436.5,5671.1,2418,5658.5,2405.3z"/>
				<path class="st43" d="M5624.8,2364.6c-12.2-13.9-29.5-20.3-47.7-22.2c-42.3-4.4-83.9-2-126.4-3.6l-99.8-3.6
					c-42.5-1.5-83.9-6.9-126.4-5.6c-18.3,0.6-35.7,5.6-48.8,18.7c-7.5,7.5-8.6,19.7-10.1,29.9c0.6,0,3.7,0.9,4.3,0.9l459,16.6
					c0.6,0,3.7-0.7,4.3-0.6C5632.3,2384.9,5631.8,2372.6,5624.8,2364.6z"/>
				<g>
					<defs>
						<path id="SVGID_11_" d="M5662.4,2449.3c-14.9-3.7-34.2-1.2-49.4-1.8l-430-15.6c-15.2-0.6-34.3-4.4-49.4-1.8
							c-25.5,4.3-16.8,27.7-14.9,46c11.9,107.8,37.1,213.5,57.8,319.9c9.1,47,22.4,91.6,31,139c9.9,55.5,19,217.4,35.7,233.2
							c2,1.9,6.3,3.5,12.2,4.9c8.7,1.8,17.6,3.1,26.5,3.9c20.9,2.1,69.3,4.1,96.1,4.8c26.8,1.2,75.2,2.8,96.2,2.2
							c8.9-0.1,17.8-0.8,26.6-2c4.4-0.3,8.8-1.7,12.6-3.9c17.5-14.6,35.3-175.5,48.1-230.2c11-46.8,26.7-90.4,38.3-136.5
							c26.4-104.6,57.2-208.4,74.9-315.1C5677.7,2478.2,5687.6,2455.5,5662.4,2449.3z"/>
					</defs>
					<clipPath id="SVGID_12_">
						<use xlink:href="#SVGID_11_"  style="overflow:visible;"/>
					</clipPath>
					<g class="st44">
						<path class="st45" d="M5049.9,2448.7c12.2-0.2,24,1.8,36.3,1.7c14.8,0,29.5,1.1,44.3,1.2c34.5,0.2,69,3.6,103.4,5.9
							c88.1,6.2,176.5,4.3,264.6,10.6c43.5,3.1,86.9,3.6,130.4,4.3c48.7,0.8,97.2,0.8,144.9-9.2c11.2-2.3,10.6-17.5,0.6-21.1
							c-45.9-16.7-96.2-16.4-144.2-17.2c-45.4-0.7-90.5-1.5-135.7-4.7c-87.9-6.3-176.4-6.9-264.4-10.1c-61.3-2.2-128.6-6-183.6,24.6
							C5040.2,2438.1,5042.1,2448.8,5049.9,2448.7L5049.9,2448.7z"/>
					</g>
				</g>
				<path class="st46" d="M5469.8,2953.1c-2.8,1.7-2.8,1.6,0.1-0.2c6-3.2,11-7.9,14.6-13.6c4.4-6.6,9.3-12.6,13.1-19.6
					c8.9-16.1,18-31.5,25.2-48.6c12.8-30.7,22.1-62.4,32.1-94.1s18.6-63.9,27.4-96.1c4-14.5,8.3-28.9,12.1-43.4
					c4-15.4,9.8-29.8,14.7-44.9c10.6-32.9-9.6-69.5-42.9-79.8c-33.6-10.4-69.4,8.1-80.4,41.5c-4.2,13.5-9.9,26.3-13.1,40.2
					c-3.7,16.3-8.6,32.3-12.8,48.5c-8.6,32.1-17.4,64.3-25.2,96.6s-15.8,64.6-21.6,97.4c-3.4,18.2-5.1,36.7-5.2,55.3
					c0.1,10.5,1.3,21,3.6,31.2c1,4.7,2.6,9.2,4.8,13.4l6,8.2c2.3,2.8,2.7,2.8,0.9,0.3c8.5,14.5,26.9,19.6,41.6,11.5
					c1.9-1.1,3.7-2.4,5.3-3.8L5469.8,2953.1z"/>
				<path class="st46" d="M5409,3016.3c-19.8,18.2-27.8,52.2-25.7,78.3c2.6,31.9,23,59.7,58,61c40.7,1.5,66.2-35,59.4-72.4
					c-3.8-21.2-12.3-49.5-28.7-64.7c-17.9-16.6-44.5-19.4-63.2-2.3L5409,3016.3z"/>
				<g class="st47">
					<path class="st4" d="M5454.9,2418.6c52.3,12,105.3,13.3,158.7,15.3c20.2,0.7,21-30.1,0.8-30.7c-53.4-1.9-106.3-4.3-159.2,3.8
						C5449.3,2407.8,5448.9,2417.3,5454.9,2418.6L5454.9,2418.6z"/>
				</g>
				<g class="st48">
					<path class="st4" d="M5525.6,2372.8c12.9,10.8,38.5,16.1,54.4,10.4c11.8-4.2,16.4-24.2,0.8-27.5c-9.4-2-18.1-1.2-27.6-0.6
						c-8.8,0.5-18.5,1.9-25.9,6.9c-3.3,2.3-5.4,7.6-1.7,10.7L5525.6,2372.8z"/>
				</g>
				<g>
					<defs>
						<path id="SVGID_13_" d="M5662.4,2449.3c-14.9-3.7-34.2-1.2-49.4-1.8l-430-15.6c-15.2-0.6-34.3-4.4-49.4-1.8
							c-25.5,4.3-16.8,27.7-14.9,46c11.9,107.8,37.1,213.5,57.8,319.9c9.1,47,22.4,91.6,31,139c9.9,55.5,19,217.4,35.7,233.2
							c2,1.9,6.3,3.5,12.2,4.9c8.7,1.8,17.6,3.1,26.5,3.9c20.9,2.1,69.3,4.1,96.1,4.8c26.8,1.2,75.2,2.8,96.2,2.2
							c8.9-0.1,17.8-0.8,26.6-2c4.4-0.3,8.8-1.7,12.6-3.9c17.5-14.6,35.3-175.5,48.1-230.2c11-46.8,26.7-90.4,38.3-136.5
							c26.4-104.6,57.2-208.4,74.9-315.1C5677.7,2478.2,5687.6,2455.5,5662.4,2449.3z"/>
					</defs>
					<clipPath id="SVGID_14_">
						<use xlink:href="#SVGID_13_"  style="overflow:visible;"/>
					</clipPath>
					<g class="st49">
						<path class="st45" d="M5049.9,2448.7c12.2-0.2,24,1.8,36.3,1.7c14.8,0,29.5,1.1,44.3,1.2c34.5,0.2,69,3.6,103.4,5.9
							c88.1,6.2,176.5,4.3,264.6,10.6c43.5,3.1,86.9,3.6,130.4,4.3c48.7,0.8,97.2,0.8,144.9-9.2c11.2-2.3,10.6-17.5,0.6-21.1
							c-45.9-16.7-96.2-16.4-144.2-17.2c-45.4-0.7-90.5-1.5-135.7-4.7c-87.9-6.3-176.4-6.9-264.4-10.1c-61.3-2.2-128.6-6-183.6,24.6
							C5040.2,2438.1,5042.1,2448.8,5049.9,2448.7L5049.9,2448.7z"/>
					</g>
				</g>
				<g class="st22">
					<path class="st4" d="M5128.5,2547.7c13.1,83.4,31.9,165.7,48,248.4c3.7,19,8.1,37.9,12.7,56.6l394.9,13.9
						c5.4-18.2,10.8-36.5,15.6-55.2c20.6-81.4,43.7-162.3,61.2-244.3L5128.5,2547.7z"/>
				</g>
				<g class="st50">
					<path class="st51" d="M5521.3,2718c0.8-30.7-4.2-63.7-23.9-87.8c-29.1-35.5-67.1-39.6-102.5-37.4c-19.3,0.8-38.2,5.1-55.9,12.8
						c-22.2,10.3-41.7,26.7-52.1,48.8c-6.6,13.8-13.2,27.7-11.7,43c0.8,7.5,1.6,15,2.5,22.4c5.3,42.8,29.1,77.2,69.4,95.5
						c30,13.7,64,12.5,94.9,3C5485,2805.1,5519.9,2774.6,5521.3,2718z"/>
				</g>
				<path class="st20" d="M5343.6,2755.8c7-13.7,20.4-26.6,29.2-33.3c13.2-10.2,27.8-17.9,41.5-27.5c10.4-7.2,20.7-15.9,23.4-28.8
					c1.1-6.3,1.8-12.6,2.1-19c-8.7-2.7-18.1-2.4-26.6,1.1c-8.7,3.6-15.7,10.2-22.7,16.4c-12,10.6-25.1,20.3-35.4,32.5
					c-10.2,12.2-18,27.5-17.1,43.5c0.1,3.6,1,7.1,2.5,10.4C5341.3,2752.7,5342.4,2754.3,5343.6,2755.8z"/>
				<path class="st20" d="M5455.7,2656.4c-2.1-2.1-4.5-3.9-7-5.4c0.6,12.1-0.7,24.2-7.2,34c-9.5,13.7-23.3,22.4-37.3,31.2
					c-13.6,8-26.2,17.6-37.6,28.6c-5.7,5.3-10.4,11.6-13.8,18.6c12,6.6,26.1,8.5,39.4,5.3c14.9-3.3,28.1-11.4,39.9-20.7
					c14-11.1,26.9-24.7,32.8-41.5S5468.6,2669.1,5455.7,2656.4z"/>
			</g>
			<g id="COFFEE_MAKER">
				<polygon class="st52" points="3446.7,699.6 3472.1,695.3 3494.5,823.8 3469,828.1 				"/>
				<path class="st53" d="M3325.4,878.4c7.8-2.2,16.2-2.2,24,0l293.6-49.9c12.4-2.1,20.6-17.1,14.1-27.7s-21.7-12.3-34.5-12.6
					l-18.6-0.4l-295.5,49.3c-3.3,9.6-7.2,26.3-3.8,35.9C3308,882.6,3315.5,881.3,3325.4,878.4z"/>
				<path class="st9" d="M3754.6,1346.2l-330.9,55.7c-0.8,0.1-3.5,3.1-4.3,3.2L3332,902.2l-4.4-25.4l332.4-55.9
					c4.1,18.3,4.3,35,8.4,53.2L3754.6,1346.2z"/>
				<path class="st54" d="M3733.1,1349.8l-144.1,24.2c-0.3,0-1.3,2.7-1.6,2.7L3499.8,874l-4.4-25.4l144.7-24.3
					c3.6,18.4,5.3,34.7,8.9,53.1L3733.1,1349.8z"/>
				<path class="st55" d="M3478.8,1392.7l-56.6,9.6c-0.1,0-0.3,2.5-0.4,2.5l-87.5-502.9c-1.5-8.5-3-16.9-4.4-25.4l56.8-9.6
					c3.3,18.4,5.7,34.6,9.1,53L3478.8,1392.7z"/>
				<path class="st16" d="M3470.9,576.5c-18.6-4.3-44.1,4.1-59.2,8.5c-29.7,8.6-31.5,22.2-19,48.5c7,14.7,19.2,26.8,30,38.8
					c6.4,7.2,20.2,10.4,29.3,7.3c7.7-2.7,16.7-4.9,21.7-11.4c5-6.4,7.6-14,10.3-21.8C3491.4,625.6,3503.7,584,3470.9,576.5z"/>
				<path class="st16" d="M3433.4,1410.8c0.9-3.5,1.1-7.2,0.7-10.8c-0.7-8.6-3.7-18.8-5.2-27.5c-4-22.7-7.9-45.4-11.9-68.1
					l-33.7-193.6c-20.2-115.7-40.3-231.4-60.4-347.2c-1.3-7.4-2.6-14.9-3.9-22.3c0.5-1.7,2,1,0.5,0.6c-3.8-1.4-3.9-3-7.7-2.3
					l-30.9,5.3c-0.8,0.1-2.9-1.1-3.7-1c0.2,1,0.3,2.1,0.5,3.1l118,678.1c-0.5,1.8,1.7,1.1,3.2,1.8c1.5,0.6,3.2,0.6,4.7,0
					C3415.4,1423.6,3429.7,1424.2,3433.4,1410.8z"/>
				<path class="st52" d="M3535.4,1393.6c0.9-3.5,1.1-7.2,0.7-10.8c-0.7-8.6-3.7-18.8-5.2-27.4c-4-22.7-8-45.4-12-68.1l-33.7-193.6
					c-20.2-115.7-40.4-231.4-60.6-347.2c-1.3-7.5-2.6-14.9-3.9-22.3c0.6-1.6,2,1.1,0.6,0.6c-3.8-1.4-4-3-7.7-2.3l-30.8,5.2
					c-0.8,0-2.9-1.1-3.7-1c0.2,1,0.3,2.1,0.5,3.1l118,678.3c-0.5,1.8,1.7,1.1,3.2,1.8c1.5,0.6,3.1,0.6,4.5,0
					C3517.4,1406.4,3531.8,1406.9,3535.4,1393.6z"/>
				<path class="st52" d="M3722.9,1362.1c-2-3-3.5-6.4-4.4-9.9c-2.3-8.3-2.8-18.9-4.3-27.6c-4-22.7-8-45.4-12-68.1
					c-11.1-64.5-22.3-129.1-33.6-193.6c-20.2-115.7-40.3-231.4-60.4-347.2l-3.9-22.3c-1.1-1.4-1.5,1.7-0.3,0.7
					c3.2-2.5,2.7-4.2,6.5-4.7l31.3-5.4c0.8,0,2.3-2,3.2-2.1c0.2,1,0.4,2,0.5,3.1l118,678.1c1.1,1.6-1.3,1.6-2.3,2.8
					c-1.2,1-2.8,1.5-4.4,1.5C3744.5,1368.3,3731,1373.5,3722.9,1362.1z"/>
				<path class="st56" d="M3616.8,1379.9c-2-3-3.5-6.4-4.4-9.9c-2.3-8.3-2.8-18.9-4.3-27.6c-4-22.7-7.9-45.4-11.9-68.1
					c-11.1-64.6-22.3-129.2-33.6-193.6c-20.1-115.7-40.2-231.4-60.4-347.2l-3.9-22.3c-1.1-1.4-1.5,1.7-0.3,0.7
					c3.2-2.5,2.7-4.1,6.5-4.7l31.3-5.2c0.8-0.1,2.3-2,3.2-2.1c0.2,1,0.3,2,0.5,3.1l118.1,678.1c1.1,1.6-1.2,1.6-2.3,2.8
					c-1.2,1-2.8,1.5-4.4,1.4C3638.4,1386.1,3624.9,1391.3,3616.8,1379.9z"/>
				<path class="st53" d="M3733.1,1293.9c-0.8,0.1-1.6,0.1-2.3,0c-21.5-3.3,11-55.5,14.8-63.3c13.7-27.5,30.5-53.5,47.5-79.2
					c33.6-50.8,69.9-101.8,86.4-161c10-35.8,10.4-79.2-17-104.7c-17.8-16.6-43.8-21.9-68.2-21.4c-18,0.4-36.3,3.8-51.9,12.6
					c-15.6,8.8-18.3,20.9-28.2,35.7l-12.7,19.1c-3,4.7-6.3,9.3-11.4,11.7c-7.2,3.1-16-0.4-21-6.3s-7.3-13.6-9-21.1
					c-5.6-24.9-10.1-37.3,10.5-56.7c13.5-12.8,30.7-21.9,47.1-30.5c29.9-15.6,64.3-24.4,98.2-20.3c58.3,7,111.6,52.6,120,109.8
					c3.2,22.2,0,44.8-5.7,66.5c-22.6,87.1-86.8,163.1-135.5,237.4c-15.4,23.5-32.5,47.7-52.5,66.7
					C3739.6,1291.3,3736.5,1293.1,3733.1,1293.9z"/>
				<path class="st57" d="M3634.1,628.3L3452,658.8l0.3,3.6l-0.9-3.5l-182.1,30.8c-18.1,3-75.7,10.4-52.8,42.3
					c4.7,6.7,12.3,11,19.6,15.1c27.1,15.3,39.2,21.3,69.4,15.7c22.3-4.2,44.8-7.6,67.2-11.4l92.2-15.6l92.2-15.5
					c22.4-3.8,44.8-7.9,67.2-11.3c30.3-4.7,39.6-14,60.1-37.6c5.5-6.2,11.1-12.7,13.4-20.7C3709,613.5,3652.2,625.3,3634.1,628.3z"
					/>
				<path class="st57" d="M3819.5,1387.3c-5.6-17.8-15.9-33.7-27.4-48.4c-32.7-41.6-98.5-17.8-143-10.4l-34.1,5.8l-1.6,0.3
					l-85.7,14.4l-1.5,0.3l-34.1,5.7c-44.4,7.5-114.6,6.6-131.3,56.5c-5.9,17.6-10.3,36-9.6,54.6c-0.1,6.3,1.4,12.6,4.3,18.3
					c3.1,5.8,9,9.4,15.5,9.7l176.8-29.7l0,0l43-7.2l43-7.2l0,0l176.8-29.8c6-2.3,10.4-7.7,11.3-14.1
					C3822.7,1399.8,3821.8,1393.3,3819.5,1387.3z"/>
				<g class="st19">
					<path class="st4" d="M3486.7,681c14-0.6,28-0.3,41.9-1.3c14-1.1,27.6-2.7,41.4-4.3s27.6-3.3,41.3-5.2
						c11.7-1.7,27.8-0.9,36.4-9.7c4.1-3.6,4.6-9.9,1-14c-0.1-0.1-0.1-0.1-0.2-0.2c-1-1.1-2.3-2-3.8-2.6c-11-5.5-26,0.4-37.6,2.3
						c-13.7,2.3-27.3,4.6-41,7c-13.6,2.3-27.3,4.7-40.8,7.8c-13.5,3.1-26.6,7.6-40.1,11.5c-2.4,0.4-4,2.7-3.6,5.1
						C3482.1,679.8,3484.4,681.4,3486.7,681L3486.7,681z"/>
				</g>
				<path class="st4" d="M3717.6,839.7c-14.9,5.2-37.9,19.7-36.3,37.6c0.6,7.5,10.2,9.6,15.5,5.6c5.3-4,7.4-11.7,11.2-17
					c4.1-5.6,9.5-10.1,15.8-13.1C3732.4,848.4,3726.4,836.4,3717.6,839.7L3717.6,839.7z"/>
				<g class="st19">
					<path class="st4" d="M3580.6,1413.7c7,0.8,14,2.3,21,3.6c9.3,1.6,18.9,0.5,28.2,0c16.3-0.8,32.6-3.8,48.7-6.4
						c16-2.7,32.3-6.3,48.4-9.6c16.1-3.2,35-4.4,50.1-11.3c24.4-11.1,18.2-48.8-8.9-51.1c-15.4-1.3-31.3,3.8-46.3,7
						c-16,3.6-32.1,7.2-48.1,11.1c-16,3.9-31.9,7.5-48,10.7c-7.2,1.4-14.3,3.1-21.5,4.4c-8.5,1.6-16.2,6-24.8,7.3
						c-19.8,3.1-18.3,31.9,1.2,34.1L3580.6,1413.7z"/>
				</g>
				<path class="st4" d="M3530.6,778.5c2.6,15.9,3.1,34.3,9.8,49.1c0.8,1.6,2.8,2.3,4.4,1.5c1-0.5,1.6-1.4,1.8-2.5
					c1.3-16.1-4.4-33.6-7.4-49.5c-0.6-2.3-2.9-3.7-5.3-3.2C3531.8,774.4,3530.3,776.3,3530.6,778.5L3530.6,778.5z"/>
				<g class="st19">
					<path class="st4" d="M3422.4,824.5c8.2-1.4,6-14-2.2-12.6C3411.9,813.4,3414.1,825.9,3422.4,824.5z"/>
				</g>
				<g>
					<defs>
						<path id="SVGID_15_" d="M3634.1,628.3L3452,658.8l0.3,3.6l-0.9-3.5l-182.1,30.8c-18.1,3-75.7,10.4-52.8,42.3
							c4.7,6.7,12.3,11,19.6,15.1c27.1,15.3,39.2,21.3,69.4,15.7c22.3-4.2,44.8-7.6,67.2-11.4l92.2-15.6l92.2-15.5
							c22.4-3.8,44.8-7.9,67.2-11.3c30.3-4.7,39.6-14,60.1-37.6c5.5-6.2,11.1-12.7,13.4-20.7C3709,613.5,3652.2,625.3,3634.1,628.3z
							"/>
					</defs>
					<clipPath id="SVGID_16_">
						<use xlink:href="#SVGID_15_"  style="overflow:visible;"/>
					</clipPath>
					<g class="st58">
						<g class="st59">
							<path class="st16" d="M3376.8,773.9c-1.6-1-13.7-10.4-7.5-4.7c-6.4-5.8-12.6-11.9-19.1-17.7c-4.4-4-9.1-7.8-13.5-11.7
								c10.6,9.3-3.2-3.3-5.4-5.5c-16.1-16.1-32.1-32.2-47-49.3c-6-7-11.6-14.3-16.7-21.9c11.2,16.6,0.2-0.4-2.1-4.3
								c-2.9-5.1-5.7-10.2-8.3-15.5c-2.1-4.2-4-8.6-5.8-13c-0.9-2.2-1.7-4.4-2.3-6.5c-4.5-12.2,4.2,14.8,0.9,2.5
								c-6.2-23.1-14.1-41.3-33.1-57.1c-24.7-20.5-59.7-8.2-78,13.2c-26.6,31.1-10.7,77.2,6.1,108.8c12.3,23.9,28.4,45.6,47.7,64.2
								c21,19.8,42.7,39.9,68.1,54.2c12.8,7,26,13.8,39.4,19.9c12.7,5.7,26.7,7.7,39.6,13.1C3381.4,859.9,3415.2,797.6,3376.8,773.9
								L3376.8,773.9z"/>
						</g>
					</g>
				</g>
				<g>
					<defs>
						<path id="SVGID_17_" d="M3819.5,1387.3c-5.6-17.8-15.9-33.7-27.4-48.4c-32.7-41.6-98.5-17.8-143-10.4l-34.1,5.8l-1.6,0.3
							l-85.7,14.4l-1.5,0.3l-34.1,5.7c-44.4,7.5-114.6,6.6-131.3,56.5c-5.9,17.6-10.3,36-9.6,54.6c-0.1,6.3,1.4,12.6,4.3,18.3
							c3.1,5.8,9,9.4,15.5,9.7l176.8-29.7l0,0l43-7.2l43-7.2l0,0l176.8-29.8c6-2.3,10.4-7.7,11.3-14.1
							C3822.7,1399.8,3821.8,1393.3,3819.5,1387.3z"/>
					</defs>
					<clipPath id="SVGID_18_">
						<use xlink:href="#SVGID_17_"  style="overflow:visible;"/>
					</clipPath>
					<g class="st60">
						<g class="st61">
							<path class="st16" d="M3471.8,1272.3c-18.2-4.1-37.3,0-54.4,6.4l24.4-4.1c-6.4,0.2-6.4-1.5-16.6,0.2
								c-10.7,1.8-16.9,6.4-25.6,12.1c-4.7,3.2-9.2,6.8-13.2,10.8c-11.3,10.8-21.7,21.4-29.9,34.7c-14.7,23.1-25.6,48.4-32.3,74.9
								c-8.2,33.7-14.9,72-5.2,106c8.7,30.3,22.1,56.3,49.7,74.6c16.1,10.6,32.6,13.6,51.1,16c15.6,2,35.8,0.8,49.6-7
								c31-18,44.3-48.9,30.4-82.8c-5.3-13-14.3-20.7-24.9-29.5c-1.7-1.4-3.3-2.8-4.8-4.2l-2.3-2.1c-5.6-4.7-3.3-2.8,7,5.7
								c3.4,5.3,6.9,10.6,10.3,15.9c-7.5-12.7-16.3-21.8-24.9-33.3l10.7,16.4c-3.4-5.5-6.2-11.3-8.2-17.5l6.1,19.2
								c-2.9-9.7-6-19.4-9.2-29c2,6.4,4,12.7,6.1,19.1c-4.6-15.4-7.2-31.2-7.8-47.3c0.2,6.2,0.4,12.4,0.7,18.5
								c-0.2-21,1.8-42,5.9-62.7c0.5-2.7,1.1-5.3,1.6-7.9c-4.2,19.3-2.1,8.8-0.9,4.5c2.7-9.8,5.4-19.5,7.4-29.5
								c-3.3,16.3-1.8,8.6,0,4.3c1.5-3.5,6.2-11.4-1.8,2.9c1.2-2.1,2.4-4.1,3.8-6c5-6.9,8.1-15,8.9-23.5c-0.7-16.4-0.6-17.6,0.1-3.4
								c-2.8,7.3-5.6,14.6-8.3,21.9c1.2-1.8,2.5-3.5,3.8-5.2c-7.9,9.8-4.3,4.7-1.5,2.1c5.8-5-8.9,4.4-1.7,1.2
								c7.3-3.2-9.6,2.3-1.4,0.7c16.4-2.8,29.1-16.1,31-32.6c2.3-21.9-13.7-35.9-33.6-40.4L3471.8,1272.3z"/>
						</g>
					</g>
				</g>
			</g>
			<g id="METEL_KETTLE">
				<path class="st62" d="M3019.8,1801.1c0.5,9.3,30.5,13.2,37.5,16.3l22.3,9.8c1.5,1,3.5,1.2,5.2,0.6c2-1.2,1.9-4,1.5-6.3
					c-1.2-6.2-2.2-12.5-3.5-18.7c-0.1-0.7-0.3-1.3-0.7-1.9c-0.5-0.5-1.2-0.8-1.9-0.9c-13-3.2-25.8-7.4-39-9.6
					C3022.5,1787.2,3019.6,1798.8,3019.8,1801.1z"/>
				<path class="st63" d="M3055,2320.3c-2.2-0.3-16.4-4.1-28.8-7c-16.4-3.9-20.7-4.6-45.6-10.6c-8.2-2-8.3-3.3-4-10.3
					c5.1-8.2,8.6-17.6,12.7-26.3c8.4-18,16.9-35.9,25.3-53.7c17.3-36.3,34.7-72.6,52.3-108.7c4.4-2.4,9.6-2.9,14.4-1.2l40.4,7.5
					C3092,2172.5,3064.1,2321.5,3055,2320.3z"/>
				<path class="st56" d="M3066.1,1864.5c5.2-10.2,20.1-43.1,17.4-45.7c-5.6-5.5-46.5-22.6-53.4-23.1c-23.2-1.9-1.8,27.5,5.9,35.5
					C3059.6,1855.5,3062,1860,3066.1,1864.5z"/>
				<path class="st64" d="M3373.3,2074.4c-9.6-1.3-16.8-3.3-29.6-5.7c-11.6-2.2-6.5-14.7-5.4-25.3c0.8-7.6,3.2-20.5,12.1-19.4
					c11.7,1.3,14.6,4.1,22.5,4.1c11.5,0,16.8-19.2,19.9-27.2c6.4-16.6,16.7-36.2,19.7-53.7c5.1-29.8-21.7-23.3-43.5-26.4
					c-15.5-2.2-31-4.2-46.6-5.2c-2.6-0.9-6.7-6.4-7.1-9c-0.2-1.8,0-3.5,0.4-5.2c2.6-13.4,3.8-27.1,3.5-40.7c-0.5-1.5-1-2.9-1.6-4.4
					c0.9,4.2,64.1,12.4,71.3,13.7c32.2,6.2,94.3,5.3,87.4,53.2c-2.2,15.4-20.5,58.4-14.5,44.2c0.7-1.6-19.5,46.3-28.9,67.5
					c-5.8,13.2-10.5,29.2-23.3,37.3C3399.7,2077.9,3399.7,2077.9,3373.3,2074.4z"/>
				<path class="st62" d="M3234.1,1767.2c-1.1,13.5,7.8,42.2,8.7,48.5c1,7.5,4.9,13.9,6.9,21.2c4,13.5,2.2,25.4,18.8,26.7
					c17.6,1.4,52.5,21.1,69.2,13.5c2.9-1.3-0.6-16.4-1.8-18.5c-15.9-28.5-24.1-22-69.6-78.1c-6.1-7.5-17-24-29.1-19.9
					C3235.3,1761.2,3234.3,1763.8,3234.1,1767.2z"/>
				<path class="st65" d="M3147.2,1838.5c23.3-24.3,54.4-41.3,74.1-68.4c0-2.1,5.9-10.9,5.9-13.1c-41.5,5.6-88.5,26.8-128.7,38.7
					c-8.4,2.5-56.1,15-37.7,27.6c8,5.5,20.6,5.3,29.9,6.7c16.9,2.8,49.9,15.8,63.2-0.6L3147.2,1838.5z"/>
				<path class="st16" d="M3227.4,1757c-0.4,0-31,25.3-41.8,34.8c-14.6,12.8-28.3,26.6-41.7,40.6c-1.3,1.1-2.1,2.7-2.2,4.4
					c0,3,3.8,4.5,6.7,5c32.1,6.4,64.3,12,96.8,16.8c2.1,0.5,4.4,0.5,6.5,0c6.7-2,6.9-11.2,5.7-18c-4-21.2-7.4-43.3-16.4-63.2
					C3237,1769.4,3237,1754.9,3227.4,1757z"/>
				<path class="st16" d="M3286.7,2346.3c-1.9-41.8-6.2-73.1-9-106.3c-3.1-35.9-5.1-72.5-11-107.7c-0.9-5.5-29.5-5.9-33.4-6.2
					c-9.2-0.6-23.7,0.7-33-1.1c-8.4-1.6-15.7,165.2-18.7,195.4c-0.9,8.6-7.5,23.1,3.8,25.1c35.4,6.5,95.8,21.3,100.3,19
					C3290.2,2362.2,3286.9,2352.5,3286.7,2346.3z"/>
				<path class="st63" d="M3127.6,2057.2c2.1-2.3,3.2-5.2,3.1-8.3c1.5-48.3,10-96.8,11.9-145.7c0.7-19.2,13.5-36.5,14.9-55.7
					c1.2-15.7-14.3-19.3-30.7-21.9c-20.2-3.1-44.1-7.7-64.6-8.2c-2.2-0.1-4,1.6-4.1,3.7c0,0,0,0,0,0.1c0,0.2,0,0.5,0,0.7
					c11.2,68.6,8.2,140.3,13.5,209.5c0.9,11.7,5.2,19.8,16.8,23.4C3098.1,2057.9,3119.6,2065.2,3127.6,2057.2z"/>
				<path class="st64" d="M3233.4,1723.3c-9,0.4-17.5,5.3-19.4,15.3c-2.1,11.2,7.2,21,17.5,23.8c3.5,1.2,7.3,1.4,11,0.6
					c4.8-1.6,8.7-5.2,10.7-9.8C3262.6,1733.5,3247.6,1722.7,3233.4,1723.3z"/>
				<path class="st56" d="M3215.9,2068.1c2.6-5.3,3.3-12.8,4.9-19.6c4.8-20.8,9.6-41.6,14-62.5c9-42.7,16.9-88.8,24.3-131.7
					c1.8-10-89.3-27.9-99.4-24.9c-5.7,1.7-3.5,39.4-4.5,55.1c-2,31.3-4,62.6-7,93.7c-0.6,6.4-6.1,82.4-5.6,82.6
					c19.4,4.5,38.8,9.4,58.4,13.6C3209.3,2076.4,3213.5,2073.3,3215.9,2068.1z"/>
				<path class="st16" d="M3269.8,2084c3.3-3.8,35.3-97.4,46.7-135.3c5.6-18.5,10.7-37,16.8-55.4c3.5-10.5,11-32.2-4.1-35.3
					c-25.5-5.3-64.4-7.2-72.5-6.7c-3.1,0.2-5.9,17.7-9.7,39.6c-7.1,40.9-13.2,65.1-21.8,106c-3.5,16.8-8.7,38.4-14.9,58.6
					c-3,9.6-5.3,15.7,4,24.3c9.4,8.5,19.1-0.2,30.8,2.5C3257.1,2085,3264.8,2089.9,3269.8,2084z"/>
				<path class="st56" d="M3197,2197.9c0.7-11.8,8.4-72,3.2-73c-8.5-1.6-80.1-20-83.2-13.2c-7.6,16.4-18.7,46.4-25.6,66.5
					c-8.2,24.2-17.4,51.8-26.9,75.5c-11.7,29.4-27.6,62.2-19.9,64.1c10.3,2.4,30.7,6.4,38.5,8.2c18.4,4.1,36.8,7.8,55.2,11
					c8,1.4,30.9,5.7,46.7,8.4C3186.4,2345.7,3195.7,2222.7,3197,2197.9z"/>
				<path class="st65" d="M3127.5,2117.2c-2.8,1.4-32.5-6.9-55.2-12.6c-1.9-0.2-3.6-1-5-2.2c-0.7-1.1-1.1-2.3-1.1-3.5
					c-0.8-7.6-0.4-15.2,1.3-22.6c2.9-13.1,3.4-22.8,5.6-34.9c0.1-0.6,0.4-1.1,0.9-1.4c5-3.5,51,2.8,62.9,9.9
					c5.4,3.3-11.9,17.7-12.5,23.9C3123.6,2081.6,3136,2113,3127.5,2117.2z"/>
				<path class="st16" d="M3204.5,2130.3c4.2-16.8,2-48.8,6.1-65.9c1.8-7.6-81.8-20.7-82.7-18.1c-4.9,13.5-6.2,27.3-8.1,36.2
					c-5.6,26.2-8.1,30.3-4.5,33.3c4.8,4.1,41.6,9.5,56.3,12C3181.3,2129.2,3203.9,2132.7,3204.5,2130.3z"/>
				<path class="st62" d="M3273.9,2075.2c0.9-7.4-65.1-16.2-65.9-11.8c-2.8,14.3-3.7,26.4-5.7,40.7c-1.1,8.3-6.3,26.1-0.7,28.6
					c5.6,2.5,64.3,11.7,65.8,3.6C3270.2,2120.4,3272,2091.4,3273.9,2075.2z"/>
				<g class="st66">
					<path class="st4" d="M3246.7,2041.7c7.1-0.3,10.7-6.7,13.9-12c3.9-6.3,7.5-12.7,11-19.2c7.1-13.2,14.6-26.1,20.2-39.9
						c4.5-10.8,7.8-22,11.9-32.9c2.2-5.6,4.5-11.2,7-16.6c1.2-2.5,2.5-4.9,3.9-7.4c2.2-3.8,2.1-3.1,5.1-7.9
						c11.7-18.3-17.1-35.5-31-20.4c-8.6,9.3-13.5,22.1-18,33.7c-4.9,13.2-9,26.6-13.5,40c0.9-2.8-2,5.4-2.2,6.3
						c-1.7,4.3-3.4,8.4-5.2,12.6c-3.3,7.7-6.1,15.9-9,23.7c-3,8.6-12.5,40.7,5.7,39.9L3246.7,2041.7z"/>
				</g>
				<path class="st4" d="M3269.9,1877.3c6,1.1,7.7-7.9,1.8-9C3265.8,1867.2,3264,1876,3269.9,1877.3z"/>
				<g class="st66">
					<path class="st4" d="M3195.8,1872.4c0.3,0.7,0.6,1.3,0.9,2l1.7,3.3c3.5,4.2,3.3,3.6-0.6-1.9l1.9,3.8c3.4,3.9,3.8,4.2,1.2,1.1
						c2.2,3.1,5.3,5.5,8.8,6.7c4.9,1.7,9.2,2.6,14.3,0.9c9.4-3.1,14.5-13.3,11.3-22.7c0-0.1-0.1-0.2-0.1-0.3
						c-1.6-4.5-4.9-8.1-9.2-10.2c-3-1.5-6.3-2.1-9.6-1.8c-2.3-0.1-4.6,0.2-6.7,1l-4,2c3.6-2,3.1-1.8-1.5,0.6l-3.2,2.8
						c5.7-3.6,6.1-4.1,1.3-1.5c-1.6,1.2-3.1,2.5-4.5,3.9c-2.7,2.8-3.5,6.9-2.1,10.5L3195.8,1872.4z"/>
				</g>
				<g class="st67">
					<path class="st4" d="M3243.1,2215.1c-10.7,17-11.1,37.9-11.7,57.6c-0.3,10.8,0.2,21.6,1.5,32.4c1.1,10,2.2,20.8,5.7,30.3
						c2.2,6.1,7.4,10.6,13.8,11.8l1.8,0.3c7.8,1.5,15.7-2.4,19.4-9.4c4.2-8.4,1-16.3-5.5-22.3c2.1,4.1,4.1,8.2,6.2,12.2
						c-1.1-9.7-3.5-17-5.1-25.7c-1.8-9.9-3.5-19.8-5-29.8c-2.8-18-4.5-36.1-5-54.3C3259.1,2209.3,3247.1,2208.6,3243.1,2215.1
						L3243.1,2215.1z"/>
				</g>
				<g class="st66">
					<path class="st4" d="M3459.7,1912.4c8.7,1.7,11.2-11.5,2.6-13.2C3453.7,1897.6,3451,1910.8,3459.7,1912.4z"/>
				</g>
			</g>
			<g id="MAN">
				<path class="st15" d="M3879.3,2339.8l-2.2,4.8c-20.1,43.4-39.9,89.3-75.5,122c-34.6,32-55.9,69.4-103.9,85.5
					c-20.6,6.9-44.1,11.7-65.3,4.3c-28-9.7-43.4-57.8-51.7-82.5c-11-32.6-16.6-66.5-21.6-100.4c-6.4-43.5-5.2-87.8-3.5-131.8
					c4.6-105.5,14.8-211.9,48.6-312.2c18.6-55.7,44.6-108.8,71.7-161.1c43.4-83.7,94.7-170,167.1-231.5c0.7-0.6,42.3,75.8,45.5,83.1
					c25.1,55.4,43.1,113.8,53.5,173.8c8,46.7,5.6,94.2,7.6,141.3c2.9,70.1,1.5,142.6-10.8,212.6c-6.4,36.4-19.8,70.7-27.5,106.5
					C3904.5,2285.7,3893.4,2310.3,3879.3,2339.8z"/>
				<g>
					<defs>
						<path id="SVGID_19_" d="M3879.3,2339.8l-2.2,4.8c-20.1,43.4-39.9,89.3-75.5,122c-34.6,32-55.9,69.4-103.9,85.5
							c-20.6,6.9-44.1,11.7-65.3,4.3c-28-9.7-43.4-57.8-51.7-82.5c-11-32.6-16.6-66.5-21.6-100.4c-6.4-43.5-5.2-87.8-3.5-131.8
							c4.6-105.5,14.8-211.9,48.6-312.2c18.6-55.7,44.6-108.8,71.7-161.1c43.4-83.7,94.7-170,167.1-231.5
							c0.7-0.6,42.3,75.8,45.5,83.1c25.1,55.4,43.1,113.8,53.5,173.8c8,46.7,5.6,94.2,7.6,141.3c2.9,70.1,1.5,142.6-10.8,212.6
							c-6.4,36.4-19.8,70.7-27.5,106.5C3904.5,2285.7,3893.4,2310.3,3879.3,2339.8z"/>
					</defs>
					<clipPath id="SVGID_20_">
						<use xlink:href="#SVGID_19_"  style="overflow:visible;"/>
					</clipPath>
					<g class="st68">
						<g class="st69">
							<path class="st70" d="M4053,1546.4c-15.9-14-36.3-21.5-57.4-21.3l32.3,8.6c-24-14.7-54.2-15-78.6-0.8c-4.9,3-9.2,7-14.4,9.3
								l19.5-8.1c-22.5,7.1-42.2,21.1-56.3,40c-11.2,14.3-22.2,28.8-33.3,43l15.3-19.5c-9.2,11.7-19.2,22.4-27.8,34.5l16-20.2
								c-33.4,40.4-65.3,79.9-91.4,125.4c-30.6,53.7-50.6,114.1-67.7,173.2c-18.6,64-29.3,128.5-38.3,194.4
								c-7,51.3-12.1,103.9-10.4,155.6c1,31.4,1.7,66.1,11.9,95.8c3.3,9.5,6.9,18.8,10.6,28.1c5.9,14.2,10.4,27.8,19.3,39.9
								c8.2,11.1,17,21.9,25.6,32.8c19.9,25.2,58.7,39.9,90.5,37.8c19.4-1,38.4-6.3,55.5-15.6c55.3-29.2,61.3-92,64.8-145.8
								c0.6-10.4,2.6-20.8,1.6-31.2c-1-11-1.7-22.1-2.2-33.2c-1.1-23.8-1.8-47.7-1.5-71.5c0.7-51.9,4.6-103.7,11.8-155.1l-4.8,34.9
								c3.3-23.7,6.5-47.5,9.8-71.2c-1.6,11.6-3.1,23.1-4.7,34.6c7.5-55.1,18.6-109.6,33.4-163.2c13-46.2,22.5-93,41.5-137.4
								c-3.6,8.3-7.1,16.7-10.6,25c10.4-23.8,23.7-46.2,30-71.6c2.6-10.8,4.9-21.7,7.5-32.5c1.3-5.6,2.6-11.1,4.4-16.6
								c5.2-18.8,3.8-35.2,0.5-54.1c1,7.1,1.9,14.2,2.9,21.4v-2.2l-2.9,21c0.8-4.1,2-8.2,3.4-12.1c6.8-20.8,4-43.5-7.6-62l6.5,48.5
								c1.3-5.7,5.6-12.5-3.2,5.8c0.5-0.9,1-1.8,1.6-2.6l-6.3,8.1c3.4-3.2,1.3-1.7-6.1,4.4c10.4-7.6,18.4-15.4,21.9-28.1
								c4.3-15.4,0.3-34.9-12.3-45.7L4053,1546.4z"/>
						</g>
					</g>
				</g>
				<path class="st15" d="M4578.9,1462.4c-5.4-5.7-11.9-10.3-19-13.5c-19.5-9.2-40.5-14.8-60.9-21.4
					c-107.2-34.7-222.1-33.8-334.3-21.2c-69.3,7.2-137,25.6-200.5,54.4c-21.9,10-42.6,22.4-61.7,37.1
					c14.3,80.3,52.9,159.2,111.4,217c16.4,16.2,34.4,31.2,54.9,41.9c16.2,8.2,33.3,14.7,50.9,19.3c65.6,18.9,134.4,24.4,202.2,16.2
					c30.7-3.9,61.5-11.1,91.3-18.5c33.5-8.3,76-42.5,95.8-69.7c23.1-32.1,42.8-66.7,58.5-103C4583.6,1564,4612,1497.8,4578.9,1462.4
					z"/>
				<g>
					<defs>
						<path id="SVGID_21_" d="M4578.9,1462.4c-5.4-5.7-11.9-10.3-19-13.5c-19.5-9.2-40.5-14.8-60.9-21.4
							c-107.2-34.7-222.1-33.8-334.3-21.2c-69.3,7.2-137,25.6-200.5,54.4c-21.9,10-42.6,22.4-61.7,37.1
							c14.3,80.3,52.9,159.2,111.4,217c16.4,16.2,34.4,31.2,54.9,41.9c16.2,8.2,33.3,14.7,50.9,19.3
							c65.6,18.9,134.4,24.4,202.2,16.2c30.7-3.9,61.5-11.1,91.3-18.5c33.5-8.3,76-42.5,95.8-69.7c23.1-32.1,42.8-66.7,58.5-103
							C4583.6,1564,4612,1497.8,4578.9,1462.4z"/>
					</defs>
					<clipPath id="SVGID_22_">
						<use xlink:href="#SVGID_21_"  style="overflow:visible;"/>
					</clipPath>
					<g class="st71">
						<path class="st70" d="M4198.5,1411.5l1.1,0.9l-11-18.5c1.9,4.7,3.9,9.3,6,14c1.6,2.6,30.6,30.9,10.6,12.2
							c-9.6-12.6-8.9-11.7,2.3,2.6c4.7,4.2,9.7,7.9,15,11.1c3.2,1.7,6.4,3.7,9.5,5.6c4.8,3,11.7,9-6-5.2l13.9,10.4
							c20.3,8.4,21.8,9.1,4.6,1.8c18.4,8.2,36.1,17.9,53.1,28.8c39.9,25,81.8,46.4,121.3,72.2c40.6,26.5,82.7,50.4,122.7,77.9
							c9.2,6.3,19.8,11.2,29.6,16.7c15.8,8.9,30.2,17.3,47.9,23.2c8.7,2.9,17.3,5.9,26,8.9c13.8,4.8,27.7,4.1,41.8,3.3
							c47.7-2.6,79.8-42.9,69.2-89.2c-13-56.6-64.3-98.7-111.2-130.4c-20-13.5-41.2-25.7-62-37.8c-22.6-13.2-45.5-27.3-69.5-38.2
							c-49-22.1-101.3-47.8-155.1-55.4c-26.1-3.7-52.3-7.1-78.7-7.1c-13.8,0.3-27.5,2.7-40.6,7.1c-6.3,1.7-12.4,4.1-18.2,7.2
							c-7,4.1-23.6,17.7-4.5,3.5l-10.9,8.2c11.2-8.7,10.3-8-2.6,1.8c-7.4,7.2-10.4,14.9-13.9,24.4l11-18.6l-1.1,1.1
							c-14.5,14.5-17.6,43.4,0,57.5L4198.5,1411.5z"/>
					</g>
				</g>
				<path class="st15" d="M5001.7,2783.5c9.6-75.3,12.5-151.7,14.5-227.8c1.7-55.5-0.3-111-5.8-166.2c-4.3-41.3-9.1-82.5-15.6-123.5
					c-12.7-81.1-25.8-161.5-43.3-241.7c-6.2-28.6-16.3-56.1-22.7-84.1c-7.1-30.6-14.3-60.6-25.7-90l-64.1-165.9
					c-9.3-24.1-18.6-48.3-31.2-70.9c-14.2-25.5-32.2-48.6-53.4-68.5c-22.1-20.8-47.5-37.9-73.1-54.5c-12.7-8.2-31.2-21.1-45.4-9.6
					c-18.2,14.5-23.6,42.6-28.4,63.8c-5.9,25.5-16.4,45.5-24.6,70.1c-17.4,52.7-30.1,107.3-31.6,162.9c-0.5,20,0.5,40.8,9.7,58.6
					c8.4,16.2,22.6,28.6,35.6,41.5c57.7,57.6,77.9,145.6,100.4,223.3c13,45,38.4,78.2,45,124.5c3.3,23,3.6,47.3,8.5,70
					c9.5,43.5,15.1,87.7,17,132.1c4.1,102.5,16.5,201.3-8.9,302.2c-2.5,9.7-4.9,20.8,0.8,29c5.2,7.8,16,9.9,25.3,11.4
					c68,10.4,136.4,18.2,205.1,23.4c2.8,0.5,5.6,0.1,8.1-1.3C5000.4,2789.9,5001.7,2786.8,5001.7,2783.5z"/>
				<g>
					<defs>
						<path id="SVGID_23_" d="M5001.7,2783.5c9.6-75.3,12.5-151.7,14.5-227.8c1.7-55.5-0.3-111-5.8-166.2
							c-4.3-41.3-9.1-82.5-15.6-123.5c-12.7-81.1-25.8-161.5-43.3-241.7c-6.2-28.6-16.3-56.1-22.7-84.1c-7.1-30.6-14.3-60.6-25.7-90
							l-64.1-165.9c-9.3-24.1-18.6-48.3-31.2-70.9c-14.2-25.5-32.2-48.6-53.4-68.5c-22.1-20.8-47.5-37.9-73.1-54.5
							c-12.7-8.2-31.2-21.1-45.4-9.6c-18.2,14.5-23.6,42.6-28.4,63.8c-5.9,25.5-16.4,45.5-24.6,70.1
							c-17.4,52.7-30.1,107.3-31.6,162.9c-0.5,20,0.5,40.8,9.7,58.6c8.4,16.2,22.6,28.6,35.6,41.5c57.7,57.6,77.9,145.6,100.4,223.3
							c13,45,38.4,78.2,45,124.5c3.3,23,3.6,47.3,8.5,70c9.5,43.5,15.1,87.7,17,132.1c4.1,102.5,16.5,201.3-8.9,302.2
							c-2.5,9.7-4.9,20.8,0.8,29c5.2,7.8,16,9.9,25.3,11.4c68,10.4,136.4,18.2,205.1,23.4c2.8,0.5,5.6,0.1,8.1-1.3
							C5000.4,2789.9,5001.7,2786.8,5001.7,2783.5z"/>
					</defs>
					<clipPath id="SVGID_24_">
						<use xlink:href="#SVGID_23_"  style="overflow:visible;"/>
					</clipPath>
					<g class="st72">
						<path class="st70" d="M5078.5,2801.5c2.6-8.1,5.2-16,7.8-24.2c-6.3,21.6-20.5,28.8-8.9,16.7c2.6-2.6,5-5.3,7.6-8
							c17.9-18.9,28.3-39.9,41.2-62c22.7-39.2,42-80.2,57.5-122.7c12.7-34.2,13.3-72.4,14.4-108.5c3-102.2-10.6-205.7-25.1-306.6
							c-12.8-88.7-26.6-178.9-53.4-264.8c-9.2-29.5-22.2-57.7-34.6-86.1c-13.3-30.5-27.5-60.5-43.3-89.8
							c-36.3-66.8-81.1-128.7-133.2-184.1c-59.5-63.5-132.4-115.9-209.7-156.4c-34.9-18.4-71.1-34.4-107.4-49.5
							c-28.9-12-57.8-24-87-35.5c-30.1-12-57.8-23.6-91.8-19.1c-47.7-0.2-92,24.8-116.5,65.7c-12.1,20.2-18.5,43.4-18.4,67
							c1.6,11.8,3.2,23.5,4.8,35.3c6.2,22.2,18.1,42.4,34.6,58.6c21.9,26.1,47.5,37.1,79,49.3l28.6,11.2c20.5,8,40.9,16.2,61.2,24.6
							l-33.9-14.1c72.5,30.2,143.7,64.4,206.4,111.6l-28.7-21.8c44.7,34.1,84.8,73.7,119.4,117.9l-22.2-28.2
							c47.9,61.6,84.8,130.3,115.5,201.4l-14.3-33.2c20.8,48.7,33.5,99.4,44.3,151c13.6,64.9,24.1,130.5,33.1,196.2l-5.1-36.9
							c5.2,38.1,11.1,76,16.4,114.1c-1.7-12.2-3.4-24.3-5-36.4c7.3,53.6,12.8,107.3,20.2,161c-1.6-11.8-3.2-23.6-4.8-35.5
							c5.2,38.9,6.5,78.5,13,117.3c-1.6-11.3-3.1-22.5-4.6-33.8c2.4,21.3,0.4,42.5-1.9,63.7c-5.6,51.6-15.3,113.9,10,161.4
							c-3-7-6-14-9-21.1c5,13.6,10.7,26.8,17.1,39.8l-7.6-17.7l0.7,4l-2.6-19.3c0.8,16.1,3.3,32,7.4,47.6
							c8.4,28.5,34.5,48.1,64.3,48.1c30.5,0,55.3-20.1,64.3-48.1L5078.5,2801.5z"/>
					</g>
				</g>
				<path class="st73" d="M4931.8,3140.3c49.6,23.4,96.1-105.3,103.1-137.8c10.9-50.6-1.3-95.2-7.1-144.8
					c-4-33.8-14-86.2-50.9-100.5c-21.7-8.4-56.1-5.8-79.8-10.9c-31.9-6.8-63.7-14.8-96.5-14.5c-10.1-1.5-19.9,4.3-23.4,14
					c-29.7,54.2-44.9,113.8-50.6,174.7c-4,43.2,48.8,70.4,64.4,20.1c6.7-21.7,0.6-90.4,41.7-78.3c22.3,6.5,38.7,44.1,47.5,62.8
					c24.6,51.6,25.5,110.6,29.6,167.4C4911.3,3111.1,4915.1,3132.5,4931.8,3140.3z"/>
				<path class="st74" d="M4953.6,3137c0.2-0.7,0.4-1.4,0.7-2.1l-3.1,5.2l0.6-0.7l-9,3.7c1.4,0.1,2.7-0.1,4-0.5
					c4.1-1.6,4.4-1.8,1.1-0.6c2.1-0.7,4.1-1.7,6-2.9l-13.3,1.7c8.4,3.3,16.9-2.6,22.9-7.8l-9.4,5.4l0.8-0.3c3.7-1,7-2.9,9.7-5.6
					c8.5-8.3,8.7-21.9,0.4-30.5c-2.8-2.9-6.3-4.9-10.2-5.9c-5.7-1.5-11.8-0.8-17,2.2c-3.3,1.9-6.1,4.5-8,7.8
					c-3.3,5.5-3.1,10.6-2.2,16.7v-10.4c-0.1,0.7-0.2,1.5-0.3,2.2c-0.8,3.8-0.7,7.7,0.2,11.5l-0.7-5.2c0.6,6.9,2.4,14.5,9.5,17.8
					c-2.6-3.4-5.3-6.8-8-10.3c0.3,2.2,1,4.3,2.2,6.2c-1.2-3-1-2.6,0.6,1.3c1.3,2.1,3.1,3.9,5.3,5l-5.8-7.5c-0.3-1.5-0.4-1.6-0.3,0
					c0,5.3,3.6,9.9,8.8,11.3c6.3,1.7,12.8-2,14.7-8.2L4953.6,3137z"/>
				<path class="st75" d="M4889.5,2884.5c7,18.2,21.3,33.1,28.6,51.3c8.2,20.4,3.3,38.6,4.5,59.7c0.9,15.8,22.6,28.8,34.8,14.2
					c19.7-23.4,19.4-55.5,7.6-82.5c-5.5-12.1-13-23.2-22.1-32.8c-8.6-9.4-20-20.8-31.9-26.1
					C4900.6,2863.6,4884.4,2871.4,4889.5,2884.5L4889.5,2884.5z"/>
				<path class="st7" d="M4750.9,2691.7c-4.1,13.4-8.3,26.8-12.5,40.1c-2.9,9.4-5.7,19.9-1,28.6c6.1,11.4,21.5,13.4,34.6,14.2
					c80.8,5.1,161.2,15.2,240.7,30.2l10.9-65.4c0.6-3.9,1.2-8.2-1.2-11.4c-1.7-1.9-3.8-3.3-6.2-4.1
					c-78.4-34.7-163.9-50.4-249.5-45.8c-2.9-0.1-5.7,0.5-8.3,1.7C4754.1,2682.1,4752.4,2687,4750.9,2691.7z"/>
				<path class="st51" d="M4755.8,3347.1c-14,2.4-28.2,3.8-42.4,5.2c-244.8,25.2-483.8,25.6-728.1-7.8c-50.9-7-108-13.3-152.4-38.7
					c-11-242.6-8-485.6,9-727.9c8.3-118.5,32.2-238.9,35-357.2c2.4-99,45.4-194.2,39.9-295c-3.1-57.6-2.8-113.2-15.3-170.3
					c-8.3-38-19.9-75.1-34.8-111c-14-33.8-21.9-66.6-43-97.4c16.5-7.8,28.1-23.9,42.9-34.6c15.9-11.4,33.3-20.5,51.8-27
					c5.3,1.9,11.9,41.9,13.9,47.9c32.5,94.4,118.4,174.8,212.4,208.4c81.6,29.1,177,31.4,253.4-13.5
					c50.3-29.5,92.1-62.8,121.2-113.3c28.3-49.3,43.2-104.1,53.8-159.4c2.3-12,95,24,104.8,30.3c-12.1,20.3-22.8,38.6-30.1,61.6
					c-22.4,70.9-28.6,139.5-30.8,213.1c-1.9,64.5,17.9,125.6,36.7,186.9c14.7,48.2,33.1,95.3,55.1,140.7
					c26.9,55.8,46,106.5,56.9,167.1c17.7,98.8,26,198.8,33.6,298.9c17.4,231.4,37,461.6,60.2,692.6c3.3,33.4,14.1,59.7-15.3,80.5
					c-22.5,15.9-57.8,14.3-83.9,19.1L4755.8,3347.1z"/>
				<g>
					<defs>
						<path id="SVGID_25_" d="M4755.8,3347.1c-14,2.4-28.2,3.8-42.4,5.2c-244.8,25.2-483.8,25.6-728.1-7.8
							c-50.9-7-108-13.3-152.4-38.7c-11-242.6-8-485.6,9-727.9c8.3-118.5,32.2-238.9,35-357.2c2.4-99,45.4-194.2,39.9-295
							c-3.1-57.6-2.8-113.2-15.3-170.3c-8.3-38-19.9-75.1-34.8-111c-14-33.8-21.9-66.6-43-97.4c16.5-7.8,28.1-23.9,42.9-34.6
							c15.9-11.4,33.3-20.5,51.8-27c5.3,1.9,11.9,41.9,13.9,47.9c32.5,94.4,118.4,174.8,212.4,208.4c81.6,29.1,177,31.4,253.4-13.5
							c50.3-29.5,92.1-62.8,121.2-113.3c28.3-49.3,43.2-104.1,53.8-159.4c2.3-12,95,24,104.8,30.3c-12.1,20.3-22.8,38.6-30.1,61.6
							c-22.4,70.9-28.6,139.5-30.8,213.1c-1.9,64.5,17.9,125.6,36.7,186.9c14.7,48.2,33.1,95.3,55.1,140.7
							c26.9,55.8,46,106.5,56.9,167.1c17.7,98.8,26,198.8,33.6,298.9c17.4,231.4,37,461.6,60.2,692.6c3.3,33.4,14.1,59.7-15.3,80.5
							c-22.5,15.9-57.8,14.3-83.9,19.1L4755.8,3347.1z"/>
					</defs>
					<clipPath id="SVGID_26_">
						<use xlink:href="#SVGID_25_"  style="overflow:visible;"/>
					</clipPath>
					<g class="st76">
						<path class="st77" d="M3743.5,1336c0.9,0.6,1.8,1.1,2.6,1.8l-23.7-18c1.2,1,2.3,2,3.3,3.2l-19.2-24.4c0.5,0.7,1,1.4,1.4,2.2
							c-5.7-20.9-11.4-41.8-17.1-62.5c0,0.9,0,1.9-0.2,2.8c-3,42.9,27.1,95.8,66.8,114.5l1.4,0.7l-27.3-20.8l1.1,1.1
							c-7.1-9-14.2-18-21.3-27l0.6,1.3c-4.6-10.7-9.2-21.4-13.8-32c1.7,4.5,2.8,9.1,3.5,13.9c-1.8-13-3.5-25.7-5.3-38.6
							c0.2,0.9,0.3,1.9,0.4,2.8l5.3-39.3c-8,20.8-8,61.5,0.3,82.1c-1.7-13.3-3.5-26.6-5.3-39.9c0,5.2-0.3,10.4-0.8,15.6
							c7.5-27.4,15.1-54.9,22.6-82.3c-15.3,32.8-23.9,49.2-23.9,86.2c0,33.8,8.7,56.9,24.3,86.5l-17.2-40
							c6.2,21.8,10.7,44,13.6,66.5c-2.3-16.6-4.5-33.2-6.8-49.7c5.2,39.3,10.2,78.3,15.6,117.4c-2.5-18.2-5-36.3-7.5-54.5
							c3.8,27.8,6.5,55.7,9.3,83.7c3.8,38.6,10.3,76.8,19.4,114.5c8.2,33.1,15.7,66.4,22.6,99.6c13,62.3,27.5,124.6,38.9,187.4
							c11.7,63.8,21.7,128.2,30.5,192.5c-3.1-23.1-6.3-46.2-9.5-69.3c22.1,164.3,19.7,328.4,10.6,493.5
							c-9.4,172.7-25,345-40.6,517.2c-8.8,96.1-17.7,192.3-26,288.5c-7,82.2-13.6,164.5-24.7,246.2l9.7-70.8
							c-6.2,44.8-13.7,89.5-23.4,133.8c-4.7,21.7-10.1,43.3-16.2,64.8c-9.4,33.8-10.2,66.4-11,100.2c-1,43.1,18.6,110.4,42.4,147
							c-11.2-40.7-22.4-81.5-33.6-122.3c1.1,26.4,6.2,52.5,10.8,78.5c10.4,58.3,59,114.7,109.7,143.9
							c72.7,41.9,165.4,39.8,237.7-1.8c7.3-4.2,47.9-32.6,62.3-49.3l-108.7,62.3c26.3-9.5,50.6-17.8,73-32.8
							c47.4-32,66-47.1,97.1-94.8c2.4-3.6,4.7-7.2,7-10.8c22.4-34.9,34.8-73.4,44.6-112.9c9.1-36.4,16.2-73.2,22.3-110.4
							c16-95.8,27-192.5,35.5-289.2c14.7-166.5,29.9-332.9,44.4-499.4c15-172,26.1-344.3,29.1-517c1.9-82-0.7-164.1-7.7-245.9
							c-5.6-61.3-14.2-122.3-23.4-183.1c-5.8-38.9-12.1-78.1-21.8-116.3c-23.7-93.9-51.4-189.3-92.5-277.3l25.3,59
							c-29.3-71.2-60.1-142-93.1-211.6c-10.6-22.3-25.2-43.3-38.5-64.3c-25.3-40.6-53.3-79.3-84-116
							c-45.2-53.7-106.7-114.8-182.6-109.8l44.1,5.8c-5.3-1.3-10.6-2.3-16-3.1l36.4,15.1c-37.4-18.7-78.2-28.4-119.7-15.7h79.8
							c-45.4-6.5-49.9-7-94.4-0.7h72l-1.6-0.2l32.2,13.4l-1.4-0.7c-33.8-15.9-66.8-23.4-103.9-13.4c-33.6,9.3-62.4,31.1-80.5,61
							l-1,1.6l19.7-25.1c-19.6,16.5-27.2,36.6-36.4,59.1c-5.4,19.4-5.4,40,0,59.4c8,28.6,26.9,51.3,52.2,66.8L3743.5,1336z"/>
					</g>
				</g>
				<path class="st78" d="M4737.2,2507.8c1.2-17.1-1.3-34-0.6-51.1c0.6-14.6,1-33.4-9.5-45.1c-10.5-11.7-34-15.1-48.5-19.1
					c-49.7-13.9-97.5-49.7-120.8-95.6c-18.9-37.2-28.1-84.4-26.6-126c0.5-14.9,10.1-29.8,1.2-44.1c-7.6-12.2-21.3-13.8-34.8-13.6
					c-42.6,0.6-85.3,2.4-128,1.8c-45.7-0.6-90.5-0.4-136.1,4.4c-34.2,3.6-68.9,2.6-103.2,4.4c-17.8,0.9-40.4,3.5-49.6,21.7
					c-4,7.8-2.6,17.3-1.3,26.1c7.3,51.7,12.5,108.1-8.4,157.4c-19.2,45.2-56.3,82.2-104.6,96.3c-11.1-7.2-31.9,1.9-38.2,13.4
					c-6.3,11.6-5.6,25.4-4.8,38.5c4.6,73.4,9.2,146.7,13.8,220c1.9,29.9,6.2,64.1,31.4,80.8c15.4,10.2,35,11.2,53.5,11.9l218.5,7.8
					c27.6,1,55.1,2,82.8,2.3c48.7,0.5,96.7-3.5,144.9-6.5c53.2-3.3,105.7-1,159-7.8c21.1-2.8,42.7-6.4,60.4-18
					c40.5-26.5,36.9-83.1,39.9-125.3L4737.2,2507.8z"/>
				<path class="st73" d="M4402.4,1401.4c-16.5-45.5-20.3-97.8-8-144.5l-133.8-1.7c-28.8-0.4-59.5-0.5-87.3,6.9
					c4.6-1.2,11.1,83.6,11,91.2c-0.4,18.3-17.3,53.6-6.1,69.9c9.4,13.7,46.3,19.6,61.5,22.6c52.1,10.1,108.2,1.2,153.5-26.4
					C4401.5,1414.5,4405.7,1410.5,4402.4,1401.4z"/>
				<path class="st7" d="M4297.7,1457.5c-4.8,11.5-22,24.8-27.6,30.2c-31.2,30-63.1,25.5-98.5,2.4c-12.5-8.2-79-58.6-60.6-74.2
					c4.2-3.6,10-4.9,15.4-5.9l40.7-8.3c6.3,5.2,24,7,32.7,12.2c14.1,8.3,31.9,19.1,47.6,23.7c11.6,3.4,44.3-3.1,50.6,10.4
					C4299.4,1451.1,4299.3,1454.6,4297.7,1457.5z"/>
				<path class="st7" d="M4433.9,1404.8c33.6,15-6.4,46.1-21.3,58.6c-23.4,19.8-50.2,39.1-82.6,35.6c-24.7-2.6-44.3-33.1-63-47.7
					c-2.6-2.2-5.1-4.3-2.2-6.2c20.2-6.8,42.4-5.7,63.2-13c20.1-7.1,36.4-19.8,54.5-30.3C4398,1392.7,4417.5,1397.5,4433.9,1404.8z"
					/>
				<path class="st79" d="M3986.1,2493.9v1c-2.9,25.1-5.8,46-17.4,69.4c-18.1,36.2-47.2,65.7-83.1,84.4
					c-17.5,9.1-38.9,12.2-58.8,13.7c-72.1,5.5-124.4-25.7-173.6-73.8c-37.5-36.6-70.6-88.1-58.7-142.3c8.4-38.2,31.2-78.9,69.4-94.6
					c22.6-9.2,46.5-11.7,69.2-19.4c23.9-8.1,31.9,2.6,39.5,22.2c12.2,31.4,34.6,58.2,61.3,78.6c25.3,19.3,54.4,36.4,87.1,38.6
					C3939.2,2472.9,3988.6,2464.5,3986.1,2493.9z"/>
				<path class="st73" d="M3998.4,2411.2c11.6-53.4,37.2-102.8,74.3-143.1c15-16.3,31.9-31.2,51.7-41.3c14.2-7.3,29.6-12,44.8-17
					c29.7-9.6,59-20.1,88-31.4c26-10.1,55.3-20,77.7-36.6c18.8-14,34.3-28.1,35-53.1c0.3-6-1.6-11.8-5.5-16.4
					c-6.2-6.8-22.5-2.3-25.5-11.3c-2-5.9,2.6-10.4,3.5-15.9c0.6-5.7-0.1-11.6-2.3-16.9c-4.5-13-16.3-19.1-29.9-16.2
					c-5.2,1.1-9.1,4.5-14.6,4.3c-9.8-0.4-5.5-5.7-5.2-12.8c0.2-12.4-8.2-23.3-20.2-26.3c-13.3-3.6-29.3,4.6-40.1,10.6
					c-5,2.8-15.3,9.2-18.9,1.4c-4.2-9.1,2.6-18.2-6.9-26.8c-6.4-5.8-15.6-6.2-23.1-4c-16.6,4.8-30.4,15-42.7,26.2
					c-13.5,12.2-30.9,20.2-46.9,29.5c-32.6,18.9-67,37.1-102.4,48.9c-46.3,15.4-105.9,0.3-142-31.6c-2.9-2.6-5.6-5.2-8.4-7.8
					c-15.9-14.3-30.5-22.8-52.3-23.6c-13-0.4-37.3,0.5-38.9,17.7c-0.9,9.1,6.5,19.2,11.5,26.1c11.6,16.2,26.6,29.9,41.3,43.3
					c11.7,10.7,26,18,37.2,29.3c30.8,30.6,26.5,71.7,8.6,107.7c-13.3,26.5-32.4,49.7-49.2,74.1c-9.5,13.7-12.6,22.3-6.6,37.9
					c13,33.1,41.1,59,69.9,79.1c31.2,21.8,63.7,39.3,103.2,39.3c12.5,0,23.6-3.8,27.7-16.4
					C3993.8,2429.1,3996.1,2420.3,3998.4,2411.2z"/>
				<path class="st7" d="M3995.4,2431.3l0.5,0.8c6.7,12,0.3,31.2,0.3,44.1c0,6.1-0.1,12.4-3.1,17.7c-3,5.3-9.5,6.8-15.6,7.1
					c-55.5,2.1-103.4,5.2-153.5-24.5c-29.1-17.4-53.2-42-70.1-71.4c-14.7-25.6-38.7-61.1-36.2-91.6c0.7-8,18.2-12.3,23.9-15.3
					c11.1-5.8,34.2-20.6,47.2-10.9c9.2,6.9,10.4,21.2,15.2,31.2c14.3,31.1,37.7,57.1,67,74.7c27.4,16.4,60.5,28.1,92.7,29.2
					C3973.8,2422.8,3989,2421.7,3995.4,2431.3z"/>
				<path class="st4" d="M4206.4,1761.1c-4.8-15.4-27.7-16-40.8-15.6c-43.2,1-86.3,2.4-129.4,2.5s-86.2-1.5-129.3-2.5
					c-13.1-0.3-36.1,0.3-40.8,15.6c-2.6,8.4-0.9,23.2-1,31.9c-0.1,16.6,3.4,33.1,10.2,48.2c5.8,13.6,8.6,26.9,18.8,38.1
					c9.4,10.7,19.5,20.8,30.1,30.3c13.4,11.5,36,18.9,38.9,37.6c3.8,24.9,7.5,24.3,32.4,24.5l34.1,0.3l0,0h13.3l0,0l34.1-0.4
					c24.9-0.3,28.6,0.4,32.4-24.5c2.8-18.7,25.4-26.1,38.9-37.6c10.7-9.5,20.8-19.6,30.2-30.3c10.2-11.2,13-24.5,18.8-38.1
					c6.8-15.2,10.2-31.6,10.2-48.2C4207.3,1784.2,4209,1769.4,4206.4,1761.1z"/>
				<g class="st48">
					<path class="st80" d="M4212.6,1460.5c-4.4,2.8-14.7,8.5-14.5,17.4c0.7,24.1-38.7,45.4-91.1,64.3
						c-43.5,15.6-90.1,28.9-123.2,60.8c-18.4,18.3-31.6,41.1-38.3,66.1c-3,11.3-6.8,38.2,2.1,47.8c7.4,7.8,10.4,3.6,16-2.6
						c32.6-37.4,81.5-52.3,129-64c62.8-15.3,120.9-38.3,129.5-109.7c2.6-21.3,5.2-43.2,2.3-64.5
						C4222,1460.1,4217.7,1457.2,4212.6,1460.5z"/>
				</g>
				<g class="st48">
					<path class="st80" d="M4249.7,1570.7c-5.7,19.7-16.7,37.4-31.6,51.4c-28.9,26.4-65.9,43.5-102.6,56.8
						c-11.5,4.1-47.9,10.8-50.5,25.5c-2.9,15.9,23,3.9,31.4,2.6c66.5-11.1,172,15.1,202.7-67.8c7.8-20.8,6.4-43.9-4-63.6
						c-9.5-18.8-15.2-40.3-27.4-57.9c-13-19-13,26.7-13.7,32.7C4253.1,1557.2,4251.7,1564,4249.7,1570.7z"/>
				</g>
				<path class="st4" d="M4312.1,1806c-0.3-14.4-6.1-28.2-16.1-38.4c-9.5-9.8-22.4-16.7-36.4-16.6c-17.7,0.2-41-1.9-56.1,9.2
					c-10.6,7.8-13.5,31.4-7.3,42.5c8.7,15.6,19.8,2.3,29-3.8c11.8-7.8,31.2-12.4,41.9-0.7c13,14.1-2.8,34.7-13.6,45.5
					c-16.2,16.4-40.2,26.8-62.9,30.1c-12.3,1.7-33.5,0.5-40.1,13.5c-8.8,17.6-3.9,24.5,15.6,23c23.7-2,47.1-7.1,69.5-15.2
					c26.3-9.6,48.1-30.1,64.4-52.3C4308.1,1832.2,4312.3,1819.3,4312.1,1806z"/>
				<path class="st73" d="M4570.6,884.5c7.5,0.3,14.7,3.4,20.1,8.7c29.5,28.2-7.6,82.7-7.8,115.1c0,10.7,0.3,34.6-18.2,30
					c-26.6-6.5-22.9-65.2-25.4-85.1C4536.9,934.6,4542.6,884.3,4570.6,884.5z"/>
				<path class="st73" d="M4063.6,1069.9c7,3.7,15.4,3.1,22-5.6c7.5-9.8,7.2-28,7.8-39.6c1.2-25.4,0.7-53.3-4.8-78.5
					c-4.9-22.7-16.5-56-46.6-49.3c-40.8,8.9-29.5,48.4-17.4,76.5c5.8,13.6,15,26.8,19.5,40.9c4.1,13,2.4,27.2,6.8,40.2
					C4053.1,1061,4057.6,1066.5,4063.6,1069.9z"/>
				<path class="st9" d="M4539,988.7c31.9-25,32.9-58.2,38.9-95.8c6.4-41.2,6.2-83.1-0.5-124.2c-6.4-39.4-25.7-73.7-53.2-102.7
					c-31.4-33.5-71.3-58-115.4-70.7c-26.2-7.3-53-11.8-80.1-13.5c-52.8-3.1-108.1,4.7-154.5,31c-19.1,11.1-36.8,24.4-52.8,39.7
					c-33,30.8-58.3,68.7-63.2,114.8c-3.7,35-1.8,70.2-2.6,105.4c-0.4,18.7-3.7,36-0.4,54.5c7.8,43.5,38.5,59.4,78.1,70.1
					c55.9,15.1,112.2,26.2,170.3,29.9c34.3,2.3,68.7,2.3,102.9,0c26.1-1.9,49.8-13,75.3-16.6
					C4504.7,1007.3,4519.8,1003.8,4539,988.7z"/>
				<path class="st73" d="M4405.9,1221.3c52.3-13.6,96.1-51.9,119.7-99.4c11-22.3,22.1-48.2,19.7-73c-3.2-34.8-9.5-69.3-12-104.1
					c-2.4-32.4,1.7-65.9,4-98.4c2.9-40.4-4.5-81.8-23.9-117.7s-50.8-65.4-89.1-80.5c-53-20.8-126.8-25-181.8-10.2
					s-104.6,46.7-128.1,99c-31.2,69.2-3.9,145.8-18.2,218.1c-17.7,89.9-14.2,202.5,78,251.2
					C4245.9,1244.3,4329.7,1241.2,4405.9,1221.3z"/>
				<path class="st20" d="M4486.9,671.7c3-5.2,4.6-11.2,4.6-17.2c-0.8-39.4-46.7-84-81.9-96.3c-39.4-13.7-85.9-10.7-125.4,1.3
					c-44.1,13.4-114.7,40-147.5-8.3c-11-16.1-7.2-27.7,5.2-39.6c5.6-5.4,22.4-16.7,4.9-18.8c-11.7-1.4-31.6,9.6-40.9,16
					c-26.2,18-45.2,46.3-59.3,73.4c-24.5,47.5-33.3,111.1,1,155.8c28.4,37,74.1,51.4,119.7,47.5c75.6-6.3,142.1-52.6,216.6-66.3
					c28.2-5.2,64.4-4.9,85.7-26.5C4476.3,686.6,4482.1,679.5,4486.9,671.7z"/>
				<path class="st20" d="M4536.1,1173c-7.5,21.2-17.8,41.2-30.6,59.7c-13.3,18.6-29.5,34.9-48.1,48.3
					c-48.3,34.2-110.9,48.6-169.8,45c-93.7-5.7-166.4-61.1-202.2-145.4c-13.1-30.8-20.6-63.6-22.2-97c-0.8-17.1-0.2-34.3,1.9-51.4
					c2.6-20-5.9-50.2,19.1-56.4c14.6-3.6,18.2,17.6,18.4,29.1c0.4,47.2,20.5,98.1,55.9,130c17.4,15.3,37,27.9,58.1,37.4
					c65.5,30.3,133.6,27.9,198.2-7c27.9-15.1,50.8-38.9,67.8-65.2c18.6-29,26.8-55.3,38.1-98.7c1.7-6.7,7.4-36.8,13.9-40
					c24.5-12,18.6,72.3,19.5,85.2C4556.6,1089.7,4550.5,1132.6,4536.1,1173z"/>
				<path class="st81" d="M4546.5,846.1c-12.4-13.7-56.3-8.5-73.9-8.9c-18.4-0.4-36.2,3.3-54.5,3.3c-46.7,0-93.7,0-140.5,1.9
					c-45.6,1.8-91.5-4-137,0.3c-17.8,1.7-36.1,2.3-53.7,5.8c-12.8,2.6-31.2,2.4-40.3,13.6c-9.1,11.2-4.2,27.7,0.5,39.3
					c7.2,18.2,22.3,52.7,38.5,64.1c14.2,10,31.9,13.5,49.5,15.2c14.8,1.4,29.9,1.7,44.3-2c44.8-11.3,53.6-53.8,60.8-93.5
					c1.8-9.8,5.3-14.4,14.5-18.9c9.2-4.4,19.6-5.2,29.7-5.2c28.6,0,44.1,22.6,56,45.1c7.1,13.5,13.3,29.4,23.4,41.9
					c28.3,35,100.6,34,132,3c16.2-16,26.9-36.8,39.9-55.8C4545.5,881.3,4558.9,859.6,4546.5,846.1z M4208.4,927.9
					c-19.1,33.6-62.3,38.7-97.1,28.9c-16.6-4.7-23.4-11.3-31.5-25.8c-7.8-13.8-16.6-33.5-8.3-48.8c5.6-10.2,18.6-13,29-15.6
					c19.6-5,39.7-7.6,59.9-7.8c14.3-0.3,60.3-5,61.4,16.1C4222.3,893.5,4217.7,911.9,4208.4,927.9z M4495.7,918.8
					c-12.5,14.1-28.5,24.7-46.3,30.8c-30.8,10-65.4,0.9-79.1-29.4c-5.8-12.8-13.3-25.7-18.6-38.4c-11.7-28.8,40.8-21.5,54.5-22.2
					c31.4-1.5,64.4-3,95.8,0c6,0.6,12.4,1.5,17,5.5c13.6,11.9-14.9,44.5-23.4,53.7L4495.7,918.8z"/>
				<path class="st20" d="M4424.3,1122.2c-3.2-55.4-74.2-85.2-122.4-83.1c-12.3,0.5-24.8-0.9-37.2,0.6
					c-37.9,3.9-72.2,24.1-93.9,55.4c-2.6,4-6.9,9.8-6.5,15c0.5,9,8.4,7.5,15.9,8c22,1.5,44.6-0.7,64.9-9.3
					c10.2-4.3,19.6-10.2,27.9-17.4c7.2-6.3,13.6-23.8,24.9-24c9.1,0,13,10,15.8,17c12.8,33,57.8,43.4,89.7,46
					C4412.3,1130.9,4425.1,1135.4,4424.3,1122.2z"/>
				<path class="st74" d="M3778.7,2044.8c0.2-0.7,0.9-2.6-0.4,0c1-2,1.5-4.2,1.5-6.4c-0.6,1.9-1.1,3.9-1.6,5.8c1-1.5,1.8-3.2,2.4-5
					c-0.2,0.7,1.4-10.9,0.2-3.8c1.1-5.6,1-11.4-0.5-17c-2.4-8-9.8-13.5-18.2-13.6c-8.3,0-15.7,5.5-18,13.6
					c-4.7,15.6,9.9,35.1,27,31.2h-6.3c2.2,0.7,4.6,0.8,6.9,0.2c-2.9,0.8,1.5-0.2,2.3-0.3c2.3-0.6,4-2.3,4.7-4.6L3778.7,2044.8z"/>
				<path class="st74" d="M4184.4,2001.1c3.7-1.5,7-3.9,9.7-6.9c1.1-0.9,1.2-1.1,0.3-0.3l1.9-1.2c1.2-0.8,2.4-1.6,3.7-2.4h-15.3
					c6.5,3.6,14.5,2.6,19.8-2.6l0.8-0.8c6.3-6.4,6.3-16.6,0-23c-6.9-6.8-21.6-6.4-26,3.3l-0.5,1.1c-2.9,6.3-3.4,14.5,2.6,19.5
					l0.2,0.2c-1.4-4.8-2.6-9.7-3.9-14.5c-0.3,1.5-0.7,2.9-1.1,4.4c-0.2,0.7-0.4,1.5-0.6,2.2c0.6-1,0.5-0.9,0,0.4
					c-1.6,3.6-4.1,7.5-3.6,11.6c0.6,5.9,5.7,11.1,12.2,9.2L4184.4,2001.1z"/>
				<path class="st74" d="M4257.6,2023.5c4.9,0.5,8.5-1.7,12.4-4l-4.5,1.9c3.4-1,6.5-2.8,9.1-5.2c0.8-0.7,1.6-1.3,2.4-1.9l-4.1,3.1
					l1.1-0.8c4.6-2.7,8-7.1,9.5-12.2c3-10.8-3.4-22-14.2-25c-0.1,0-0.2,0-0.3-0.1c-7.2-2-14.8,0-20.1,5.2c-2.5,2.5-4.4,5.6-5.3,9
					c-0.3,0.9-0.7,1.8-0.9,2.6c-1.1,4-1.2,8.1-0.3,12.1c-0.2-1.6-0.5-3.3-0.7-4.9c-0.1,2.7,0.2,5.4,0.8,8c0.8,3,2.6,5.8,5,7.8
					c2.8,2.5,6.4,4,10.2,4.2L4257.6,2023.5z"/>
				<path class="st74" d="M4315.5,2047.3c0.4-0.2,0.9-0.5,1.4-0.6h-9.9c3.7,2.4,7.8,1.8,11.9,1.2h-7.6c4,1.1,8.3,0.9,12.2-0.5
					c5.2-1.5,10.4-2.4,13.9-6.9c7.4-7.2,7.5-19.1,0.3-26.5c-0.1-0.1-0.2-0.2-0.3-0.3c-4.9-4.8-11.9-6.6-18.5-4.9
					c-6.7,2.1-12.1,6.9-15,13.3c-3.3,6.6-4.4,12.5-1,19.3c-0.7-2.4-1.3-4.7-1.9-7.1c-0.3,4.1,1.3,8.1,4.3,10.9l-2.9-6.8
					c-0.1,0.5-0.1,1,0,1.5c0.2,5,4.5,8.8,9.4,8.6C4313,2048.3,4314.4,2047.9,4315.5,2047.3L4315.5,2047.3z"/>
				<path class="st74" d="M4344.1,2098.1c-7.8-2.4-8.6-2.6-2.6-0.2c1.6,0.4,3.3,0.6,5,0.6c-8.2-0.3,1.7,0,4.1,0
					c1.3,0,2.6,0.1,3.9,0.2c4.4,0.1,8.8-1,12.7-3.2c14.9-7.4,10.6-30.1-4.5-34c-8-2.1-15.2,0.2-22,4c-3.6,1.9-6.5,4.8-8.5,8.3
					c-1.6,2.6-2.5,5.6-2.6,8.7c0-4,1.2,12.6,0.2,1.5C4329.9,2091.8,4336.2,2098.1,4344.1,2098.1L4344.1,2098.1z"/>
				<path class="st82" d="M4314.4,1980.7c-9.7,7.5-19.9,14.6-30.4,21.1c-51.3,32.6-110.8,30.9-169.2,36.6l-41.3,4
					c-14.7,1.4-29.3,2.9-44.1,3.3c-14.3,0.4-28.6,0-42.8-0.7c-40.6-1.8-81.1-5.7-121.2-11.8c-18.6-2.9-41.2-4.2-58.5-11.3
					c-16.1-6.6-30.1-17.8-42.6-29.7c-11.3-10.6-27.4-19.6-34.6-33.8c-16.3-32.5,49.1-22.4,62.3-22.4h530.4c15.1,0,22,10.2,13.9,22.5
					C4330.1,1967.1,4322.8,1974.5,4314.4,1980.7z"/>
				<path class="st20" d="M4432.7,924.6c10-0.1,18.1-8.4,17.9-18.4c-0.1-10-8.4-18.1-18.4-17.9c-9.9,0.1-17.9,8.2-17.9,18.2
					C4414.4,916.4,4422.6,924.5,4432.7,924.6z"/>
				<path class="st20" d="M4163.6,925.3c9.6-0.1,17.3-8.1,17.2-17.7c-0.1-9.6-8.1-17.3-17.7-17.2c-9.5,0.1-17.1,7.9-17.2,17.4l0,0
					C4146,917.5,4153.9,925.3,4163.6,925.3z"/>
				<path class="st74" d="M4253.1,1130c-7.5,19.8,18.6,29.3,33.8,29.9c10.4,0.4,23.4-2.2,31.7-8.8c6.4-5.2,14.1-16.6,8-24.7
					c-1.8-2.9-5.6-3.9-8.5-2.2c-4.1,2.2-6.7,6.6-10.6,9.2c-5.4,3.5-11.5,5.6-17.9,6.2c-10.4,1-25.5,0-31.3-10.1
					c-0.6-1.3-2.2-1.8-3.5-1.2c0,0-0.1,0-0.1,0.1c-0.7,0.4-1.2,1-1.4,1.7L4253.1,1130z"/>
				<path class="st74" d="M4298.5,872.1c-26-27-42.8,7.2-44.6,31.7c-2.6,34.7-4,65.6,0,100.8c3.4,30.2,19.1,69,58.3,49.2
					c30.6-15.6,26.3-65,21.6-92.7c-2.7-17.6-7-34.8-13-51.6C4316,895.6,4308.4,882.9,4298.5,872.1z"/>
				<path class="st75" d="M4426.2,1014.2c-2.6,6.8,2.6-4.8-2.1,3.2c-1.4,3.1-2.6,6.2-3.6,9.5c-2.4,5.9-2.6,12-3.5,18.3
					c0.9-3.1,1.7-6.1,2.6-9.2l-1.7,3.2c-6.2,11.2-1.1,27.4,12.6,30.4c18.4,4.2,37.5-3,48.6-18.4c11.8-15.6,10.1-34.5,2.4-51.2
					c-4.8-10.4-19.6-15.1-30.1-12c-12.3,3.4-23,10.9-30.4,21.2c-9.3,12.3-8.6,31.8,2.3,42.4c12.7,12.5,31,7.8,40.7-5.2
					c3-4.3,4.6-9.4,4.5-14.6v-1.7c0.1,2.5-0.6,5-2,7.1c2.3-5-4.1,4,0,0c-3,2.2-3.2,2.4-0.7,0.9c-3.2,1.2-3.3,1.3-0.4,0.3l-30-12
					c-1.2-3-1.3-3.1-0.4-0.4c1.9,6.2-0.3-5.5,0,0.7c-0.2,2.9,0,2.6,0.3-1.3c-1.2,5.8,2.6-4.5-0.2,0.6c-0.6,1-1.3,2-2,3
					c3.4-4.8,0.2-0.6-1,0.4c2.3-1.8,2.3-2,0-0.6c-5.2,2.8,4-1.2-1.8,0.6l23.8,9.5c-4.4-5.8-5.7-18.6-12.1-25.2c1,2.4,2.1,4.8,3,7.2
					c-0.1-1.5-0.1-2.9,0-4.4c0-11.1-15.2-12.1-18.8-2.6L4426.2,1014.2z"/>
				<path class="st75" d="M4147.8,1012c-1.5,1.8-3,3.7-4.3,5.6l11.2-8.4l-0.9,0.1c-5.3,1.3-9.8,4.7-12.5,9.5c-6,9.5-3.1,22.1,6.4,28
					c0.1,0.1,0.3,0.2,0.4,0.2c9.8,6,22.6,3,28.7-6.7l0.5-0.9c1.1-1.7,2.1-3.2,3.1-5c0.9-1.8,1.6-3.3,2.6-4.9
					c6.4-10.8,2.8-24.8-8-31.2c-0.1-0.1-0.3-0.2-0.4-0.2c-5.4-3.1-11.9-3.9-18-2.3c-7.3,1.8-13.6,6.2-17.7,12.5
					c-7.2,11-4,25.8,7,32.9c9.3,6.1,21.6,4.8,29.6-3c4.5-4.2,7-10.1,6.9-16.3c0-0.2,0-0.5,0-0.7c-0.3,2.1-0.6,4.1-0.8,6.2v-0.2
					c-0.8,1.9-1.6,3.7-2.4,5.6c0.1-0.2,0.1-0.3,0.2-0.4l-3.6,4.7c0.2-0.3,0.5-0.5,0.8-0.7l-4.8,3.7c2.2-1.5,4.4-3.2,6.4-5l-4.8,3.6
					l1.2-0.9l-34.2-26c-0.4,1.8-0.6,3.7-0.9,5.6c-0.8,3.8-1.2,7.7-1.1,11.6l31.4-17.7l-0.8-0.4l6.7,6.6c-0.5-0.8-1-1.5-1.5-2.3
					c-2.2-3.8-5.9-6.5-10.1-7.6c-5.2-1.4-12.8-0.2-16.4,4.3L4147.8,1012z"/>
				<path class="st75" d="M4357.7,782.3c-3.6,0.6-9.4,0-13.6,6c-4.2,6,0,15.2,6.9,16.7c23.4,5.3,47.4,6.8,71.3,4.2
					c23.1-2.6,64.1-7.8,57.7-40.1c-2.6-13.3-17.9-21.7-30.1-24.4c-16.3-3.6-33.5-1.1-49.7,1.7c-28.1,4.8-55.4,13.4-81.1,25.7
					c-11.7,5.7-14.3,24.3-4.3,32.7c13,11,31.7,12.2,48.2,13.5c20.5,1.6,41.2,1.2,61.6-1.2c18.9-2.2,38.7-5.2,53.6-17.8
					c17.9-15.1,8.4-39.4-8.2-50.3c-15.6-10.4-38.6-10.6-56.7-10c-21.8,0.5-43.3,4.5-63.8,11.8c-19.6,7.3-55.4,29.1-33.3,53.4
					c2.5,2.7,5.6,4.6,9.1,5.7c1.9,0.5,15.1-0.7,5.2,0.5c2.6-0.3,1.1,0.8,6.8-0.7c5.7-1.6,9.4-5.6,13.8-9.1c0.8-0.7,4.9-4.1,0.3-0.7
					c2-1.4,4.1-2.7,6.3-3.9c6.6-3.7,17.7-6.9,29.1-9.4c11.2-2.4,22.6-3.7,34-3.6c12.6-0.2,15.6-0.4,26.6,3.5c-5.5-1.9,0,0.3,1.4,1.1
					c-2.9-1.8-2.6-1.6-4.9-6.6c0.7,2.4,0.6,1.4-0.3-2.8c0-2.6,0.6-5.2,1.9-7.4c0.9-1.7,4.6-4.2,3-3.2c-1.2,0.8-2.5,1.4-3.8,2
					c5.2-2.6-1.5,0.4-2.6,0.8c-5.3,1.6-10.7,2.8-16.2,3.7c-11.1,1.6-22.3,2.5-33.5,2.8c-11.9,0.4-23.8,0.1-35.7-0.9
					c-0.9,0-9.3-1.1-4.1-0.4c-2.2-0.3-4.4-0.8-6.6-1.2c-1.8-0.4-3.5-0.9-5.2-1.5c6.2,2-1.5-2,4.3,2.6l-4.3,32.7
					c18-8.6,36.8-15.4,56.1-20.3c11.3-3.3,22.9-5.3,34.6-6.1c3.9-0.4,7.9-0.1,11.8,0.9c5.2,1.3-2.6-1.6,1.8,0.8
					c-1.7-1.5-1.7-1.5-0.1,0c-1.1-1.1-1.8-2.5-2.1-4c-1.6-4.2,0.4-9.2,3.2-12.3c-1.4,1.6,3.2-1.8-1.4,0.6c4-2.1-1,0.3-1.7,0.6
					c-2.6,0.8-5,1.5-7.6,2.1c-10.1,2.3-20.3,4-30.6,5.2c-17.8,2.3-36.5,2.8-53.8,7.8l14.7,11.1v-0.4c-1.1,2.6-2.2,5.2-3.4,8
					c2.6-2.6,4.5-5.7,5.6-9.2c2.4-6.5-4.6-11-10.4-10.1L4357.7,782.3z"/>
				<path class="st75" d="M3980.5,2153.2c6.1,11.4,23.1,15,34.6,13c13.1-2.2,24.8-7.8,36.4-13.7c11.2-6.1,22-12.8,32.5-20
					c6-3.7,11.8-7.8,17.4-12.2l4.3-3.5c3.5-3.4,6.1-7.7,7.4-12.5c-2.1,4.5-2.6,5.5-1.3,3.1c9.7-18.5-2.6-36.1-22.4-38.4l-1.3-0.2
					c7.4,0.9,6.5,0.8-2.6-0.4c-6.3,0-10.6,2.2-16.2,4.6c-3.9,1.7-7.6,3.8-11.1,6.3c-9.6,6.5-19.1,13-28.6,19.8
					c-8.6,6.1-17.6,11.8-26.1,18c-4.6,3.3-9.3,6.1-13.8,9.6l-3.7,4.8c2.1-2.6,2.3-3,0.6-1.4c4.4-4.1-2.3,1.5-3.4,2.6
					c-5.3,5.5-6.4,13.8-2.6,20.5L3980.5,2153.2z"/>
				<path class="st75" d="M3906,2198.9h0.9l-9.6-16.7c-2,7.8,2.5,17.1,1.2,23.6c-2.1,10.4-7,18.7-13,28
					c-6.4,9.4-13.6,18.2-21.8,26.2c-7.3,7.6-16.8,13.6-23.5,21.8c-7.7,9.4-10.8,20.9-4.2,32.1c5.8,9.8,19.1,15.9,30.4,12.2
					c31.8-10.4,54.5-46.7,66.7-75.6c6.4-14.7,8.3-31,5.7-46.9c-2.2-13.4-13-31.2-28.3-31.2c-9.5,0-15,8.5-13.3,17.1l-0.2,2.8
					c-1.7,5.2,4.4,8.9,8.9,6.7L3906,2198.9z"/>
				<path class="st75" d="M4219.5,2107.1c1.4-2.1-2,2,0.5-0.5c-2.1,1.5-2.6,1.9-1.3,1.1c2.4-1.4,4.4-3.3,5.8-5.7
					c-1.7,2.1-2.1,2.6-1,1.4c1.1-1.2,0.8-0.7-1.5,1.1c0.4-0.3,0.9-0.6,1.4-0.8c-4.5,2.4-2.6,1.1-1.1,0.6c1.7-0.6,3.4-1.3,5-2.1
					c-2.9,1.1-3.5,1.4-1.7,0.8c4.9-1.2,9.2-4.1,12-8.3c4.6-8.2,1.7-18.6-6.5-23.2c-1.2-0.7-2.5-1.2-3.9-1.6
					c-11.3-3-21.9,3.2-28.4,11.8c-3.5,4.7-4.9,10.6-3.9,16.4c0.6,3.1,1.7,6.1,3.1,8.9c2.2,3.8,6.3,6.1,10.6,6
					c4.3-0.1,8.4-2.3,10.6-6H4219.5z"/>
				<path class="st75" d="M4155.4,2046.4c-1.7,2.7-2.6,5.8-2.6,9c-0.1,3.8,1.5,7.4,4.2,10c5.6,5.6,14.8,5.6,20.4,0
					c2.7-2.7,4.2-6.2,4.2-10c0-0.2,0-0.4,0-0.5c-0.2,1.3-0.4,2.6-0.5,3.7c0-0.2,0.1-0.5,0.2-0.7c-0.5,1.1-1,2.3-1.5,3.4
					c0.1-0.2,0.2-0.4,0.4-0.6c2-3.3,2.5-7.2,1.5-10.9c-2.2-7.6-10-12-17.6-9.9l0,0l-3.5,1.4
					C4158.4,2042.5,4156.7,2044.3,4155.4,2046.4L4155.4,2046.4z"/>
				<path class="st75" d="M4266.9,2143.2c0.4-0.7,0.8-1.4,1.2-2.1c-1.4,1.4-2.8,2.6-4.2,4.1c3.8-2,6.2-6,6.2-10.4
					c0-6.7-5.4-12.2-12.1-12.3c-5.6,0-10.5,3.7-11.9,9.1c-1.5,5.3,1,11,5.8,13.6l-4.2-4.1l1.2,2.1c3.1,5,9.6,6.5,14.5,3.4
					C4264.8,2145.8,4265.9,2144.7,4266.9,2143.2L4266.9,2143.2z"/>
				<g class="st37">
					<g>
						<defs>
							<path id="SVGID_27_" d="M4486.9,671.7c3-5.2,4.6-11.2,4.6-17.2c-0.8-39.4-46.7-84-81.9-96.3c-39.4-13.7-85.9-10.7-125.4,1.3
								c-44.1,13.4-114.7,40-147.5-8.3c-11-16.1-7.2-27.7,5.2-39.6c5.6-5.4,22.4-16.7,4.9-18.8c-11.7-1.4-31.6,9.6-40.9,16
								c-26.2,18-45.2,46.3-59.3,73.4c-24.5,47.5-33.3,111.1,1,155.8c28.4,37,74.1,51.4,119.7,47.5c75.6-6.3,142.1-52.6,216.6-66.3
								c28.2-5.2,64.4-4.9,85.7-26.5C4476.3,686.6,4482.1,679.5,4486.9,671.7z"/>
						</defs>
						<clipPath id="SVGID_28_">
							<use xlink:href="#SVGID_27_"  style="overflow:visible;"/>
						</clipPath>
						<g class="st83">
							<path class="st9" d="M4201.9,449.6c-13-16.3-40.3-14-56.9-6.9c-5.7,2.5-11.2,5.3-16.5,8.4l6.4-3c-8.5,2.3-16.3,6.8-22.6,13
								c-2.9,3.2-5.7,6.4-8.4,9.8c-12.3,15.3-22.2,32.5-29.2,50.8c-8.2,20.3-6.4,43.8-3.2,64.9c11.1,72.9,89.4,99,154.6,97.1
								c25.1-1,49.8-6.3,73-15.7c21.5-8.3,42.8-16.1,65.7-20c12.4-2.1-15.4,1.7-2.6,0.4c3.6-0.4,7.3-0.6,10.9-0.8
								c8-0.5,16.2-0.4,24.2-0.2c4.5,0,9,0.4,13.3,0.8c-19.2-1.3-10.3-1.5-5.1-0.4c2.6,0.6,5.2,1.4,7.8,2.4c-18.6-6.4-7.1-3-2.3-0.2
								c3.8,2.2,12.2,8.7-3.3-3.1c2.2,1.6,4.2,3.4,6.2,5.2c4,3.7,16,19.5,3.5,2.8c3.5,4.7,6.6,9.7,9.4,14.8c1.5,2.6,2.8,5.2,4.1,7.8
								c6.9,14-3.9-9.9,0-0.2c4.3,11.4,7.7,23.2,10,35.2c0.6,3,1,5.9,1.5,8.9c-3.1-19.6-1.2-8.5-0.7-4.1c0.6,7.2,1.5,14.3,3,21.4
								c2.3,5.5,4.6,11,7.1,16.3c-5.6-13.1-5-11.6,2,4.6c7.3,14,20.1,24.3,35.3,28.6c20.4,5.5,37.9-2.3,52.8-15.1
								c23.2-19.9,20.8-53.6,17-80c-8.2-57.1-38.8-122.6-94.2-149c-58.5-27.9-132.6-15.6-191,7.2c-8.9,3.5-17.9,7-27,9.9
								c-4.5,1.5-9.1,2.6-13.8,3.6c-2.4,0.5-4.8,1-7.2,1.4c21.8-3.6,8.7-1.2,3.3-0.9c-6.3,0.4-12.7,0.4-19.1,0.2
								c-5.6,0-27.6-3-5.1,0.3c-5.6-0.8-11.1-2-16.5-3.5c-2.6-0.8-5.2-1.7-7.6-2.6c18.8,7,7.4,3,2.8,0.3c-4.2-2.4-10.6-8.8,4.1,3.4
								c-3.9-3.3-11-13,1.1,2.9c-1.4-2-2.7-4.2-3.9-6.4c8.9,16.3,3,7.4,1.4,1.6c-2.9-10.8,1.4,15.6,0.3,3.9c-0.3-4.3-0.3-8.7,0-13
								c0.2-4.2,0.7-8.3,1-12.4c0.6-9.3-3,15.8,0.2,0.7c1.6-7.3,3.6-14.4,6.2-21.3l1.2-3c-4.2,10.3-3.3,8.3,2.6-5.8
								c2.5-15.7,2.6-17.8,0.3-6.3c1.5-4.6,1.1-3.8-1.3,2.1c8.3-18.6,19.9-37.6,5.2-56.3L4201.9,449.6z"/>
						</g>
					</g>
				</g>
				<path class="st9" d="M4324.7,1215.7c-4.4,2.5-8.5,5.4-12.4,8.7c-3.8,3.1-6.7,7.1-8.5,11.6c-0.4,1.6,0.5,3.3,2.2,3.7
					c0.8,0.2,1.6,0.1,2.3-0.3c3.3-2.4,6.4-5,9.3-7.8c3.6-3,7.5-5.8,11.5-8.2c2-1.3,2.5-4,1.2-6c0,0,0-0.1-0.1-0.1
					c-1.3-1.8-3.7-2.4-5.7-1.5V1215.7z"/>
				<path class="st9" d="M4318,1259.1c-9.4,1.8-22.3,9.1-24.4,19.1c-1.5,7.3,6.1,14.4,13.3,10.1c4.2-2.9,7.7-6.8,10-11.4
					c2.1-3.5,4.7-6.7,7-10.1c2.6-4.2-1.7-8.5-6-7.8L4318,1259.1z"/>
				<path class="st9" d="M4270.5,1245.7c-2,1.3-3.9,2.8-5.6,4.5l-2.1,2.1c-1.2,1.4-2.1,3-2.6,4.8c-1.9,4.6,3.9,10.4,8.6,8.5
					c1.8-0.5,3.4-1.4,4.8-2.6l2.1-2c1.7-1.7,3.2-3.5,4.5-5.5C4284.3,1249.5,4276.5,1241.8,4270.5,1245.7L4270.5,1245.7z"/>
				<path class="st9" d="M4250.7,1211.4c-2.1,2.4-4.5,4.7-6.4,7.3c-2.2,3-4.7,5.8-4.4,9.8c0.3,3.6,3.2,7.8,7.4,7.3
					c2.5,0,4.9-1,6.8-2.6c1.1-1.1,2.2-2.3,3.3-3.5c2.3-2.7,4.3-5.5,6.2-8.5C4268.8,1213.6,4256.8,1204.4,4250.7,1211.4
					L4250.7,1211.4z"/>
				<path class="st9" d="M4350.9,1282.1c-1,1-1.9,2.1-2.6,3.3c-0.6,1.3-1.1,2.6-1.7,3.9c-0.7,2.5-0.7,5.2,0,7.8
					c0.4,2.5,1.2,4.8,2.5,7c3.5,5.7,10.9,7.6,16.7,4.3c1.8-1,3.3-2.5,4.3-4.3c1.3-2.1,2.1-4.5,2.4-7c0.7-2.5,0.7-5.1,0-7.6
					c-0.5-1.3-1.1-2.6-1.7-3.9c-0.7-1.3-1.6-2.5-2.6-3.5c-4.8-4.7-12.4-4.7-17.2,0l0,0H4350.9z"/>
				<path class="st9" d="M4226.7,1283.5c1.9,1.8,4.3,2.9,6.9,3.2c2.2,0,4.4-0.5,6.4-1.5c4.8-2.3,8.2-9,5.3-13.8
					c-1.7-2.9-5.1-4.3-8.4-3.6c-1.5,0.3-2.9,1.1-4,2.2c-1,0.9-1.7,2.1-2,3.4c-0.2,0.6-0.7,1.7,0.3-0.6c-0.1,0.2-0.2,0.4-0.3,0.5
					c1.1-1.8,1-1.2,0.5-0.6c1.2-0.8,1.5-1.1,0.8-0.6c-1.1,0.6,1.9-0.7,0.7-0.3h-0.6l1.3-0.2c-1.3,0-2.7,0.3-3.8,1
					c-0.6,0.3-0.4,0.2,0.8-0.3c-0.3,0.1-0.7,0.3-1.1,0.3c-2.2,0.6-3.9,2.3-4.5,4.4c-0.6,2.2,0,4.6,1.7,6.2V1283.5z"/>
				<g>
					<defs>
						<path id="SVGID_29_" d="M4536.1,1173c-7.5,21.2-17.8,41.2-30.6,59.7c-13.3,18.6-29.5,34.9-48.1,48.3
							c-48.3,34.2-110.9,48.6-169.8,45c-93.7-5.7-166.4-61.1-202.2-145.4c-13.1-30.8-20.6-63.6-22.2-97c-0.8-17.1-0.2-34.3,1.9-51.4
							c2.6-20-5.9-50.2,19.1-56.4c14.6-3.6,18.2,17.6,18.4,29.1c0.4,47.2,20.5,98.1,55.9,130c17.4,15.3,37,27.9,58.1,37.4
							c65.5,30.3,133.6,27.9,198.2-7c27.9-15.1,50.8-38.9,67.8-65.2c18.6-29,26.8-55.3,38.1-98.7c1.7-6.7,7.4-36.8,13.9-40
							c24.5-12,18.6,72.3,19.5,85.2C4556.6,1089.7,4550.5,1132.6,4536.1,1173z"/>
					</defs>
					<clipPath id="SVGID_30_">
						<use xlink:href="#SVGID_29_"  style="overflow:visible;"/>
					</clipPath>
					<g class="st84">
						<path class="st9" d="M4530,954.7c-0.4,14.7-2.2,29.4-5.3,43.8c-3.6,15.6-10.3,30.8-16.6,45.6c-12.6,29.4-28.2,57.4-46.4,83.7
							c-14.1,20.1-33.1,38.5-52.3,55.3c-10.8,9.5-21.6,18.6-31.5,28.9c-11,11.3-26,20.4-27,37.3c-0.5,7.5,5.5,13.4,12.1,15.7
							c15.1,5.2,33.2-6.3,46.2-13c15-7.8,29.1-17,42.2-27.7c24.3-20.3,45.5-44.1,62.8-70.6c20-29.7,35-63.5,46.7-97
							c11.7-33.5,14.1-77.9-5.7-108.7c-4-6.3-12.3-8.2-18.7-4.3C4532.5,946.1,4530.1,950.2,4530,954.7L4530,954.7z"/>
					</g>
				</g>
				<g>
					<defs>
						<path id="SVGID_31_" d="M4737.2,2507.8c1.2-17.1-1.3-34-0.6-51.1c0.6-14.6,1-33.4-9.5-45.1c-10.5-11.7-34-15.1-48.5-19.1
							c-49.7-13.9-97.5-49.7-120.8-95.6c-18.9-37.2-28.1-84.4-26.6-126c0.5-14.9,10.1-29.8,1.2-44.1c-7.6-12.2-21.3-13.8-34.8-13.6
							c-42.6,0.6-85.3,2.4-128,1.8c-45.7-0.6-90.5-0.4-136.1,4.4c-34.2,3.6-68.9,2.6-103.2,4.4c-17.8,0.9-40.4,3.5-49.6,21.7
							c-4,7.8-2.6,17.3-1.3,26.1c7.3,51.7,12.5,108.1-8.4,157.4c-19.2,45.2-56.3,82.2-104.6,96.3c-11.1-7.2-31.9,1.9-38.2,13.4
							c-6.3,11.6-5.6,25.4-4.8,38.5c4.6,73.4,9.2,146.7,13.8,220c1.9,29.9,6.2,64.1,31.4,80.8c15.4,10.2,35,11.2,53.5,11.9
							l218.5,7.8c27.6,1,55.1,2,82.8,2.3c48.7,0.5,96.7-3.5,144.9-6.5c53.2-3.3,105.7-1,159-7.8c21.1-2.8,42.7-6.4,60.4-18
							c40.5-26.5,36.9-83.1,39.9-125.3L4737.2,2507.8z"/>
					</defs>
					<clipPath id="SVGID_32_">
						<use xlink:href="#SVGID_31_"  style="overflow:visible;"/>
					</clipPath>
					<g class="st85">
						<path class="st86" d="M4479.1,1837.9c-26.6,14.5-37.8,35.2-49,61.7l10.4-24c-5.3,11.5-10,23.2-15,34.8l11.6-27.1
							c-15,19.2-14.7,43.3-17.3,65.9c1.4-10.6,2.9-21.2,4.3-31.9c-0.6,1.1-1,2.3-1.1,3.5l32.3-54.5c-44.5,36.4-46.4,101-35.1,152.1
							c2.6,11.9,5.2,24,7,36.1l-5.6-40.8c2.1,16.7,4.5,33.2,7,49.7c-1.9-13.8-3.8-27.6-5.6-41.4c1.9,14.7-0.5,30.8-1.3,45.6
							c-1.1,20.1,0.4,40.3,0.9,60.4c1.1,45.4,5.8,90.6,9.3,135.9c3.4,42.8,6.5,85.7,12.1,128.2c7.8,59.2,18.6,117.7,26.9,176.9
							c-2.1-15.7-4.2-31.4-6.4-47.1c7.3,54.3,11.7,109.1,17.3,163.6c4.6,44.1,10.4,88,16.9,131.8c3.9,26.4,10.4,52.3,14.2,78.9
							l-6.5-47.1c1.5,10.7,2.4,21.5,2.6,32.4c0.5,39.4,5.6,76.2,28.3,109.9c25.6,38,58.5,66.5,104.2,78.8
							c60.4,16.5,125-0.3,169.7-44.1c98.8-85,46.7-218.7,32.2-325.5c2.1,15.7,4.3,31.4,6.4,47.1c-8.2-61.1-13-122.6-19.9-183.8
							c-8.3-72.2-22.2-143.2-32.1-215.1c2.1,15.7,4.3,31.4,6.4,47.1c-3.7-27.6-7.5-55.2-11.2-82.8c2.1,15.7,4.3,31.4,6.4,47.1
							c-13.7-100.6-20.5-202.5-41.1-302c-4-18.8-9.4-37.3-16-55.4c-13-36.6-25.8-67.3-53.1-96.1c-8.1-8.5-16.5-16.7-25.2-24.8
							c-39.3-36.4-98.7-67-153.2-47.1h66.8c-1.1-0.5-2.3-0.9-3.6-0.9l29.1,12.1c-21.3-9.4-41.8-21.2-66.5-18.5l30.7,4
							c-3.3-0.5-6.6-1-9.8-1.6c-27.7-4.7-53.2-5.5-78.3,8.2L4479.1,1837.9z"/>
					</g>
				</g>
				<g class="st50">
					<path class="st51" d="M4489.5,2477.3c0-42.7-8.3-88.4-36.8-120.9c-42.1-47.9-95.1-51.7-144.5-46.7
						c-26.8,2.6-53.6,8.5-77.5,20.8c-30.4,15.4-57.1,39.2-70.8,70.6c-8.6,19.5-17.3,39.3-14.6,60.4c1.3,10.4,2.6,20.8,4.3,31.2
						c9,59.3,43.5,105.9,100.4,129.4c42.4,17.5,89.8,14.2,132.4-0.6C4442.2,2600.3,4489.6,2556.1,4489.5,2477.3z"/>
				</g>
				<path class="st20" d="M4243,2538.8c9.3-19.4,27.5-38.1,39.5-47.8c18.2-14.8,38.1-26.4,56.9-40.3c14.3-10.4,28.4-23.1,31.6-41.3
					c1.3-8.8,2.1-17.6,2.2-26.5c-12.3-3.3-25.4-2.4-37,2.8c-12,5.5-21.5,15.1-31.2,24.1c-16.4,15.3-34.1,29.4-48.1,46.9
					c-14,17.5-24.1,39.2-22.2,61.3c0.3,5,1.6,9.8,3.7,14.3C4239.6,2534.7,4241.2,2536.9,4243,2538.8z"/>
				<path class="st20" d="M4395.7,2395c-3.1-2.8-6.4-5.2-10.1-7.2c1.3,16.7,0.3,33.8-8.7,47.7c-12.6,19.7-31.7,32.3-50.9,45.2
					c-18.2,12.3-36.4,25.4-51.3,41.7c-7.1,7.8-14.6,16.6-18.5,26.5c16.4,9,36.9,10.1,55.2,5.2c20.6-5.2,38.7-17.2,54.9-30.8
					c19.2-16.1,36.6-35.6,44.1-59.3S4414.1,2412,4395.7,2395z"/>
			</g>
		</g>
	</g>
</g>
</svg>
