<svg xmlns="http://www.w3.org/2000/svg" xmlns:xlink="http://www.w3.org/1999/xlink" viewBox="0 0 1150.35 1688.59"><defs><style>.cls-1{fill:none;}.cls-2{fill:#593529;}.cls-3{fill:#9b664e;}.cls-4{opacity:0.11;}.cls-5{fill:#fff;}.cls-6{fill:#704533;}.cls-7{fill:#7c5142;}.cls-8{fill:#875940;}.cls-9{opacity:0.13;}.cls-10{fill:#562117;}.cls-11{fill:#ffe4d9;}.cls-12{fill:#f4bba4;}.cls-13{fill:#c9c8c7;}.cls-14{fill:#9e9e9e;}.cls-15{opacity:0.41;}.cls-16{fill:#72392b;}.cls-17{fill:#fcd2be;}.cls-18{clip-path:url(#clip-path);}.cls-19{opacity:0.12;}.cls-20{fill:#2d0e0a;}.cls-21{opacity:0.15;}.cls-22{fill:#b7b7b7;}.cls-23{opacity:0.48;}.cls-24{fill:#b98462;}.cls-25{fill:#474747;}.cls-26{opacity:0.09;}.cls-27{opacity:0.19;}.cls-28{opacity:0.28;}.cls-29{opacity:0.34;}.cls-30{opacity:0.26;}.cls-31{clip-path:url(#clip-path-2);}.cls-32{opacity:0.32;}.cls-33{fill:#110403;}.cls-34{opacity:0.1;}.cls-35{fill:#e5b69c;}.cls-36{fill:#491a17;}.cls-37{clip-path:url(#clip-path-3);}.cls-38{opacity:0.57;}.cls-39{opacity:0.17;}.cls-40{fill:#331110;}.cls-41{clip-path:url(#clip-path-4);}.cls-42{opacity:0.72;}.cls-43{opacity:0.07;}.cls-44{fill:#b5b5b5;}.cls-45{clip-path:url(#clip-path-5);}.cls-46{fill:#d39f85;}.cls-47{fill:#efc5af;}.cls-48{opacity:0.52;}.cls-49{opacity:0.36;}.cls-50{opacity:0.75;}.cls-51{fill:#8b0703;}.cls-52{fill:#515151;}.cls-53{fill:#7f7f7f;}.cls-54{fill:#683029;}.cls-55{fill:#441711;}.cls-56{fill:#5b5b5b;}.cls-57{fill:#666;}.cls-58{clip-path:url(#clip-path-7);}.cls-59{opacity:0.4;}.cls-60{clip-path:url(#clip-path-8);}.cls-61{opacity:0.38;}.cls-62{fill:#333;}.cls-63{fill:#7c7c7c;}.cls-64{fill:#232323;}.cls-65{fill:#a0a0a0;}.cls-66{opacity:0.14;}.cls-67{opacity:0.06;}.cls-68{clip-path:url(#clip-path-9);}.cls-69{opacity:0.46;}.cls-70{fill:#d19574;}.cls-71{clip-path:url(#clip-path-10);}.cls-72{clip-path:url(#clip-path-11);}.cls-73{fill:#ffbfa6;}.cls-74{fill:#f79479;}.cls-75{fill:#ffcbbb;}.cls-76{clip-path:url(#clip-path-12);}.cls-77{fill:#770101;}.cls-78{fill:#a51111;}.cls-79{fill:#c99377;}.cls-80{fill:#eaeaea;}.cls-81{fill:#cc2b2b;}.cls-82{fill:#ededed;}.cls-83{clip-path:url(#clip-path-13);}.cls-84{clip-path:url(#clip-path-14);}.cls-85{clip-path:url(#clip-path-15);}.cls-86{fill:#b21f1f;}</style><clipPath id="clip-path"><path class="cls-1" d="M963.41,303.48c-6.48,2.84-14.1,3.27-21.62,2.2-9.93-1.42-22.12-4.35-29.5-11.49-8.35-8.06-7.25-17.53-7.52-28.09-.31-12-.71-23.88-.09-35.89,1.24-23.68,4.65-47.17,8.06-70.62,1.39-9.49,3.2-19,4.28-28.48.84-7.45,3.33-5.09,10.13-2.81q11,3.69,22,7.17,22.64,7.14,45.53,13.42c4.1,1.12,42.44,13.1,43.71,11-11.61,19-18.44,40.3-26.85,60.86-2.47,6-5.12,12-7.7,18l-8.36,19.15c-6.05,13.83-12.6,26.19-22.08,38.06A25.82,25.82,0,0,1,963.41,303.48Z"/></clipPath><clipPath id="clip-path-2"><path class="cls-1" d="M902.4,480.88c11.27,3.13,21.26,9.49,30.48,16.54A201.46,201.46,0,0,1,969,533.14c12,15.3,21.44,34.77,11.79,53.2-8.86,16.94-26.18,28.33-45.77,28.21-18-.09-35.92-6-52-13.48-25.47-11.69-51.23-41.87-54.14-70-1.54-15,9.61-30.91,21.08-39.61C864.56,480.36,884.52,475.9,902.4,480.88Z"/></clipPath><clipPath id="clip-path-3"><path class="cls-1" d="M1084.86,632.32c-15.17,8.06-31.94,11.5-45.41,7.15-18.81-6-36.06-17-50.53-30.17s-27.16-28.46-39.53-43.69c-8-9.89-11.57-20-17-31.24-4.8-10-6.46-20.55-1.18-30.7,6.3-12.09,17.63-22.72,29.71-29.11,16.52-8.7,34.53-8.61,52.07-3.43,45,13.26,92.31,46.91,110.3,91.33C1134,588.68,1111.94,617.9,1084.86,632.32Z"/></clipPath><clipPath id="clip-path-4"><path class="cls-1" d="M1006.83,660.89a204,204,0,0,1,5.27-21.07,104.62,104.62,0,0,0,5.34-27c1.11-20.15-7.89-34.66-25.86-44.57-23.68-13.1-55.42-3.44-73.69,14.24-12.16,11.78-19.93,27.42-24.34,43.63s-3.25,31.37-4.34,48.11A82.25,82.25,0,0,0,908,731.66c11.84,14.18,32.56,18.14,50.44,13s32.21-20,38-37.41C1001.47,692.19,1003.68,676.4,1006.83,660.89Z"/></clipPath><clipPath id="clip-path-5"><path class="cls-1" d="M220.93,910.91c-5.74.49-12.26,3.66-17.74,5.29l-154.38,46c-5.47,1.63-12.69,2.56-17.74,5.29-8.53,4.59-2.65,11.85.23,18.11,17.15,36.79,38.75,71.3,58.85,106.54,8.87,15.56,18.93,29.79,27.64,45.61,10.17,18.51,32.78,74.82,40.59,78.45.93.43,2.64.49,4.93.27a84.39,84.39,0,0,0,9.85-1.79c7.68-1.77,25.06-6.86,34.66-9.81,9.66-2.79,27-8,34.37-10.75a82.58,82.58,0,0,0,9.2-3.89,11.05,11.05,0,0,0,4-2.91c4.45-7.29-8.52-66.47-10.5-87.41-1.7-17.92-1.36-35.25-2.75-53-3.16-40.28-4.68-80.77-11.18-120.74C229.82,919.33,230.62,910.08,220.93,910.91Z"/></clipPath><clipPath id="clip-path-7"><path class="cls-1" d="M249.43,55.37l-78.14,13.1.15,1.53-.37-1.49L92.92,81.71C85.16,83,60.44,86.19,70.28,99.85c2,2.88,5.3,4.72,8.42,6.49,11.65,6.57,16.82,9.14,29.78,6.73,9.58-1.79,19.24-3.26,28.86-4.88l39.57-6.68,39.58-6.64c9.62-1.61,19.22-3.38,28.86-4.84,13-2,17-6,25.81-16.12,2.35-2.68,4.76-5.47,5.74-8.87C281.57,49,257.19,54.06,249.43,55.37Z"/></clipPath><clipPath id="clip-path-8"><path class="cls-1" d="M329,381.11c-2.41-7.62-6.82-14.46-11.78-20.77-14.05-17.85-42.29-7.65-61.35-4.45l-14.64,2.47-.67.11-36.79,6.19-.66.12-14.65,2.46c-19.05,3.21-49.18,2.83-56.35,24.26-2.54,7.57-4.4,15.47-4.1,23.43a16.73,16.73,0,0,0,1.85,7.84,7.83,7.83,0,0,0,6.64,4.15l75.88-12.76h0l18.44-3.09L249.28,408h0l75.88-12.77a7.76,7.76,0,0,0,4.87-6.05A16.8,16.8,0,0,0,329,381.11Z"/></clipPath><clipPath id="clip-path-9"><path class="cls-1" d="M405.73,1024.27l-.86,1.84c-7.73,16.7-15.37,34.38-29.06,47-13.32,12.34-21.52,26.71-40,32.94-7.93,2.66-17,4.51-25.14,1.67-10.8-3.73-16.7-22.25-19.92-31.79-4.22-12.54-6.38-25.63-8.3-38.66-2.46-16.77-2-33.82-1.34-50.75,1.79-40.64,5.7-81.61,18.7-120.24,7.17-21.45,17.16-41.91,27.6-62.06,16.7-32.24,36.46-65.49,64.34-89.16.27-.24,16.29,29.21,17.54,32A277.09,277.09,0,0,1,429.89,814c3.07,18,2.17,36.27,2.92,54.41,1.12,27,.56,54.92-4.17,81.89-2.47,14-7.62,27.21-10.61,41C415.44,1003.44,411.15,1012.94,405.73,1024.27Z"/></clipPath><clipPath id="clip-path-10"><path class="cls-1" d="M675.19,686.38a23.24,23.24,0,0,0-7.32-5.19c-7.51-3.54-15.59-5.71-23.47-8.25-41.3-13.35-85.55-13-128.74-8.17a249.83,249.83,0,0,0-77.23,20.94A121.34,121.34,0,0,0,414.65,700c5.51,30.94,20.36,61.33,42.92,83.57,6.33,6.24,13.25,12,21.13,16.12a100.65,100.65,0,0,0,19.6,7.44,196.35,196.35,0,0,0,77.87,6.23c11.81-1.49,23.69-4.28,35.18-7.14,12.9-3.21,29.27-16.36,36.89-26.86a213.32,213.32,0,0,0,22.54-39.67C677,725.49,687.94,700,675.19,686.38Z"/></clipPath><clipPath id="clip-path-11"><path class="cls-1" d="M838,1195.18c3.68-29,4.82-58.44,5.59-87.75a496.31,496.31,0,0,0-2.22-64c-1.64-15.9-3.52-31.78-6-47.58-4.9-31.23-9.92-62.2-16.67-93.08-2.4-11-6.26-21.61-8.74-32.38-2.72-11.78-5.5-23.35-9.88-34.68l-24.68-63.89c-3.58-9.29-7.17-18.61-12-27.31a108.44,108.44,0,0,0-20.58-26.38c-8.53-8-18.29-14.6-28.14-21-4.89-3.16-12-8.14-17.48-3.69-7,5.6-9.08,16.42-10.94,24.58-2.26,9.81-6.33,17.52-9.48,27-6.7,20.29-11.59,41.31-12.16,62.72-.21,7.71.21,15.7,3.75,22.57,3.22,6.25,8.71,11,13.7,16,22.23,22.17,30,56.06,38.67,86,5,17.32,14.8,30.12,17.35,47.94,1.28,8.85,1.4,18.22,3.27,26.95a297.7,297.7,0,0,1,6.54,50.88c1.59,39.48,6.36,77.51-3.43,116.4-.95,3.73-1.89,8,.3,11.16,2,3,6.15,3.82,9.74,4.38q39.3,6,79,9a4.73,4.73,0,0,0,3.13-.5A4.6,4.6,0,0,0,838,1195.18Z"/></clipPath><clipPath id="clip-path-12"><path class="cls-1" d="M743.31,1412.24c-5.4.91-10.87,1.47-16.32,2-94.27,9.7-186.33,9.87-280.42-3-19.59-2.69-41.6-5.14-58.7-14.91A2431.8,2431.8,0,0,1,391.33,1116c3.2-45.63,12.39-92,13.48-137.56.92-38.13,17.5-74.81,15.37-113.61-1.2-22.17-1.09-43.6-5.89-65.57a251.37,251.37,0,0,0-13.39-42.75c-5.39-13-8.43-25.64-16.55-37.51,6.37-3,10.82-9.2,16.53-13.31a79.7,79.7,0,0,1,19.94-10.39c2.05.73,4.57,16.12,5.36,18.43,12.5,36.35,45.59,67.33,81.81,80.27,31.43,11.22,68.18,12.09,97.6-5.19,19.36-11.35,35.49-24.18,46.67-43.65,10.91-19,16.62-40.11,20.72-61.4.88-4.63,36.6,9.25,40.35,11.66-4.66,7.82-8.79,14.86-11.59,23.72-8.63,27.31-11,53.71-11.87,82.07-.73,24.83,6.89,48.37,14.13,72a380.56,380.56,0,0,0,21.21,54.2c10.35,21.49,17.71,41,21.91,64.37,6.83,38.07,10,76.58,12.94,115.13,6.7,89.14,14.24,177.77,23.17,266.73,1.29,12.85,5.43,23-5.89,31-8.68,6.11-22.27,5.52-32.33,7.35Z"/></clipPath><clipPath id="clip-path-13"><path class="cls-1" d="M639.73,381.84a13.06,13.06,0,0,0,1.77-6.62c-.29-15.18-18-32.34-31.55-37.08-15.18-5.28-33.09-4.11-48.28.5-17,5.17-44.19,15.4-56.81-3.19-4.22-6.21-2.77-10.66,2-15.24,2.14-2.08,8.63-6.43,1.87-7.23-4.49-.54-12.16,3.69-15.77,6.17-10.08,6.92-17.41,17.85-22.83,28.28-9.42,18.31-12.83,42.77.39,60,10.93,14.24,28.52,19.78,46.11,18.3,29.12-2.44,54.72-20.25,83.44-25.54,10.87-2,24.81-1.9,33-10.21A38.35,38.35,0,0,0,639.73,381.84Z"/></clipPath><clipPath id="clip-path-14"><path class="cls-1" d="M658.68,574.91a98.14,98.14,0,0,1-11.79,23,81.28,81.28,0,0,1-18.52,18.59c-18.59,13.18-42.71,18.71-65.4,17.33-36.07-2.2-64.08-23.52-77.87-56a108.93,108.93,0,0,1-8.54-37.34,114.71,114.71,0,0,1,.75-19.78c1-7.69-2.29-19.33,7.37-21.71,5.62-1.39,7,6.79,7.08,11.21.14,18.19,7.89,37.8,21.51,50.07a90,90,0,0,0,22.39,14.42c25.21,11.68,51.47,10.73,76.35-2.68,10.75-5.81,19.57-15,26.11-25.12,7.18-11.16,10.32-21.3,14.67-38,.66-2.57,2.86-14.19,5.35-15.4,9.45-4.61,7.18,27.83,7.5,32.83A123.36,123.36,0,0,1,658.68,574.91Z"/></clipPath><clipPath id="clip-path-15"><path class="cls-1" d="M736.14,1089c.47-6.59-.51-13.1-.23-19.69.25-5.62.39-12.87-3.64-17.38s-13.1-5.81-18.68-7.37c-19.14-5.37-37.56-19.14-46.54-36.81-7.28-14.32-10.84-32.52-10.25-48.53.21-5.73,3.9-11.49.46-17-2.91-4.68-8.19-5.32-13.4-5.25-16.39.24-32.86.93-49.3.71-17.59-.23-34.84-.15-52.42,1.7-13.16,1.39-26.52,1-39.73,1.7-6.86.36-15.56,1.33-19.12,8.36-1.53,3-1,6.67-.5,10.07,2.82,19.93,4.83,41.63-3.23,60.61-7.39,17.39-21.69,31.66-40.3,37.07-4.29-2.77-12.29.72-14.7,5.17s-2.17,9.8-1.85,14.83q2.67,42.39,5.33,84.74c.72,11.51,2.37,24.68,12.08,31.12,5.93,3.93,13.48,4.32,20.62,4.57l84.16,3c10.62.38,21.24.76,31.87.87,18.75.18,37.26-1.35,55.79-2.5,20.49-1.26,40.71-.37,61.22-3,8.11-1.07,16.46-2.48,23.26-6.94,15.61-10.19,14.21-32,15.37-48.26Z"/></clipPath></defs><title>coffeeManIdea</title><g id="Layer_2" data-name="Layer 2"><g id="Layer_1-2" data-name="Layer 1"><g id="COFFEE_KETTLE"><path class="cls-2" d="M638.22,32.63c4.47-2.5,6.28-8,8.82-12.39,2-3.42,6.14-9.8,3.4-13.73C648.16,3.19,641,1.25,637.32.67A50.37,50.37,0,0,0,625.43.13c-9.07.84-6,9.42-5.65,15.4.27,4.19-1.14,11.14,1.43,14.67,3,4.17,10.24,4.61,14.78,3.34A10.34,10.34,0,0,0,638.22,32.63Z"/><path class="cls-3" d="M660.63,42.87a50,50,0,0,0-15.14-10.62C642.58,30.83,630.65,27,630.55,27c-1.25-.27-2.5-.53-3.75-.77s-16.32-2.15-19.56-2A51.29,51.29,0,0,0,589,27.81c-4.1,1.74-15.82,9.25-14.77,14.86.67,3.61,6.3,2.88,8.83,3.18,8.2,1,18.44,3.51,28.17,6l-.14.67c2.94.6,6.15,1.19,9.6,1.76,3.35.85,6.56,1.62,9.5,2.25l.15-.67c10,1.64,20.3,3.4,28.22,5.82,2.43.74,7.27,3.68,9.38.65C671.26,57.66,663.71,46.08,660.63,42.87Z"/><g class="cls-4"><path class="cls-5" d="M638.36,23.57a11.5,11.5,0,0,0,4-3A15,15,0,0,0,644.26,18c.18-.34.38-.69.59-1-.61,1,.45-.35.55-.45A6.19,6.19,0,0,0,645,7.82c-3.2-2.87-7.71-1.63-9.85,1.72-2.59,4-2.4,10.07,1,13.55a2.18,2.18,0,0,0,2.17.45Z"/></g><path class="cls-6" d="M665.16,280.35c.11,0,.46-.94.58-.91l-79.4-16.68-20.84-4.38L486.09,241.7c.11,0,0,1,.14,1-7.88,16.83,15,29.79,28.25,32.57l45.24,9.45,10.46,2.2,10.45,2.21,45.22,9.54C639.12,301.53,665.37,298.88,665.16,280.35Z"/><path class="cls-7" d="M523.64,180.6c-2.66-4-6.39-7-9-11.2a56.84,56.84,0,0,1-7.17-19.47c-2.6-13.42-2-27.35-.43-40.86,1.78-15.54,1.18-31.23-.39-46.75a65.58,65.58,0,0,0-9.92-28.47c-2.44-3.83-5.59-8.93-9.37-11.62-4-2.86-10.59-3.68-15.44-4.52-2.29-.4-8.4-2.08-10.49-.35-1.38,1.13-1.11,1.54-.29,3.25.51,1,17.18,14.86,20.75,29.71,7.25,30.35,5.12,49.05,1.09,64.59-4.1,16.12-13.58,30.86-18.18,47-4.27,15-5.13,34,1.44,48.36,2.47,5.39,7,11.15,10.65,15.86A38.91,38.91,0,0,0,493,238.66c7.09,2.81,12.19-7.44,15.58-11.84,5.12-6.67,8.54-14.44,11.8-22.11,2.8-6.57,8.2-14.58,4.67-21.81A20.59,20.59,0,0,0,523.64,180.6Z"/><path class="cls-8" d="M666.32,276.27c.73-17.33-1.2-34.63-2.61-51.92-1-11.76,0-23.09-.85-34.93-1.33-18.89-.34-30.4,1.25-56.67,1-17.13.69-23.41,3.07-50.54.32-3.66,4-17.57,1.63-20.93-2-2.77-6.61-2.09-9.53-2.71l-14.64-3.08-4.1-.86-16-3.36L618.6,50l-16-3.37-4.1-.85-14.72-3.09c-2.92-.61-6.89-3.08-9.83-1.35-3.58,2.11-6,16.3-7.17,19.75-9.13,25.72-12,31.24-18.22,47.36C538.32,135,535.25,144,526.17,160.69c-5.68,10.49-9.53,21.16-15.3,31.55-8.47,15.2-17.41,30.22-24,46.35a6.46,6.46,0,0,0-.69,3A4.35,4.35,0,0,0,489,245c3.07,1.3,7.81,1.42,11.12,2.13,8.62,1.81,17.62,3,26.41,4.79l22.91,4.81,1.53.32,14.68,3.09,19.87,4.17,14.67,3.09,1.54.31,22.91,4.82c8.78,1.85,17.47,4.43,26.1,6.24,3.3.68,7.7,2.49,11,2.53a4.49,4.49,0,0,0,4-2A6.8,6.8,0,0,0,666.32,276.27Z"/><path class="cls-6" d="M705.36,230l.31-.31c2-2.16,2.45-5.41,3.07-8.17.69-3.21,1.24-6.45,1.79-9.69,3.53-20.38,7.59-40.51,10.39-61a126.63,126.63,0,0,0,.71-28.66c-.66-7.05-6.24-11-12.76-12.94a115.48,115.48,0,0,0-23.33-4.34c-5.82-.47-14.64.73-19.53-2.42A6.62,6.62,0,0,1,663.28,98a14.94,14.94,0,0,1,.2-5.29c1.48-7.92,17.42-5.56,23.45-5.23A142.24,142.24,0,0,1,718.87,93c7.92,2.37,15.63,8.43,19.2,15.79,6.31,13,4.27,26.75,2.26,40.38-2.23,15.12-6.46,29.92-9,45-1.77,10.29-3.5,20.59-5.51,30.82-1.5,7.62-2,15-6.55,21.61-4.84,7.19-19.33,5.36-26.73,5-6.09-.26-12.1-.91-18.16-1.57-5-.55-12.29,2.52-13.12-3.82-.41-3.22-1-9.56.83-12.32,2.42-3.78,11-2,14.8-1.7,4.52.37,9,.87,13.56,1.29C695.4,233.9,701.51,233.73,705.36,230Z"/><g class="cls-4"><path class="cls-5" d="M498.34,97.23c-1.55,6.89-4.6,13.31-6.51,20.09a104.24,104.24,0,0,0-3.44,22.82,72,72,0,0,0,2.05,21.49c1.82,7.14,5.55,15.42,11.15,20.48s14.65-2.32,10.1-8.42c-2.05-2.67-4.28-5-6.14-7.8a37,37,0,0,1-3.71-8c-2.18-6.21-2.8-12.77-2.9-19.28-.13-6.93.73-13.8,1.14-20.69.39-6.7.21-13.43,1.19-20.08A1.5,1.5,0,0,0,500,96.13a1.54,1.54,0,0,0-1.74,1.1Z"/></g><g class="cls-4"><path class="cls-5" d="M701,98.55c.88,3,5.51,3.63,8.1,4.33a29.33,29.33,0,0,1,9.73,4.69c4.5,3.31,11.1,10.48,9.09,16.64-.81,2.48.93,5,3,6.27a5.63,5.63,0,0,0,4.51.37,5.71,5.71,0,0,0,4-5.78c-.67-5.21-1.13-9.48-3.81-14.18a33.67,33.67,0,0,0-10.53-10.75,39.71,39.71,0,0,0-13.32-5.83c-2.67-.61-12.29-.85-10.74,4.24Z"/></g><g class="cls-9"><path class="cls-5" d="M606.12,283.94c1.52,4.34,6.6,6.32,10.76,7.51,4.91,1.41,10.78,3.47,15.26-.1a6.31,6.31,0,0,0,1.84-8.5c-2.37-4.64-7.86-5.41-12.58-6.05s-10.7-1.36-14.24,2.37a4.77,4.77,0,0,0-1,4.78Z"/></g><path class="cls-10" d="M553.34,207.44a4,4,0,0,0,2.16-5.29c-.06-.13-.13-.26-.2-.39a7.28,7.28,0,0,0-6.59-3.47c-6.38.11-11.62,6.38-13.74,11.72-2.19,5.49-2.34,12.5,3.34,16a14.66,14.66,0,0,0,10.36,1.81c3.08-.52,7.17-2,8.2-5.24a1.09,1.09,0,0,0-.85-1.3c-1.71-.31-3.63.36-5.26.86a14.6,14.6,0,0,1-7.09.71c-4.37-.84-5.46-4.39-4.73-8.19a17,17,0,0,1,5.25-9,8.52,8.52,0,0,1,5.37-2.48c2.32-.1,2.41,1.11,2.21,2.92-.1.82.62,1.75,1.55,1.37Z"/><path class="cls-10" d="M560.13,216.9c-1.61-2.55-4.58-.58-5.65,1.41a11.17,11.17,0,0,0-.48,8.29c1.19,3.54,5.76,6.34,9.4,4.7a14,14,0,0,0,7.08-7.05c2-4.92-1-9.9-6-11.34a8.71,8.71,0,0,0-7.39,1.34c-2.37,1.78-4.43,5.61-2.34,8.3a2.08,2.08,0,0,0,2.82.59c1.3-.91,1.92-2.49,2.75-3.53.65-.8,1.19-.88,2.37-.92a8,8,0,0,1,2.68.74,3.64,3.64,0,0,1,2.16,2.23c.5,1.6-.64,3.09-1.73,4.13a4.49,4.49,0,0,1-6.27,0,4.81,4.81,0,0,1-.42-.48,7,7,0,0,1-.7-3.94c0-1.58,0-2.4,1.42-3.28a.84.84,0,0,0,.26-1.16Z"/><path class="cls-10" d="M587.43,210.37c0-3.88-4-4.5-7-3-4.23,2.17-5.35,6.59-5.49,11-.17,5.42,1.22,10.64-1.45,15.72a10.38,10.38,0,0,1-3.25,3.47c-1.63,1.15-1.88.7-3.5.1a2.5,2.5,0,0,0-3.32,1.12,2.41,2.41,0,0,0-.25,1.15c.06,4.4,5.12,5.09,8.35,3.57a17.44,17.44,0,0,0,7.82-8.49c2.22-4.89,1.6-10.27,1.24-15.43a11.72,11.72,0,0,1,.94-6.5c.66-1.21,3.53-2.8,4.83-2a.77.77,0,0,0,1.11-.72Z"/><path class="cls-10" d="M603,214.1c.65-2.73-1.77-4.73-4.16-5.51-2.05-.66-4.16.57-5.53,1.92-4,3.92-3.7,10.37-4.61,15.42a88.83,88.83,0,0,1-2.15,10.45,12.49,12.49,0,0,1-2.39,4.65c-1.16,1.33-2.89,1.28-4.25,2.67a2.49,2.49,0,0,0-.25,3.11c3.34,3.91,8.13.39,10.24-2.8s3.16-7.68,3.86-11.53,1.26-7.56,1.59-11.33c.21-2.26.63-5.23,1.94-7.05.17-.21.44-.65.72-.55,1.39.53,2.28,1.41,3.84,1.46a1.2,1.2,0,0,0,1.11-.94Z"/><path class="cls-10" d="M570.91,224.12c1.65-2.51,5.93-1.55,8.35-1a31.85,31.85,0,0,1,11,5c4.49,3,9.11,5.67,14.73,4.72,3.38-.56,7.18-.67,9.53-3.52,2.72-3.31,1.1-8.06-2.63-9.79-4.52-2-10.32.16-13,4-2.55,3.69-3.38,9-.38,12.64s9.33,5.54,13.74,3.81a2.53,2.53,0,0,0,1.71-1.87c.15-1.5-.75-3.31-2.66-3a14.22,14.22,0,0,1-6.09-.19c-4.73-1.24-4.78-5.85-2-9.17a6.49,6.49,0,0,1,5.45-2.1c1.37.15,2.76,1,2.05,2.48-.83,1.65-5.4,1.49-7,1.71-4.52.58-8.64-3-12.12-5.3a31,31,0,0,0-9.22-4.1c-4.52-1.23-14.72-2.27-13.91,5.11a1.37,1.37,0,0,0,1.5,1.23,1.39,1.39,0,0,0,1.08-.68Z"/><path class="cls-10" d="M604.88,237.35a10.7,10.7,0,0,0,4.93,2.65,16.93,16.93,0,0,0,5.41,0,36.84,36.84,0,0,0,9.86-2.51c3.3-1.49,5.41-4.26,4.52-7.91s-5.3-4.48-8.39-3.77c-5.87,1.34-8.9,9.07-7.7,14.31.83,3.58,4.22,6,7.77,6.52,2.85.42,8.19.45,10.13-2a2.67,2.67,0,0,0-.26-3.82,2.38,2.38,0,0,0-.49-.34c-3.27-1.64-7.61,1.61-10.74-.81-2.45-1.89-.68-6.68,1.26-8.28.72-.58,4-1.78,3.65.23-.24,1.66-4.41,2.31-5.67,2.61A68.48,68.48,0,0,1,605.41,236a.85.85,0,0,0-.8.91.9.9,0,0,0,.27.55Z"/><g class="cls-4"><path class="cls-5" d="M624.77,72.79c-.11.71-.22,1.42-.36,2.13-.48,2.86-1.15,1.68,2.22-2.77a26.2,26.2,0,0,0-4.34,9.2q-1.47,5-3,10.08-.74,2.43-1.49,4.86c2.78-9-1.53,3.69-1.1,2.39a23,23,0,0,0-.66,2.53q-1.29,5.66-2.6,11.3c-3.51,15.11-6.58,30.23-9.56,45.34a411.73,411.73,0,0,0-6.34,48.2c-.72,9.48-1.55,19.15-1,28.64.45,7.6,3.28,15.36,9.43,20.37,11.12,9.07,29.51,10.24,39.35-1.77,5.34-6.52,7.92-13.42,7.32-21.84-.09-1.24-.13-2.48-.16-3.73-.07-3,0-5.91.09-8.87.24-7.9.81-15.79,1.42-23.67-.19,2.45-.39,4.91-.57,7.35,1.79-22.82,1.58-45.74,1.69-68.61,0-10.52-.66-21.1-1.11-31.6a52.92,52.92,0,0,0-1-5.57c-.64-1.67-.56-1,.24,2.18-.14-1.12-.27-2.24-.42-3.36q-.45-3.67-.95-7.33c-.33-2.45-.62-4.66-1-7a10.35,10.35,0,0,0-1-4.2q-3.18-6.86.11,1.25c0-1.21-.09-2.41-.15-3.62a12.65,12.65,0,0,0-10-11.49c-6.53-1.37-14,2.88-15.09,9.61Z"/></g><path class="cls-5" d="M642.6,128.19c1.4-7.11,3.38-14.89,2-22.17a5.46,5.46,0,0,0-10.87,1.1,7.12,7.12,0,0,0,.18.92c1.37,6.52,3.08,13,3,19.71-.06,3.22,5,3.5,5.66.43Z"/></g><g id="COFFEE_SHAKE"><path class="cls-11" d="M996.66,45.83c-1.55,5.58-2.41,11.35-4.19,16.85a30,30,0,0,1-12,15.37,62.89,62.89,0,0,1-15.83,7.64c-5.31,1.77-12,1.92-16.79,4.72-2,1.14-1.4,3.58.5,4.35,5.76,2.39,13.72-.52,19.17-2.55a59.72,59.72,0,0,0,17.42-10,37.34,37.34,0,0,0,11.63-16.12c2.26-6.34,1.73-13.43,2.22-20a1.11,1.11,0,0,0-2.16-.32Z"/><path class="cls-11" d="M1012.07,70.63c-.47,14.52-13.49,24.72-26,30.41-6.78,3.1-14,4.14-21.2,5.54-2.38.46-7.08.1-8.5,2.41s.42,4.36,2.89,4.77c14.13,2.35,29.4-3.16,40.85-11.08,9.55-6.64,23.57-20.91,14.35-33-.79-1-2.4-.16-2.43,1Z"/><path class="cls-11" d="M985.91,125.05a68.66,68.66,0,0,0,29-2.86c8.08-2.73,20.05-9.17,19.62-18.94a3,3,0,0,0-1.47-2.62,4.17,4.17,0,0,0-.75-.33,3.14,3.14,0,0,0-3,.72c-2.65,2.58-4.49,5.79-7.17,8.37a32.62,32.62,0,0,1-10.82,6.43,85.17,85.17,0,0,1-25.32,5.1,2.07,2.07,0,1,0-.05,4.13h0Z"/><path class="cls-5" d="M1003.57,88.86a1.45,1.45,0,0,0,1.78-1,1.41,1.41,0,0,0-1-1.76,1.45,1.45,0,0,0-1.79,1A1.42,1.42,0,0,0,1003.57,88.86Z"/><path class="cls-5" d="M1010.38,117.75c6.73-1.67,18.36-3,18.86-11.92a2.87,2.87,0,0,0-2.91-2.84,2.91,2.91,0,0,0-1.35.34c-2.59,1.51-4.1,4.15-6.21,6.24-2.75,2.78-5.12,4.86-8.9,6.22a1,1,0,0,0,.51,2Z"/><path class="cls-12" d="M925.22,77.91c-6.81-1.86-8.31,6.24-7.49,11.08,1.38,8.16,9.65,11.9,16.95,13.9,8.71,2.39,17.76.77,26.22-1.69a86,86,0,0,0,13.81-5.36c3.51-1.72,8.48-4.19,10.25-7.82a1.5,1.5,0,0,0-.57-2.06,1.59,1.59,0,0,0-1.09-.17c-3,.55-5.51,2.49-8.2,3.78A68.71,68.71,0,0,1,965,93.51a79.15,79.15,0,0,1-21.52,3.3,29.27,29.27,0,0,1-17.13-5.36c-3.15-2.3-5.21-10.08-.94-12.09a.81.81,0,0,0,.31-1.12.83.83,0,0,0-.49-.37Z"/><path class="cls-12" d="M940.93,115.74c6.9,7.72,18.31,7.45,27.8,6.05,9.66-1.46,21.66-4.62,28.88-11.4a2,2,0,0,0,.16-2.85,2.09,2.09,0,0,0-2.09-.59c-8.95,2.54-16.93,7.23-26.11,9.31A53.86,53.86,0,0,1,941.41,115a.5.5,0,0,0-.59.34.48.48,0,0,0,.11.44Z"/><path class="cls-13" d="M1054.44,161.51c1-5.67-4.33-5.69-8.2-6.48-18.44-3.78-44.81-12.75-64.12-18.44h0l-2-.56-2.51-.71h0c-19-5.13-43.12-10.47-60.75-16.89-3.65-1.33-8.19-4.1-10.42,1.23-1.45,3.55-1.35,8.8-2.05,12.64-1,5.52-1.79,11.09-2.57,16.61-1.51,10.81-2.82,21.66-4.68,32.42a564.37,564.37,0,0,0-6.89,56.56c-.64,9.21-1.7,18.38-2.66,27.55-1.28,12.09-3.15,26.86,4.67,37.39a28,28,0,0,0,11.27,8.56c2.81,1.26,46.72,13.68,49.78,14.1a28.54,28.54,0,0,0,14.13-1.38c12.29-4.83,18.7-18.31,24.17-29.21,4.1-8.29,8.2-16.61,12.62-24.74A563.68,563.68,0,0,0,1029,218.65c4.23-10.07,9-20,13.54-29.9,2.35-5.11,4.66-10.24,6.81-15.42C1050.85,169.67,1053.77,165.28,1054.44,161.51Z"/><path class="cls-14" d="M930.28,312.22c-17.52-5-21.71-1.59-23.63,5.95-1.5,5.83-3.54,12.57-4.38,20-.44,3.89-2.74,10.83-2.39,17.58.28,5,8.89,6.9,15.28,8.69s14.18,4.3,17.34.54c3.71-4.41,5.34-10.82,7.49-16.12q3.84-9.51,7.1-19.22C949.55,322.19,947.8,317.14,930.28,312.22Z"/><path class="cls-13" d="M957.28,385.77c-1.47-13.46-9-25.93-38.51-34.26s-42.62-1.72-51.14,8.91c-2,2.44-4.54,5.92-3.07,8.86,1.52,3.17,6.55,4.38,9.63,5.16,10,2.53,60.24,16.76,70,19.81,3,.95,7.94,2.55,10.94.67C957.93,393.17,957.62,388.87,957.28,385.77Z"/><path class="cls-14" d="M1055.78,225.07a13.14,13.14,0,0,1-8.2,8.64c-6.46,2.18-14.34.9-20.87-.5-9.5-2-17.42,6-15.57,15.69.86,4.41,10.53,6.18,14.24,7,11.8,2.82,28.82,3.38,39.54-3.86,11-7.43,20.07-21.63,18.44-35.09-2-17.13-18.64-30.71-36.37-31.36-3.74-.13-11.56-.56-14.88.92-4.47,2-5.31,8.26-5.67,12.48-1.25,14.59,22.2,6.4,28.27,16.59A11.66,11.66,0,0,1,1055.78,225.07Z"/><g class="cls-15"><path class="cls-13" d="M1061.47,244.71a68.13,68.13,0,0,0,9.78-13.56c3-5.63,3.31-11.71,2.36-17.89-1.72-11.27-10.95-20.84-22-23.78-5.41-1.44-7.74,6.56-2.4,8.22,9.15,2.83,14.35,9.6,16.32,18.64a21.9,21.9,0,0,1-2,14.77c-1.94,4-4.52,8.11-4,12.75.1.9,1.22,1.67,2,.85Z"/></g><g class="cls-15"><path class="cls-13" d="M935.64,322c-2.84,3.82-3.77,9.56-5.74,13.92-1.75,3.84-6.5,10.34-3.71,14.34a3.41,3.41,0,0,0,3.69,1.57c2.58-.65,3.41-2,4.32-4.36,1-2.76,2.33-5.45,3.46-8.18,2-4.73,5-11.46,3-16.55a2.81,2.81,0,0,0-5-.74Z"/></g><path class="cls-16" d="M963.41,303.48c-6.48,2.84-14.1,3.27-21.62,2.2-9.93-1.42-22.12-4.35-29.5-11.49-8.35-8.06-7.25-17.53-7.52-28.09-.31-12-.71-23.88-.09-35.89,1.24-23.68,4.65-47.17,8.06-70.62,1.39-9.49,3.2-19,4.28-28.48.84-7.45,3.33-5.09,10.13-2.81q11,3.69,22,7.17,22.64,7.14,45.53,13.42c4.1,1.12,42.44,13.1,43.71,11-11.61,19-18.44,40.3-26.85,60.86-2.47,6-5.12,12-7.7,18l-8.36,19.15c-6.05,13.83-12.6,26.19-22.08,38.06A25.82,25.82,0,0,1,963.41,303.48Z"/><path class="cls-17" d="M1048.49,142.18a7.77,7.77,0,0,0,3.47-4.84c1.53-6.37-3.41-12.09-9.15-14.34s-7.68-5-5.92-10.75c2.17-7,3.26-13.71-3-19.14-2.85-2.45-6.55-2.32-9.23-4.85-4.38-4.14-2.05-7.7-1-12.22s-2-8.33-5.41-10.91c-3.94-3-13.76-2.23-14.92-7.75-.66-3.14,1.15-6.62,1.16-9.78a34.47,34.47,0,0,0-3.25-15.73c-1.11-2.22-5.61-9.6-9-8.39C989.11,24.59,991,32,991,34.4c.19,13.58-6,27.42-17,35.74-12.78,9.6-30.12,5.79-44.9,7.45-11.22,1.26-22.15,8.89-20.41,21.09,1.18,8.23,6.09,13.24,13.12,17.19,13.32,7.45,29.22,11.49,43.73,16,15.26,4.71,31.46,9.12,47.42,10.73C1024.42,143.76,1037.71,149.13,1048.49,142.18Z"/><path class="cls-14" d="M1035.18,144.63c-7.79-1.85-15.24-4.54-23-6.72L987.6,131l-9.44-2.68-23.11-6.49c-7.75-2.19-15.5-3.8-23.1-6.31-7.18-2.36-27.11-14-29.23.33-1.89,12.72,20.36,17,75.17,31,54.09,16.78,76.58,25.19,81.85,13.4C1065.71,147,1042.5,146.36,1035.18,144.63Z"/><g class="cls-15"><path class="cls-13" d="M962.22,132.37c7.52,4.33,16.29,6.94,24.59,9.58,6.92,2.19,13.84,4.37,20.81,6.37q9.06,2.61,18.11,5.18l10.89,3.09c3.28.92,6.89,2.49,10.31,2.48a4.08,4.08,0,0,0,4.2-3.93,4,4,0,0,0-2-3.57c-2.61-1.62-6-2.15-9-3l-10.88-3q-9.21-2.61-18.44-5.18c-6.78-1.89-13.6-3.63-20.43-5.33-8.88-2.19-18.19-4.79-27.38-5a1.34,1.34,0,0,0-1.33,1.35,1.38,1.38,0,0,0,.62,1.1Z"/></g><g class="cls-18"><path class="cls-10" d="M874.84,248.8a119.15,119.15,0,0,1,4-28.29,200,200,0,0,1,7.39-20.8q4.81-12.09,9.61-24.18c-.24,1.34,1.43,2.14,2.77,2.49l139,35.26a878.91,878.91,0,0,1-39.19,79.16c-4.58,8.2-9.34,16.4-15.6,23.44a32.11,32.11,0,0,1-9.55,7.82c-3.9,1.93-8.3,2.6-12.64,3.09-20.06,2.28-41.75.86-58.17-10.68C892,308.8,884.5,297.87,880.17,286S874.5,261.38,874.84,248.8Z"/></g><g class="cls-19"><path class="cls-5" d="M958.12,306.49a31.19,31.19,0,0,1,2.19-3.28l-4.7,4.41c8.54-4.87,15.62-13,22.36-20a174.76,174.76,0,0,0,21.35-26.81c12.61-19.51,19.47-42.78,26.1-64.8,4.78-15.86-5.06-33-21.13-37.54s-33.65,4.84-38.17,20.77c-2.89,10.13-5.67,20.29-8.43,30.47-2.67,9.84-5.12,19.82-8.08,29.58-1.42,4.65-3.07,9.22-4.86,13.77a139.67,139.67,0,0,0-4,13.9c-.58,2.11-1.14,4.22-1.7,6.33a39.1,39.1,0,0,0-1.18,7.67c.3-5.29,0-1.16-.23.12-1.28,6.2-1.86,12.5-.5,18.7,0-2.17.07-4.35.1-6.54-.21,1.32-.54,2.57-.86,3.86a11.76,11.76,0,0,0,8.23,14.58,12.07,12.07,0,0,0,13.51-5.17Z"/></g><g class="cls-15"><path class="cls-20" d="M921,279c2.25-1.69,4.38-3,6.15-5.2a28.83,28.83,0,0,0,4.6-8.06,137.62,137.62,0,0,0,4.58-15.28c2.82-11.63,3.47-23.74,5.12-35.56-.43,3.15.22-1.23.26-1.54.23-1.32.46-2.65.7-4,.47-2.65.84-5.33,1.25-8,.85-5.46,1.75-10.94,2.22-16.46.34-3.91.55-7.83.91-11.74.13-1.27,1.11-8,.24-2.66a25,25,0,0,1,1.41-5.28c3.16-7.84-3.07-17-10.75-19.14-8.73-2.48-16.39,2.7-19.46,10.57s-2.71,17-2.94,25.19c-.27,9.61-1.84,19.14-2.49,28.68-.74,10.76-.54,21.56-1.23,32.33-.34,5.27-.39,10.59-.55,15.86-.17,6.19-.27,12.61,3.61,17.76l-1.59-2.82a29.53,29.53,0,0,0,1.29,3.39A4.13,4.13,0,0,0,921,279Z"/></g><path class="cls-11" d="M1018,132.38c1.32,2.16,2.17,3.73,4.7,4.75a18,18,0,0,0,9.22.9c4.82-.74,13.2-2.8,14.34-8.37.43-2-.89-4.44-3.26-4.31-4,.23-7.54,3-11.37,4.09a25.06,25.06,0,0,1-6.27.91c-1.23,0-3.72.22-4.84-.36-1.52-.81-3.53.77-2.55,2.39Z"/><path class="cls-5" d="M1030.8,130.59a4.25,4.25,0,0,0,7-1.76,4,4,0,0,0-2.8-4.91,4.09,4.09,0,0,0-4.54,1.73,4.29,4.29,0,0,0-.64,2.26,3.67,3.67,0,0,0,1,2.68Z"/><path class="cls-12" d="M982.8,127.83c3.38,4.72,11.6,3.75,16.62,3.12,5.82-.73,12.93-3.17,16.25-8.25a1.08,1.08,0,0,0-.37-1.49,1.13,1.13,0,0,0-.84-.13c-5.12,1.62-10,3.49-15.31,4.52a48.43,48.43,0,0,1-8.84.6c-2.33,0-4.65-.45-6.91.25a1,1,0,0,0-.65,1.28Z"/><path class="cls-12" d="M1023.76,140.76a9.88,9.88,0,0,0,4.38,1.24,10.21,10.21,0,0,0,2.76-.1,7.59,7.59,0,0,0,2.21-1.18c.66-.44,1-1.66,0-2a14.82,14.82,0,0,0-1.67-.77,6.66,6.66,0,0,0-2.74,0,39.26,39.26,0,0,0-4.69.92,1,1,0,0,0-.3,1.92Z"/><path class="cls-5" d="M1043.08,155.87a4,4,0,0,0,2.74,1.25,3.57,3.57,0,0,0,1.7-.42,3.1,3.1,0,0,0,1.64-2.69l-.12.82v-.05l-.35.79v0l-.55.67a0,0,0,0,1,0-.05l-.72.53h.07l-.87.33a4.43,4.43,0,0,0,1.87-1,3.79,3.79,0,0,0,.13-5.41,3.93,3.93,0,0,0-5.5-.13,3.76,3.76,0,0,0-1.21,2.73,3.93,3.93,0,0,0,1.07,2.68Z"/><path class="cls-5" d="M1006.08,213.38c3.92-9.88,10.59-19.58,11.85-30.29.61-5.14-6.93-5.46-8.57-1.24-1.8,4.58-2.93,9.5-4.5,14.17a144.12,144.12,0,0,0-4.35,15.79,2.85,2.85,0,0,0,2.2,3.4,2.91,2.91,0,0,0,3.37-1.83Z"/><path class="cls-5" d="M1047.16,201.13c2.95.83,4.27-3.66,1.32-4.49S1044.22,200.29,1047.16,201.13Z"/><path class="cls-5" d="M923.48,346.89a4.19,4.19,0,0,0,5.17-2.79,4.09,4.09,0,0,0-2.83-5.09,4.19,4.19,0,0,0-5.17,2.79l0,.05A4.15,4.15,0,0,0,923.48,346.89Z"/><path class="cls-5" d="M942.05,380.18c-4.61-9.68-12-20.66-24.06-21.31a5,5,0,0,0-4.34,2.36,4.9,4.9,0,0,0,1.67,6.82,4.82,4.82,0,0,0,1.23.53c2.67.75,5.19.92,7.73,2.22,5.2,2.64,10.89,6.47,14.09,11.38a2.12,2.12,0,0,0,2.86.8,2,2,0,0,0,.82-2.81Z"/></g><g id="COFFEE_CUP"><path class="cls-13" d="M1081,1138.17c33.7-18.1,49.19-50.2,53.59-64.21,19.88-63.13-5-128.84-57.55-151.64-35.42-15.39-75.9-19.67-112.36-4.33-20.91,8.81-41.08,27.43-52.95,47.61-18.28,31.1-19.78,79.34-5.14,112.42,13.54,30.63,30.27,50.09,73,64.69C1014.13,1154.5,1052,1153.72,1081,1138.17Z"/><g class="cls-21"><path class="cls-5" d="M1077.55,1126c30.43-16.32,44.4-45.3,48.38-57.94,17.94-57-4.49-116.29-51.94-136.86-32-13.86-68.51-17.75-101.41-3.91-18.88,8-37.08,24.76-47.79,43-16.5,28.08-17.85,71.61-4.63,101.46,12.23,27.65,27.33,45.22,65.91,58.39C1017.24,1140.73,1051.41,1140,1077.55,1126Z"/></g><path class="cls-22" d="M933.72,1003.55a4.66,4.66,0,0,0-1.82-.07,3.37,3.37,0,0,0-2.83,3.79,2.89,2.89,0,0,0,.16.72c3.18,11.55,15.56,13.11,25,15.53l-6.69-7.55c.66,12.33-1.15,24.69,1.07,36.92a84.06,84.06,0,0,0,14.12,32.75c12.34,17.68,32.48,22.87,52.36,23.38,18.4.47,38.94-3.73,53.4-16.34A53.83,53.83,0,0,0,1086,1062.4c1.07-5.29,1.24-10.77,1.79-16.14.68-6.48,1-12.28-.77-18.64-.93-3.43-2.19-6.15-4.86-8.45s-7.34-1.58-8.74,2c-3.19,8.22-3.7,17.72-4.51,26.49-.44,4.82-.59,9.94-2,14.59a33.79,33.79,0,0,1-6.88,12c-5.14,6.11-12.55,9.72-20.27,12.15-5.7,1.74-14.55,2.86-22,3.09-6.75.21-16.37-.81-22.37-2.84-7.95-2.65-12.82-6.13-17.31-12.32-5.33-7.34-10-16.62-11.69-25.71-2.14-11.23-1.17-22.94-2.66-34.29a8.49,8.49,0,0,0-6.71-7.54c-8-1.35-16.2-2.17-24.21-3.24l2.61,3.85.14-.26c.86-1.47-.39-3.24-1.77-3.56Z"/><path class="cls-5" d="M932.57,995.83a8.3,8.3,0,0,0-3.17,8.44,10.3,10.3,0,0,0,5.77,7.07,20.79,20.79,0,0,0,4.81,1.37q9.4,1.83,18.93,3c6.54.81,9.8-10.08,5.12-14.37-4-3.68-10.8-3.4-15.69-4.86a40.59,40.59,0,0,0-9.85-2A10,10,0,0,0,932.57,995.83Z"/><path class="cls-5" d="M1080,1043.76c2.72-16.84,3.8-36.21-5.82-50.06-15.54-22.43-31.77-26.68-50.28-28-10-.71-20.3-.19-29.91,3-12.21,4-23.55,11.69-30.65,23.08-4.43,7.12-8.91,14.26-9.26,22.84q-.26,6.25-.39,12.53c-.51,24,9.25,44.57,28.74,57.63,14.52,9.72,32.21,11.55,48.9,8.53C1054.66,1089.07,1075,1074.83,1080,1043.76Z"/><path class="cls-16" d="M1070.23,1041.4c2.26-14,2.19-29.46-4.84-41.67-10.38-18-26.44-22.2-41.85-23.3-8.36-.6-16.9-.16-24.89,2.5-10.16,3.37-19.61,9.73-25.51,19.21-3.69,5.92-7.41,11.87-7.71,19-.14,3.48-.25,6.95-.33,10.43-.41,19.94,7.72,37.12,23.92,48,12.09,8.1,26.81,9.62,40.71,7.1C1049.18,1079.11,1066.07,1067.26,1070.23,1041.4Z"/><g class="cls-23"><path class="cls-24" d="M1030.79,1053.42c5.32-4.44,9.47-13.92,11.11-19.18,2.27-7.29,6.25-19.8-.11-26.06-6.73-6.63-16-5.61-22,1.28-1.8,2-2.53,5.6-4.47,7.29-4.33,3.8-10.21-2.11-14.85-2.43-5.4-.4-11.73,4.42-13.25,9.83-3.51,12.53,10.57,20.71,19.76,24.31,5.69,2.24,12.73,8.34,19.24,7.29A9.92,9.92,0,0,0,1030.79,1053.42Z"/></g><path class="cls-25" d="M914.24,1093l-.24.15c-3.62,2.3-6.51,5.68-9.76,8.48-5.69,4.86-11.43,9.72-16.76,15.06-7.59,7.58-13.89,16.36-23.77,20.91-7.26,3.35-14.23-4.28-9.32-11.55,8.59-12.75,21.91-20.21,34.78-27.26,5.45-3,11.72-5.63,16.51-9.73s6.39-8.68,8.86-14.49c2.73-6.49,18.78-17.21,25.46-12.39,7.71,5.56-.78,17.11-5.06,22-2.57,3-5.61,5.81-9.36,6.58C921.18,1091.68,918.35,1090.48,914.24,1093Z"/><g class="cls-21"><path class="cls-5" d="M934.87,1069.75a12.67,12.67,0,0,1-3,1,23.14,23.14,0,0,0-4,2.24c-2.93,1.62-6.29,3.2-8.49,5.87-3.86,4.72,1.13,10.6,6.17,9.15,3.39-1,6.06-4.17,8.37-6.78a26.51,26.51,0,0,0,3-4.77c.77-1.38.56-3.24,1-4.72.48-1.83-1.74-2.82-3-2Z"/></g><g class="cls-21"><path class="cls-5" d="M929,1085a1.38,1.38,0,0,0,1.58-1.17,1.43,1.43,0,0,0-1.12-1.66h0a1.37,1.37,0,0,0-1.57,1.17A1.43,1.43,0,0,0,929,1085Z"/></g><g class="cls-26"><path class="cls-5" d="M886,1108.43A58.34,58.34,0,0,0,872.22,1119c-2.15,2.13-4.38,4.15-6.67,6.11-2.14,1.83-4.74,2.9-5.21,6a2.66,2.66,0,0,0,1.41,2.83c5,1.89,9.75-4.44,12.87-7.79,4.4-4.73,8.21-10.24,12.89-14.64,1.28-1.2.28-4-1.54-3Z"/></g><g class="cls-27"><path class="cls-24" d="M1017.74,988a56.49,56.49,0,0,1,19.59,6.86c4.93,3,8.77,7.35,12.4,11.82,4.4,5.44,6.72,10.88,7,18.07a41,41,0,0,1-1.55,10.14c-.77,3.61-2.7,7-2.39,10.79a3.13,3.13,0,0,0,3.41,2.87,3,3,0,0,0,.72-.18c7.42-3.08,9.5-15,9.73-22.35a36.82,36.82,0,0,0-8.16-24.57c-4.4-5.51-9.54-10.81-15.82-13.87-7.89-3.83-16.34-3.76-24.79-2.73a1.62,1.62,0,0,0-1.19,1.92,1.58,1.58,0,0,0,1.08,1.23Z"/></g><g class="cls-27"><path class="cls-24" d="M1021.26,992.54c-8.48-2.23-22.94-6.37-28.54,3.79-.78,1.43.6,2.72,1.86,2.75,4.28.11,8.38-2,12.7-2.26,4.59-.29,9.26.08,13.82-.05,2.42-.07,2.24-3.67.14-4.23Z"/></g><g class="cls-28"><path class="cls-20" d="M975.05,1022c-5.23,8.33-3.09,18.12-.41,27.12,2.94,9.87,10.07,16.2,18.1,21.57,8.26,5.5,17.65,7.91,27.35,8.26,8.86.33,21.05-1.62,28.08-7.77a5.67,5.67,0,0,0,1-7.68,5.08,5.08,0,0,0-5.85-1.89c-3.17.94-6.11,2.56-9.37,3.35a49,49,0,0,1-11.57,1.2,44.41,44.41,0,0,1-21.21-5.84c-6.3-3.53-11.79-8.11-15.43-14.64a75.59,75.59,0,0,1-4.5-11.06c-1.31-3.62-3.32-8-3.81-11.86-.14-1.12-1.72-1.89-2.41-.81Z"/></g><g class="cls-29"><path class="cls-5" d="M1047.44,940.26c4.55,3.13,9,6.56,13.54,9.73a114.74,114.74,0,0,1,15.28,13c4.38,4.39,8.49,8.45,12,13.65a95.32,95.32,0,0,1,9.12,17.39,99.45,99.45,0,0,1,7.15,37.32,105,105,0,0,1-2,20,51.34,51.34,0,0,1-3.09,10.2c-1.85,4.47-1.74,8-1.79,12.66-.05,4.1,4.85,6.83,8.21,5.35,4.17-1.84,7.9-3.7,10-8.3a83.42,83.42,0,0,0,4.57-13.67c2.12-8.32,2.64-17.06,2.88-25.63a114.49,114.49,0,0,0-8.2-44.91,101.54,101.54,0,0,0-25.92-38.14c-5.4-4.91-12.56-8.63-19.29-11.16a56,56,0,0,0-11-3c-3.58-.56-6.63.17-10.09,1-1.77.4-3.32,3.14-1.32,4.5Z"/></g><g class="cls-30"><path class="cls-5" d="M991.45,934.88c-2.78-1-4.46-1.75-7.55-1.67-3.41.09-7.34,1.62-10.47,3a75.31,75.31,0,0,0-17,10.41,67.4,67.4,0,0,0-13.32,14.31c-3.25,4.63-7.71,14.76-4,20.26,3.31,4.9,8.92-1.14,11.41-3.75,4.3-4.51,7.54-10,11.89-14.49s9.38-7.81,14.29-11.42c2.92-2.15,5.77-4.41,8.73-6.49,1.4-1,2.73-2.09,4.1-3.17,1-.81,1.41-2.08,2.31-2.86,1.14-1,1.42-3.46-.35-4.06Z"/></g><path class="cls-5" d="M1113.06,1079.64a4.93,4.93,0,0,0,5.66-4.22,5.13,5.13,0,0,0-4-5.94,4.93,4.93,0,0,0-5.66,4.2A5.2,5.2,0,0,0,1113.06,1079.64Z"/><path class="cls-5" d="M1084.34,1109.17c-6.28,4.21-13.89,6.75-20.84,9.66a87.51,87.51,0,0,1-10.27,3.62c-3.4,1-7.37,1.69-10.36,3.65a2.26,2.26,0,0,0,.32,3.75c6.79,3.72,16.52-1.15,22.82-4,7.58-3.42,15.39-7.11,20.45-14.25a1.74,1.74,0,0,0-.29-2.36,1.53,1.53,0,0,0-1.85-.07Z"/><path class="cls-5" d="M934.14,1080.85c4-2.18,5.56-7.67,4.92-12.16a1.5,1.5,0,0,0-.78-1.19c-1.94-.76-2,1.62-2.06,3-.09,3.45-1.37,6.54-2.61,9.67-.13.34.18.81.55.64Z"/></g><g id="COFFEE_BEANS"><path class="cls-10" d="M902.4,480.88c11.27,3.13,21.26,9.49,30.48,16.54A201.46,201.46,0,0,1,969,533.14c12,15.3,21.44,34.77,11.79,53.2-8.86,16.94-26.18,28.33-45.77,28.21-18-.09-35.92-6-52-13.48-25.47-11.69-51.23-41.87-54.14-70-1.54-15,9.61-30.91,21.08-39.61C864.56,480.36,884.52,475.9,902.4,480.88Z"/><g class="cls-31"><g class="cls-32"><path class="cls-33" d="M851.83,466.38c-5.61,3.61-8.69,11.21-10.94,17.13-2.7,7.05-4.81,15.18-3.58,22.82,3.28,20.35,21.08,38.24,39.5,46.61,18.68,8.49,37.91,15.91,53.56,29.43a53.31,53.31,0,0,1,14.39,20.07,65.44,65.44,0,0,1,4,13.31c1,6.24,1.14,12.19,3,18.28,1.1,3.6,6.49,4.47,8.74,1.48,6.53-8.66,7.66-20.57,6.21-31.1a57.37,57.37,0,0,0-12.64-28.1c-13.22-16.35-32.64-26.3-51.7-34.56-8.58-3.72-18.31-6.36-26.19-11.4A65.26,65.26,0,0,1,856.1,510c-4.42-7-3.89-10.84-4.09-19.15-.15-5.94-.45-15.33,4-20,2.52-2.61-1.37-6.31-4.22-4.47Z"/></g></g><g class="cls-34"><path class="cls-35" d="M954.93,540.94c-.74-3.57-1-6.94-2.56-10.31a70.54,70.54,0,0,0-6.83-11.89c-5-7-11.72-12.49-19-17-13.5-8.43-28.51-12.8-44.06-16-14-2.94-17.76,18.61-3.77,21.53,12.75,2.66,24.94,6.2,36.24,12.76,5.78,3.36,10.5,8.23,15.28,12.78,2.71,2.59,5.44,5,8.34,7.46,3.13,2.58,6.57,3.64,10.36,4.87,2.64.86,6.68-.74,6-4.13Z"/></g><path class="cls-36" d="M1084.86,632.32c-15.17,8.06-31.94,11.5-45.41,7.15-18.81-6-36.06-17-50.53-30.17s-27.16-28.46-39.53-43.69c-8-9.89-11.57-20-17-31.24-4.8-10-6.46-20.55-1.18-30.7,6.3-12.09,17.63-22.72,29.71-29.11,16.52-8.7,34.53-8.61,52.07-3.43,45,13.26,92.31,46.91,110.3,91.33C1134,588.68,1111.94,617.9,1084.86,632.32Z"/><g class="cls-37"><g class="cls-38"><path class="cls-33" d="M913,515.36c6.65-6.5,17.19-10.83,26.26-12.63,9.7-1.91,20.1.94,29.53,3.14,21.74,5,44.06,14,57.51,32.48,8.08,11.08,14.45,23.53,21.93,35,7.73,11.9,16.66,23.18,27.56,32.46,9.32,7.91,20.69,13.33,32.23,17.29,6,2,12.09,3.77,18.2,5.44,7.3,2,13.92,3.45,20.88-.33,4.1-2.24,3.82-7.52,1.91-10.93-3.49-6.23-11.14-8-17.62-9.72-5.73-1.54-11.4-3.17-17-5.16a81.31,81.31,0,0,1-30.74-19c-20.09-19.81-29.9-47.55-50.73-66.74-17.86-16.46-43-24.33-66.93-27-10.91-1.23-21.24-1.88-31.76,1.81-9.59,3.36-19.28,9.42-24.59,18.14-.55.89-1,1.8-1.52,2.74-1.54,3.11,2.7,5.17,4.92,3Z"/></g></g><g class="cls-39"><path class="cls-35" d="M1048.87,514.18c5.76,9.82,14.34,16.92,21.51,25.6a61.84,61.84,0,0,1,8.2,12.44c2.7,5.57,4.61,11.45,7.69,16.85,2.33,4.11,8.42,5.41,12.63,3.92a10.85,10.85,0,0,0,6.58-13.76c-3.48-11-9.48-23.23-17.48-31.71-9.15-9.69-19.62-16.4-31.54-22.38-5.93-3-10.46,4.19-7.61,9.07Z"/></g><path class="cls-40" d="M1060.47,608.59c-.89-.82-.48-.37,1.2,1.33a21.9,21.9,0,0,0-2.58-2.78q-5.05-3.1-1-.62a11.25,11.25,0,0,1-1-.74c-1.94-1.41,2.61,3,.21.23a54,54,0,0,0-4.57-4.51c-.87-.8-1.7-1.65-2.52-2.49,3.92,4,.75.74-.06-.18-1.94-2.23-3.75-4.56-5.53-6.91-7.32-9.65-16.08-18.38-24.9-26.75-2.41-2.28-4.94-4.44-7.4-6.68-1.68-1.54-3.32-3.13-4.94-4.74-.94-.93-1.87-1.88-2.79-2.82-1.58-1.66-1-1,1.87,2-.75-.78-1.48-1.58-2.21-2.38a131.94,131.94,0,0,1-10.9-13.51c-.76-1.09-1.45-2.2-2.15-3.33-2.83-4.6,2.14,4.37.6,1.21a26,26,0,0,1-1.17-3q-.93-3.11.68,3.46a41,41,0,0,0-1.55-6.73c-7.8-20-38.57-18-42.3,3.67C944.74,547.86,957,563,966.65,574c7.69,8.67,16.08,16.34,24.51,24.24,9.61,9,19.22,17.28,31.18,23.18a116.42,116.42,0,0,0,18.64,7.16,18.57,18.57,0,0,0,6,.6h1.34c-5,.25.14,0,2,.06a14.67,14.67,0,0,0,9.53-3.29c5.81-4.65,6.15-12.26.64-17.31Z"/><path class="cls-20" d="M1006.83,660.89a204,204,0,0,1,5.27-21.07,104.62,104.62,0,0,0,5.34-27c1.11-20.15-7.89-34.66-25.86-44.57-23.68-13.1-55.42-3.44-73.69,14.24-12.16,11.78-19.93,27.42-24.34,43.63s-3.25,31.37-4.34,48.11A82.25,82.25,0,0,0,908,731.66c11.84,14.18,32.56,18.14,50.44,13s32.21-20,38-37.41C1001.47,692.19,1003.68,676.4,1006.83,660.89Z"/><g class="cls-41"><g class="cls-42"><path class="cls-33" d="M1003.79,544.37c-4.51-6.56-13.9-5.19-19.94-1.55-7.32,4.43-13.16,10.75-18.88,17s-12,12-16.62,19.15a85.14,85.14,0,0,0-12.81,34.54c-3.32,23.09,3.14,45.22,5.46,68,1.09,10.66,1,23.34-2.27,32.89-3.57,10.41-11.12,18.81-17.83,27.52-5.46,7.05-9.71,15.79-16.49,21.77a86.34,86.34,0,0,1-13,9.18c-4.6,2.78-9.22,5.43-13.86,8.2-3.68,2.22-2.24,8.54,2.05,9,3.07.31,6.84,1.13,10,.78a87,87,0,0,0,10.24-2,48.79,48.79,0,0,0,19.47-9.93c5.43-4.55,9.22-9.75,13.11-15.52,3.36-4.93,7.17-9.57,10.79-14.3,7.58-9.81,14.42-19.95,17.68-32s3.39-25.09,2.26-37.47c-2.05-21.88-9-43.2-5.64-65.2,1.6-10.55,5.27-20.87,11.63-29.56,4.43-6,9.22-11.91,13.87-17.82a131.71,131.71,0,0,1,10.16-11.85c.78-.79,1.6-1.52,2.35-2.32s0-.08,1.33-1c-.64.45.55,0-.81-.07,3.77.2-.13-.45,1.24.29,4.79,2.63,9.22-3.68,6.49-7.7Z"/></g></g><g class="cls-43"><path class="cls-35" d="M915.4,605.82c-5.12,7.25-9.75,13.93-12.68,22.41-3.07,9.06-4.09,18.51-4.09,28-.15,18.59,4.74,37.06,11.56,54.29,4.32,10.88,22,4.43,17.23-6.1a168.27,168.27,0,0,1-13.73-46.91c-2.05-15.47-1.7-35,6.51-48.76,1.62-2.72-2.94-5.49-4.77-2.92Z"/></g><g class="cls-39"><path class="cls-35" d="M980.14,668.22c13.2-6.43,18.23-22.42,22.1-35.46a58.25,58.25,0,0,0-2.18-40.39,14.72,14.72,0,0,0-14.79-9.32c-8.39.7-13,7.63-13.13,15.33-.06,6.15,4,11.79,4.46,16,.55,4.56.06,8.27-.6,13.92s-1.47,11.62-2.44,17.38-2.39,11.08-2,17.13c.23,3.74,4.86,7.22,8.58,5.41Z"/></g></g><g id="PLASTIC_CUP"><path class="cls-13" d="M92.53,909.37c-1-4.64-1.85-11.29-6.34-13.9-3.93-2.32-8.53-1.11-12.46.17-5.35,1.76-10.69,3.55-16.15,5-4.5,1.2-10,2.21-13.11,6.09-2,2.6-1.72,6.29-1,9.31,1,3.23,1.75,6.74,3.14,9.79,5.19-1.12,9.9-4.12,14.86-5.8,5.68-1.92,11.4-3.7,17.06-5.69,4.45-1.58,8.84-1.9,13.21-3.94C92.59,910,92.72,910.26,92.53,909.37Z"/><path class="cls-35" d="M220.93,910.91c-5.74.49-12.26,3.66-17.74,5.29l-154.38,46c-5.47,1.63-12.69,2.56-17.74,5.29-8.53,4.59-2.65,11.85.23,18.11,17.15,36.79,38.75,71.3,58.85,106.54,8.87,15.56,18.93,29.79,27.64,45.61,10.17,18.51,32.78,74.82,40.59,78.45.93.43,2.64.49,4.93.27a84.39,84.39,0,0,0,9.85-1.79c7.68-1.77,25.06-6.86,34.66-9.81,9.66-2.79,27-8,34.37-10.75a82.58,82.58,0,0,0,9.2-3.89,11.05,11.05,0,0,0,4-2.91c4.45-7.29-8.52-66.47-10.5-87.41-1.7-17.92-1.36-35.25-2.75-53-3.16-40.28-4.68-80.77-11.18-120.74C229.82,919.33,230.62,910.08,220.93,910.91Z"/><path class="cls-13" d="M214.28,895.79c-7.09-3.51-13.21-1.16-20.29.18-8.16,1.56-16.09,3.94-24.14,6.24l-8,2.28-.65-.34L77.05,929.2l-.34.65-8,2.49c-8,2.47-15.94,4.82-23.61,8-6.74,2.77-13.1,4.14-17,10.92a18.41,18.41,0,0,0,.38,18.59c.25.06,1.34,0,1.58.09l96.62-28.85,96.63-28.72c.18-.18,1.11-.76,1.28-.94A18.68,18.68,0,0,0,214.28,895.79Z"/><path class="cls-44" d="M197.44,885.37c-6-3.46-12.9-3.66-19.57-2.17-15.54,3.5-30,9.34-45.28,13.88L96.76,907.75c-15.26,4.55-30.59,7.6-45.5,13.17-6.42,2.41-12,6.26-15.06,12.49-1.76,3.57-.68,8,0,11.81.21-.07,1.42-.12,1.63-.19l164.8-49.09c.22-.07,1.24-.68,1.46-.74C202.53,891.68,200.92,887.39,197.44,885.37Z"/><g class="cls-45"><path class="cls-46" d="M3.6,984.08c4.31-1.52,8.74-2.26,13.08-3.73,5.25-1.76,10.61-3.16,15.87-4.89,12.26-4.05,24.9-7,37.38-10.3,32-8.34,63.11-19.61,95.11-27.93,15.79-4.12,31.25-9.12,46.78-14.11,17.37-5.57,34.57-11.35,50.29-20.64,3.69-2.15,1.65-7.48-2.33-7.57-18.27-.41-36.08,5.7-53.2,11.18-16.18,5.19-32.26,10.32-48.71,14.61-31.94,8.31-63.38,18.68-95,28.1-22,6.55-46.33,13.27-62.19,30.71-1.79,2,.16,5.55,2.91,4.57Z"/></g><path class="cls-47" d="M213,1112.7c-.78.93-.79.9,0-.09a14.66,14.66,0,0,0,3.56-6.56c.76-2.87,1.78-5.6,2.3-8.53,1.23-6.79,2.62-13.33,3.1-20.26.86-12.42.37-24.8.11-37.23s-1.05-24.89-1.79-37.36c-.33-5.62-.52-11.24-.91-16.86-.42-5.95-.1-11.74-.18-17.69-.2-12.94-11.73-23.49-24.77-23.15a24.19,24.19,0,0,0-23.55,24.34c.14,5.3-.36,10.52.18,15.81.65,6.23.84,12.49,1.25,18.73.79,12.4,1.53,24.89,2.64,37.3s2.15,24.79,4,37.13a117.25,117.25,0,0,0,4.79,20.22,55.58,55.58,0,0,0,5,10.64,21.84,21.84,0,0,0,3.3,4.19l3.1,2.18c1.16.71,1.28.67.35,0a11.56,11.56,0,0,0,16.14-.92,11.07,11.07,0,0,0,1.43-2Z"/><path class="cls-47" d="M199,1142.41c-4.84,8.82-3.6,21.86.27,30.87,4.75,11,15.31,18.42,27.89,14.67,14.62-4.36,19.28-20.34,12.39-32.78-3.89-7.06-10.31-16.08-17.92-19.5-8.35-3.72-18.11-1.53-22.68,6.76Z"/><g class="cls-48"><path class="cls-5" d="M143.67,924.9c20-2,38.94-7.88,58.11-13.59,7.24-2.15,3.84-13.18-3.4-11-19.17,5.71-38.22,11.22-56,20.42-2,1-1,4.42,1.29,4.2Z"/></g><g class="cls-49"><path class="cls-5" d="M163.25,900.17c5.88,2.28,15.58,1.1,20.55-2.83,3.69-2.91,2.91-10.53-3-9.84-3.56.42-6.57,1.76-9.85,3.1-3.07,1.25-6.34,2.88-8.35,5.53-.91,1.2-1,3.36.68,4Z"/></g><g class="cls-45"><path class="cls-46" d="M3.6,984.08c4.31-1.52,8.74-2.26,13.08-3.73,5.25-1.76,10.61-3.16,15.87-4.89,12.26-4.05,24.9-7,37.38-10.3,32-8.34,63.11-19.61,95.11-27.93,15.79-4.12,31.25-9.12,46.78-14.11,17.37-5.57,34.57-11.35,50.29-20.64,3.69-2.15,1.65-7.48-2.33-7.57-18.27-.41-36.08,5.7-53.2,11.18-16.18,5.19-32.26,10.32-48.71,14.61-31.94,8.31-63.38,18.68-95,28.1-22,6.55-46.33,13.27-62.19,30.71-1.79,2,.16,5.55,2.91,4.57Z"/></g><g class="cls-30"><path class="cls-5" d="M43.36,1009.78c14.65,28,31.18,54.93,46.78,82.35,3.6,6.3,7.43,12.47,11.28,18.57l141.75-42.39c-.25-7.11-.53-14.24-1.09-21.44-2.46-31.34-3.93-62.81-7.56-94Z"/></g><g class="cls-50"><path class="cls-51" d="M203.08,1023.13c-3.39-11-9.13-22.1-19-28.26-14.59-9.11-28.56-6-40.85-1a58.16,58.16,0,0,0-18.29,11.25c-6.63,6.3-11.6,14.48-12.63,23.55-.67,5.68-1.35,11.39,1,16.66,1.17,2.56,2.36,5.12,3.58,7.66,7,14.56,19.57,23.89,36.07,25.56,12.28,1.26,24.21-3.22,34-10.31C200.66,1058.38,209.36,1043.39,203.08,1023.13Z"/></g><path class="cls-20" d="M144.58,1057.83c.85-5.71,4.06-11.9,6.36-15.31,3.48-5.19,7.72-9.67,11.44-14.73,2.84-3.8,5.46-8.11,4.85-13a50.09,50.09,0,0,0-1.54-7,14.79,14.79,0,0,0-9.3,3.56c-2.66,2.32-4.34,5.5-6.08,8.55-3,5.19-6.49,10.2-8.66,15.75s-3.09,11.93-.85,17.48a10.42,10.42,0,0,0,2.12,3.39A8.74,8.74,0,0,0,144.58,1057.83Z"/><path class="cls-20" d="M172.44,1009.16a13.86,13.86,0,0,0-3.14-1.07c1.64,4.21,2.67,8.68,1.53,12.93-1.71,6-5.6,10.73-9.5,15.53a75.27,75.27,0,0,0-9.9,14.63,23.94,23.94,0,0,0-2.65,8.26,20.61,20.61,0,0,0,14.62-2.86c4.88-2.95,8.6-7.41,11.68-12.14,3.63-5.6,6.59-12,6.67-18.64S178.54,1012.12,172.44,1009.16Z"/></g><g id="COFFEE_MAKER"><polygon class="cls-52" points="168.99 85.95 179.92 84.11 189.52 139.27 178.59 141.1 168.99 85.95"/><path class="cls-53" d="M116.94,162.69a18.78,18.78,0,0,1,10.3,0l126-21.41c5.31-.9,8.84-7.34,6.06-11.87s-9.31-5.27-14.82-5.39l-8-.16L109.67,145c-1.43,4.12-3.07,11.28-1.62,15.39S112.69,163.93,116.94,162.69Z"/><path class="cls-10" d="M301.16,363.46l-142,23.89c-.34.06-1.5,1.31-1.84,1.37L119.8,172.89,117.91,162l142.64-24c1.74,7.86,1.86,15,3.6,22.83Z"/><path class="cls-54" d="M291.91,365l-61.86,10.39c-.14,0-.55,1.15-.69,1.18L191.79,160.8l-1.89-10.89L252,139.46c1.54,7.89,2.28,14.88,3.8,22.77Z"/><path class="cls-55" d="M182.77,383.39l-24.28,4.11c-.06,0-.11,1.08-.16,1.09L120.76,172.75q-.95-5.46-1.9-10.9l24.39-4.1c1.43,7.91,2.46,14.85,3.89,22.76Z"/><path class="cls-25" d="M179.38,33.14c-8-1.83-18.94,1.76-25.4,3.64-12.73,3.71-13.5,9.51-8.15,20.82,3,6.32,8.26,11.49,12.87,16.65,2.73,3.07,8.65,4.48,12.57,3.13,3.31-1.14,7.17-2.12,9.33-4.88s3.27-6,4.41-9.34C188.21,54.19,193.49,36.36,179.38,33.14Z"/><path class="cls-25" d="M163.28,391.18a13.62,13.62,0,0,0,.31-4.63c-.29-3.69-1.6-8.06-2.25-11.79q-2.55-14.61-5.12-29.22l-14.48-83.08q-13-74.46-25.92-149c-.57-3.19-1.12-6.38-1.67-9.57.23-.71.84.45.23.24-1.63-.58-1.69-1.3-3.3-1l-13.24,2.28c-.33.06-1.26-.46-1.59-.41.07.44.15.88.22,1.32l50.66,291c-.21.79.74.48,1.38.78a2.84,2.84,0,0,0,2,0C155.56,396.69,161.72,396.92,163.28,391.18Z"/><path class="cls-52" d="M207.08,383.81a13.37,13.37,0,0,0,.31-4.63c-.29-3.68-1.6-8.06-2.24-11.78q-2.57-14.62-5.13-29.22l-14.48-83.09q-13-74.47-26-149c-.55-3.2-1.11-6.39-1.67-9.59.25-.7.85.46.25.25-1.63-.58-1.7-1.3-3.31-1L141.61,98c-.34,0-1.26-.47-1.59-.41.07.43.15.88.23,1.32L190.9,390c-.21.79.74.47,1.38.78a2.73,2.73,0,0,0,1.95,0C199.37,389.31,205.52,389.51,207.08,383.81Z"/><path class="cls-52" d="M287.53,370.27a13.21,13.21,0,0,1-1.88-4.26c-1-3.57-1.21-8.13-1.85-11.85q-2.57-14.62-5.13-29.22-7.17-41.55-14.43-83.1-13-74.49-25.91-149l-1.66-9.58c-.47-.58-.65.71-.15.31,1.36-1.08,1.18-1.79,2.81-2l13.43-2.31c.33,0,1-.85,1.37-.9.07.44.16.87.23,1.32l50.66,291c.48.68-.54.7-1,1.19a2.81,2.81,0,0,1-1.87.63C296.82,372.92,291,375.17,287.53,370.27Z"/><path class="cls-56" d="M242,377.93a13.69,13.69,0,0,1-1.87-4.27c-1-3.57-1.22-8.13-1.86-11.84q-2.55-14.61-5.12-29.22Q226,291,218.75,249.51q-12.94-74.49-25.9-149l-1.66-9.58c-.47-.58-.66.71-.15.31,1.36-1.07,1.17-1.78,2.8-2L207.26,87c.33-.06,1-.85,1.37-.9.07.43.15.87.22,1.31l50.69,291c.48.68-.53.69-1,1.19a2.83,2.83,0,0,1-1.88.61C251.28,380.58,245.48,382.82,242,377.93Z"/><path class="cls-53" d="M291.9,341a3.49,3.49,0,0,1-1,0c-9.23-1.4,4.7-23.8,6.37-27.15,5.89-11.81,13.08-22.94,20.38-34,14.44-21.82,30-43.69,37.09-69.1,4.3-15.38,4.47-34-7.31-44.94-7.63-7.11-18.78-9.41-29.29-9.17-7.73.18-15.57,1.62-22.28,5.4S288,171,283.77,177.36l-5.45,8.21c-1.3,2-2.72,4-4.91,5-3.08,1.31-6.86-.19-9-2.72s-3.15-5.84-3.87-9.07c-2.42-10.68-4.35-16,4.51-24.34,5.81-5.5,13.17-9.41,20.23-13.1,12.82-6.71,27.58-10.48,42.13-8.73,25,3,47.91,22.59,51.48,47.12,1.37,9.51,0,19.21-2.43,28.52-9.71,37.4-37.27,70-58.17,101.9-6.63,10.07-13.95,20.45-22.54,28.63A7.69,7.69,0,0,1,291.9,341Z"/><path class="cls-57" d="M249.43,55.37l-78.14,13.1.15,1.53-.37-1.49L92.92,81.71C85.16,83,60.44,86.19,70.28,99.85c2,2.88,5.3,4.72,8.42,6.49,11.65,6.57,16.82,9.14,29.78,6.73,9.58-1.79,19.24-3.26,28.86-4.88l39.57-6.68,39.58-6.64c9.62-1.61,19.22-3.38,28.86-4.84,13-2,17-6,25.81-16.12,2.35-2.68,4.76-5.47,5.74-8.87C281.57,49,257.19,54.06,249.43,55.37Z"/><path class="cls-57" d="M329,381.11c-2.41-7.62-6.82-14.46-11.78-20.77-14.05-17.85-42.29-7.65-61.35-4.45l-14.64,2.47-.67.11-36.79,6.19-.66.12-14.65,2.46c-19.05,3.21-49.18,2.83-56.35,24.26-2.54,7.57-4.4,15.47-4.1,23.43a16.73,16.73,0,0,0,1.85,7.84,7.83,7.83,0,0,0,6.64,4.15l75.88-12.76h0l18.44-3.09L249.28,408h0l75.88-12.77a7.76,7.76,0,0,0,4.87-6.05A16.8,16.8,0,0,0,329,381.11Z"/><g class="cls-28"><path class="cls-5" d="M186.16,78c6-.26,12-.11,18-.57s11.86-1.18,17.77-1.84,11.83-1.4,17.73-2.24c5-.71,11.91-.37,15.6-4.15a4.26,4.26,0,0,0,.36-6.09A4.36,4.36,0,0,0,254,62c-4.74-2.35-11.15.16-16.15,1q-8.81,1.47-17.59,3c-5.85,1-11.71,2-17.51,3.35s-11.42,3.25-17.21,4.93a1.88,1.88,0,1,0,.65,3.71Z"/></g><path class="cls-5" d="M285.26,146.07c-6.38,2.23-16.25,8.47-15.57,16.12.27,3.2,4.39,4.11,6.66,2.39s3.17-5,4.81-7.29a18.33,18.33,0,0,1,6.77-5.61c3.68-1.87,1.12-7-2.67-5.62Z"/><g class="cls-28"><path class="cls-5" d="M226.46,392.44c3,.33,6,1,9,1.54,4,.68,8.09.21,12.09,0,7-.33,14-1.62,20.88-2.76s13.85-2.71,20.77-4.1,15-1.87,21.51-4.83c10.48-4.77,7.79-20.93-3.82-21.93-6.62-.57-13.43,1.62-19.86,3-6.88,1.54-13.79,3.09-20.64,4.76s-13.68,3.24-20.59,4.58c-3.07.59-6.15,1.33-9.22,1.88-3.65.68-6.94,2.56-10.64,3.14-8.5,1.31-7.86,13.71.52,14.64Z"/></g><path class="cls-5" d="M205,119.81c1.12,6.82,1.33,14.71,4.21,21.06a1.4,1.4,0,0,0,2.64-.45c.56-6.93-1.9-14.44-3.16-21.23a1.88,1.88,0,0,0-2.26-1.36,1.86,1.86,0,0,0-1.43,2Z"/><g class="cls-28"><path class="cls-5" d="M158.57,139.58c3.52-.6,2.59-6-.95-5.39S155,140.17,158.57,139.58Z"/></g><g class="cls-58"><g class="cls-59"><path class="cls-25" d="M139,117.83c-.69-.42-5.89-4.45-3.21-2-2.76-2.51-5.41-5.11-8.2-7.6-1.9-1.72-3.89-3.34-5.81-5,4.55,4-1.36-1.43-2.3-2.36-6.9-6.89-13.76-13.83-20.17-21.16a94.54,94.54,0,0,1-7.17-9.41c4.79,7.13.08-.19-.88-1.86q-1.87-3.27-3.55-6.64c-.9-1.82-1.7-3.69-2.47-5.56-.37-.93-.73-1.87-1-2.81-1.94-5.25,1.82,6.35.38,1.06C81.94,44.57,78.56,36.78,70.41,30c-10.61-8.8-25.62-3.52-33.49,5.65C25.49,49,32.33,68.77,39.52,82.34A105.89,105.89,0,0,0,60,109.91c9,8.5,18.32,17.13,29.23,23.24,5.5,3,11.15,5.93,16.91,8.52,5.46,2.45,11.47,3.32,17,5.63C141,154.77,155.51,128,139,117.84Z"/></g></g><g class="cls-60"><g class="cls-61"><path class="cls-25" d="M179.77,331.73c-7.82-1.74-16,0-23.35,2.73l10.47-1.76c-2.75.08-2.74-.66-7.12.08-4.59.77-7.25,2.76-11,5.19a39,39,0,0,0-5.68,4.64c-4.84,4.63-9.32,9.2-12.85,14.89a110.43,110.43,0,0,0-13.88,32.15c-3.51,14.46-6.41,30.9-2.23,45.5,3.74,13,9.47,24.18,21.34,32,6.89,4.54,14,5.83,21.95,6.86,6.69.86,15.37.36,21.27-3,13.32-7.74,19-21,13.05-35.53-2.29-5.6-6.15-8.88-10.68-12.68-.71-.59-1.4-1.2-2.05-1.81l-1-.88q-3.62-3,3,2.43,2.2,3.42,4.43,6.81c-3.22-5.46-7-9.35-10.68-14.28l4.61,7.05a33.69,33.69,0,0,1-3.5-7.5l2.62,8.26c-1.25-4.18-2.59-8.32-3.93-12.46.86,2.73,1.73,5.45,2.6,8.18a83.1,83.1,0,0,1-3.36-20.28q.14,4,.29,7.95a132,132,0,0,1,2.52-26.89c.2-1.14.46-2.27.69-3.41-1.8,8.3-.89,3.76-.37,1.91,1.15-4.21,2.32-8.37,3.19-12.66-1.41,7-.77,3.7,0,1.85.65-1.49,2.67-4.91-.78,1.23a25.38,25.38,0,0,1,1.65-2.57,20.71,20.71,0,0,0,3.83-10.08q-.44-10.58.06-1.47-1.81,4.71-3.58,9.39a21.61,21.61,0,0,1,1.65-2.22c-3.39,4.19-1.86,2-.66.92,2.51-2.16-3.83,1.89-.71.52s-4.1,1-.6.28a16.14,16.14,0,0,0,13.32-14c1-9.39-5.87-15.41-14.41-17.32Z"/></g></g></g><g id="METEL_KETTLE"><path class="cls-62" d="M64.67,512.63c.22,4.15,13.57,5.87,16.72,7.25l9.91,4.35a2.62,2.62,0,0,0,2.31.25c.9-.52.84-1.8.65-2.82-.52-2.78-1-5.55-1.56-8.34a1.51,1.51,0,0,0-.33-.83,1.56,1.56,0,0,0-.86-.4c-5.79-1.42-11.48-3.28-17.36-4.27C65.88,506.42,64.61,511.61,64.67,512.63Z"/><path class="cls-63" d="M80.36,743.82c-1-.14-7.32-1.82-12.81-3.13-7.29-1.74-9.22-2.07-20.32-4.7-3.64-.87-3.68-1.46-1.76-4.58,2.25-3.65,3.83-7.85,5.65-11.73q5.63-12,11.27-23.91,11.55-24.27,23.29-48.42a7.83,7.83,0,0,1,6.4-.53l18,3.34C96.83,678,84.41,744.35,80.36,743.82Z"/><path class="cls-56" d="M85.32,540.86c2.33-4.53,8.94-19.2,7.75-20.35-2.5-2.43-20.71-10.07-23.76-10.3-10.33-.83-.8,12.26,2.61,15.79C82.41,536.87,83.46,538.84,85.32,540.86Z"/><path class="cls-64" d="M222.1,634.33c-4.27-.57-7.46-1.45-13.19-2.56-5.18-1-2.88-6.54-2.4-11.27.35-3.38,1.41-9.13,5.39-8.66,5.19.6,6.51,1.82,10,1.84,5.13,0,7.46-8.56,8.84-12.09,2.86-7.37,7.42-16.12,8.76-23.91,2.25-13.25-9.67-10.36-19.39-11.74-6.89-1-13.8-1.85-20.75-2.32-1.17-.4-3-2.86-3.17-4a6.78,6.78,0,0,1,.19-2.33,87.67,87.67,0,0,0,1.57-18.14,18.84,18.84,0,0,0-.73-1.94c.38,1.86,28.53,5.51,31.76,6.12,14.35,2.77,42,2.37,38.94,23.7-1,6.85-9.12,26-6.45,19.68.31-.72-8.69,20.6-12.88,30.08-2.58,5.86-4.66,13-10.38,16.59C233.85,635.87,233.85,635.87,222.1,634.33Z"/><path class="cls-62" d="M160.09,497.53c-.5,6,3.49,18.78,3.86,21.59.43,3.34,2.19,6.19,3.08,9.45,1.76,6,1,11.3,8.38,11.88,7.84.62,23.39,9.4,30.81,6,1.27-.59-.28-7.29-.8-8.25-7.06-12.67-10.73-9.8-31-34.77-2.72-3.36-7.59-10.7-12.94-8.85C160.66,494.88,160.22,496,160.09,497.53Z"/><path class="cls-65" d="M121.43,529.29c10.39-10.82,24.22-18.38,33-30.48,0-.95,2.62-4.86,2.64-5.82-18.5,2.5-39.39,11.93-57.32,17.25-3.76,1.12-25,6.67-16.81,12.3,3.56,2.44,9.16,2.34,13.32,3,7.51,1.26,22.21,7.05,28.14-.27Z"/><path class="cls-25" d="M157.11,493c-.18,0-13.81,11.27-18.62,15.49-6.5,5.71-12.62,11.83-18.58,18.09a3,3,0,0,0-1,1.94c0,1.33,1.67,2,3,2.22Q143.33,535,165,538.21a6.41,6.41,0,0,0,2.89,0c3-.9,3.07-5,2.52-8-1.8-9.46-3.28-19.27-7.3-28.13C161.42,498.52,161.38,492.07,157.11,493Z"/><path class="cls-25" d="M183.51,755.39c-.85-18.61-2.75-32.56-4-47.35-1.36-16-2.27-32.3-4.92-47.94-.41-2.43-13.12-2.62-14.88-2.75-4.1-.28-10.56.3-14.68-.49-3.72-.71-7,73.56-8.33,87-.38,3.81-3.36,10.28,1.67,11.19,15.77,2.9,42.66,9.47,44.68,8.45S183.64,758.19,183.51,755.39Z"/><path class="cls-63" d="M112.7,626.66a5.24,5.24,0,0,0,1.39-3.7c.67-21.53,4.45-43.12,5.28-64.87.33-8.56,6-16.27,6.62-24.79.54-7-6.36-8.59-13.69-9.73-9-1.38-19.65-3.42-28.76-3.66a1.75,1.75,0,0,0-1.83,1.7,1.08,1.08,0,0,0,0,.31c5,30.57,3.64,62.47,6,93.29.4,5.19,2.33,8.82,7.48,10.42C99.57,627,109.11,630.22,112.7,626.66Z"/><path class="cls-64" d="M159.78,478c-4,.16-7.81,2.35-8.63,6.83-.92,5,3.2,9.33,7.79,10.6a9.24,9.24,0,0,0,4.89.25,7.86,7.86,0,0,0,4.77-4.38C172.81,482.54,166.11,477.73,159.78,478Z"/><path class="cls-56" d="M152,631.52c1.14-2.36,1.49-5.72,2.2-8.71,2.15-9.25,4.27-18.52,6.22-27.83,4-19,7.52-39.54,10.84-58.66.78-4.46-39.75-12.43-44.26-11.08-2.52.76-1.57,17.53-2,24.53-.9,13.92-1.8,27.86-3.13,41.74-.26,2.84-2.71,36.71-2.49,36.76,8.64,2,17.29,4.2,26,6.05C149.06,635.21,150.93,633.85,152,631.52Z"/><path class="cls-25" d="M176,638.6c1.47-1.71,15.72-43.39,20.8-60.25,2.48-8.26,4.77-16.49,7.49-24.66,1.56-4.67,4.92-14.32-1.82-15.72-11.36-2.37-28.69-3.19-32.27-3-1.39.07-2.62,7.87-4.31,17.65-3.14,18.22-5.87,29-9.69,47.2-1.58,7.48-3.86,17.12-6.62,26.1-1.33,4.27-2.38,7,1.8,10.8s8.49-.1,13.72,1.11S173.76,641.22,176,638.6Z"/><path class="cls-56" d="M143.6,689.34c.31-5.27,3.72-32.08,1.43-32.52-3.8-.72-35.69-8.89-37.07-5.89-3.37,7.29-8.34,20.66-11.4,29.63-3.67,10.77-7.74,23.06-12,33.63-5.22,13.09-12.29,27.72-8.84,28.54,4.6,1.09,13.65,2.87,17.16,3.67q12.3,2.77,24.6,4.9c3.57.61,13.74,2.53,20.81,3.76C138.87,755.15,143,700.35,143.6,689.34Z"/><path class="cls-65" d="M112.65,653.4c-1.26.62-14.47-3.09-24.59-5.6a3.88,3.88,0,0,1-2.24-1,3.3,3.3,0,0,1-.5-1.58,30.77,30.77,0,0,1,.56-10.08c1.28-5.83,1.52-10.15,2.51-15.56a1,1,0,0,1,.39-.63c2.21-1.55,22.72,1.26,28,4.43,2.4,1.46-5.28,7.89-5.56,10.64C110.89,637.52,116.41,651.54,112.65,653.4Z"/><path class="cls-25" d="M146.93,659.23c1.89-7.48.89-21.73,2.73-29.34.81-3.4-36.41-9.21-36.81-8.06-2.18,6-2.77,12.14-3.61,16.12-2.49,11.67-3.62,13.51-2,14.82,2.13,1.82,18.53,4.22,25.08,5.33C136.59,658.75,146.67,660.3,146.93,659.23Z"/><path class="cls-62" d="M177.82,634.69c.38-3.3-29-7.22-29.36-5.27-1.25,6.36-1.66,11.75-2.52,18.13-.5,3.7-2.82,11.64-.33,12.74s28.62,5.2,29.28,1.61C176.18,654.8,177,641.91,177.82,634.69Z"/><g class="cls-66"><path class="cls-5" d="M165.71,619.75c3.15-.15,4.75-3,6.21-5.35,1.74-2.79,3.34-5.64,4.89-8.53,3.15-5.88,6.48-11.61,9-17.77,2-4.79,3.46-9.79,5.28-14.63,1-2.51,2-5,3.13-7.39.53-1.12,1.13-2.2,1.74-3.28,1-1.69.94-1.4,2.29-3.53,5.19-8.17-7.61-15.79-13.8-9.07-3.85,4.14-6,9.86-8,15-2.18,5.86-4,11.86-6,17.8.41-1.25-.91,2.41-1,2.81-.74,1.9-1.53,3.76-2.33,5.62-1.47,3.45-2.73,7.06-4,10.56-1.32,3.81-5.58,18.14,2.54,17.77Z"/></g><path class="cls-5" d="M176.06,546.55c2.65.51,3.45-3.53.8-4S173.42,546,176.06,546.55Z"/><g class="cls-66"><path class="cls-5" d="M143.06,544.39c.14.29.27.59.4.89l.74,1.45q2.36,2.81-.28-.84l.86,1.68q2.25,2.59.52.48a8.21,8.21,0,0,0,3.94,3c2.18.75,4.1,1.17,6.36.38a8,8,0,0,0,5-10.27,8.1,8.1,0,0,0-4.08-4.55,8.19,8.19,0,0,0-4.28-.81,7.5,7.5,0,0,0-3,.43l-1.8.88q2.38-1.33-.67.25l-1.43,1.24c2.55-1.62,2.73-1.84.57-.68a17.13,17.13,0,0,0-2,1.75,4.5,4.5,0,0,0-.93,4.69Z"/></g><g class="cls-67"><path class="cls-5" d="M164.11,697c-4.76,7.57-4.94,16.89-5.19,25.63a98,98,0,0,0,.69,14.42c.51,4.46,1,9.27,2.52,13.51a8.15,8.15,0,0,0,6.15,5.26l.79.12a8.11,8.11,0,0,0,8.66-4.19c1.87-3.75.43-7.28-2.46-9.92q1.39,2.73,2.76,5.45c-.5-4.31-1.58-7.59-2.27-11.45-.8-4.41-1.56-8.83-2.22-13.26a194.22,194.22,0,0,1-2.24-24.18c-.08-4-5.4-4.29-7.17-1.39Z"/></g><g class="cls-66"><path class="cls-5" d="M260.55,562.21c3.87.75,5-5.14,1.17-5.88S256.68,561.48,260.55,562.21Z"/></g></g><g id="MAN"><path class="cls-24" d="M405.73,1024.27l-.86,1.84c-7.73,16.7-15.37,34.38-29.06,47-13.32,12.34-21.52,26.71-40,32.94-7.93,2.66-17,4.51-25.14,1.67-10.8-3.73-16.7-22.25-19.92-31.79-4.22-12.54-6.38-25.63-8.3-38.66-2.46-16.77-2-33.82-1.34-50.75,1.79-40.64,5.7-81.61,18.7-120.24,7.17-21.45,17.16-41.91,27.6-62.06,16.7-32.24,36.46-65.49,64.34-89.16.27-.24,16.29,29.21,17.54,32A277.09,277.09,0,0,1,429.89,814c3.07,18,2.17,36.27,2.92,54.41,1.12,27,.56,54.92-4.17,81.89-2.47,14-7.62,27.21-10.61,41C415.44,1003.44,411.15,1012.94,405.73,1024.27Z"/><g class="cls-68"><g class="cls-69"><path class="cls-70" d="M472.63,718.7a32.94,32.94,0,0,0-22.12-8.21l12.43,3.31a29.47,29.47,0,0,0-30.26-.3c-1.87,1.15-3.55,2.68-5.53,3.6l7.52-3.11A43.3,43.3,0,0,0,413,729.38c-4.32,5.49-8.54,11.09-12.84,16.57l5.89-7.5c-3.54,4.49-7.39,8.62-10.71,13.3l6.15-7.79c-12.86,15.55-25.16,30.76-35.21,48.28-11.79,20.68-19.47,43.93-26.09,66.69-7.17,24.66-11.27,49.49-14.75,74.88-2.7,19.75-4.65,40-4,59.93.38,12.09.66,25.47,4.59,36.89,1.26,3.65,2.64,7.25,4.1,10.82,2.27,5.48,4,10.69,7.42,15.35,3.17,4.29,6.56,8.43,9.85,12.63,7.66,9.71,22.61,15.36,34.84,14.54a49.94,49.94,0,0,0,21.37-6c21.29-11.26,23.61-35.42,24.95-56.16.24-4,1-8,.61-12-.39-4.25-.66-8.52-.84-12.79-.42-9.18-.68-18.37-.58-27.55a479.77,479.77,0,0,1,4.55-59.75l-1.85,13.46q1.89-13.71,3.76-27.42-.9,6.68-1.82,13.33a474.67,474.67,0,0,1,12.88-62.86c5-17.8,8.67-35.8,16-52.92q-2.06,4.81-4.1,9.64c4-9.18,9.12-17.81,11.57-27.58,1-4.15,1.9-8.34,2.89-12.52.51-2.14,1-4.29,1.68-6.41,2-7.24,1.45-13.54.19-20.82.38,2.74.75,5.48,1.13,8.23V743l-1.1,8.07a32.87,32.87,0,0,1,1.3-4.66,28.31,28.31,0,0,0-2.93-23.87l2.49,18.67c.49-2.18,2.15-4.8-1.22,2.23a8.11,8.11,0,0,1,.63-1l-2.43,3.12q1.95-1.85-2.35,1.69c4-2.91,7.09-5.92,8.45-10.82,1.66-5.92.11-13.44-4.73-17.62Z"/></g></g><path class="cls-24" d="M675.19,686.38a23.24,23.24,0,0,0-7.32-5.19c-7.51-3.54-15.59-5.71-23.47-8.25-41.3-13.35-85.55-13-128.74-8.17a249.83,249.83,0,0,0-77.23,20.94A121.34,121.34,0,0,0,414.65,700c5.51,30.94,20.36,61.33,42.92,83.57,6.33,6.24,13.25,12,21.13,16.12a100.65,100.65,0,0,0,19.6,7.44,196.35,196.35,0,0,0,77.87,6.23c11.81-1.49,23.69-4.28,35.18-7.14,12.9-3.21,29.27-16.36,36.89-26.86a213.32,213.32,0,0,0,22.54-39.67C677,725.49,687.94,700,675.19,686.38Z"/><g class="cls-71"><path class="cls-70" d="M528.67,666.77l.43.35L524.87,660c.74,1.8,1.5,3.6,2.3,5.38.6,1,11.79,11.89,4.1,4.69q-5.57-7.27.87,1a38.67,38.67,0,0,0,5.79,4.28c1.25.67,2.46,1.41,3.67,2.15,1.86,1.14,4.5,3.47-2.33-2l5.34,4q11.7,4.88,1.76.71a151.61,151.61,0,0,1,20.44,11.09c15.37,9.62,31.51,17.86,46.7,27.79,15.63,10.2,31.85,19.41,47.26,30,3.56,2.44,7.64,4.31,11.4,6.45,6.09,3.44,11.62,6.66,18.44,8.93q5,1.68,10,3.42c5.33,1.86,10.66,1.56,16.11,1.27,18.38-1,30.74-16.52,26.64-34.34-5-21.79-24.77-38-42.84-50.23-7.7-5.21-15.85-9.88-23.88-14.57-8.72-5.1-17.54-10.53-26.76-14.7-18.86-8.52-39-18.4-59.72-21.35-10.06-1.43-20.13-2.74-30.31-2.72A52.49,52.49,0,0,0,544.23,634a35.43,35.43,0,0,0-7,2.76c-2.68,1.59-9.1,6.83-1.75,1.36l-4.19,3.17q6.47-5-1,.7c-2.84,2.79-4,5.74-5.36,9.39l4.23-7.15-.43.43c-5.58,5.59-6.79,16.73,0,22.16Z"/></g><path class="cls-24" d="M838,1195.18c3.68-29,4.82-58.44,5.59-87.75a496.31,496.31,0,0,0-2.22-64c-1.64-15.9-3.52-31.78-6-47.58-4.9-31.23-9.92-62.2-16.67-93.08-2.4-11-6.26-21.61-8.74-32.38-2.72-11.78-5.5-23.35-9.88-34.68l-24.68-63.89c-3.58-9.29-7.17-18.61-12-27.31a108.44,108.44,0,0,0-20.58-26.38c-8.53-8-18.29-14.6-28.14-21-4.89-3.16-12-8.14-17.48-3.69-7,5.6-9.08,16.42-10.94,24.58-2.26,9.81-6.33,17.52-9.48,27-6.7,20.29-11.59,41.31-12.16,62.72-.21,7.71.21,15.7,3.75,22.57,3.22,6.25,8.71,11,13.7,16,22.23,22.17,30,56.06,38.67,86,5,17.32,14.8,30.12,17.35,47.94,1.28,8.85,1.4,18.22,3.27,26.95a297.7,297.7,0,0,1,6.54,50.88c1.59,39.48,6.36,77.51-3.43,116.4-.95,3.73-1.89,8,.3,11.16,2,3,6.15,3.82,9.74,4.38q39.3,6,79,9a4.73,4.73,0,0,0,3.13-.5A4.6,4.6,0,0,0,838,1195.18Z"/><g class="cls-72"><path class="cls-70" d="M867.59,1202.09c1-3.11,2-6.16,3-9.31-2.41,8.31-7.9,11.09-3.42,6.45,1-1,1.93-2.06,2.91-3.09,6.88-7.28,10.9-15.38,15.85-23.87A299.55,299.55,0,0,0,908.09,1125c4.88-13.16,5.12-27.89,5.55-41.78,1.17-39.36-4.09-79.23-9.66-118.1-4.92-34.15-10.24-68.92-20.55-102-3.55-11.38-8.56-22.24-13.32-33.16-5.12-11.75-10.59-23.31-16.67-34.59a343,343,0,0,0-51.29-70.9c-22.9-24.45-51-44.63-80.78-60.24C707.93,657.16,694,651,680,645.16c-11.14-4.64-22.28-9.23-33.5-13.67-11.61-4.61-22.25-9.07-35.36-7.34a52,52,0,0,0-44.85,25.3,50.15,50.15,0,0,0-7.1,25.79c.62,4.53,1.25,9.06,1.86,13.58a50.91,50.91,0,0,0,13.32,22.55c8.42,10.07,18.31,14.28,30.41,19l11,4.3q11.82,4.65,23.56,9.47l-13.07-5.42c27.91,11.64,55.33,24.82,79.5,43l-11.06-8.41a255,255,0,0,1,46,45.4l-8.54-10.85c18.45,23.73,32.66,50.17,44.49,77.58l-5.49-12.79c8,18.74,12.89,38.29,17.06,58.16,5.25,25,9.27,50.25,12.75,75.56L799,992.15c2,14.66,4.29,29.28,6.31,43.95q-1-7.06-1.92-14c2.81,20.65,4.93,41.31,7.77,62q-.93-6.81-1.86-13.66c2,15,2.52,30.23,5,45.17q-.9-6.51-1.77-13c.92,8.21.14,16.35-.74,24.55-2.15,19.86-5.89,43.87,3.85,62.16-1.16-2.71-2.31-5.41-3.48-8.12a159,159,0,0,0,6.59,15.33l-2.92-6.8.27,1.53-1-7.44a88.87,88.87,0,0,0,2.84,18.33,25.8,25.8,0,0,0,24.75,18.53c11.74,0,21.31-7.76,24.77-18.53Z"/></g><path class="cls-73" d="M811.11,1332.6c19.12,9,37-40.54,39.7-53.06,4.21-19.49-.5-36.67-2.74-55.76-1.54-13-5.39-33.18-19.59-38.69-8.35-3.23-21.59-2.22-30.74-4.18-12.3-2.61-24.53-5.69-37.15-5.57a8.24,8.24,0,0,0-9,5.4c-11.42,20.88-17.3,43.81-19.47,67.3-1.55,16.63,18.78,27.13,24.79,7.76,2.59-8.36.25-34.8,16.07-30.17,8.59,2.51,14.9,17,18.31,24.18,9.47,19.89,9.83,42.6,11.4,64.49C803.21,1321.34,804.68,1329.57,811.11,1332.6Z"/><path class="cls-74" d="M819.47,1331.32a5.79,5.79,0,0,1,.27-.8l-1.21,2,.23-.27-3.47,1.41a4.23,4.23,0,0,0,1.54-.18c1.56-.63,1.7-.7.43-.23a8.49,8.49,0,0,0,2.3-1.13l-5.12.66c3.25,1.26,6.5-1,8.81-3l-3.62,2.08.29-.12a8.59,8.59,0,0,0,3.75-2.14,8.3,8.3,0,0,0-3.75-14,8.65,8.65,0,0,0-6.53.84,8.42,8.42,0,0,0-3.08,3c-1.27,2.13-1.18,4.09-.86,6.43v-4a6.24,6.24,0,0,1-.13.85,10.39,10.39,0,0,0,.06,4.44l-.28-2c.25,2.67.91,5.58,3.66,6.87-1-1.31-2.06-2.63-3.07-3.95a6.06,6.06,0,0,0,.84,2.39c-.45-1.17-.37-1,.25.5a5.24,5.24,0,0,0,2.05,1.94l-2.25-2.9c-.1-.59-.15-.6-.11,0a4.55,4.55,0,0,0,3.37,4.36,4.67,4.67,0,0,0,5.66-3.16Z"/><path class="cls-75" d="M794.79,1234.05c2.7,7,8.2,12.75,11,19.77,3.14,7.86,1.28,14.87,1.73,23,.35,6.1,8.7,11.09,13.42,5.46,7.58-9,7.47-21.38,2.92-31.76a46.87,46.87,0,0,0-8.5-12.64c-3.32-3.63-7.71-8-12.29-10.07-4-1.79-10.25,1.2-8.28,6.25Z"/><path class="cls-8" d="M741.44,1159.8q-2.38,7.73-4.8,15.45c-1.12,3.61-2.2,7.67-.4,11,2.36,4.38,8.27,5.17,13.32,5.48a758.3,758.3,0,0,1,92.71,11.63l4.18-25.19c.25-1.49.45-3.16-.45-4.38a5.82,5.82,0,0,0-2.38-1.58,209.3,209.3,0,0,0-96.11-17.63,7.19,7.19,0,0,0-3.2.67C742.67,1156.11,742,1158,741.44,1159.8Z"/><path class="cls-51" d="M743.31,1412.24c-5.4.91-10.87,1.47-16.32,2-94.27,9.7-186.33,9.87-280.42-3-19.59-2.69-41.6-5.14-58.7-14.91A2431.8,2431.8,0,0,1,391.33,1116c3.2-45.63,12.39-92,13.48-137.56.92-38.13,17.5-74.81,15.37-113.61-1.2-22.17-1.09-43.6-5.89-65.57a251.37,251.37,0,0,0-13.39-42.75c-5.39-13-8.43-25.64-16.55-37.51,6.37-3,10.82-9.2,16.53-13.31a79.7,79.7,0,0,1,19.94-10.39c2.05.73,4.57,16.12,5.36,18.43,12.5,36.35,45.59,67.33,81.81,80.27,31.43,11.22,68.18,12.09,97.6-5.19,19.36-11.35,35.49-24.18,46.67-43.65,10.91-19,16.62-40.11,20.72-61.4.88-4.63,36.6,9.25,40.35,11.66-4.66,7.82-8.79,14.86-11.59,23.72-8.63,27.31-11,53.71-11.87,82.07-.73,24.83,6.89,48.37,14.13,72a380.56,380.56,0,0,0,21.21,54.2c10.35,21.49,17.71,41,21.91,64.37,6.83,38.07,10,76.58,12.94,115.13,6.7,89.14,14.24,177.77,23.17,266.73,1.29,12.85,5.43,23-5.89,31-8.68,6.11-22.27,5.52-32.33,7.35Z"/><g class="cls-76"><path class="cls-77" d="M353.43,637.69c.35.22.68.44,1,.68l-9.13-6.94a9.83,9.83,0,0,1,1.27,1.23l-7.39-9.4c.19.27.38.55.55.83Q336.45,612,333.13,600a5.45,5.45,0,0,1-.07,1.07c-1.17,16.51,10.44,36.9,25.73,44.11l.54.26-10.5-8,.41.43q-4.1-5.21-8.2-10.38l.22.5q-2.64-6.18-5.3-12.34A25.26,25.26,0,0,1,337.3,621c-.68-5-1.35-9.91-2.05-14.86.07.36.11.72.15,1.09l2.05-15.12c-3.08,8-3.08,23.68.12,31.62q-1-7.68-2.05-15.37c0,2-.1,4-.29,6q4.36-15.85,8.72-31.69c-5.89,12.64-9.22,18.94-9.22,33.18,0,13,3.34,21.93,9.37,33.3l-6.61-15.4a172.16,172.16,0,0,1,5.23,25.6q-1.31-9.6-2.62-19.15c2,15.12,3.93,30.14,6,45.21q-1.46-10.49-2.87-21c1.45,10.71,2.51,21.46,3.58,32.24a319.79,319.79,0,0,0,7.48,44.08Q359,759.88,363,779.1c5,24,10.6,48,15,72.17,4.49,24.56,8.34,49.37,11.73,74.12q-1.81-13.35-3.64-26.7c8.53,63.27,7.59,126.47,4.09,190.06-3.62,66.5-9.61,132.87-15.65,199.18-3.37,37-6.83,74.07-10,111.12-2.69,31.66-5.25,63.34-9.51,94.83l3.72-27.26c-2.37,17.27-5.26,34.47-9,51.52q-2.73,12.55-6.22,24.95c-3.61,13-3.92,25.58-4.24,38.6-.4,16.6,7.17,42.52,16.33,56.63q-6.47-23.53-12.95-47.1c.42,10.18,2.4,20.23,4.17,30.23,4,22.47,22.72,44.17,42.25,55.42,28,16.12,63.71,15.34,91.53-.68,2.81-1.62,18.44-12.57,24-19l-41.87,24c10.13-3.64,19.47-6.85,28.1-12.65,18.25-12.34,25.4-18.14,37.41-36.51.92-1.37,1.81-2.76,2.69-4.15,8.61-13.43,13.39-28.28,17.17-43.48,3.49-14,6.24-28.21,8.6-42.51,6.15-36.9,10.39-74.13,13.68-111.39,5.65-64.11,11.5-128.23,17.09-192.35,5.76-66.25,10.07-132.62,11.22-199.12a877.87,877.87,0,0,0-2.95-94.71c-2.14-23.59-5.47-47.1-9-70.53-2.22-15-4.67-30.06-8.39-44.8-9.14-36.16-19.79-72.9-35.63-106.8l9.75,22.71c-11.27-27.44-23.13-54.68-35.86-81.48-4.1-8.58-9.72-16.69-14.81-24.76A392.21,392.21,0,0,0,469.44,594c-17.42-20.67-41.1-44.22-70.31-42.27l17,2.25a61.22,61.22,0,0,0-6.15-1.19l14,5.82c-14.41-7.22-30.12-10.92-46.11-6.05h30.74c-17.5-2.49-19.23-2.68-36.35-.27H400l-.6-.09,12.4,5.15-.55-.26c-13-6.14-25.72-9-40-5.15a52.82,52.82,0,0,0-31,23.48l-.39.61,7.59-9.65c-7.53,6.35-10.47,14.1-14,22.77a42.53,42.53,0,0,0,0,22.88c3.07,11,10.36,19.75,20.1,25.72Z"/></g><path class="cls-78" d="M736.14,1089c.47-6.59-.51-13.1-.23-19.69.25-5.62.39-12.87-3.64-17.38s-13.1-5.81-18.68-7.37c-19.14-5.37-37.56-19.14-46.54-36.81-7.28-14.32-10.84-32.52-10.25-48.53.21-5.73,3.9-11.49.46-17-2.91-4.68-8.19-5.32-13.4-5.25-16.39.24-32.86.93-49.3.71-17.59-.23-34.84-.15-52.42,1.7-13.16,1.39-26.52,1-39.73,1.7-6.86.36-15.56,1.33-19.12,8.36-1.53,3-1,6.67-.5,10.07,2.82,19.93,4.83,41.63-3.23,60.61-7.39,17.39-21.69,31.66-40.3,37.07-4.29-2.77-12.29.72-14.7,5.17s-2.17,9.8-1.85,14.83q2.67,42.39,5.33,84.74c.72,11.51,2.37,24.68,12.08,31.12,5.93,3.93,13.48,4.32,20.62,4.57l84.16,3c10.62.38,21.24.76,31.87.87,18.75.18,37.26-1.35,55.79-2.5,20.49-1.26,40.71-.37,61.22-3,8.11-1.07,16.46-2.48,23.26-6.94,15.61-10.19,14.21-32,15.37-48.26Z"/><path class="cls-73" d="M607.21,662.88c-6.34-17.51-7.82-37.66-3.07-55.66l-51.53-.64c-11.1-.14-22.9-.18-33.61,2.65,1.76-.46,4.29,32.19,4.23,35.11-.14,7.06-6.66,20.66-2.35,26.92,3.61,5.26,17.82,7.56,23.67,8.7,20.07,3.9,41.68.46,59.11-10.15C606.85,667.92,608.46,666.36,607.21,662.88Z"/><path class="cls-8" d="M566.89,684.49c-1.86,4.43-8.47,9.57-10.63,11.65-12,11.56-24.31,9.84-37.92.92-4.81-3.16-30.42-22.55-23.34-28.59,1.62-1.4,3.84-1.87,5.95-2.28L516.64,663c2.42,2,9.23,2.71,12.59,4.68,5.42,3.19,12.29,7.34,18.35,9.12,4.45,1.31,17.07-1.21,19.47,4A4.44,4.44,0,0,1,566.89,684.49Z"/><path class="cls-8" d="M619.35,664.18c12.93,5.79-2.48,17.74-8.19,22.58-9,7.61-19.32,15.07-31.83,13.7-9.51-1-17.05-12.73-24.28-18.36-1-.83-1.95-1.64-.84-2.4,7.77-2.6,16.34-2.21,24.35-5,7.73-2.72,14-7.64,21-11.68C605.49,659.52,613,661.35,619.35,664.18Z"/><path class="cls-79" d="M446.88,1083.63v.38c-1.11,9.65-2.25,17.7-6.72,26.72a73.91,73.91,0,0,1-32,32.49c-6.74,3.52-15,4.71-22.63,5.29-27.77,2.12-47.9-9.89-66.85-28.44-14.43-14.11-27.18-33.93-22.62-54.79,3.22-14.72,12-30.39,26.73-36.42,8.69-3.56,17.89-4.52,26.64-7.46,9.22-3.12,12.29,1,15.21,8.54,4.7,12.09,13.32,22.4,23.62,30.28,9.75,7.44,20.94,14,33.55,14.86C428.81,1075.55,447.83,1072.32,446.88,1083.63Z"/><path class="cls-73" d="M451.59,1051.8a118.57,118.57,0,0,1,28.6-55.1c5.77-6.27,12.29-12,19.93-15.9,5.48-2.81,11.4-4.64,17.27-6.55q17.13-5.57,33.91-12.09c10-3.89,21.3-7.72,29.93-14.11,7.25-5.41,13.21-10.84,13.48-20.44a9,9,0,0,0-2.12-6.31c-2.4-2.63-8.66-.88-9.84-4.35-.78-2.28,1-4,1.35-6.11a13.44,13.44,0,0,0-.89-6.52c-1.75-5-6.27-7.37-11.52-6.25-2,.42-3.49,1.72-5.62,1.64-3.78-.16-2.12-2.2-2-4.93a10.29,10.29,0,0,0-7.79-10.14c-5.13-1.4-11.27,1.79-15.43,4.1-1.94,1.08-5.88,3.54-7.26.52-1.63-3.51,1-7-2.66-10.31-2.48-2.25-6-2.37-8.89-1.54-6.41,1.83-11.72,5.79-16.45,10.08-5.21,4.69-11.9,7.77-18.07,11.35-12.57,7.28-25.81,14.28-39.44,18.84-17.82,5.94-40.77.11-54.69-12.18-1.1-1-2.15-2-3.25-3C384,897,378.39,893.71,370,893.4c-5-.16-14.35.18-15,6.8-.34,3.52,2.5,7.4,4.43,10.07,4.46,6.25,10.24,11.5,15.91,16.69,4.49,4.12,10,6.94,14.34,11.27C401.54,950,399.87,965.85,393,979.7c-5.12,10.21-12.47,19.15-18.95,28.54-3.64,5.29-4.87,8.58-2.54,14.58,5,12.74,15.81,22.73,26.91,30.46,12,8.38,24.53,15.12,39.75,15.12,4.82,0,9.08-1.48,10.65-6.32C449.85,1058.67,450.72,1055.27,451.59,1051.8Z"/><path class="cls-8" d="M450.44,1059.51l.2.31c2.59,4.64.13,12,.1,17,0,2.34-.05,4.78-1.21,6.82s-3.65,2.63-6,2.72c-21.38.79-39.81,2-59.1-9.44a76.66,76.66,0,0,1-27-27.48c-5.68-9.86-14.92-23.54-13.93-35.27.26-3.09,7-4.73,9.22-5.89,4.28-2.23,13.16-7.94,18.16-4.19,3.54,2.65,4,8.15,5.84,12a65.29,65.29,0,0,0,25.82,28.76c10.54,6.3,23.32,10.81,35.72,11.26C442.13,1056.26,448,1055.83,450.44,1059.51Z"/><path class="cls-5" d="M531.72,801.39c-1.83-5.93-10.67-6.17-15.73-6-16.62.39-33.22.91-49.82.95s-33.18-.56-49.81-.95c-5.06-.12-13.9.12-15.71,6-1,3.22-.35,8.93-.39,12.3a45.13,45.13,0,0,0,3.91,18.58c2.24,5.22,3.33,10.37,7.24,14.67A134.82,134.82,0,0,0,423,858.62c5.18,4.42,13.86,7.28,15,14.49,1.47,9.6,2.9,9.35,12.49,9.45l13.15.13v0h5.11v0l13.12-.16c9.58-.1,11,.15,12.49-9.45,1.09-7.21,9.77-10.07,15-14.49a130.7,130.7,0,0,0,11.62-11.68c3.91-4.3,5-9.45,7.24-14.67a45.13,45.13,0,0,0,3.91-18.58C532.05,810.32,532.7,804.61,531.72,801.39Z"/><g class="cls-49"><path class="cls-80" d="M534.1,685.64c-1.68,1.08-5.68,3.26-5.59,6.71.27,9.3-14.89,17.48-35.09,24.77-16.74,6-34.7,11.14-47.43,23.42A56.5,56.5,0,0,0,431.25,766c-1.16,4.37-2.63,14.7.79,18.4,2.85,3,4,1.37,6.15-1,12.55-14.4,31.37-20.15,49.68-24.65,24.17-5.9,46.57-14.74,49.86-42.24,1-8.19,2-16.63.9-24.85C537.71,685.46,536.07,684.35,534.1,685.64Z"/></g><g class="cls-49"><path class="cls-80" d="M548.38,728.07a44.13,44.13,0,0,1-12.17,19.81c-11.12,10.18-25.37,16.76-39.51,21.86-4.42,1.59-18.44,4.16-19.46,9.81-1.12,6.14,8.86,1.52,12.08,1,25.61-4.28,66.26,5.8,78.06-26.13a29.93,29.93,0,0,0-1.54-24.49c-3.66-7.25-5.86-15.52-10.54-22.3-5-7.3-5,10.27-5.29,12.59A46.46,46.46,0,0,1,548.38,728.07Z"/></g><path class="cls-5" d="M572.42,818.71a21.72,21.72,0,0,0-6.22-14.8c-3.64-3.78-8.63-6.44-14-6.4-6.8.07-15.79-.72-21.59,3.53-4.1,3-5.2,12.09-2.81,16.38,3.35,6,7.61.89,11.18-1.46,4.56-3,12-4.76,16.14-.27,5,5.42-1.09,13.35-5.23,17.54-6.23,6.32-15.48,10.34-24.24,11.58-4.73.67-12.92.21-15.43,5.2-3.39,6.76-1.52,9.43,6,8.85A105.36,105.36,0,0,0,543,853c10.13-3.68,18.52-11.59,24.82-20.15A23.08,23.08,0,0,0,572.42,818.71Z"/><path class="cls-73" d="M672,463.81a11.54,11.54,0,0,1,7.73,3.34c11.37,10.85-2.94,31.87-3,44.34,0,4.14.1,13.31-7,11.56-10.24-2.52-8.81-25.11-9.79-32.78C659,483.07,661.21,463.7,672,463.81Z"/><path class="cls-73" d="M476.72,535.18c2.7,1.42,5.93,1.19,8.46-2.15,2.87-3.78,2.77-10.78,3-15.24.48-9.8.26-20.53-1.83-30.22-1.89-8.73-6.35-21.55-17.93-19-15.73,3.44-11.35,18.64-6.69,29.48,2.25,5.23,5.79,10.33,7.5,15.76,1.57,5,.94,10.47,2.63,15.47A10.54,10.54,0,0,0,476.72,535.18Z"/><path class="cls-10" d="M659.81,503.92c12.3-9.62,12.69-22.43,15-36.91a152.19,152.19,0,0,0-.19-47.82c-2.48-15.18-9.9-28.39-20.49-39.57a97.88,97.88,0,0,0-44.45-27.21,149.4,149.4,0,0,0-30.86-5.21c-20.32-1.2-41.64,1.82-59.49,11.92A109,109,0,0,0,499,374.4c-12.72,11.85-22.47,26.45-24.36,44.21-1.42,13.49-.69,27.05-1,40.58-.15,7.19-1.44,13.87-.16,21,3,16.77,14.82,22.88,30.09,27,21.52,5.83,43.22,10.08,65.57,11.5a291.32,291.32,0,0,0,39.64,0c10.07-.73,19.19-5,29-6.39C646.6,511.09,652.41,509.73,659.81,503.92Z"/><path class="cls-73" d="M608.56,593.51c20.13-5.25,37-20,46.11-38.29,4.25-8.58,8.5-18.56,7.57-28.13C661,513.68,658.59,500.4,657.6,487c-.91-12.47.66-25.37,1.55-37.88,1.11-15.56-1.74-31.52-9.22-45.34s-19.58-25.19-34.32-31c-20.42-8-48.84-9.64-70-3.94s-40.28,18-49.34,38.14c-12,26.64-1.51,56.15-7,84-6.83,34.64-5.46,78,30.05,96.73C546.94,602.36,579.19,601.19,608.56,593.51Z"/><path class="cls-20" d="M639.73,381.84a13.06,13.06,0,0,0,1.77-6.62c-.29-15.18-18-32.34-31.55-37.08-15.18-5.28-33.09-4.11-48.28.5-17,5.17-44.19,15.4-56.81-3.19-4.22-6.21-2.77-10.66,2-15.24,2.14-2.08,8.63-6.43,1.87-7.23-4.49-.54-12.16,3.69-15.77,6.17-10.08,6.92-17.41,17.85-22.83,28.28-9.42,18.31-12.83,42.77.39,60,10.93,14.24,28.52,19.78,46.11,18.3,29.12-2.44,54.72-20.25,83.44-25.54,10.87-2,24.81-1.9,33-10.21A38.35,38.35,0,0,0,639.73,381.84Z"/><path class="cls-20" d="M658.68,574.91a98.14,98.14,0,0,1-11.79,23,81.28,81.28,0,0,1-18.52,18.59c-18.59,13.18-42.71,18.71-65.4,17.33-36.07-2.2-64.08-23.52-77.87-56a108.93,108.93,0,0,1-8.54-37.34,114.71,114.71,0,0,1,.75-19.78c1-7.69-2.29-19.33,7.37-21.71,5.62-1.39,7,6.79,7.08,11.21.14,18.19,7.89,37.8,21.51,50.07a90,90,0,0,0,22.39,14.42c25.21,11.68,51.47,10.73,76.35-2.68,10.75-5.81,19.57-15,26.11-25.12,7.18-11.16,10.32-21.3,14.67-38,.66-2.57,2.86-14.19,5.35-15.4,9.45-4.61,7.18,27.83,7.5,32.83A123.36,123.36,0,0,1,658.68,574.91Z"/><path class="cls-81" d="M662.71,449c-4.76-5.26-21.67-3.28-28.45-3.44-7.1-.16-13.93,1.28-21,1.28-18,0-36.08,0-54.1.75-17.57.69-35.23-1.54-52.75.12-6.85.64-13.91.88-20.67,2.22-4.94,1-12,.92-15.51,5.22s-1.6,10.65.18,15.12c2.78,7,8.57,20.3,14.84,24.68,5.48,3.84,12.29,5.21,19.05,5.87,5.69.54,11.52.64,17.07-.76,17.26-4.34,20.64-20.73,23.43-36,.7-3.78,2.05-5.56,5.59-7.26s7.54-2,11.44-2c11,0,17,8.7,21.58,17.36,2.75,5.19,5.12,11.34,9,16.12,10.9,13.49,38.75,13.1,50.84,1.17,6.23-6.16,10.36-14.19,15.36-21.48C662.32,462.57,667.46,454.21,662.71,449ZM532.48,480.51c-7.37,12.95-24,14.91-37.39,11.14-6.41-1.81-9-4.34-12.14-9.93-3-5.3-6.41-12.89-3.18-18.81,2.15-3.92,7.17-5,11.16-6A96.59,96.59,0,0,1,514,453.92c5.52-.12,23.24-1.93,23.63,6.21A38.2,38.2,0,0,1,532.48,480.51ZM643.14,477a41.91,41.91,0,0,1-17.85,11.87c-11.85,3.85-25.2.35-30.47-11.33-2.22-4.93-5.12-9.88-7.17-14.8-4.51-11.08,15.72-8.29,21-8.54,12.11-.58,24.79-1.15,36.88,0,2.32.23,4.78.59,6.53,2.1,5.25,4.59-5.75,17.13-9,20.7Z"/><path class="cls-20" d="M615.64,555.35c-1.24-21.35-28.56-32.81-47.13-32-4.75.21-9.55-.34-14.34.22A50.24,50.24,0,0,0,518,544.89c-1,1.55-2.64,3.79-2.51,5.76.21,3.47,3.25,2.87,6.14,3.07,8.47.59,17.19-.27,25-3.6a41.16,41.16,0,0,0,10.76-6.72c2.79-2.43,5.24-9.18,9.58-9.23,3.5,0,5,3.86,6.09,6.54,4.94,12.7,22.26,16.73,34.54,17.71C611,558.69,615.94,560.42,615.64,555.35Z"/><path class="cls-74" d="M367,910.67c.06-.27.34-1-.16,0a5.49,5.49,0,0,0,.59-2.48c-.22.75-.42,1.51-.63,2.25a7.23,7.23,0,0,0,.92-1.92c-.07.27.55-4.19.09-1.46a14.59,14.59,0,0,0-.19-6.54,7.37,7.37,0,0,0-7-5.22,7.28,7.28,0,0,0-6.95,5.22c-1.81,6,3.83,13.52,10.4,12h-2.42a5.14,5.14,0,0,0,2.64.09c-1.1.31.57-.06.89-.13a2.52,2.52,0,0,0,1.8-1.76Z"/><path class="cls-74" d="M523.23,893.83a10.35,10.35,0,0,0,3.75-2.64c.43-.35.46-.41.1-.13l.72-.48c.48-.3.94-.61,1.42-.92h-5.88a6.43,6.43,0,0,0,7.64-1l.3-.32a6.31,6.31,0,0,0,0-8.87c-2.67-2.62-8.31-2.48-10,1.27l-.18.41c-1.11,2.43-1.3,5.57,1,7.51l.08.06c-.52-1.86-1-3.73-1.51-5.6-.13.56-.28,1.13-.42,1.68-.08.28-.15.56-.24.84.22-.4.21-.35,0,.17-.61,1.38-1.56,2.9-1.4,4.45.24,2.26,2.2,4.29,4.7,3.53Z"/><path class="cls-74" d="M551.44,902.47c1.88.19,3.27-.67,4.77-1.54l-1.73.72a9.27,9.27,0,0,0,3.51-2c.29-.26.6-.5.92-.74l-1.58,1.19.43-.31a8.3,8.3,0,0,0,3.67-4.68,7.82,7.82,0,0,0-5.57-9.64,8.07,8.07,0,0,0-7.75,2,7.71,7.71,0,0,0-2.05,3.46c-.13.34-.26.68-.36,1a9.72,9.72,0,0,0-.13,4.67c-.08-.63-.18-1.26-.26-1.9a11.87,11.87,0,0,0,.29,3.09,6,6,0,0,0,1.93,3,6.41,6.41,0,0,0,3.92,1.6Z"/><path class="cls-74" d="M573.73,911.63a5,5,0,0,1,.52-.25h-3.82c1.42.92,3,.68,4.57.46h-2.93a7.63,7.63,0,0,0,4.7-.2c2-.56,4-.92,5.37-2.64a7.21,7.21,0,0,0,0-10.31,7.5,7.5,0,0,0-7.14-1.88,9.34,9.34,0,0,0-5.76,5.11c-1.28,2.53-1.71,4.82-.4,7.43-.26-.91-.5-1.82-.75-2.74a5.18,5.18,0,0,0,1.64,4.19l-1.11-2.63a2.09,2.09,0,0,0,0,.56,3.48,3.48,0,0,0,5.13,2.9Z"/><path class="cls-74" d="M584.73,931.21c-3-.93-3.32-1-1-.07a10.28,10.28,0,0,0,1.92.23c-3.15-.13.67,0,1.57,0a12.58,12.58,0,0,1,1.5.09,9.26,9.26,0,0,0,4.88-1.23c5.73-2.86,4.1-11.58-1.74-13.1-3.07-.79-5.84.06-8.49,1.53a8.1,8.1,0,0,0-3.26,3.2,6.75,6.75,0,0,0-1,3.34c0-1.55.46,4.85.09.58a5.54,5.54,0,0,0,5.51,5.42Z"/><path class="cls-82" d="M573.31,886a136.7,136.7,0,0,1-11.69,8.11c-19.74,12.56-42.68,11.9-65.18,14.11l-15.91,1.54c-5.65.55-11.28,1.1-17,1.27-5.49.17-11,0-16.47-.28a440.14,440.14,0,0,1-46.69-4.53c-7.17-1.12-15.85-1.62-22.54-4.35-6.22-2.54-11.59-6.87-16.4-11.42-4.36-4.1-10.55-7.55-13.32-13-6.28-12.5,18.92-8.63,24-8.63H576.39c5.82,0,8.47,3.93,5.34,8.68A40.11,40.11,0,0,1,573.31,886Z"/><path class="cls-20" d="M618.87,479.22a7,7,0,1,0-7.09-7A7.11,7.11,0,0,0,618.87,479.22Z"/><path class="cls-20" d="M515.22,479.51a6.71,6.71,0,1,0-6.81-6.72v0A6.82,6.82,0,0,0,515.22,479.51Z"/><path class="cls-74" d="M549.7,558.35c-2.88,7.62,7.17,11.29,13,11.51,4,.16,9-.83,12.21-3.4,2.48-2,5.42-6.39,3.07-9.5a2.48,2.48,0,0,0-3.29-.86c-1.59.85-2.57,2.54-4.1,3.53A15.15,15.15,0,0,1,563.7,562c-4,.38-9.84,0-12.06-3.9a1,1,0,0,0-1.38-.43,1,1,0,0,0-.52.67Z"/><path class="cls-74" d="M567.2,459c-10-10.4-16.5,2.79-17.17,12.21-1,13.38-1.55,25.27,0,38.81,1.3,11.62,7.36,26.59,22.45,18.94,11.77-6,10.11-25.05,8.31-35.7a107.4,107.4,0,0,0-5-19.87A41.31,41.31,0,0,0,567.2,459Z"/><path class="cls-75" d="M616.35,513.76c-1,2.61,1-1.84-.8,1.24a28.11,28.11,0,0,0-1.39,3.64c-.94,2.28-1,4.63-1.35,7.05.33-1.19.66-2.36,1-3.55l-.67,1.23c-2.4,4.31-.42,10.55,4.84,11.7A18.1,18.1,0,0,0,636.69,528c4.53-6,3.88-13.28.94-19.72-1.83-4-7.54-5.81-11.58-4.63a21.41,21.41,0,0,0-11.7,8.18c-3.57,4.73-3.3,12.23.9,16.34,4.91,4.8,11.92,3,15.66-2a9.58,9.58,0,0,0,1.75-5.61v-.64a4.4,4.4,0,0,1-.76,2.72c.87-1.93-1.59,1.54,0,0-1.15.83-1.24.94-.26.33-1.24.46-1.29.49-.15.1l-11.56-4.63c-.45-1.15-.49-1.2-.14-.15.75,2.4-.1-2.12,0,.28-.06,1.13,0,1,.1-.51-.45,2.22,1-1.74-.06.25-.25.39-.5.77-.78,1.15,1.3-1.86.07-.24-.37.16.89-.69.9-.77,0-.23-2,1.09,1.54-.46-.71.25l9.15,3.66c-1.69-2.25-2.2-7.18-4.66-9.71.4.93.79,1.85,1.17,2.77a15.88,15.88,0,0,1,0-1.69c0-4.29-5.85-4.66-7.23-1Z"/><path class="cls-75" d="M509.15,512.9a26.89,26.89,0,0,0-1.66,2.16l4.31-3.24-.35.05a7.68,7.68,0,0,0-4.81,3.64,7.83,7.83,0,0,0,2.61,10.89,8.13,8.13,0,0,0,11.07-2.57l.21-.34c.41-.65.82-1.25,1.18-1.93s.63-1.27,1-1.87a8.76,8.76,0,0,0-3.22-12.09,9.14,9.14,0,0,0-6.92-.89,11.3,11.3,0,0,0-6.8,4.8,9.17,9.17,0,0,0,14.11,11.54,8.46,8.46,0,0,0,2.65-6.28,1.22,1.22,0,0,1,0-.27c-.11.8-.22,1.59-.32,2.38v-.09c-.31.72-.62,1.42-.91,2.14a.56.56,0,0,1,.09-.17L520,522.57a1.06,1.06,0,0,1,.29-.27l-1.85,1.41a30.29,30.29,0,0,0,2.48-1.91l-1.85,1.39.47-.33-13.19-10c-.16.7-.23,1.43-.33,2.14a18.68,18.68,0,0,0-.43,4.47l12.11-6.83-.31-.15,2.58,2.54c-.18-.29-.39-.57-.56-.87a6.47,6.47,0,0,0-3.88-2.94c-2-.55-4.93-.09-6.33,1.65Z"/><path class="cls-75" d="M590,424.45c-1.38.22-3.62,0-5.24,2.32s0,5.85,2.66,6.45a83.35,83.35,0,0,0,27.45,1.62c8.9-1,24.68-3,22.21-15.46-1-5.12-6.89-8.36-11.59-9.41-6.29-1.38-12.91-.43-19.16.67a119.43,119.43,0,0,0-31.25,9.9c-4.49,2.2-5.49,9.35-1.64,12.59,5,4.25,12.2,4.69,18.55,5.2a122.19,122.19,0,0,0,23.73-.48c7.28-.83,14.91-2,20.64-6.84,6.88-5.8,3.23-15.17-3.17-19.38-6-4-14.85-4.09-21.82-3.86a78.37,78.37,0,0,0-24.59,4.55c-7.55,2.82-21.35,11.19-12.83,20.55a7.82,7.82,0,0,0,3.52,2.19c.74.19,5.83-.26,2,.18,1-.12.42.32,2.61-.28s3.62-2.15,5.3-3.52c.32-.27,1.88-1.59.13-.27a23.06,23.06,0,0,1,2.41-1.5c2.55-1.41,6.82-2.67,11.2-3.62a60.68,60.68,0,0,1,13.1-1.4c4.86-.07,6-.15,10.24,1.34-2.1-.73,0,.12.54.44-1.1-.71-1-.62-1.89-2.54.26.91.22.54-.1-1.08a5.53,5.53,0,0,1,.74-2.86c.33-.65,1.76-1.63,1.14-1.22a13.63,13.63,0,0,1-1.46.78c2-1-.58.14-1,.29a47.33,47.33,0,0,1-6.24,1.41,109.43,109.43,0,0,1-12.92,1.07,119.24,119.24,0,0,1-13.76-.35c-.34,0-3.57-.44-1.58-.15-.85-.13-1.7-.29-2.54-.47a18.88,18.88,0,0,1-2-.56c2.37.77-.59-.78,1.64,1l-1.65,12.58A118.69,118.69,0,0,1,605,426.5a61.39,61.39,0,0,1,13.32-2.35,12.86,12.86,0,0,1,4.54.33c2,.51-1-.63.71.29-.64-.58-.65-.58-.05,0a3.15,3.15,0,0,1-.81-1.54c-.63-1.6.17-3.53,1.23-4.75-.55.63,1.22-.68-.54.23,1.54-.79-.37.12-.64.22-1,.32-1.94.57-2.92.81a104.58,104.58,0,0,1-11.8,2c-6.86.9-14.07,1.08-20.72,3L593,429v-.16c-.43,1-.86,2-1.3,3.07a8.54,8.54,0,0,0,2.17-3.55c.93-2.5-1.79-4.25-4-3.9Z"/><path class="cls-75" d="M444.7,952.42c2.35,4.4,8.9,5.78,13.32,5,5.05-.84,9.54-3,14-5.28a147.06,147.06,0,0,0,12.52-7.72,66.49,66.49,0,0,0,6.69-4.71l1.66-1.35a10.85,10.85,0,0,0,2.86-4.8c-.81,1.72-1,2.11-.5,1.18,3.74-7.12-1-13.92-8.62-14.78l-.5-.06c2.86.36,2.49.3-1-.16-2.42,0-4.1.84-6.24,1.77a25.65,25.65,0,0,0-4.27,2.42c-3.68,2.52-7.37,5-11,7.61-3.33,2.36-6.77,4.55-10.07,6.92-1.77,1.27-3.59,2.34-5.3,3.7L446.81,944c.8-1,.9-1.17.25-.53,1.68-1.57-.89.56-1.3,1a6.61,6.61,0,0,0-1,7.89Z"/><path class="cls-75" d="M416,970h.35l-3.7-6.42c-.77,3,.95,6.58.47,9.07-.79,4-2.7,7.22-5,10.77a65.09,65.09,0,0,1-8.38,10.08c-2.83,2.93-6.48,5.25-9.05,8.39-2.95,3.63-4.17,8.06-1.62,12.35,2.25,3.77,7.34,6.13,11.7,4.68,12.24-4,21-18,25.68-29.11a32,32,0,0,0,2.18-18.05c-.85-5.15-5-12-10.91-12-3.66,0-5.77,3.29-5.12,6.6l-.07,1.08c-.67,2,1.7,3.42,3.42,2.58Z"/><path class="cls-75" d="M536.77,934.65c.55-.8-.78.78.2-.19-.82.59-1,.73-.5.43a6.06,6.06,0,0,0,2.22-2.19c-.67.82-.8,1-.37.55s.3-.28-.59.44a4,4,0,0,1,.52-.31c-1.72.92-1,.41-.44.23a17.14,17.14,0,0,0,1.94-.79c-1.12.44-1.34.55-.67.32a7.64,7.64,0,0,0,4.62-3.21,6.57,6.57,0,0,0-4-9.56c-4.34-1.17-8.45,1.24-10.92,4.55a8.09,8.09,0,0,0-1.49,6.32,13.41,13.41,0,0,0,1.19,3.41,4.69,4.69,0,0,0,4.1,2.33,4.91,4.91,0,0,0,4.1-2.33Z"/><path class="cls-75" d="M512.08,911.28a6.48,6.48,0,0,0-1,3.47,5.21,5.21,0,0,0,1.62,3.86,5.55,5.55,0,0,0,9.47-3.86.74.74,0,0,1,0-.21c-.08.49-.14,1-.2,1.44a2.68,2.68,0,0,1,.07-.27c-.18.44-.37.87-.56,1.3a1.64,1.64,0,0,1,.14-.22,5.25,5.25,0,0,0,.56-4.2,5.53,5.53,0,0,0-6.78-3.82h0l-1.33.54a5.66,5.66,0,0,0-2,2Z"/><path class="cls-75" d="M555,948.57c.15-.26.29-.55.45-.81-.55.53-1.09,1-1.62,1.59a4.54,4.54,0,0,0,2.4-4,4.69,4.69,0,0,0-9.23-1.21,4.56,4.56,0,0,0,2.25,5.23l-1.63-1.59.45.81a4.06,4.06,0,0,0,6.91,0Z"/><g class="cls-38"><g class="cls-83"><path class="cls-10" d="M530,296.28c-5-6.26-15.51-5.39-21.92-2.64a69.09,69.09,0,0,0-6.37,3.22l2.47-1.15a19.79,19.79,0,0,0-8.69,5c-1.12,1.23-2.21,2.47-3.24,3.77A72.13,72.13,0,0,0,481,324.06c-3.15,7.83-2.47,16.85-1.24,25,4.26,28.09,34.42,38.12,59.54,37.4a84,84,0,0,0,28.12-6.05c8.28-3.2,16.47-6.21,25.29-7.69,4.77-.8-5.94.67-1,.15,1.39-.16,2.81-.24,4.21-.32,3.07-.19,6.23-.15,9.33-.07,1.74,0,3.45.17,5.13.29-7.38-.51-3.95-.58-1.95-.15a25.77,25.77,0,0,1,3,.91c-7.17-2.48-2.75-1.15-.88-.09,1.47.85,4.7,3.35-1.28-1.21a28.67,28.67,0,0,1,2.39,2c1.53,1.41,6.15,7.5,1.36,1.07a52.84,52.84,0,0,1,3.63,5.7c.56,1,1.07,2,1.59,3,2.66,5.41-1.49-3.8,0-.09a80.78,80.78,0,0,1,3.84,13.55c.22,1.14.4,2.28.58,3.43-1.19-7.55-.45-3.28-.27-1.56a67.21,67.21,0,0,0,1.15,8.24c.87,2.11,1.78,4.22,2.74,6.29q-3.25-7.58.76,1.78a22.06,22.06,0,0,0,13.6,11c7.84,2.11,14.59-.9,20.34-5.83,8.92-7.65,8-20.64,6.54-30.83-3.15-22-14.95-47.2-36.29-57.38-22.54-10.76-51.08-6-73.56,2.77-3.44,1.35-6.88,2.69-10.39,3.82-1.75.56-3.52,1-5.32,1.4-.92.21-1.84.37-2.76.52,8.4-1.38,3.35-.46,1.28-.34-2.44.15-4.9.14-7.34.07-2.14,0-10.62-1.16-1.95.1a55.07,55.07,0,0,1-6.37-1.36c-1-.29-2-.64-2.92-1,7.25,2.69,2.85,1.15,1.08.12-1.61-.94-4.1-3.4,1.58,1.3-1.52-1.26-4.22-5,.42,1.11a22.05,22.05,0,0,1-1.49-2.46c3.42,6.28,1.15,2.85.54.6-1.13-4.15.54,6,.11,1.49a35.19,35.19,0,0,1,0-5c.09-1.6.28-3.19.38-4.78.24-3.57-1.15,6.1.09.26A59.91,59.91,0,0,1,527,323l.45-1.14q-2.43,5.93,1-2.23,1.47-9.07.1-2.42c.57-1.76.41-1.48-.5.82,3.2-7.18,7.68-14.5,2-21.69Z"/></g></g><path class="cls-10" d="M577.28,591.35a29.4,29.4,0,0,0-4.76,3.36,10.9,10.9,0,0,0-3.26,4.46,1.18,1.18,0,0,0,.84,1.44,1.25,1.25,0,0,0,.89-.12,33.46,33.46,0,0,0,3.6-3,34.5,34.5,0,0,1,4.43-3.15,1.68,1.68,0,0,0,.44-2.37,1.74,1.74,0,0,0-2.18-.56Z"/><path class="cls-10" d="M574.7,608.07c-3.61.69-8.58,3.52-9.38,7.35-.58,2.83,2.36,5.54,5.13,3.88a11.8,11.8,0,0,0,3.85-4.39c.81-1.35,1.82-2.59,2.68-3.88,1-1.6-.67-3.26-2.3-3Z"/><path class="cls-10" d="M556.39,602.89a13.79,13.79,0,0,0-2.14,1.74l-.81.79a5,5,0,0,0-1,1.83c-.73,1.78,1.52,4,3.33,3.26a5.18,5.18,0,0,0,1.86-1l.81-.78a14.19,14.19,0,0,0,1.75-2.12c1.53-2.26-1.49-5.22-3.79-3.73Z"/><path class="cls-10" d="M548.76,589.68c-.82.93-1.75,1.81-2.46,2.8-.83,1.17-1.82,2.25-1.69,3.79.11,1.37,1.23,3,2.85,2.8a4.15,4.15,0,0,0,2.63-1c.44-.44.85-.9,1.27-1.34a29.32,29.32,0,0,0,2.39-3.26c2-2.94-2.62-6.46-5-3.8Z"/><path class="cls-10" d="M587.38,616.91a7.52,7.52,0,0,0-1,1.29c-.23.5-.44,1-.65,1.51a5.35,5.35,0,0,0,0,3,7.81,7.81,0,0,0,.95,2.68,4.76,4.76,0,0,0,6.45,1.65,4.63,4.63,0,0,0,1.67-1.65,7.1,7.1,0,0,0,.94-2.68,5.36,5.36,0,0,0,0-2.92c-.21-.51-.43-1-.65-1.52a6,6,0,0,0-1-1.36,4.74,4.74,0,0,0-6.63,0h0Z"/><path class="cls-10" d="M539.54,617.47a4.38,4.38,0,0,0,2.66,1.22,5.52,5.52,0,0,0,2.46-.57c1.85-.9,3.17-3.45,2.05-5.32a3,3,0,0,0-3.23-1.37,2.83,2.83,0,0,0-1.53.86,3,3,0,0,0-.78,1.32c-.07.25-.27.66.13-.22a1.07,1.07,0,0,1-.13.21c.43-.68.39-.45.18-.25.46-.32.56-.41.32-.25-.42.25.74-.26.26-.11h-.24l.51-.07a2.91,2.91,0,0,0-1.47.39c-.24.12-.14.08.32-.13a2.8,2.8,0,0,1-.41.13A2.53,2.53,0,0,0,538.9,615a2.39,2.39,0,0,0,.64,2.39Z"/><g class="cls-84"><path class="cls-10" d="M656.34,490.84a89.31,89.31,0,0,1-2.05,16.85c-1.4,6-3.95,11.86-6.41,17.56A183.85,183.85,0,0,1,630,557.49c-5.42,7.74-12.75,14.81-20.16,21.28-4.17,3.64-8.32,7.18-12.14,11.14-4.22,4.36-10,7.86-10.4,14.38-.19,2.88,2.11,5.16,4.66,6.05,5.8,2,12.8-2.43,17.79-5A96,96,0,0,0,626,594.69a124,124,0,0,0,24.19-27.2c7.72-11.43,13.49-24.45,18-37.37s5.42-30-2.21-41.86a5.27,5.27,0,0,0-7.19-1.65,5.13,5.13,0,0,0-2.47,4.22Z"/></g><g class="cls-85"><path class="cls-86" d="M636.76,831c-10.25,5.6-14.57,13.57-18.86,23.76l4-9.25c-2.05,4.44-3.87,8.93-5.77,13.41l4.47-10.42c-5.76,7.39-5.67,16.67-6.67,25.37q.83-6.14,1.67-12.27a3.32,3.32,0,0,0-.41,1.34l12.45-21c-17.14,14-17.87,38.9-13.5,58.58,1,4.6,2,9.23,2.69,13.9l-2.15-15.72q1.23,9.62,2.7,19.15-1.1-8-2.17-15.93c.72,5.68-.19,11.88-.5,17.58-.42,7.74.17,15.51.36,23.26.42,17.47,2.22,34.91,3.58,52.33,1.31,16.48,2.5,33,4.65,49.37,3,22.81,7.17,45.34,10.35,68.14q-1.22-9.06-2.46-18.14c2.82,20.93,4.49,42,6.67,63,1.77,17,4,33.88,6.51,50.75,1.52,10.16,4,20.15,5.46,30.37l-2.49-18.14a108.33,108.33,0,0,1,1,12.46c.21,15.19,2.15,29.34,10.91,42.32,9.87,14.63,22.54,25.61,40.14,30.36a67.9,67.9,0,0,0,65.37-17c38.06-32.74,18-84.24,12.39-125.38q1.23,9.08,2.48,18.14c-3.16-23.54-5-47.21-7.68-70.79-3.18-27.8-8.56-55.17-12.36-82.86q1.23,9.07,2.48,18.14-2.16-15.94-4.32-31.89,1.23,9.07,2.47,18.14c-5.29-38.73-7.88-78-15.82-116.32a161.94,161.94,0,0,0-6.15-21.34c-5-14.1-9.94-25.92-20.44-37-3.13-3.29-6.37-6.45-9.71-9.55-15.12-14-38-25.79-59-18.13h25.71a3.43,3.43,0,0,0-1.37-.35l11.21,4.66c-8.2-3.62-16.1-8.17-25.62-7.14l11.81,1.55c-1.26-.19-2.53-.4-3.78-.61-10.66-1.82-20.5-2.12-30.14,3.17Z"/></g><g class="cls-50"><path class="cls-51" d="M640.75,1077.24c0-16.45-3.18-34.06-14.17-46.55-16.23-18.46-36.64-19.91-55.64-18-10.32,1-20.63,3.28-29.85,8-11.71,5.93-22,15.11-27.27,27.2-3.32,7.52-6.68,15.12-5.62,23.28.51,4,1,8,1.67,12,3.45,22.84,16.75,40.77,38.68,49.82,16.33,6.74,34.58,5.48,51-.24C622.53,1124.6,640.8,1107.6,640.75,1077.24Z"/></g><path class="cls-20" d="M545.82,1100.93c3.57-7.48,10.59-14.66,15.2-18.41,7-5.69,14.69-10.18,21.92-15.51,5.49-4,10.92-8.91,12.16-15.92a72.57,72.57,0,0,0,.83-10.2,21.39,21.39,0,0,0-14.26,1.07c-4.64,2.13-8.27,5.81-12,9.27-6.32,5.88-13.15,11.33-18.53,18.07s-9.28,15.11-8.55,23.62a14.9,14.9,0,0,0,1.44,5.52A12.06,12.06,0,0,0,545.82,1100.93Z"/><path class="cls-20" d="M604.62,1045.56a19.37,19.37,0,0,0-3.88-2.76c.5,6.42.1,13-3.36,18.36-4.87,7.57-12.2,12.44-19.59,17.42-7,4.74-14,9.8-19.76,16.05-2.75,3-5.63,6.38-7.12,10.22,6.32,3.47,14.21,3.89,21.27,2,7.92-2,14.92-6.64,21.15-11.87,7.39-6.22,14.09-13.73,17-22.85S611.72,1052.1,604.62,1045.56Z"/></g></g></g></svg>