<svg xmlns="http://www.w3.org/2000/svg" viewBox="0 0 800 800"><defs><style>.cls-1{fill:#622702;}</style></defs><title>CoffeBreakFinal</title><g id="Layer_2" data-name="Layer 2"><g id="Layer_1-2" data-name="Layer 1"><path class="cls-1" d="M0,400V800H800V0H0Zm783,0V782l-381.7-.2-381.8-.3L19.2,401c-.1-209.3,0-381.1.3-381.8.3-.9,77.7-1.2,382-1.2H783Z"/><path class="cls-1" d="M21,399.5V780l380.3-.2,380.2-.3.2-378.5c.2-237.5-.1-379.1-.7-380-.8-1.3-44.4-1.5-380.5-1.8L21,19ZM411.4,89.2c4.9,18.8,2.2,44.1-7.1,68.5-.4,1.1,2.1,1.2,14.8.7,23-.9,39.9,1.5,53.9,7.8,7.9,3.5,12.5,7.7,15.6,14.3,2.8,5.9,2.9,9.9.9,23.8-3.3,21.9-8,35-18.3,50.8C455.3,279.5,424,292,392,287c-11-1.8-11-2.3.1-3.6,33.7-3.8,56.9-17.5,75.1-44.3,5.5-8,15.2-26,14.5-26.8-.3-.2-4.5,1.6-9.3,4a147.73,147.73,0,0,1-48.1,14.8c-12.9,1.7-35.5.7-45.8-2-7.3-1.9-22.9-8-22.3-8.7a72.45,72.45,0,0,1,7.8,1.3c5.5,1.2,13,1.6,28.5,1.6,18.9,0,22.3-.2,33.7-2.6,22.5-4.7,44.7-14.4,49.5-21.6,6.3-9.3,3.3-15.7-10.2-22.1-11.3-5.4-37-10-55.9-10h-8.4l-1.3,5.2c-1.6,6.7-1.7,19.2-.1,23.9,1.9,5.5,7.8,10.9,11.9,10.9,5.2,0,12.5-3.6,15.1-7.3,4.8-7.1,1-17.7-6.4-17.7-6.5,0-10.3,3.3-10.4,9l-.2,3.5-1.3-2.9c-4.6-10.5,11.3-20.2,21.6-13.2,6.7,4.6,9.8,16.1,6.4,24-2.5,6-10.1,12.8-16.4,14.9-6.5,2.1-9.3,2.1-15.7.2-12.9-3.8-20-19.8-17.5-39.5.6-5.1,1-9.4.9-9.6-.7-.7-15.7,2.9-23.7,5.7-4.7,1.6-8.6,2.7-8.8,2.5-.8-.8,14.8-8.2,24.4-11.5l10.4-3.6,3.5-8.5c14.9-36.4,16.4-45.9,11.9-76.2-.5-3-.3-2.8,1.9,1.7A62.08,62.08,0,0,1,411.4,89.2ZM515.7,189.6c9.1,6,12,15.8,8.2,27.6-3.1,9.6-8.9,15.8-20.8,22.3s-15.2,9.9-15.8,16.2a18.83,18.83,0,0,0,1.1,8.7,28.48,28.48,0,0,1,1.6,4.4c0,1.4-5.4-4.6-7-7.8-6.2-12.2-2.1-20.3,17.3-34.4,11.6-8.5,15.4-15.8,12.7-24-3.1-9.4-11.9-8.4-17,1.9l-1.9,4-.1-5.2c0-7,1.2-9.7,6.1-13.3C505.5,186.2,510.1,186,515.7,189.6ZM295.5,236.1c6.4,2.4,16.3,10.9,20,17.3,2.7,4.7,4.5,11.7,3.8,14.6-.5,1.8-.7,1.9-3.7.3-11.7-6-30.3-24.3-32.2-31.7-.6-2.4-.4-2.6,3-2.6A32.07,32.07,0,0,1,295.5,236.1Zm46.5.1c-.2,6.5-5.8,21.6-10.6,28.5s-6.4,5.9-6.4-3.3a31.32,31.32,0,0,1,8.6-22.1C337.8,235.2,342,233.6,342,236.2Zm6.5,10.6c0,9.1-2.5,15.2-8.7,21.4-3,3-4.6,3.8-7.4,3.8h-3.6l2.2-3.3c4.1-6.1,9.8-19.2,11.6-26.5l1.7-7.3,2.1,2.1C348.2,238.7,348.5,240.3,348.5,246.8Zm-64.1-3.9c5.8,8.5,15.7,18,25.4,24.4,3.9,2.6,7.2,5.1,7.2,5.6,0,1.2-3.7,2.1-8.6,2.1-9.2,0-23.4-10.4-28.8-21.1-3.2-6.5-3.6-17.9-.7-17.9C279.3,236,281.8,239.1,284.4,242.9ZM348,281.5c5.8,1.4,14.8,3.9,20,5.5s15.1,4.3,22,6.1c11.3,2.9,13.5,3.1,22.5,2.6a99.16,99.16,0,0,0,35.4-8.8c4.6-2.2,8.6-3.7,8.8-3.5s-2.2,2.4-5.4,5c-9.2,7.3-22.7,13.4-35.6,16-15.3,3.2-28.6,1.7-55.3-5.9-25.2-7.3-26.1-7.5-33.8-7.5-12.9,0-20.6,4.2-25.2,13.6-2.3,4.8-2.8,7-2.8,13.8,0,7.1.3,8.6,2.7,12.3,4.5,7.1,14,8.3,20.7,2.6,4.1-3.4,5.1-2.1,1.4,1.8-6.6,6.9-15.3,8.1-23.3,3.2-6.4-4-9.2-9.3-9.8-19.2-1.3-18.9,7.3-34.1,21.9-38.6C319.6,278.2,336,278.6,348,281.5ZM115.4,367a98.37,98.37,0,0,1,26.6,9.5c6.6,3.3,7.8,3.6,17.5,3.8,8.8.2,10.8.5,13.2,2.3a9,9,0,0,1,3.1,4.3c.4,2.8-1.4,7.4-3.8,9.6-1.8,1.6-1.7,1.8.7,7.1,3.3,7.4,3.6,14.9.4,12.9-.6-.3-1.1-2.2-1.1-4a23.39,23.39,0,0,0-2.1-7.8l-2.2-4.4-7.6,3.8C144.2,412,117.7,419,103.2,419H96.5l-3.7,6.3C83.4,441,82.7,454,90.9,462.1c6.4,6.4,18.4,8.5,30.5,5.4,10.7-2.8,16.6-6.3,25.6-15.4,9.8-9.8,13.1-15.7,13.2-23.4,0-4.5-.4-5.5-3-7.8-5.8-5.2-14.4-4.6-24.7,1.6-6.9,4.2-16.5,14.2-16.5,17.3,0,.6,1.7,1.2,3.7,1.4,3,.2,3.9.8,4.7,3,1.4,4-1.4,7.8-5.8,7.8s-5.9-2-5.9-7.3c0-6.2,3.3-12.5,9.8-18.9,7.8-7.6,15-11.2,23.6-11.6,12.6-.7,17.5,4,17.3,16.8-.1,11.2-5.1,19.8-16.2,28.4-11.8,9-22.9,12.9-36.7,12.9-11.8,0-18.2-2.4-25.3-9.5-10.6-10.6-11.9-23.6-4.2-39.1,2-3.9,2.5-5.9,1.7-6.2s-3.8-1.1-6.9-1.9c-18.4-5.2-26.1-13.6-24.3-26.7,1.3-9.3,12.5-18.4,27-22C88.3,364.5,104.1,364.5,115.4,367Zm394.2,4.9a71.44,71.44,0,0,1,14.5,4.5l5.3,2.5,9.1-3.6c8.1-3.3,10-3.7,18.5-3.7,8.7-.1,9.9.1,14.3,2.7,6.8,4,9.9,9.1,10.4,17.5.5,7.1-1.3,14.2-3.7,15-.9.3-1.1-.4-.6-2.9,3-14.2,1.4-19.8-7.4-25.9-3.1-2.2-4.5-2.5-13-2.4-7.3,0-10.8.5-15,2.2-8.7,3.5-8.8,3.6-5.6,6.9,11.4,11.4,6.9,28.1-8.8,32.4-3.7,1-3.9,1.3-2.2,2.3,8.6,5.1,12.7,11.9,12.8,21.2.1,15.5-13.1,28.4-32.1,31.5-15.9,2.6-25.6-4.1-23.7-16.3,1-6.2,3.9-11,10.6-17.1,9.9-9.2,20.8-11.1,27.2-4.7,2.3,2.3,2.8,3.7,2.8,7.5,0,5-2.4,11.3-4.7,12.2-2.6,1-2.5-.6.3-6.3,2.5-5.2,2.6-5.9,1.3-8.3-4.2-7.5-16.6-6.2-25.3,2.7-6.2,6.4-7.6,8.4-8.7,12.5-2.3,8.6,2.6,14.1,12.3,13.8,12.8-.2,26.5-12.1,29.8-25.9,1.6-6.7.8-11.4-2.5-15.8-3.7-4.8-6-5.8-15-6.4-7.2-.4-8-.7-8-2.5s.7-2,8-2.1c4.4,0,9.2-.5,10.6-1.1a23.51,23.51,0,0,0,11-10.8c2.7-5.8,2.4-10.3-.9-15.2l-2.8-4.2-5.4,4.7c-7.2,6.3-15.8,17.3-22.6,29-3.1,5.3-7.7,13.2-10.2,17.5-10.1,17.1-23.3,27-45.2,33.9-5.8,1.8-9.8,2.3-17.5,2.3-9,0-10.6-.3-15.8-2.9-6.9-3.3-9.7-7.2-9.7-13.2a9.23,9.23,0,0,1,2.9-7.3c3.2-3.5,5.6-3.9,8.9-1.5,4.4,3,1.7,11.4-3.7,11.4a6.25,6.25,0,0,1-3.9-1.2c-2-2-1.4,1.4.7,3.9,7,8.3,26,9.7,40.4,2.8,11.1-5.2,19.8-14.1,36.7-37.6,11.2-15.6,25.1-30.9,36.8-40.5,1.7-1.5,3.2-3.1,3.2-3.6,0-1.4-8.7-5-15.5-6.4-7.3-1.6-24.6-1.8-33.4-.4-11.9,2-25.7,7.9-36.3,15.6-7.4,5.5-19.4,18.9-22.3,25-7.5,15.8-1.8,27,14.3,28.2,13.6.9,27.5-5.2,40.3-17.8,10.2-10,13.9-19.2,10.4-25.9-2.1-4.1-9.4-5.4-17.6-3.1s-22.2,13.9-27.6,22.8a16.07,16.07,0,0,0-2.3,7.9c0,3.9.3,4.3,3.5,5.4,4.3,1.6,4.6,3.9.6,3.9-3.5,0-7.6-3.9-8.5-8.1-.7-3.9.9-11.4,3.5-15.6,3.4-5.4,12.7-13.1,20.7-17,7.1-3.5,8.4-3.8,16.4-3.8,8.5,0,8.8.1,12,3.3,2.9,2.9,3.3,3.8,3.3,9,0,8.3-4,15.9-13,24.7-12.8,12.5-28,19.2-41.5,18.3-10.8-.8-18.5-6.2-21.1-14.7-1.7-5.8-.7-17.7,2-23.2,5.1-10.7,20.5-23.6,37.2-31.3,7.2-3.3,20.7-7.1,27.9-7.9C486.9,369.6,501.1,370.2,509.6,371.9ZM279.1,390c4.4,2.4.9,11.7-7.7,20.1-7.2,7-6.8,6.6-14.9,12.4l-7,5,4,.3c7.2.6,9.8-.4,12.8-5.2,7.9-12.6,26.1-29.7,35-32.9,3.1-1.1,6.7.3,7.3,2.9,1.6,6.4-8.7,19-23.9,29.4-3.7,2.5-6.7,4.9-6.7,5.3s1.7.7,3.8.6,3.8,0,4,.4c.8,2.2-.4,2.7-7.2,2.7h-7.3l-5,8.8c-14.4,25.3-22.1,36-33.1,46.2-8.5,8.1-15.1,12.5-23.2,15.8-6.7,2.8-17.3,4-19.4,2.3-2.9-2.4-.7-3.6,6.7-3.6,15.5,0,26.1-8.9,42.8-36,5.8-9.4,11.5-18.6,12.7-20.5s3.3-5.7,4.7-8.3l2.6-4.8-8.3.3-8.2.3-4.8,8c-2.6,4.4-5.2,9.1-5.8,10.5-1.6,3.6-11.7,18.7-16.4,24.5-9.3,11.6-23.5,23-34.2,27.6-8.7,3.7-20.9,3.8-20.2.1.3-1.4,1.3-1.6,6.3-1.4,13.9.8,27.3-9.2,39.9-29.6C212,465.3,219,454,223.9,446l8.9-14.5-3.9-.3c-3.7-.3-5-1.4-3-2.6.5-.4,2.8-.7,5.1-.8,3.9-.1,4.4-.5,9.2-7.2,7.5-10.5,23.2-25.7,29.7-28.9C276.1,388.7,276.4,388.6,279.1,390ZM748,394c0,.6-1.7,3.4-3.7,6.3s-9.2,13.4-16,23.5c-9.6,14.1-12,18.4-10.8,18.8,3,1.2,6.4-.7,14-7.6,7-6.3,8.1-7,11.9-7,5.2,0,6.6,1.3,6.6,6.2,0,7.1-10,14.5-13.1,9.7-1.6-2.5-.9-4.1,3.3-8,3.8-3.4,4-3.9,2.1-3.9-2.1,0-5.2,2.3-13.1,9.6l-3.3,3.1,2.6,2.1c3.5,2.8,3.5,7.2.1,14.1-2.3,4.5-2.5,5.2-1.1,5.8,3.4,1.2,12.2-6.1,20.6-17.2,2.3-3,4.5-5.5,5-5.5,5,0-14.6,22.3-22.4,25.5-4.3,1.8-7.1,1.3-10.4-1.8-3-2.7-2.9-6.5.2-12.7,3.7-7.3,3.5-7.9-2.9-7.7l-5.3.1-6.9,11.3L698.6,470h-5.9c-6.3,0-6.3.1-2.3-5.5,1.2-1.7,5-7.5,8.3-13s13.2-20.6,21.7-33.5L736,394.5l4.3-.6C747.1,392.9,748,392.9,748,394ZM207.4,429.6c2.9,2.9,2.1,10.9-1.9,18.1s-4,7.3-2,7.3c2.7,0,9.2-3.8,12.6-7.5,1.8-1.9,3.7-3.5,4.1-3.5,1.8,0,.6,3.1-2.4,6-5.3,5.3-10.3,8-15,8-3.8,0-4.9.5-8.6,4.4-9.4,9.7-20.1,10.7-25.2,2.3-4.4-7.1-1.6-16.2,7.3-24.4C187.1,430.5,202.9,425,207.4,429.6Zm110.8.1c1.1.9,1.8,3,1.8,5,0,6.5-8.9,11.5-27.3,15.3-5.2,1-5.9,1.5-7.7,5-2.6,5.1-2.6,9.6-.1,11,6.2,3.3,15.5-1.2,27.3-13.2,4.8-4.8,8.9-8.8,9.2-8.8,4,0-11.6,17.2-20.3,22.4-9.5,5.7-16.9,5.5-22.6-.5-2.7-2.7-3-3.7-3-9.2.1-5.1.6-7,2.8-10.3C286.6,434.1,311.5,423.6,318.2,429.7Zm46,0c1.1.9,1.8,3,1.8,5,0,6.4-7.9,10.9-25.9,14.9l-7.3,1.6-2.5,5.4c-2.3,5.2-2.4,5.6-.9,7.9,1.3,1.9,2.5,2.5,5.4,2.5,6.5,0,13.9-4.5,23.5-14.3,8.5-8.7,11.5-10.5,8.7-5.1-2.3,4.2-17.5,18-22.7,20.5a21,21,0,0,1-10.1,2.2c-4.8,0-5.8-.4-9-3.6-3-3-3.6-4.4-3.9-8.9a15.08,15.08,0,0,1,2-9.8C330,435.7,357.3,423.4,364.2,429.7ZM567,429c2.5,1.3,3.5,7,2.1,11.1-1.7,5.1-.6,4.5,3.2-1.4,4.4-6.8,9.3-10.7,13.5-10.7,2.8,0,3.2.3,3.2,2.6,0,3.1-3.8,6.8-12,11.7-5.2,3-5.5,3.4-5.5,7.2s.2,4,3.3,4.3c3.8.4,8.6-2.3,12.1-6.8,2.2-2.9,5.1-4,5.1-2.1s-5.5,7.5-9.9,10.3c-7.4,4.6-12.3,3.2-13.7-4l-.6-3.2-3.4,3.8a106.45,106.45,0,0,0-8.1,10.9l-4.8,7.3h-5.7c-3.2,0-5.8-.3-5.8-.6s4.2-6.7,9.4-14.2c9-13.3,13.6-21,13.6-23.2,0-2.7-3.6-.2-10.9,7.7-6.1,6.6-8.1,8.2-8.1,6.6,0-1.2,3.1-5.3,7.8-10.2C559.9,427.7,562.4,426.6,567,429Zm66.2.7c1.1.9,1.8,3,1.8,5.1,0,6.5-7.2,10.6-25.7,14.7-6.9,1.6-7.3,1.8-9.2,5.9-3.8,7.7-2.4,11.6,3.9,11.6s13.8-4.6,23.4-14.2c5.7-5.8,9.2-8.6,9.8-8,2,2-15.9,19.4-24,23.3-12.6,6.1-24.8-1.5-22.7-14.1,1.5-9.1,10.4-17.3,25.4-23.6C622.6,427.6,630.5,427.3,633.2,429.7Zm44.7,0c.9,1.5,1.2,1.6,2,.4,1.1-1.6,12.1-2.6,12.1-1,0,.5-4,6.9-8.8,14.2C673.1,458.3,671,462,671,465c0,4.9,7.6.6,17.3-9.9,3.2-3.5,6.5-7.4,7.4-8.7,1.9-2.9,3.3-3.1,3.3-.4s-17.3,20.6-22.3,23.1c-6.9,3.6-13.1-.5-12.9-8.3l.1-3.2-4.9,5.2c-6.2,6.6-10.8,8.7-15.6,7.2s-7.4-5.7-7.4-11.7c.1-10.3,6.8-18.1,22.3-25.8C668.3,427.4,675.9,426.4,677.9,429.7ZM304.8,553.6a2.83,2.83,0,0,1,2.2,2.5c0,1.5-.7,1.9-3.5,1.9s-3.6.4-4.1,2.5c-.9,3.8.2,5.5,3.6,5.5,4.5,0,3.8,3.4-.8,3.8l-3.2.3V592h-5V581.1c0-10-.2-10.9-2-11.4a2.53,2.53,0,0,1-2-2.1c0-.9.8-1.6,2-1.6,1.4,0,2-.7,2-2.4,0-3.9,2-8.3,4.3-9.4C300.9,552.9,301.8,552.8,304.8,553.6Zm23.6.3c.8,1.3-4.7,8-6.6,8.1-2.1,0-2.2-.4-.7-3.3C323.6,553.8,327,551.6,328.4,553.9ZM477,565.2l.1,11.3,4.9-5.3c3.4-3.6,5.7-5.2,7.5-5.2,1.4,0,2.5.4,2.5.8s-2,2.8-4.5,5.2-4.5,4.7-4.5,5.1,2.2,3.5,5,7,5,6.7,5,7.1-1.1.8-2.5.8c-1.9,0-3.8-1.6-7.7-6.7l-5.3-6.7-.3,6.7c-.3,6.4-.4,6.7-2.7,6.7H472V554h5Zm-103.3-9.6c1.2.3,2.7,1.9,3.4,3.6,1.6,3.8-.6,8.8-5,11.4-1.7,1-3.1,2.1-3.1,2.4s1.9,2.5,4.1,4.9c4.9,5,5.8,4.3,6.8-5.2.1-.4,1-.7,2.1-.7,2.5,0,2.7,4.3.6,9.5-1.3,3-1.3,3.5.3,4.9a6.07,6.07,0,0,0,2.9,1.6c.7,0,1.2.9,1.2,2,0,2.5-3.6,2.7-6.9.4-2.1-1.5-2.6-1.5-6.4.2-14.1,6.4-25.9-5.5-15.7-15.8l2.9-2.9-1.9-3.7a20.9,20.9,0,0,1-2-4.5c0-2.1,3.3-7.6,4.8-8A36.58,36.58,0,0,1,373.7,555.6ZM252,557.5a11.36,11.36,0,0,1,3,1.9,12,12,0,0,0,.6,2c.8,2.1-1.4,2.1-5.6,0-7.7-3.9-15,2.1-15,12.3,0,11.7,7.2,17.2,16.6,12.7,3.9-1.9,4.9-1.5,4,1.4-1.5,4.5-14.4,6.2-19.5,2.5-8.9-6.7-8.2-26.6,1.3-32.4C241.2,555.6,248,555.4,252,557.5Zm176.4,1.4c3,2.8,3.5,8.4,1.2,11.6-1.2,1.7-1.1,2.3,1,4.8,3.9,4.6,3.6,10.1-.9,13.9-2.9,2.6-3.8,2.8-11.4,2.8H410V574.7c0-9.6.3-17.7.8-18.1s3.9-.6,7.9-.4C424.6,556.5,426.3,557,428.4,558.9Zm-149.9,7.7c3.9,1.8,4.5,4,4.5,16.5,0,8.1-.2,8.9-1.9,8.9a2.66,2.66,0,0,1-2.4-1.3c-.3-.9-.7-.9-1.8-.1-4.6,3.6-13.1,1.7-14.3-3.1-1.6-6.2,2.8-10.5,10.5-10.5,4.3,0,6-2,4.2-4.8-2-3.3-4.1-3.8-8.8-2.1s-6,1.3-4.9-1.5C264.8,565.3,273.5,564.2,278.5,566.6Zm49,0c3.5,1.6,5.5,5.4,5.5,10.5V580h-9c-7.9,0-9,.2-9,1.7a9,9,0,0,0,1.9,4.2c2,2.6,5.9,3.2,11.9,1.7,2.8-.7,3.2-.5,3.2,1.3,0,2.4-3.3,3.6-10.1,3.5-8.2-.1-12.7-5.8-11.6-15.1C311.4,567.4,319.2,562.6,327.5,566.6Zm131.2.8c2.7,2.3,2.8,2.8,3.1,13.5l.4,11.1h-2.6c-1.4,0-2.6-.4-2.6-.9s-1.7-.3-3.8.6c-3.4,1.3-4.3,1.3-7.5,0-3.9-1.7-5.4-4.8-4.3-9.2.8-3.1,3.8-4.8,10.1-5.5,4.8-.5,5-.6,4.8-3.4a7.8,7.8,0,0,0-.8-3.4c-.8-.8-7.4-.6-10.7.3-4.1,1.1-3.7-2.2.5-4C450.3,564.3,455.5,564.6,458.7,567.4Zm55.8-.9c3.7,1.8,5.5,5.1,5.5,10V580h-8.3c-4.6,0-8.6.3-9,.6s-.1,1.8.4,3.4c1.4,3.9,5.5,5.5,10.5,4.1,5.2-1.4,5.4-1.4,5.4.9,0,3.6-11.7,4.8-16.4,1.6-7.9-5.1-7-19.6,1.4-23.8C508.3,564.6,510.3,564.6,514.5,566.5Zm29.3,1.2c.3,2-.1,2.3-2.7,2.3-4.9,0-7.1,4.5-7.1,14.2,0,7.1-.2,7.8-2,7.8s-2-.7-2-13c0-12.1.1-13,1.9-13a2.32,2.32,0,0,1,2.3,1.2c.3.8,1.1.7,2.9-.5C540.3,564.4,543.4,564.9,543.8,567.7Zm10.7,0c.4,1,1.8,4.9,3.2,8.8,3,8.3,3.9,9.5,4.8,6.4.4-1.3,1.8-5.7,3.2-9.7,2.2-6.2,2.9-7.2,4.9-7.2,1.3,0,2.4.2,2.4.5s-3.4,9.7-10,27.5c-2.3,6.5-3.1,7.5-5.1,7.5-1.6,0-2.3-.5-2-1.5.2-.8.8-3.1,1.4-5.1.9-3.1.5-4.9-3.6-15.8-2.6-6.8-4.7-12.5-4.7-12.7C549,565.1,553.9,566.3,554.5,567.7Z"/><path class="cls-1" d="M82.1,372.5c-8.6,1.9-16.7,6.1-21.7,11.1-11,10.9-3.8,23.5,16.7,28.9,8.2,2.2,9.5,1.9,13.6-2.6,10.6-11.7,29.2-21.9,49.3-27l4.5-1.1-6-2.5C121.4,372.2,96.5,369.2,82.1,372.5Z"/><path class="cls-1" d="M156.1,384.3c.2.2,3,2.7,6.2,5.7l5.7,5.3,2.5-2.3c3-2.8,3.2-6.5.6-8C169.4,384.1,154.9,383.4,156.1,384.3Z"/><path class="cls-1" d="M141.7,387.5a107.78,107.78,0,0,0-36.6,22.8l-4.4,4.2,2.9.3c10.6,1.3,50.3-9.5,58.4-15.8l2.5-2-5.1-4.7C150.1,383.7,151.4,384,141.7,387.5Z"/><path class="cls-1" d="M267.7,398c-4.4,4-14.2,16.7-19.1,24.9-2.1,3.5,14.4-9.6,21.8-17.3,4.7-4.9,8.6-10.3,8.6-11.9,0-.4-1.3-.7-2.9-.7C274,393,271.6,394.4,267.7,398Z"/><path class="cls-1" d="M297.4,396.3a51.1,51.1,0,0,0-7.5,7.2c-1.9,2.2-3.6,4.2-3.9,4.5-1.1,1-9,13.7-9,14.3,0,1.5,10.9-7.1,18.7-14.7,7.4-7.3,10.3-11.1,10.3-13.6C306,391.9,301.3,393.2,297.4,396.3Z"/><path class="cls-1" d="M198.1,431.7c-3.8.7-16.5,14.2-20.1,21.3-3.8,7.5-3.9,13.3-.2,13.8s8.8-1.7,13.7-6c4.4-3.9,4.6-4.2,3.9-8.3-1-6.8,3.6-13.5,9.3-13.5,1.9,0,2.3-.5,2.3-3a4.36,4.36,0,0,0-1.9-4C203.1,431,202.3,430.9,198.1,431.7Z"/><path class="cls-1" d="M306.4,433.2A48,48,0,0,0,294,443.4l-2.5,2.8,2.5-.7c5-1.4,14.6-6.3,17.3-8.8C316.8,431.4,313.7,429.2,306.4,433.2Z"/><path class="cls-1" d="M355,431.7c-4,1.5-17,12-17,13.6,0,2.1,14.4-4.3,19.3-8.6C361.7,432.7,360.3,429.7,355,431.7Z"/><path class="cls-1" d="M622.1,432.7c-3.7,1.8-15.1,11.9-15.1,13.4,0,.5,1.7.1,3.8-.8,9-3.9,12.7-6,15.9-9C632,431.4,629.1,429.2,622.1,432.7Z"/><path class="cls-1" d="M669.1,432.2c-5.1,1.4-20.1,16.9-23.5,24.3-4.7,9.9-1.2,13.7,7,7.6,4.9-3.6,8.7-7.6,15.6-16.7,6-7.9,8.3-12.6,7.4-14.9C675,430.8,674,430.8,669.1,432.2Z"/><path class="cls-1" d="M364.3,559.6c-2.7,1.1-.8,9.4,2.1,9.4,2.7,0,5.8-3.8,5.4-6.7-.2-2.3-.8-2.8-3.3-3A12.29,12.29,0,0,0,364.3,559.6Z"/><path class="cls-1" d="M361.3,577.5a9.61,9.61,0,0,0-1.8,3.8c-1.3,5.2,6.8,8.8,12.7,5.6,1.9-1,1.8-1.3-2.8-6C364.3,575.7,363.2,575.3,361.3,577.5Z"/><path class="cls-1" d="M415,566v6.3l4.2-.6c4.5-.6,6.8-2.7,6.8-6.3,0-2.9-2.1-4.5-7-5.1l-4-.6Z"/><path class="cls-1" d="M415,582v6h4.3c5.4,0,8.7-2.2,8.7-5.9,0-4-2.8-6.1-8.3-6.1H415Z"/><path class="cls-1" d="M269.2,581.6c-5.1,3.5-.3,9,5.4,6.3a4.87,4.87,0,0,0,3.2-4.7c.3-3,.2-3.2-3-3.2A10.86,10.86,0,0,0,269.2,581.6Z"/><path class="cls-1" d="M317.5,571.5c-1.4,1.3-2.5,2.8-2.5,3.4,0,1.2,3.3,1.7,8.8,1.2,4.7-.3,5.6-2.5,2.4-5.4C323.6,568.3,320.3,568.6,317.5,571.5Z"/><path class="cls-1" d="M448.2,581.6c-4.1,2.9-1.7,8.2,3.2,7,3.4-.8,5.6-3.3,5.6-6.2,0-2-.5-2.4-3.3-2.4A10.77,10.77,0,0,0,448.2,581.6Z"/><path class="cls-1" d="M505.2,570.6a5,5,0,0,0-2.2,3.5c0,1.7.7,1.9,6.5,1.9s6.4-.2,5.8-1.8C513.5,569.2,509.4,567.7,505.2,570.6Z"/></g></g></svg>