<svg xmlns="http://www.w3.org/2000/svg" viewBox="0 0 1404.26 1390.73"><defs><style>.cls-1{fill:#a33d47;}.cls-2{fill:#000072;}.cls-3{opacity:0.6;}.cls-4{fill:#fff;}.cls-5{opacity:0.29;}.cls-6{fill:#e73b47;}.cls-7{fill:#fbf6f2;}.cls-8{opacity:0.3;}</style></defs><title>CupMAN</title><g id="Layer_2" data-name="Layer 2"><g id="Layer_1-2" data-name="Layer 1"><path class="cls-1" d="M947.2,582.74S890.49,487.69,784,457.16c-176.78-50.7-223.07,83.49-256.5,37.56s40.73-100.19,41.43-194.93-80.63-206.72-196.68-172-52,92.26-27.71,171-37.36,125-26.4,205.5S387.61,665.18,422.66,673,947.2,582.74,947.2,582.74Z"/><path class="cls-2" d="M952.15,584.93l-4.34.87c-20,4-490.55,98.19-525.84,90.28-38-8.51-96-90.91-106.92-171.38-5.2-38.22,5.6-68.77,16-98.31,11.92-33.72,23.17-65.58,10.48-106.7-5.41-17.51-12.72-33.78-19.79-49.51-14.31-31.83-26.67-59.33-15.89-82.89,8.27-18.1,29.07-31.57,65.47-42.49,57.61-17.24,100.57,2.31,126.47,21.74,44.83,33.64,74.66,95.24,74.23,153.27-.33,45.31-17.48,82.06-31.26,111.59-15.29,32.78-27.37,58.67-10.77,81.48,10.88,14.95,22.55,8.44,47.92-7.7,36.61-23.3,97.9-62.29,206.93-31,106.43,30.53,164.43,126,165,127ZM365.79,133.1c-29.63,9.8-47.39,21.86-54.22,36.79-9.59,21,2.23,47.28,15.91,77.73,7.15,15.9,14.54,32.35,20.06,50.23,13.3,43.09,1.17,77.42-10.56,110.62-10.19,28.85-20.73,58.67-15.73,95.38C332.35,585.42,391,662.73,423.34,670c27,6,348.45-55.32,518.76-89.42-11.86-17.85-66.93-94-159-120.41-106.32-30.5-163.81,6.08-201.84,30.29-24.12,15.35-41.54,26.44-56.33,6.11-18.77-25.79-6-53.15,10.16-87.8,14.23-30.49,30.35-65.05,30.67-109,.42-56.15-28.41-115.72-71.73-148.23C469.33,133,428.27,114.3,373.15,130.79,370.62,131.54,368.17,132.32,365.79,133.1Z"/><g class="cls-3"><path class="cls-4" d="M328.94,161.75l13.68-16.2A201.75,201.75,0,0,1,373.1,134c116.06-34.72,197.38,77.26,196.68,172-.16,22.29-4.42,42.31-10.36,60.54l-5.76,1.91s5-103.54-50.07-166.76c1,5.92.06,11.22-3.4,14.73-7.84,7.94-24.92,3.78-38.15-9.28s-17.61-30.08-9.77-38a12.38,12.38,0,0,1,3.76-2.55C424.71,152.86,383.43,148.89,328.94,161.75Z"/></g><g class="cls-5"><path class="cls-2" d="M349.9,291.74c-14.48-46.92-43.07-86.31-39.24-117.84,1.21-.05,2.5-.68,3.62-.18C468.89,242.3,340.86,450,375.71,506.4s223.49,44.34,379.66,43.48c68-.38,110.38,12.16,122.27-54.63,49.21,37.45,74.91,80.45,74.91,80.45S463.05,673.85,428,666,334.46,577.77,323.5,497.24,374.21,370.45,349.9,291.74Z"/></g><path class="cls-2" d="M953,600.38a17.46,17.46,0,0,1-2.18.58c-115.74,23.2-496.17,98.29-532.26,90.2-47.9-10.72-107.88-103.78-118.85-184.38C294,464.86,306,431.06,316.52,401.24c11.51-32.61,21.46-60.76,10.28-97-5.13-16.6-12.24-32.43-19.12-47.73-15.19-33.8-29.54-65.72-15.85-95.66,10.26-22.45,34.12-38.63,75.1-50.87,50.49-15.1,99-6.74,140.18,24.19,49.32,37,80.88,102.07,80.41,165.75-.36,48.68-18.3,87.12-32.71,118-15.45,33.12-23,51.09-12.28,65.84a12.24,12.24,0,0,0,1.8,2.08c4.45-.49,16.47-8.09,25.32-13.72,38.81-24.7,103.76-66,219.49-32.84,112.25,32.19,171.55,129.78,174,133.92A18.58,18.58,0,0,1,953,600.38ZM370.5,147.82c-24.9,8.24-40,17.8-44.87,28.5-6.68,14.61,3.81,38,15.95,65,7,15.56,14.93,33.21,20.73,52,14.81,48,1.81,84.76-10.75,120.33-10,28.36-19.49,55.15-15,88.15,10.59,77.84,66.31,147.79,90.16,153.13,27.73,3.57,303.08-47.9,488.52-84.73C892.49,541.88,846,494.26,778.89,475c-99.64-28.58-153.59,5.75-189.29,28.47-24,15.26-53.78,34.22-77.12,2.16-24.13-33.15-8.21-67.29,8.65-103.43,13.56-29.05,28.93-62,29.23-102.56.38-51.49-26-106-65.56-135.75C462.9,147.47,426.52,131,377.58,145.6Q373.92,146.7,370.5,147.82Z"/><circle class="cls-1" cx="679.59" cy="95.67" r="80.8" transform="translate(131.4 508.56) rotate(-45)"/><path class="cls-2" d="M706,175.35A83.95,83.95,0,0,1,596.43,107h0A83.93,83.93,0,1,1,706,175.35ZM602.62,106.14a77.68,77.68,0,1,0,66.5-87.43,77.77,77.77,0,0,0-66.5,87.43Z"/><g class="cls-5"><path class="cls-2" d="M748,122.61l.24.27A80.67,80.67,0,0,1,599,100.34L609.37,79C636.33,177.28,748,122.61,748,122.61Z"/></g><g class="cls-3"><path class="cls-4" d="M679.51,40c-15.9-3.63-35.44-4.73-59.48-2l2-4.33A80.67,80.67,0,0,1,750.4,120.05l-1.72-.09S749,74.19,707.1,50.43a6.16,6.16,0,0,1,.16,2.76c-1.14,5.46-9.8,8.29-19.36,6.31s-16.39-8-15.26-13.48C673.22,43.21,675.83,41.11,679.51,40Z"/></g><path class="cls-2" d="M709.65,186.5A95.67,95.67,0,0,1,584.8,108.57h0A95.66,95.66,0,1,1,709.65,186.5Zm-95.4-81.94A65.94,65.94,0,1,0,670.7,30.34a66,66,0,0,0-56.45,74.22Z"/><path class="cls-1" d="M73.81,144C-11.42,163.48,6.62,243.78,59.6,260.44s146.81,26.75,162.22,6.22S159,124.53,73.81,144Z"/><path class="cls-2" d="M211,276.86C177.43,288,99.63,276.3,58.66,263.42c-28.28-8.89-48-35.54-46.88-63.36.55-13.68,7.63-46.87,61.33-59.1,52.76-12.06,106.46,28.89,136.27,74.82,12.23,18.84,22.58,42.59,14.94,52.76C221.62,272.13,217,274.87,211,276.86ZM63.4,150.13C35.31,159.42,19,177.31,18,200.31c-1,25.05,16.87,49.09,42.5,57.14,56.82,17.87,145.73,24.73,158.79,7.33,3.75-5-.3-22.67-15.18-45.59-28.63-44.11-79.82-83.52-129.64-72.14h0C70.63,147.94,66.92,149,63.4,150.13Z"/><g class="cls-5"><path class="cls-2" d="M21.17,212.37,25,194.25c34.43,63.83,189.82,59.56,189.82,59.56l6.69-.76,1.27,11.12c-22,16.53-108.94,6.65-159.17-9.15C42.38,248.35,26.79,231.46,21.17,212.37Z"/></g><g class="cls-3"><path class="cls-4" d="M218.21,264.67S134.44,125.17,26.09,185c0,0,13-35.38,62.23-34.25S213.6,224.53,218.21,264.67Z"/></g><path class="cls-2" d="M215,287.56c-40.81,13.49-124.3-1.78-159.81-12.94-33.24-10.46-56.41-42-55.09-75,1.37-34.11,27.71-60.32,70.45-70.08C128.78,116.2,187.19,160,219.23,209.39c11.11,17.12,27.77,48.49,14.48,66.19C229.7,280.93,223.19,284.83,215,287.56ZM67.17,161.25C44,168.93,30.47,183,29.76,200.78c-.78,19.53,14,39.08,34.29,45.47,54.78,17.23,130.59,21.66,144.89,12.21-.39-9.36-14-39.7-43.66-67.45-16.89-15.8-50.8-41-88.16-32.51h0Q71.88,159.7,67.17,161.25Z"/><path class="cls-6" d="M944.3,978.4c-.4,122.75,97.24,222.57,218.1,223S1381.56,1102.6,1382,979.85s-97.24-222.57-218.1-223S944.71,855.66,944.3,978.4Zm101-3.08c.23-68.79,53.17-124.39,118.25-124.17s117.65,56.16,117.42,125-53.17,124.39-118.25,124.18S1045.09,1044.12,1045.31,975.32Z"/><g class="cls-3"><path class="cls-4" d="M1321.44,1126.43c17.37-47.39,86.94-276.11-153.71-355.2L1194.48,761c103.26,18.13,181.66,109.66,181.29,219.66A223.27,223.27,0,0,1,1321.44,1126.43Z"/></g><g class="cls-5"><path class="cls-2" d="M1162.4,1201.37c-120.86-.4-218.5-100.22-218.1-223,.4-120.19,94.69-217.73,212.09-221.35-1.4,30.2-2.62,62.25-3.44,94.63-60.12,5.48-107.42,58.63-107.64,123.64-.22,68.28,51.57,123.83,116,124.88,6.31,40.19,16.32,66.08,31.53,67.51,26,2.45,71.91-10,120.59-27.11C1274,1178.41,1220.87,1201.57,1162.4,1201.37Z"/></g><path class="cls-2" d="M1238.12,1211.67a238.31,238.31,0,0,1-75.8,12c-64.47-.21-125-25.89-170.38-72.31s-70.15-107.77-69.93-173h0c.45-134.84,109-244.18,241.93-243.75s240.77,110.51,240.32,245.35c-.22,65.25-25.46,126.54-71.07,172.56A239.65,239.65,0,0,1,1238.12,1211.67ZM966.6,978.48a200.41,200.41,0,0,0,57.22,141.7c37,37.8,86.22,58.72,138.65,58.9s101.81-20.42,139-58a200.39,200.39,0,0,0,58.16-141.32c.36-110.25-87.5-200.24-195.88-200.6S967,868.23,966.6,978.48Zm238.86,137.31a134.55,134.55,0,0,1-42.8,6.79c-77.27-.26-139.91-66.35-139.64-147.33.12-39,14.67-75.67,41-103.27,26.6-27.94,62-43.26,99.66-43.13s73,15.68,99.38,43.79c26.09,27.77,40.39,64.54,40.26,103.54s-14.67,75.67-41,103.26A138.34,138.34,0,0,1,1205.46,1115.79ZM1134.9,878a94.27,94.27,0,0,0-38.64,24.74c-18.38,19.31-28.55,45.11-28.65,72.66h0c-.18,56.39,42.52,102.4,95.2,102.58,25.29.09,49.15-10.32,67.22-29.28,18.38-19.31,28.56-45.12,28.65-72.67s-9.91-53.43-28.17-72.85c-17.94-19.09-41.74-29.65-67-29.73A89.85,89.85,0,0,0,1134.9,878Zm-89.58,97.33h0Z"/><path class="cls-6" d="M544.58,1367.56l261.85.87c163,.54,295.53-131.14,296.07-294.12L1104,637.87a76.44,76.44,0,0,0-76.19-76.7l-699.15-2.32A76.44,76.44,0,0,0,251.91,635l-1.45,436.45C249.92,1234.47,381.61,1367,544.58,1367.56Z"/><path class="cls-2" d="M900.8,1356.58a296.9,296.9,0,0,1-94.38,15l-261.85-.87a298.23,298.23,0,0,1-297.23-299.21L248.78,635a79.57,79.57,0,0,1,79.84-79.31L1027.77,558a79.55,79.55,0,0,1,79.3,79.83l-1.44,436.45C1105.19,1205.81,1019.28,1317.42,900.8,1356.58ZM305.26,565.67A73.45,73.45,0,0,0,255,635.05l-1.44,436.45a292,292,0,0,0,291,292.94l261.85.87a291,291,0,0,0,92.4-14.66c116-38.34,200.11-147.6,200.54-276.35l1.44-436.45a73.32,73.32,0,0,0-73.07-73.56L328.6,562A73.57,73.57,0,0,0,305.26,565.67Z"/><g class="cls-5"><path class="cls-2" d="M1104,983.71l-19-38.11c-3.1,265.67-119.35,357-489.79,382.35-220.85,15.13-300.77-122.84-333-212.11l4.2,29.58c20.74,146.18,156.06,247.86,302.24,227.11l314.24-44.6c146.17-20.74,247.86-156.06,227.11-302.24Z"/></g><path class="cls-7" d="M319.56,558.82l717.25,2.38c37.22.12,67.32,23.17,67.22,51.49l-.18,56.46-852-2.82.18-56.47C252.09,581.55,282.34,558.7,319.56,558.82Z"/><g class="cls-8"><path class="cls-4" d="M387.33,553.91,391.1,1131s11.16,182,91.81,225.34c0,0-127.35-37-148.23-190.48S329.44,564,329.44,564Z"/></g><path class="cls-2" d="M906.8,1374.79a315.89,315.89,0,0,1-100.44,15.94l-261.85-.87a317.4,317.4,0,0,1-316.34-318.45L229.61,635a98.74,98.74,0,0,1,99.07-98.42l699.15,2.32a98.74,98.74,0,0,1,98.42,99.07l-1.45,436.45C1124.34,1214.33,1032.91,1333.11,906.8,1374.79ZM311.3,583.87a54.24,54.24,0,0,0-37.09,51.25l-1.45,436.44a272.81,272.81,0,0,0,271.9,273.71h0l261.84.87a272.29,272.29,0,0,0,86.34-13.7c108.39-35.82,187-137.91,187.37-258.2l1.44-436.45a54.15,54.15,0,0,0-54-54.33l-699.14-2.31A54.38,54.38,0,0,0,311.3,583.87Z"/></g></g></svg>