<svg xmlns="http://www.w3.org/2000/svg" viewBox="0 0 347.22 452.38"><defs><style>.cls-1{fill:none;stroke:#3f3d56;stroke-miterlimit:10;}.cls-2{fill:#57b894;}.cls-3{fill:#6c63ff;}.cls-4{fill:#2f2e41;}.cls-5{opacity:0.1;isolation:isolate;}.cls-6{fill:#fff;}</style></defs><title>Asset 1MAN</title><g id="Layer_2" data-name="Layer 2"><g id="b49f4f68-d79e-4476-a14b-b3f27440c724"><path class="cls-1" d="M73,131.52c-9.67-5.23-19.82-10.9-25.39-20.38-6-10.21-5.47-23.45-.36-34.14S61.58,58,71.8,52c7.6-4.46,16-7.86,22.49-13.8s10.86-15.52,7.49-23.67A15.61,15.61,0,0,0,88.3,5.08"/><ellipse class="cls-2" cx="79.71" cy="5.79" rx="11.91" ry="5.79"/><ellipse class="cls-2" cx="70.17" cy="43.91" rx="11.91" ry="5.79"/><ellipse class="cls-2" cx="91.96" cy="50.04" rx="11.91" ry="5.79"/><ellipse class="cls-2" cx="57.92" cy="82.03" rx="11.91" ry="5.79"/><ellipse class="cls-2" cx="34.09" cy="82.03" rx="11.91" ry="5.79"/><path class="cls-1" d="M67.85,314.93c-11-.39-22.59-1-31.8-7-9.92-6.47-15.32-18.58-15.49-30.42s4.35-23.39,10.84-33.3c4.83-7.39,10.82-14.15,14-22.37s2.83-18.73-3.81-24.54a15.65,15.65,0,0,0-16.27-2.45"/><ellipse class="cls-2" cx="17.96" cy="199.32" rx="11.91" ry="5.79" transform="translate(-86.71 28.74) rotate(-26.38)"/><ellipse class="cls-2" cx="26.36" cy="237.71" rx="11.91" ry="5.79" transform="translate(-102.89 36.48) rotate(-26.38)"/><ellipse class="cls-2" cx="48.6" cy="233.52" rx="11.91" ry="5.79" transform="translate(-98.71 45.92) rotate(-26.38)"/><ellipse class="cls-2" cx="32.33" cy="277.31" rx="11.91" ry="5.79" transform="translate(-119.87 43.25) rotate(-26.38)"/><ellipse class="cls-2" cx="10.98" cy="287.9" rx="11.91" ry="5.79" transform="translate(-126.8 34.87) rotate(-26.38)"/><path class="cls-1" d="M249.1,345.31c10.36,3.7,21.36,7.45,32.13,5.27,11.62-2.36,21.1-11.61,25.64-22.56s4.59-23.34,2.22-34.95c-1.76-8.65-4.83-17.14-4.77-26s4.29-18.45,12.61-21.39a15.64,15.64,0,0,1,16,3.73"/><ellipse class="cls-2" cx="338.17" cy="256.31" rx="5.79" ry="11.91" transform="translate(-84.68 291.67) rotate(-41.94)"/><ellipse class="cls-2" cx="316.18" cy="288.88" rx="5.79" ry="11.91" transform="translate(-112.08 285.32) rotate(-41.94)"/><ellipse class="cls-2" cx="297.06" cy="276.77" rx="5.79" ry="11.91" transform="translate(-108.88 269.44) rotate(-41.94)"/><ellipse class="cls-2" cx="296.01" cy="323.47" rx="5.79" ry="11.91" transform="translate(-140.37 280.7) rotate(-41.94)"/><ellipse class="cls-2" cx="311.94" cy="341.2" rx="5.79" ry="11.91" transform="translate(-148.14 295.89) rotate(-41.94)"/><path class="cls-3" d="M58.85,169.36a11.08,11.08,0,0,1,11.07-11.08H271.23a11.25,11.25,0,0,1,1.53.11,11.07,11.07,0,0,1,9.43,12.49l-1.89,13.64-11.78,84.79L249.25,408.07l-4.83,34.76a11.07,11.07,0,0,1-11,9.55H107.07a11.07,11.07,0,0,1-11-9.57l-4.75-34.74L72.4,269.31,60.83,184.58,59,170.85A10.67,10.67,0,0,1,58.85,169.36Z"/><rect class="cls-4" x="71.54" y="121.52" width="197.43" height="36.76" rx="11.07"/><path class="cls-5" d="M269,138.91v8.3a11.07,11.07,0,0,1-11.07,11.07H82.61a11.07,11.07,0,0,1-11.07-11.07v-8.32A1039.19,1039.19,0,0,0,269,138.91Z"/><circle class="cls-4" cx="223.01" cy="233.51" r="29.95"/><circle class="cls-4" cx="116.81" cy="233.51" r="29.95"/><circle class="cls-6" cx="224.37" cy="233.51" r="8.17"/><circle class="cls-6" cx="212.12" cy="217.85" r="3.4"/><circle class="cls-6" cx="116.81" cy="233.51" r="8.17"/><circle class="cls-6" cx="104.55" cy="217.85" r="3.4"/><path class="cls-5" d="M59,170.85l1.87,13.73a1170.11,1170.11,0,0,0,203.93,1.3l-11.59,83.43H72.4L91.35,408.07H233.9L228.08,450a11.76,11.76,0,0,1-.62,2.4h6a11.08,11.08,0,0,0,11-9.55l8.64-62.22,15.46-111.3h0l11.77-84.79h0l1.57-11.35.32-2.3a10.1,10.1,0,0,0,.1-1.45,11.1,11.1,0,0,0-11.06-11.14H69.92c-.37,0-.74,0-1.1.06l-.31,0a8.17,8.17,0,0,0-.84.14l-.25,0c-.34.08-.67.17-1,.28l-.29.1-.69.28-.34.16c-.24.11-.47.24-.7.37L64,160l-.53.36-.41.31-.35.3a11.54,11.54,0,0,0-1.41,1.47l-.15.19-.42.58h0a11.64,11.64,0,0,0-1.12,2.16v0h0A11,11,0,0,0,59,170.85Z"/><path class="cls-4" d="M32.05,165.59V151A11.07,11.07,0,0,1,43.12,139.9a1041.92,1041.92,0,0,0,254.26,0h0A11.07,11.07,0,0,1,308.45,151v14.62h0a11.07,11.07,0,0,1-11.07,11.07,1170.82,1170.82,0,0,1-254.26,0A11.07,11.07,0,0,1,32.05,165.59Z"/><path class="cls-4" d="M79.82,397.67,60.21,281.84a6.35,6.35,0,0,1-.09-1.07,6.42,6.42,0,0,1,6.42-6.42H274.72a6.87,6.87,0,0,1,1,.08,6.43,6.43,0,0,1,5.33,7.35L262.67,397.61a6.41,6.41,0,0,1-6.34,5.41H86.15A6.42,6.42,0,0,1,79.82,397.67Z"/><path class="cls-3" d="M105.51,320.46a359.43,359.43,0,0,1,130.15,0,4.53,4.53,0,0,1,2.49,7.57c-10.8,11.51-37,35.51-67.56,35.51S113.83,339.54,103,328a4.59,4.59,0,0,1-1.16-2.3,4.53,4.53,0,0,1,3.64-5.27Z"/><path class="cls-6" d="M136.55,327.63a208,208,0,0,1,68.08,0,4.62,4.62,0,0,1,2.52,1.3,4.54,4.54,0,0,1-.06,6.42c-7.31,7.13-20.92,17.88-36.5,17.88s-29.19-10.75-36.5-17.88a4.54,4.54,0,0,1,2.46-7.72Z"/></g></g></svg>