<svg xmlns="http://www.w3.org/2000/svg" viewBox="0 0 329.12 43.62"><defs><style>.cls-1{fill:#231f20;}</style></defs><title>Asset 4Line4</title><g id="Layer_2" data-name="Layer 2"><g id="Layer_8" data-name="Layer 8"><path class="cls-1" d="M174.71,10.9,164.56,0,154.4,10.9,144.25,21.81l10.15,10.9,10.16,10.91,10.15-10.91,10.16-10.9ZM169.43,27l-4.87,5.24L159.68,27l-4.87-5.23,4.87-5.24,4.88-5.23,4.87,5.23,4.88,5.24Z"/><path class="cls-1" d="M5.55,19.82l-1.85-2-1.85,2L0,21.81l1.85,2,1.85,2,1.85-2,1.84-2Zm-1,2.94-.88.95-.89-.95-.89-1,.89-1,.89-1,.88,1,.89,1Z"/><path class="cls-1" d="M166.41,19.82l-1.85-2-1.85,2-1.85,2,1.85,2,1.85,2,1.85-2,1.85-2Zm-1,2.94-.89.95-.89-.95-.89-1,.89-1,.89-1,.89,1,.88,1Z"/><path class="cls-1" d="M327.27,19.82l-1.85-2-1.85,2-1.85,2,1.85,2,1.85,2,1.85-2,1.85-2Zm-1,2.94-.89.95-.89-.95-.88-1,.88-1,.89-1,.89,1,.88,1Z"/><path class="cls-1" d="M195.34,21.9l2.4-.54a36.58,36.58,0,0,1,6.55-.87,16.59,16.59,0,0,1,9.23,2.22,13.17,13.17,0,0,1,1.1.79l.54.46.46.44a11.55,11.55,0,0,1,1.67,2.24A11.68,11.68,0,0,1,218.81,32a10.69,10.69,0,0,1-1.21,5.38,11.24,11.24,0,0,1-3.52,3.93,10.85,10.85,0,0,1-4.54,1.85,10.26,10.26,0,0,1-4.35-.27A10.7,10.7,0,0,1,198.73,38l-.31-.55.33.54a10.55,10.55,0,0,0,1.11,1.41,10.83,10.83,0,0,0,5.43,3.11,10,10,0,0,0,4.15.08,10.53,10.53,0,0,0,7.26-5.67,9.56,9.56,0,0,0,.88-4.86A10.44,10.44,0,0,0,216,27.39a10,10,0,0,0-1.49-1.83l-.48-.43-.44-.34a10,10,0,0,0-1-.63,12.66,12.66,0,0,0-4.21-1.43,17,17,0,0,0-4.05-.16,34.13,34.13,0,0,0-6.11,1.09l-2.33.63Z"/><path class="cls-1" d="M209.62,21.66l.64-1.33c.19-.41.48-.93.82-1.53s.72-1.27,1.18-1.95,1-1.43,1.54-2.19,1.21-1.51,1.87-2.29,1.41-1.54,2.21-2.27,1.61-1.44,2.44-2.15S222,6.61,223,6s1.79-1.12,2.66-1.64,1.76-1,2.62-1.31a25.37,25.37,0,0,1,2.41-1,21.36,21.36,0,0,1,2.09-.7c.62-.2,1.17-.36,1.63-.46L235.8.59,234.39,1c-.45.13-1,.33-1.59.57s-1.29.5-2,.85-1.5.71-2.31,1.15-1.61.95-2.46,1.47-1.68,1.12-2.49,1.79-1.61,1.34-2.4,2-1.53,1.46-2.2,2.25-1.34,1.55-2,2.31-1.16,1.55-1.62,2.32-.94,1.47-1.3,2.16-.7,1.31-1,1.88-.5,1-.67,1.49l-.55,1.37Z"/><path class="cls-1" d="M133.17,24.29l-2.33-.63a34.1,34.1,0,0,0-6.12-1.09,16.86,16.86,0,0,0-4,.16,12.66,12.66,0,0,0-4.21,1.43,11.59,11.59,0,0,0-1,.63l-.44.34-.48.43a10,10,0,0,0-1.49,1.83,10.43,10.43,0,0,0-1.54,4.67,9.56,9.56,0,0,0,.87,4.86,10.48,10.48,0,0,0,3.09,3.75,10.3,10.3,0,0,0,4.18,1.92,10,10,0,0,0,4.15-.08,10.88,10.88,0,0,0,5.43-3.11,10.32,10.32,0,0,0,1.1-1.41l.34-.54-.31.55a10.68,10.68,0,0,1-6.47,4.88,10.23,10.23,0,0,1-4.35.27A10.87,10.87,0,0,1,115,41.3a11.24,11.24,0,0,1-3.52-3.93A10.69,10.69,0,0,1,110.31,32a11.79,11.79,0,0,1,1.51-5.35,12,12,0,0,1,1.68-2.24L114,24l.54-.46a11.7,11.7,0,0,1,1.1-.79,16.56,16.56,0,0,1,9.22-2.22,36.72,36.72,0,0,1,6.56.87l2.39.54Z"/><path class="cls-1" d="M117.25,22.66l-.55-1.37c-.17-.45-.4-.94-.67-1.49s-.57-1.2-1-1.88-.81-1.41-1.3-2.16-1-1.52-1.62-2.32-1.24-1.57-2-2.31-1.45-1.5-2.2-2.25-1.57-1.41-2.41-2-1.66-1.23-2.48-1.79S101.45,4,100.63,3.6s-1.57-.84-2.3-1.15-1.4-.62-2-.85S95.18,1.16,94.73,1L93.32.59l1.44.34c.46.1,1,.26,1.63.46a21.23,21.23,0,0,1,2.08.7,25.49,25.49,0,0,1,2.42,1c.86.36,1.71.84,2.61,1.31s1.8,1,2.67,1.64S107.92,7.3,108.8,8s1.68,1.39,2.44,2.15,1.5,1.52,2.21,2.27,1.32,1.53,1.87,2.29,1.1,1.48,1.53,2.19.85,1.34,1.18,1.95.63,1.12.82,1.53l.65,1.33Z"/><polygon class="cls-1" points="180.46 19.34 317.18 21.81 180.46 24.28 180.46 19.34"/><polygon class="cls-1" points="148.66 24.28 11.94 21.81 148.66 19.34 148.66 24.28"/></g></g></svg>