<svg xmlns="http://www.w3.org/2000/svg" viewBox="0 0 331.51 89.65"><defs><style>.cls-1{fill:#231f20;}</style></defs><title>Asset 3Line3</title><g id="Layer_2" data-name="Layer 2"><g id="Layer_8" data-name="Layer 8"><path class="cls-1" d="M169,3.47,165.76,0l-3.24,3.47L159.29,7l3.23,3.47,3.24,3.48L169,10.42,172.23,7Zm-1.68,5.15-1.55,1.66L164.2,8.62,162.65,7l1.55-1.67,1.56-1.67,1.55,1.67L168.86,7Z"/><path class="cls-1" d="M43.44,7l-.71.91c-.44.61-1.22,1.45-2,2.67a27.59,27.59,0,0,0-4,11.87,36.56,36.56,0,0,0,3.59,19.07,40.18,40.18,0,0,0,17,18.35C65.55,64.31,75.89,66,86.52,65s21.56-4.6,32-9.88,20.33-12.33,30.43-19.4S169.39,21.4,180.78,16,204.7,7.15,217.27,7.3a51.71,51.71,0,0,1,18.27,3.4,42.74,42.74,0,0,1,8.21,4.22l1.85,1.26c.61.42,1.17,1,1.76,1.49l1.74,1.54,1.52,1.69a41.37,41.37,0,0,1,8.58,15.38,37.45,37.45,0,0,1,1.38,16.82,27.61,27.61,0,0,1-6.72,14.51A21,21,0,0,1,251,70.27a12.62,12.62,0,0,1-1.53,1.2c-.52.33-1,.68-1.55,1A26.55,26.55,0,0,1,241,75.21c-9.43,2.28-19-.57-24.42-6.27a21,21,0,0,1-3.4-4.54,23.2,23.2,0,0,1-2.5-14.07,21.41,21.41,0,0,1,2.08-7.08,20.44,20.44,0,0,1,3-4.56,18,18,0,0,1,2.48-2.29l.91-.71.13.18-.88.73A17.43,17.43,0,0,0,216,38.92a19.8,19.8,0,0,0-2.78,4.55,21.08,21.08,0,0,0-1.82,6.94,24,24,0,0,0,.81,8.82,19.46,19.46,0,0,0,5.19,8.88c5.2,5.31,14.34,7.87,23.21,5.58A25.65,25.65,0,0,0,247,71.06c.51-.31,1-.68,1.53-1a10.47,10.47,0,0,0,1.37-1.12,18.21,18.21,0,0,0,2.6-2.52,25.67,25.67,0,0,0,6-13.61A39.22,39.22,0,0,0,249,22.32l-1.44-1.59L246,19.33a18.43,18.43,0,0,0-1.62-1.39l-1.84-1.26a40.74,40.74,0,0,0-7.78-4,50.8,50.8,0,0,0-17.54-3.36c-12.15-.26-24.48,2.94-35.7,8.18S159.9,29.89,149.77,36.89s-20.17,14-30.72,19.3S97.44,65,86.62,66a59.76,59.76,0,0,1-15.76-.61l-3.7-.82c-1.22-.34-2.41-.73-3.59-1.09A40.88,40.88,0,0,1,57,60.54,40.76,40.76,0,0,1,39.86,41.76a37,37,0,0,1-3.47-19.33,27.81,27.81,0,0,1,4.13-12c.8-1.23,1.59-2,2-2.66l.72-.9Z"/><path class="cls-1" d="M174.17,34.3l.57.72c.36.49,1,1.15,1.63,2.13a22.26,22.26,0,0,1,3.31,9.59A29.64,29.64,0,0,1,176.9,62.2a32.67,32.67,0,0,1-13.67,15c-6.65,3.66-15.12,5.15-23.74,4.34a73.34,73.34,0,0,1-25.94-7.82C105.11,69.5,97.08,63.91,89,58.31S72.59,47,63.56,42.8,44.72,36.05,35,36.26,15.65,39.75,9.57,46.65A31.28,31.28,0,0,0,1.94,71,20.6,20.6,0,0,0,6.79,81.9a14.71,14.71,0,0,0,2.09,2,15.3,15.3,0,0,0,2.31,1.7,20.84,20.84,0,0,0,5.09,2.09c7.07,1.8,14.37-.19,18.54-4.43A15.56,15.56,0,0,0,39,76.18a18.82,18.82,0,0,0,.65-7.05A17,17,0,0,0,36,59.93a15.61,15.61,0,0,0-1.9-1.86l-.7-.58.09-.14.74.57a15,15,0,0,1,2,1.83,17.33,17.33,0,0,1,4,9.31,19.48,19.48,0,0,1-.46,7.34A16.56,16.56,0,0,1,35.51,84c-4.34,4.56-12,6.89-19.56,5a21.81,21.81,0,0,1-5.54-2.21A16,16,0,0,1,8,85a16.4,16.4,0,0,1-2.28-2.13A22.16,22.16,0,0,1,.31,71.28a32.54,32.54,0,0,1,8-25.77l1.22-1.34,1.39-1.24a19.64,19.64,0,0,1,2.88-2.2,34.54,34.54,0,0,1,6.57-3.37A41.21,41.21,0,0,1,35,34.64C45,34.52,55,37.22,64.16,41.56S81.58,51.69,89.65,57.34s16,11.25,24.35,15.52a72.79,72.79,0,0,0,25.57,7.91c8.5.85,16.77-.52,23.37-4.07A32.21,32.21,0,0,0,176.52,62a29.41,29.41,0,0,0,2.87-15.25,22.11,22.11,0,0,0-3.18-9.5c-.63-1-1.26-1.65-1.61-2.14l-.57-.72Z"/><path class="cls-1" d="M288.24,6.88l.72.9c.44.61,1.23,1.43,2,2.66a27.81,27.81,0,0,1,4.13,12,37.13,37.13,0,0,1-3.46,19.33,40.84,40.84,0,0,1-17.1,18.78,40.88,40.88,0,0,1-6.62,2.91c-1.18.36-2.37.75-3.58,1.09l-3.71.82a59.76,59.76,0,0,1-15.76.61c-10.82-1-21.88-4.52-32.43-9.78s-20.59-12.3-30.72-19.3S161.26,22.81,150,17.51s-23.55-8.44-35.7-8.18a50.8,50.8,0,0,0-17.54,3.36,40.74,40.74,0,0,0-7.78,4l-1.84,1.26a18.43,18.43,0,0,0-1.62,1.39l-1.58,1.4-1.43,1.59A39.14,39.14,0,0,0,73,52.8a25.58,25.58,0,0,0,6,13.61,18.21,18.21,0,0,0,2.6,2.52A11.17,11.17,0,0,0,83,70.05c.51.33,1,.7,1.53,1a25.81,25.81,0,0,0,6.37,2.63c8.87,2.29,18-.27,23.21-5.58a19.46,19.46,0,0,0,5.19-8.88,24,24,0,0,0,.81-8.82,21.08,21.08,0,0,0-1.82-6.94,20.16,20.16,0,0,0-2.77-4.55,18,18,0,0,0-2.38-2.32l-.88-.73.13-.18.91.71a18,18,0,0,1,2.48,2.29,20.44,20.44,0,0,1,3,4.56,21.41,21.41,0,0,1,2.08,7.08,23.2,23.2,0,0,1-2.5,14.07,21,21,0,0,1-3.4,4.54c-5.44,5.7-15,8.55-24.42,6.27a26.55,26.55,0,0,1-6.91-2.74c-.54-.32-1-.67-1.55-1a12.62,12.62,0,0,1-1.53-1.2,21,21,0,0,1-2.84-2.66A27.61,27.61,0,0,1,70.93,53.1a37.45,37.45,0,0,1,1.38-16.82A41.37,41.37,0,0,1,80.89,20.9l1.52-1.69,1.74-1.54c.59-.49,1.15-1.07,1.76-1.49l1.85-1.26A42.74,42.74,0,0,1,96,10.7a51.71,51.71,0,0,1,18.27-3.4c12.57-.15,25.09,3.23,36.49,8.66s21.77,12.65,31.86,19.72,20,14.06,30.43,19.4,21.32,8.84,32,9.88,21-.65,29.21-5.08a40.18,40.18,0,0,0,17-18.35,36.56,36.56,0,0,0,3.59-19.07,27.59,27.59,0,0,0-4-11.87c-.79-1.22-1.57-2.06-2-2.67L288.07,7Z"/><path class="cls-1" d="M157.48,34.41l-.57.72c-.35.49-1,1.16-1.61,2.14a22.11,22.11,0,0,0-3.18,9.5A29.41,29.41,0,0,0,155,62,32.21,32.21,0,0,0,168.57,76.7c6.6,3.55,14.87,4.92,23.37,4.07a72.9,72.9,0,0,0,25.58-7.91c8.34-4.27,16.26-9.86,24.34-15.52s16.37-11.42,25.49-15.78,19.14-7,29.19-6.92a41.21,41.21,0,0,1,14.62,2.72,34.54,34.54,0,0,1,6.57,3.37,19.64,19.64,0,0,1,2.88,2.2L322,44.17l1.22,1.34a32.54,32.54,0,0,1,8,25.77,22.16,22.16,0,0,1-5.36,11.63A16.4,16.4,0,0,1,323.56,85a16,16,0,0,1-2.46,1.77A21.81,21.81,0,0,1,315.56,89c-7.56,1.84-15.22-.49-19.56-5a16.56,16.56,0,0,1-4.25-7.57,19.48,19.48,0,0,1-.46-7.34,17.33,17.33,0,0,1,4-9.31,15,15,0,0,1,2-1.83l.74-.57.09.14-.7.58a15.61,15.61,0,0,0-1.9,1.86,17,17,0,0,0-3.67,9.2,18.82,18.82,0,0,0,.65,7.05,15.56,15.56,0,0,0,4.16,7.09c4.17,4.24,11.47,6.23,18.54,4.43a20.84,20.84,0,0,0,5.09-2.09,22,22,0,0,0,4.4-3.71A20.6,20.6,0,0,0,329.57,71a31.28,31.28,0,0,0-7.63-24.38c-6.08-6.9-15.81-10.19-25.43-10.39S276.92,38.62,268,42.8s-17.31,9.91-25.41,15.51S226.4,69.5,218,73.75A73.34,73.34,0,0,1,192,81.57c-8.62.81-17.09-.68-23.73-4.34a32.64,32.64,0,0,1-13.68-15,29.75,29.75,0,0,1-2.78-15.46,22.26,22.26,0,0,1,3.31-9.59c.64-1,1.27-1.64,1.63-2.13l.57-.72Z"/></g></g></svg>