<svg id="Capa_1" enable-background="new 0 0 516.657 516.657" height="512" viewBox="0 0 516.657 516.657" width="512" xmlns="http://www.w3.org/2000/svg"><path d="m487.404 134.943c-15.433-17.093-35.591-28.433-57.82-32.747-1.316-18.283-8.667-35.487-21.202-49.247-14.773-16.219-34.978-25.713-56.893-26.734-12.913-.609-25.528 1.78-37.119 6.945-18.304-19.896-43.535-31.77-70.994-33.05-23.558-1.094-46.984 5.988-65.946 19.955-14.661 10.8-26.212 25.345-33.44 41.872-5.676-1.104-11.439-1.797-17.244-2.067-65.413-3.073-121.055 47.663-124.102 113.045-2.195 47.086 23.782 90.834 65.415 111.684 3.283 21.936 16.314 40.779 34.581 51.921-6.026 10.335-9.496 22.335-9.496 35.137 0 38.599 31.402 70 70 70 34.515 0 63.256-25.116 68.955-58.028.484.008.969.034 1.453.034 26.318-.002 51.089-11.993 67.49-32.025 12.71 8.537 27.546 13.48 43.141 14.207 20.277.945 40.235-5.432 56.186-17.958 12.872-10.109 22.491-23.686 27.768-38.969 47.64-8.597 83.961-49.271 86.262-98.604 1.298-27.885-8.288-54.652-26.995-75.371zm-324.261 276.714c-22.056 0-40-17.944-40-40s17.944-40 40-40 40 17.944 40 40-17.944 40-40 40zm321.286-202.739c-1.764 37.846-31.531 68.563-69.239 71.452-6.679.512-12.21 5.39-13.551 11.953-2.577 12.611-9.609 23.965-19.802 31.97-10.291 8.081-23.174 12.177-36.26 11.585-14.075-.656-27.196-6.64-36.946-16.85-3.354-3.512-8.201-5.18-13.006-4.484-4.806.698-8.976 3.68-11.191 8.002-10.204 19.906-31.213 32.08-53.528 31.056-.047-.002-.093-.007-.139-.009-7.987-29.869-35.272-51.936-67.624-51.936-14.568 0-28.108 4.478-39.324 12.123-15.443-6.575-26.302-21.777-26.565-39.435-.09-6.026-3.778-11.414-9.364-13.678-34.814-14.11-57.028-48.814-55.278-86.356 2.278-48.856 43.897-86.743 92.735-84.475 8.021.375 15.931 1.821 23.509 4.299 3.904 1.276 8.161.896 11.777-1.052s6.275-5.294 7.356-9.257c4.304-15.775 13.976-29.841 27.234-39.607 13.634-10.041 29.794-14.917 46.756-14.143 22.685 1.059 43.229 12.316 56.365 30.887 4.684 6.624 13.786 8.322 20.542 3.835 9.275-6.156 20.073-9.119 31.207-8.617 13.91.648 26.734 6.675 36.111 16.97 9.377 10.294 14.184 23.623 13.535 37.531-.043.925-.125 1.947-.25 3.125-.433 4.085.827 8.168 3.487 11.298s6.487 5.031 10.588 5.262c40.987 2.301 72.777 37.539 70.865 78.551z"/><path d="m52.143 416.657c-27.57 0-50 22.43-50 50s22.43 50 50 50 50-22.43 50-50-22.43-50-50-50zm0 70c-11.028 0-20-8.972-20-20s8.972-20 20-20 20 8.972 20 20-8.972 20-20 20z"/></svg>