<svg xmlns="http://www.w3.org/2000/svg" viewBox="0 0 332.28 24.38"><defs><style>.cls-1{fill:#231f20;}</style></defs><title>Asset 2Line2</title><g id="Layer_2" data-name="Layer 2"><g id="Layer_8" data-name="Layer 8"><path class="cls-1" d="M169,7.44l-2.84-4.92L163.3,7.44l-2.85,4.93,2.85,4.92,2.84,4.92L169,17.29l2.84-4.92Zm-1.48,7.29-1.36,2.36-1.37-2.36-1.36-2.36L164.77,10l1.37-2.36L167.5,10l1.37,2.37Z"/><circle class="cls-1" cx="141.12" cy="12.37" r="3.26"/><polygon class="cls-1" points="141.12 14.46 0 12.37 141.12 10.27 141.12 14.46"/><path class="cls-1" d="M143.14,9.94l1.29.4a19.71,19.71,0,0,0,3.27.72,9.82,9.82,0,0,0,2.1,0,6.59,6.59,0,0,0,2.17-.64c.17-.09.33-.18.5-.29a1.07,1.07,0,0,1,.2-.14l.28-.24a4.65,4.65,0,0,0,.77-.86,5.31,5.31,0,0,0,.88-2.36,4.57,4.57,0,0,0,0-1.28,3.79,3.79,0,0,0-.12-.62c-.08-.26-.15-.44-.22-.62a5.44,5.44,0,0,0-1.56-2A5.59,5.59,0,0,0,150.48.84a5.28,5.28,0,0,0-2.27,0,6,6,0,0,0-3.08,1.63,5.51,5.51,0,0,0-.65.77l-.2.3.17-.32a5.91,5.91,0,0,1,.57-.85,6.36,6.36,0,0,1,3-2.06A6.06,6.06,0,0,1,150.62,0a6.57,6.57,0,0,1,2.72,1,6.82,6.82,0,0,1,2.18,2.31c.14.26.27.53.36.74a5.53,5.53,0,0,1,.26.82,6.54,6.54,0,0,1,.21,1.7A7.28,7.28,0,0,1,155.5,10a6.94,6.94,0,0,1-1,1.44l-.25.26-.35.31c-.22.18-.44.35-.67.51a8.83,8.83,0,0,1-2.9,1.22,11.93,11.93,0,0,1-2.74.31,22.7,22.7,0,0,1-3.89-.4l-1.39-.27Z"/><path class="cls-1" d="M152.85,11.46l.27.79a8.75,8.75,0,0,0,.32.83,8.31,8.31,0,0,0,.45,1c.17.39.39.79.63,1.22s.53.86.81,1.32.63.9,1,1.33.76.87,1.15,1.31.82.83,1.27,1.2.89.73,1.32,1.07.9.64,1.34.9.85.52,1.26.72.77.39,1.11.54a8.69,8.69,0,0,0,.88.36l.78.3-.82-.15c-.27,0-.59-.12-1-.21a11.48,11.48,0,0,1-1.21-.34,14.18,14.18,0,0,1-1.41-.5c-.51-.18-1-.43-1.55-.67s-1.06-.54-1.58-.87-1.06-.68-1.58-1-1-.76-1.49-1.18-.92-.84-1.35-1.26-.83-.86-1.17-1.3-.69-.84-1-1.24-.54-.77-.76-1.13-.41-.67-.53-.89l-.41-.73Z"/><circle class="cls-1" cx="191.16" cy="12.37" r="3.26"/><polygon class="cls-1" points="191.16 10.27 332.28 12.37 191.16 14.46 191.16 10.27"/><path class="cls-1" d="M190,13.33l-1.38.27a23,23,0,0,1-3.9.4,11.79,11.79,0,0,1-2.73-.31,8.74,8.74,0,0,1-2.9-1.22c-.23-.16-.46-.33-.68-.51l-.34-.31-.25-.26a6.59,6.59,0,0,1-1-1.44,7.28,7.28,0,0,1-.85-3.32,6.53,6.53,0,0,1,.2-1.7,7.13,7.13,0,0,1,.27-.82,7,7,0,0,1,.36-.74,6.73,6.73,0,0,1,2.18-2.31,6.52,6.52,0,0,1,2.72-1,6,6,0,0,1,2.54.24,6.35,6.35,0,0,1,3.06,2.06,5.91,5.91,0,0,1,.57.85l.17.32-.2-.3a7.4,7.4,0,0,0-.65-.77A6.08,6.08,0,0,0,184.07.81a5.28,5.28,0,0,0-2.27,0A5.52,5.52,0,0,0,179.59,2,5.34,5.34,0,0,0,178,4a4,4,0,0,0-.22.62,5.2,5.2,0,0,0-.13.62,5.48,5.48,0,0,0,0,1.28,5.32,5.32,0,0,0,.89,2.36,5,5,0,0,0,.76.86l.28.24a1.06,1.06,0,0,1,.21.14,5,5,0,0,0,.5.29,6.47,6.47,0,0,0,2.16.64,9.82,9.82,0,0,0,2.1,0,19.62,19.62,0,0,0,3.28-.72l1.29-.4Z"/><path class="cls-1" d="M182.61,12.88l-.4.73c-.12.22-.31.53-.53.89s-.47.74-.76,1.13-.61.82-1,1.24-.76.86-1.17,1.3-.87.86-1.36,1.26-1,.79-1.48,1.18-1,.72-1.58,1-1.07.6-1.59.87-1,.49-1.54.67-1,.37-1.41.5a11,11,0,0,1-1.22.34c-.36.09-.67.17-.94.21l-.82.15.78-.3a8.69,8.69,0,0,0,.88-.36c.34-.15.71-.32,1.11-.54s.82-.45,1.26-.72.87-.58,1.33-.9.9-.68,1.33-1.07.85-.8,1.27-1.2.8-.86,1.14-1.31.69-.9,1-1.33.59-.89.82-1.32.46-.83.63-1.22a10.16,10.16,0,0,0,.45-1,8.59,8.59,0,0,0,.31-.83l.27-.79Z"/></g></g></svg>