<svg xmlns="http://www.w3.org/2000/svg" viewBox="0 0 328.08 55.74"><defs><style>.cls-1{fill:#231f20;}</style></defs><title>Asset 1Line</title><g id="Layer_2" data-name="Layer 2"><g id="Layer_8" data-name="Layer 8"><path class="cls-1" d="M167.37,20.19,164,16.61l-3.33,3.58-3.33,3.58,3.33,3.57L164,30.92l3.33-3.58,3.33-3.57Zm-1.73,5.29L164,27.2l-1.6-1.72-1.6-1.71,1.6-1.72,1.6-1.72,1.6,1.72,1.6,1.72Z"/><line class="cls-1" x1="151.82" y1="23.77" y2="23.77"/><polygon class="cls-1" points="151.82 24.58 0 23.77 151.82 22.96 151.82 24.58"/><line class="cls-1" x1="176.26" y1="23.77" x2="328.08" y2="23.77"/><polygon class="cls-1" points="176.26 22.96 328.08 23.77 176.26 24.58 176.26 22.96"/><path class="cls-1" d="M55.38,52.13l-.56-.66a19.37,19.37,0,0,1-1.57-2.12,16.56,16.56,0,0,1-1-1.67,20.05,20.05,0,0,1-.95-2.11A22.34,22.34,0,0,1,50.08,40a25.25,25.25,0,0,1,.28-7,30.68,30.68,0,0,1,2.49-7.85,32.8,32.8,0,0,1,2.21-4A32,32,0,0,1,58,17.32a29.76,29.76,0,0,1,3.65-3.52,26.46,26.46,0,0,1,4.42-3c.38-.24.81-.41,1.22-.62l.31-.15.15-.07.11-.05.08,0,.63-.25,1.26-.5a11.18,11.18,0,0,1,1.3-.48c.91-.27,1.82-.56,2.75-.81l2.82-.61a45.31,45.31,0,0,1,12-.38,69.44,69.44,0,0,1,24.46,7.53c1,.51,2,1.05,3,1.57L119,17.67c1,.59,2,1.16,2.91,1.77s1.92,1.21,2.87,1.84c3.83,2.5,7.61,5.15,11.41,7.82,7.61,5.32,15.39,10.7,23.88,14.77a69.5,69.5,0,0,0,13.22,4.74,53.91,53.91,0,0,0,13.81,1.65,39.08,39.08,0,0,0,13.4-2.5,32.5,32.5,0,0,0,6-3,24.85,24.85,0,0,0,5-4.32,30.45,30.45,0,0,0,6.27-11.2A28,28,0,0,0,218.79,17a20,20,0,0,0-4.74-10.53,18.61,18.61,0,0,0-4.29-3.55,19.32,19.32,0,0,0-5-2c-6.84-1.73-13.86.28-17.86,4.4a15.15,15.15,0,0,0-4,6.86,18,18,0,0,0-.53,6.76,17.19,17.19,0,0,0,.55,2.87,17,17,0,0,0,.89,2.42,15.2,15.2,0,0,0,2.18,3.43,15.47,15.47,0,0,0,1.8,1.76l.7.52-.7-.52A15.84,15.84,0,0,1,186,27.6a15.1,15.1,0,0,1-2.19-3.42,16.27,16.27,0,0,1-.91-2.42,18.59,18.59,0,0,1-.57-2.88,17.93,17.93,0,0,1,.5-6.8,15.34,15.34,0,0,1,4-6.94c4-4.18,11.1-6.25,18-4.54a20.08,20.08,0,0,1,5.06,2,19.22,19.22,0,0,1,4.36,3.58,20.21,20.21,0,0,1,4.88,10.69,28.25,28.25,0,0,1-1,12.43,30.8,30.8,0,0,1-6.3,11.41,25.71,25.71,0,0,1-5.08,4.44,33.22,33.22,0,0,1-6.08,3.12,39.66,39.66,0,0,1-13.61,2.62,55.23,55.23,0,0,1-14-1.59,70.69,70.69,0,0,1-13.4-4.73c-8.58-4.06-16.44-9.43-24.07-14.71s-15.15-10.52-23-14.49A68.1,68.1,0,0,0,88.5,8.12a43.86,43.86,0,0,0-11.61.43l-2.72.6c-.89.24-1.74.52-2.6.78a10.45,10.45,0,0,0-1.28.48l-1.26.5-.63.26-.08,0,0,0-.14.07-.3.15c-.38.2-.78.36-1.15.59a25.22,25.22,0,0,0-4.18,2.85A27.8,27.8,0,0,0,59,18.26,30.27,30.27,0,0,0,56.27,22a29.73,29.73,0,0,0-2.08,3.81,29.21,29.21,0,0,0-2.34,7.48,24.14,24.14,0,0,0-.23,6.61A21.43,21.43,0,0,0,52.82,45c.31.71.57,1.37.89,1.94a14.81,14.81,0,0,0,.89,1.53,16.09,16.09,0,0,0,1.45,1.94l.56.65Z"/><circle class="cls-1" cx="57.38" cy="53.27" r="2.48"/><path class="cls-1" d="M268.76,51.07l.57-.65a17.23,17.23,0,0,0,1.45-1.94,16.88,16.88,0,0,0,.89-1.53,19.87,19.87,0,0,0,.88-1.94,21,21,0,0,0,1.21-5.16,24.14,24.14,0,0,0-.23-6.61A30.74,30.74,0,0,0,269.1,22a31.24,31.24,0,0,0-2.75-3.69,28.5,28.5,0,0,0-3.47-3.38A25.22,25.22,0,0,0,258.7,12c-.37-.23-.77-.39-1.16-.59l-.29-.15-.15-.07-.05,0-.07,0-.63-.26-1.26-.5a11.1,11.1,0,0,0-1.28-.48c-.86-.26-1.72-.54-2.6-.78l-2.72-.6a43.92,43.92,0,0,0-11.62-.43,68.16,68.16,0,0,0-24.08,7.28c-7.87,4-15.37,9.2-23,14.49S174.28,40.54,165.69,44.6a70.35,70.35,0,0,1-13.39,4.73,55.26,55.26,0,0,1-14,1.59,39.65,39.65,0,0,1-13.6-2.62,32.59,32.59,0,0,1-6.08-3.12,25.71,25.71,0,0,1-5.08-4.44,30.82,30.82,0,0,1-6.31-11.41,28.55,28.55,0,0,1-1-12.43,20.37,20.37,0,0,1,4.88-10.69,19.05,19.05,0,0,1,4.37-3.58,20.16,20.16,0,0,1,5.05-2c6.94-1.71,14,.36,18,4.54a15.37,15.37,0,0,1,4,6.94,18.13,18.13,0,0,1,.5,6.8,18.59,18.59,0,0,1-.57,2.88,17.46,17.46,0,0,1-.91,2.42,14.31,14.31,0,0,1-4,5.17l-.7.52.69-.52a14.65,14.65,0,0,0,1.81-1.76,15.2,15.2,0,0,0,2.18-3.43,18.32,18.32,0,0,0,.89-2.42,18.27,18.27,0,0,0,.55-2.87,17.77,17.77,0,0,0-.54-6.76,15,15,0,0,0-4-6.86c-4-4.12-11-6.13-17.87-4.4a19.61,19.61,0,0,0-5,2,18.78,18.78,0,0,0-4.28,3.55A20,20,0,0,0,106.58,17a28.06,28.06,0,0,0,1.08,12.25,30.43,30.43,0,0,0,6.26,11.2,25.19,25.19,0,0,0,5,4.32,32.73,32.73,0,0,0,6,3,39.18,39.18,0,0,0,13.41,2.5,54,54,0,0,0,13.81-1.65,69.74,69.74,0,0,0,13.22-4.74c8.49-4.07,16.27-9.45,23.87-14.77,3.81-2.67,7.59-5.32,11.41-7.82,1-.63,1.93-1.23,2.88-1.84s1.94-1.18,2.9-1.77L209.33,16l3-1.57a69.49,69.49,0,0,1,24.47-7.53,45.22,45.22,0,0,1,12,.38l2.83.61c.92.25,1.84.54,2.74.81a10,10,0,0,1,1.3.48l1.27.5.63.25.08,0,.1.05.16.07.31.15c.41.21.83.38,1.22.62a26.88,26.88,0,0,1,4.42,3,29,29,0,0,1,3.64,3.52,32.08,32.08,0,0,1,2.91,3.84A32.58,32.58,0,0,1,275,33a25.25,25.25,0,0,1,.28,7A22.34,22.34,0,0,1,274,45.57a22.34,22.34,0,0,1-.95,2.11,16.52,16.52,0,0,1-1,1.67,19.59,19.59,0,0,1-1.56,2.12l-.57.66Z"/><circle class="cls-1" cx="268" cy="53.27" r="2.48"/></g></g></svg>