<svg xmlns="http://www.w3.org/2000/svg" viewBox="0 0 1273.93 1957.02"><defs><style>.cls-1{fill:#fff;}.cls-2{fill:#000072;}.cls-3{fill:#66667c;}.cls-4{opacity:0.3;}.cls-5{fill:#ce7341;}.cls-6{opacity:0.55;}.cls-7{opacity:0.4;}</style></defs><title>TakewayMAN</title><g id="Layer_2" data-name="Layer 2"><g id="Layer_1-2" data-name="Layer 1"><path class="cls-1" d="M898.83,1925.43l-467.55,10.24A182.2,182.2,0,0,1,246,1771.44L111.48,411.11l1051.76-23-86.57,1366.7A182.2,182.2,0,0,1,898.83,1925.43Z"/><path class="cls-2" d="M396.8,1935.82c-80.57-13.64-145.19-80.28-153.48-164.12L108.54,408.51l1057.54-23.15L1079.33,1755c-6.11,96.59-83.69,171-180.45,173.13l0-2.66,0,2.66-467.54,10.24A182.84,182.84,0,0,1,396.8,1935.82ZM114.42,413.72,248.63,1771.17C257.8,1864,338,1935,431.22,1933l467.55-10.24c94-2,169.3-74.34,175.24-168.13l86.38-1363.81Z"/><path class="cls-3" d="M1235.06,386.52,39.66,412.69a17.93,17.93,0,0,1-18.19-20.12l18-146.27a67.77,67.77,0,0,1,65.77-59.45l1054.34-23.08a67.76,67.76,0,0,1,68.3,56.51l24.43,145.34A17.93,17.93,0,0,1,1235.06,386.52Z"/><g class="cls-4"><path class="cls-1" d="M110.43,410.13,176,408.7l26.74-225-65.16,1.42C127.54,258.56,117.37,339.19,110.43,410.13Z"/></g><g class="cls-4"><path class="cls-2" d="M1006.32,391.52l204.36-4.47a17.75,17.75,0,0,0,2.19-11.89l-24.43-145.34a67.73,67.73,0,0,0-68.29-56.48l-156,3.42h0a67.83,67.83,0,0,1,35.09,48.53l24.42,145.34A18,18,0,0,1,1006.32,391.52Z"/></g><polygon class="cls-5" points="1132.98 865.87 158.57 887.2 208.85 1395.89 1100.63 1376.36 1132.98 865.87"/><path class="cls-2" d="M206.44,1398.61l-50.81-514,980.19-21.45L1103.13,1379l-2.44,0ZM161.5,889.8l49.76,503.36,886.86-19.41,32-505.16Z"/><g class="cls-6"><path class="cls-1" d="M487.69,1934.41l-56.44,1.23A182.21,182.21,0,0,1,246,1771.47L111.48,411.11l56.44-1.23L302.41,1770.23A182.2,182.2,0,0,0,487.69,1934.41Z"/></g><path class="cls-3" d="M896.94,21.38,361.48,33.1A179.27,179.27,0,0,0,188.23,185h0l888.44-19.45h0A179.27,179.27,0,0,0,896.94,21.38Z"/><g class="cls-7"><path class="cls-1" d="M234.56,184A179.27,179.27,0,0,1,398.8,66.86L934.25,55.14a178.77,178.77,0,0,1,104.28,30.69A179.15,179.15,0,0,0,896.94,21.38L361.48,33.1A179.26,179.26,0,0,0,188.23,185h0Z"/></g><g class="cls-4"><path class="cls-2" d="M1037.92,166.46A179.17,179.17,0,0,0,861.8,37.08l-33.48.73h0A179.2,179.2,0,0,1,936.15,168.69l140.52-3.08h0Z"/></g><path class="cls-2" d="M393.71,1954.2c-88.68-15-159.82-88.34-169-180.62L88,390.29l1098-24-88,1389.88c-6.72,106.33-92.15,188.28-198.72,190.61L431.72,1957A200.08,200.08,0,0,1,393.71,1954.2ZM135,431.94,267.19,1769.37c8.25,83.1,80.1,146.75,163.59,145l467.55-10.24c84.23-1.84,151.75-66.6,157.07-150.64l85.08-1343.51Z"/><g class="cls-4"><path class="cls-2" d="M862.18,1864.7a182.15,182.15,0,0,0,176.5-170.56L1121.34,389,940,393,915.57,1739.23A181.56,181.56,0,0,1,862.18,1864.7Z"/></g><path class="cls-2" d="M32.7,433.48A39.28,39.28,0,0,1,.3,390l18-146.27c5.38-43.6,42.55-77.21,86.47-78.16l1054.34-23.09c43.93-1,82.53,31,89.81,74.31l24.43,145.34a39.27,39.27,0,0,1-37.86,45.76h0L40.13,434A39.07,39.07,0,0,1,32.7,433.48Zm1136-247.75a46.72,46.72,0,0,0-8.64-.63L105.75,208.18a46.68,46.68,0,0,0-45.06,40.73L43.13,391.27l1187.52-26-23.77-141.45A46.74,46.74,0,0,0,1168.73,185.73Z"/><path class="cls-2" d="M163.27,206.92l3.87-25.13A200.31,200.31,0,0,1,361,11.77L896.47.05a200.31,200.31,0,0,1,201.12,161.38l5,24.93ZM897.4,42.71,362,54.43A157.71,157.71,0,0,0,215.31,163.1l833.34-18.24A157.71,157.71,0,0,0,897.4,42.71Z"/><path class="cls-2" d="M191,1416,136.81,867.91l1017.24-22.26-34.86,550.07ZM180.32,906.48l46.39,469.25L1082.06,1357l29.84-470.93Z"/><path class="cls-1" d="M523.64,1234.85a66.47,66.47,0,0,0,14.11,12.32c45.89,29.76,121.3-1.27,168.39-69.28,35.1-50.54,44.68-107.39,28.48-145.4-18.84,3.32-67.78,17.07-80.61,72.49C645.74,1140.83,620.88,1248.07,523.64,1234.85Z"/><path class="cls-1" d="M506.74,1200.36a19.58,19.58,0,0,1,17.1-4.64c32.16,6,68.15-.9,91-99.45,13.18-57.13,55.69-85.25,91.23-96.87-46-27.15-119.64,4-166,70.79C509.43,1114.42,498.22,1163.33,506.74,1200.36Z"/></g></g></svg>